<svg width="19" height="24" viewBox="0 0 19 24" fill="none" xmlns="http://www.w3.org/2000/svg">
<path d="M9.49617 6.54734C10.6613 6.54734 11.6059 5.57055 11.6059 4.36576C11.6059 3.95638 11.4956 3.57033 11.3052 3.24128L9.49617 0L7.68712 3.24128C7.49669 3.56774 7.38644 3.95638 7.38644 4.36576C7.38644 5.57055 8.33106 6.54734 9.49617 6.54734Z" fill="url(#paint0_linear_175_815)"/>
<path d="M9.49617 6.54734C10.6613 6.54734 11.6059 5.57055 11.6059 4.36576C11.6059 3.95638 11.4956 3.57033 11.3052 3.24128L9.49617 0L7.68712 3.24128C7.49669 3.56774 7.38644 3.95638 7.38644 4.36576C7.38644 5.57055 8.33106 6.54734 9.49617 6.54734Z" fill="url(#paint1_linear_175_815)"/>
<path d="M15.8279 9.81971H10.5511V7.63813H8.44134V9.81971H3.16703C1.42062 9.81971 0.00244141 11.2862 0.00244141 13.0921V14.771C0.00244141 15.9499 0.932023 16.9086 2.06957 16.9086C2.62331 16.9086 3.13947 16.6857 3.53034 16.2816L5.7879 13.9523L8.04044 16.2764C8.82219 17.0847 10.1827 17.0847 10.962 16.2764L13.2195 13.9523L15.4721 16.2764C15.863 16.6806 16.3791 16.9034 16.9329 16.9034C18.0729 16.9034 19 15.9421 19 14.7658V13.0921C18.9925 11.2888 17.5743 9.81971 15.8279 9.81971Z" fill="url(#paint2_linear_175_815)"/>
<path d="M15.8279 9.81971H10.5511V7.63813H8.44134V9.81971H3.16703C1.42062 9.81971 0.00244141 11.2862 0.00244141 13.0921V14.771C0.00244141 15.9499 0.932023 16.9086 2.06957 16.9086C2.62331 16.9086 3.13947 16.6857 3.53034 16.2816L5.7879 13.9523L8.04044 16.2764C8.82219 17.0847 10.1827 17.0847 10.962 16.2764L13.2195 13.9523L15.4721 16.2764C15.863 16.6806 16.3791 16.9034 16.9329 16.9034C18.0729 16.9034 19 15.9421 19 14.7658V13.0921C18.9925 11.2888 17.5743 9.81971 15.8279 9.81971Z" fill="url(#paint3_linear_175_815)"/>
<path d="M14.3446 17.4397L13.2096 16.266L12.0695 17.4397C10.6914 18.8647 8.28606 18.8647 6.91048 17.4397L5.77543 16.266L4.63538 17.4397C3.95385 18.1548 3.04181 18.546 2.06713 18.546C1.30292 18.546 0.588819 18.2947 0 17.875V22.9092C0 23.5103 0.47356 24 1.05486 24H17.9352C18.5165 24 18.99 23.5103 18.99 22.9092V17.875C18.3987 18.2947 17.6921 18.546 16.9229 18.546C15.9482 18.5486 15.0362 18.1548 14.3446 17.4397Z" fill="url(#paint4_linear_175_815)"/>
<defs>
<linearGradient id="paint0_linear_175_815" x1="6.51297" y1="0.741424" x2="19.1253" y2="6.13702" gradientUnits="userSpaceOnUse">
<stop stop-color="#FFA14B"/>
<stop offset="1" stop-color="#FF8125"/>
</linearGradient>
<linearGradient id="paint1_linear_175_815" x1="6.51297" y1="0.741424" x2="11.5101" y2="6.62858" gradientUnits="userSpaceOnUse">
<stop stop-color="#FF4242"/>
<stop offset="1" stop-color="#FF427B"/>
</linearGradient>
<linearGradient id="paint2_linear_175_815" x1="-5.44004" y1="16.4279" x2="2.3492" y2="29.194" gradientUnits="userSpaceOnUse">
<stop stop-color="#FFA14B"/>
<stop offset="1" stop-color="#FF8125"/>
</linearGradient>
<linearGradient id="paint3_linear_175_815" x1="-3.93029" y1="8.68792" x2="-0.356674" y2="22.0754" gradientUnits="userSpaceOnUse">
<stop stop-color="#FF4242"/>
<stop offset="1" stop-color="#FF427B"/>
</linearGradient>
<linearGradient id="paint4_linear_175_815" x1="-3.93117" y1="17.1418" x2="-1.3917" y2="28.5406" gradientUnits="userSpaceOnUse">
<stop stop-color="#FF4242"/>
<stop offset="1" stop-color="#FF427B"/>
</linearGradient>
</defs>
</svg>
