<svg width="20" height="20" viewBox="0 0 20 20" fill="none" xmlns="http://www.w3.org/2000/svg">
<path d="M10.0013 4.00265L9.75593 3.86446C9.19681 3.54955 8.03519 3.03039 6.43154 3C5.35423 2.99913 4.13721 3.26187 2.87699 3.79044L2.87649 3.79065C2.74528 3.84552 2.62217 3.935 2.51656 4.05161C2.60002 3.98034 2.69523 3.9206 2.80165 3.87604C4.05844 3.3483 5.28912 3.06963 6.4286 3.07144L6.43685 3.07145L6.43685 3.07152C8.03897 3.10051 9.21506 3.6174 9.77797 3.92479L10.0013 4.04674L10.2246 3.92479C10.7874 3.61747 11.9635 3.10051 13.5628 3.07152L13.5709 3.07137V3.07144C14.6718 3.06918 15.9253 3.34041 17.2029 3.87645L17.2043 3.87706C17.3082 3.92104 17.4015 3.9797 17.4836 4.04958C17.3784 3.93401 17.256 3.84517 17.1256 3.79043L10.0013 4.00265ZM10.0013 4.00265L10.2467 3.86446M10.0013 4.00265L10.2467 3.86446M17.5001 15.9407C17.2713 16.0988 16.9882 16.1424 16.718 16.0501L16.7134 16.0485C13.9604 15.0778 11.7196 15.9786 10.707 16.5409L10.0383 16.9122V16.9486L10.0057 16.9304L9.96427 16.9534V16.9073L9.29473 16.5337C8.61954 16.157 7.37143 15.6137 5.7623 15.6137C5.01096 15.6137 4.18001 15.7326 3.29012 16.0463L17.5001 15.9407ZM17.5001 15.9407C17.485 15.9542 17.4695 15.9672 17.4535 15.9797L17.4478 15.9842L17.4422 15.9889C17.2261 16.1689 16.9821 16.2103 16.7485 16.1292C13.1869 14.8724 10.4902 16.6561 10.1002 16.9338L10.0665 16.9558C10.0534 16.9643 10.0431 16.971 10.0338 16.9768C10.0153 16.9882 10.0053 16.9933 9.99956 16.996C9.99475 16.9982 9.99294 16.9986 9.99222 16.9987L9.99221 16.9987C9.99156 16.9989 9.98785 16.9997 9.97964 16.9999C9.97429 16.9971 9.96521 16.9918 9.94973 16.9818C9.94012 16.9755 9.92972 16.9685 9.91621 16.9593L9.91013 16.9552C9.90095 16.949 9.89021 16.9417 9.87914 16.9343C9.63255 16.7572 6.86048 14.8465 3.22849 16.1299C2.99286 16.2106 2.74717 16.1682 2.53591 15.9919C2.49522 15.9576 2.45719 15.9196 2.4222 15.8781C2.42547 15.881 2.42876 15.8839 2.43208 15.8867L2.43205 15.8867L2.4376 15.8913C2.67435 16.0874 2.99035 16.152 3.28992 16.0463L17.5001 15.9407ZM10.2467 3.86446C10.8056 3.54965 11.9365 3.03216 13.583 3.00077M10.2467 3.86446L13.583 3.00077M13.583 3.00077C14.6403 3.02279 15.856 3.25778 17.1255 3.7904L13.583 3.00077ZM6.42781 3.57142L6.42781 3.57144L6.42781 3.57142Z" fill="white" stroke="white"/>
</svg>
