<svg width="27" height="24" viewBox="0 0 27 24" fill="none" xmlns="http://www.w3.org/2000/svg">
<g clip-path="url(#clip0_618_3973)">
<path d="M6.76406 1.50188C5.01094 1.46672 2.98594 1.9425 0.871875 2.87297C0.336562 3.10856 0 3.65438 0 4.23938V21.0019C0 21.5433 0.562031 21.9183 1.05234 21.6886C6.97266 18.9164 11.3555 22.2042 11.543 22.3453C11.6766 22.4484 11.8359 22.5 12 22.5C12.5812 22.5 12.75 21.9666 12.75 21.7509V3.75188C12.75 3.50798 12.6314 3.27938 12.4321 3.13875C12.3422 3.07406 10.1578 1.56328 6.76406 1.50188ZM26.1281 2.87297C24.0136 1.94531 21.9806 1.485 20.2359 1.50141C16.8403 1.56291 14.7 3.07406 14.5687 3.13828C14.3672 3.27938 14.25 3.50766 14.25 3.75188V21.7097C14.25 21.9562 14.4141 22.5 15 22.5C15.1633 22.5 15.3252 22.4473 15.4585 22.344C15.6425 22.2025 20.026 18.9146 25.9491 21.6877C26.4394 21.9172 27.0015 21.5422 27.0015 21.001L27.0015 4.23853C26.9578 3.65484 26.6625 3.10828 26.1281 2.87297Z" fill="black"/>
</g>
<defs>
<clipPath id="clip0_618_3973">
<rect width="27" height="24" fill="white"/>
</clipPath>
</defs>
</svg>
