<svg width="24" height="21" viewBox="0 0 24 21" fill="none" xmlns="http://www.w3.org/2000/svg">
<path d="M7.01015 3.50121C5.71161 3.47777 4.21169 3.79496 2.6458 4.41528C2.24929 4.57234 2 4.93622 2 5.32622V16.5012C2 16.8622 2.4163 17.1122 2.77947 16.9591C7.16465 15.1109 10.411 17.3028 10.5499 17.3969C10.6488 17.4656 10.7669 17.5 10.8884 17.5C11.3189 17.5 11.4439 17.1444 11.4439 17.0006V5.00122C11.4439 4.83862 11.3561 4.68621 11.2085 4.59246C11.1419 4.54934 9.5239 3.54215 7.01015 3.50121ZM21.3531 4.41528C19.7869 3.79684 18.2811 3.48996 16.9888 3.5009C14.4736 3.5419 12.8883 4.54934 12.7911 4.59215C12.6418 4.68621 12.555 4.8384 12.555 5.00122V16.9731C12.555 17.1375 12.6765 17.5 13.1105 17.5C13.2315 17.5 13.3514 17.4648 13.4501 17.396C13.5864 17.3017 16.8333 15.1097 21.2205 16.9585C21.5837 17.1115 22 16.8615 22 16.5007L22 5.32565C21.9677 4.93653 21.7489 4.57215 21.3531 4.41528Z" fill="#162231"/>
</svg>
