<svg width="24" height="24" viewBox="0 0 24 24" fill="none" xmlns="http://www.w3.org/2000/svg">
<path d="M4.79167 12.5219L6.48417 13.3094C6.6575 13.3881 6.84375 13.4319 7.03 13.4319C7.19667 13.4319 7.36338 13.3989 7.52083 13.3317L8.05208 13.1075C8.43229 12.9489 8.71875 12.621 8.83333 12.2106L9.21667 10.8725C9.29167 10.5706 9.47917 10.3212 9.74583 10.1856L10.6667 9.7V11.9041C10.6667 12.6969 10.2333 13.4231 9.55833 13.7775L7.17708 15.0331C6.04667 15.6281 5.33333 16.8356 5.33333 18.1656V18.8H18.6625L18.6608 10.4C18.6608 5.80188 15.0845 2 10.6691 2H4.5C4.22396 2 4 2.23538 4 2.525C4 2.63984 4.02604 2.75469 4.07292 2.85859L4.66667 4.1L4.29167 4.49375C4.10417 4.69062 4 4.95837 4 5.2375V11.24C4 11.7956 4.3125 12.2987 4.79167 12.5219ZM6.16667 6.2C6.625 6.2 7 6.59375 7 7.075C7 7.55625 6.625 7.95 6.16667 7.95C5.70833 7.95 5.33333 7.55625 5.33333 7.075C5.33333 6.59375 5.70833 6.2 6.16667 6.2ZM18 20.2H5.9625C4.89542 20.2 4 21.1406 4 22.2606C4 22.685 4.29846 23 4.66667 23H19.3333C19.7015 23 20 22.6866 20 22.3C20 21.1406 19.1042 20.2 18 20.2Z" fill="#E42313"/>
</svg>
