<svg width="18" height="24" viewBox="0 0 18 24" fill="none" xmlns="http://www.w3.org/2000/svg">
<path d="M0.890625 12.7734L2.79469 13.6172C2.98969 13.7016 3.19922 13.7484 3.40875 13.7484C3.59625 13.7484 3.7838 13.7131 3.96094 13.6411L4.55859 13.4009C4.98633 13.231 5.30859 12.8797 5.4375 12.44L5.86875 11.0063C5.95312 10.6828 6.16406 10.4156 6.46406 10.2703L7.5 9.75V12.1116C7.5 12.9609 7.0125 13.7391 6.25312 14.1188L3.57422 15.4641C2.3025 16.1016 1.5 17.3953 1.5 18.8203V19.5H16.4953L16.4934 10.5C16.4934 5.57344 12.4701 1.5 7.50273 1.5H0.5625C0.251953 1.5 0 1.75219 0 2.0625C0 2.18555 0.0292969 2.30859 0.0820312 2.41992L0.75 3.75L0.328125 4.17188C0.117188 4.38281 0 4.66969 0 4.96875V11.4C0 11.9953 0.351562 12.5344 0.890625 12.7734ZM2.4375 6C2.95312 6 3.375 6.42188 3.375 6.9375C3.375 7.45312 2.95312 7.875 2.4375 7.875C1.92188 7.875 1.5 7.45312 1.5 6.9375C1.5 6.42188 1.92188 6 2.4375 6ZM15.75 21H2.20781C1.00734 21 0 22.0078 0 23.2078C0 23.6625 0.335766 24 0.75 24H17.25C17.6642 24 18 23.6642 18 23.25C18 22.0078 16.9922 21 15.75 21Z" fill="black"/>
</svg>
