<svg width="24" height="24" viewBox="0 0 24 24" fill="none" xmlns="http://www.w3.org/2000/svg">
<path d="M2 12C2 6.47656 6.47656 2 12 2C17.5234 2 22 6.47656 22 12C22 17.5234 17.5234 22 12 22C6.47656 22 2 17.5234 2 12ZM12.8125 7.21875C12.8125 6.75391 12.4336 6.375 11.9688 6.375C11.5039 6.375 11.125 6.75391 11.125 7.21875V7.84766C10.8867 7.90234 10.6562 7.94141 10.4414 8.07031C9.73828 8.37109 9.07422 8.9375 8.91797 9.78906C8.75391 10.6914 9.14453 11.5039 9.90625 11.9922C10.4609 12.3477 11.1953 12.5547 11.7852 12.7227C11.8711 12.7461 11.9258 12.7695 12.0508 12.7969C12.5156 12.9219 13.0039 13.0195 13.3984 13.3242C13.8555 13.6367 13.6367 14.1914 13.168 14.3477C12.8203 14.5234 12.2891 14.582 11.625 14.4844C11.1719 14.4141 10.7188 14.2578 10.2773 14.1094C10.1797 14.0781 10.082 14.043 9.98438 14.0117C9.54297 13.8633 9.0625 14.1055 8.91797 14.5469C8.76953 14.9883 9.01172 15.4688 9.45312 15.6133C10.0039 15.793 10.5586 15.9766 11.125 16.1016V16.7812C11.125 17.2461 11.5039 17.625 11.9688 17.625C12.4336 17.625 12.8125 17.2461 12.8125 16.7812V16.1875C13.1602 16.1484 13.4922 16.0703 13.7969 15.9453C14.5312 15.6523 15.1367 15.0781 15.3008 14.2031C15.4648 13.2969 15.1094 12.4492 14.3516 11.9297C13.7695 11.5312 12.9922 11.3125 12.3828 11.1367C12.293 11.1133 12.1992 11.0859 12.1094 11.0273C11.6641 10.9414 11.1992 10.8164 10.8125 10.5703C10.3242 10.2578 10.6797 9.80469 11.1094 9.61719C11.5938 9.41016 12.1914 9.36328 12.707 9.46094C12.9844 9.51562 13.2578 9.59375 13.5312 9.66797C13.5898 9.6875 13.6523 9.70312 13.7109 9.71875C14.1602 9.84375 14.625 9.58203 14.75 9.13281C14.875 8.68359 14.6094 8.21875 14.1602 8.05859C14.0898 8.07422 14.0156 8.05078 13.9453 8.03125C13.5703 7.92578 13.1914 7.82031 12.8125 7.77344V7.21875Z" fill="#E42313"/>
</svg>
