<svg width="22" height="21" viewBox="0 0 22 21" fill="none" xmlns="http://www.w3.org/2000/svg">
<path d="M20.6929 20.6922C20.2825 21.1026 19.6186 21.1026 19.2078 20.6922L10.5013 11.9841L1.79286 20.6922C1.38251 21.1026 0.718577 21.1026 0.307765 20.6922C-0.102588 20.2819 -0.102588 19.618 0.307765 19.2072L9.01817 10.501L0.309077 1.79281C-0.101276 1.38246 -0.101276 0.718556 0.309077 0.307756C0.71943 -0.102585 1.38336 -0.102585 1.79417 0.307756L10.5013 9.0179L19.2097 0.309724C19.6201 -0.100617 20.284 -0.100617 20.6948 0.309724C21.1052 0.720065 21.1052 1.38397 20.6948 1.79477L11.9844 10.501L20.6929 19.2092C21.1063 19.616 21.1063 20.2854 20.6929 20.6922Z" fill="#17233D"/>
</svg>
