<svg width="24" height="24" viewBox="0 0 24 24" fill="none" xmlns="http://www.w3.org/2000/svg">
<path d="M18.3182 7.40508L14.4354 3.66094C13.9943 3.23703 13.4036 3 12.7839 3L7.33333 3C6.04453 3 5 4.00723 5 5.25L5.00024 18.75C5.00024 19.9928 6.04477 21 7.33357 21H16.6667C17.9555 21 19 19.9928 19 18.75V8.99414C19 8.39649 18.7557 7.82696 18.3182 7.40508ZM13.1667 4.19813C13.3299 4.25318 13.4826 4.33334 13.6085 4.45473L17.4914 8.19887C17.6182 8.31914 17.7021 8.4668 17.7568 8.625H13.75C13.4292 8.625 13.1667 8.37188 13.1667 8.0625V4.19813ZM17.8333 18.75C17.8333 19.3702 17.3098 19.875 16.6667 19.875H7.33333C6.69021 19.875 6.16667 19.3702 6.16667 18.75V5.25C6.16667 4.62985 6.69021 4.125 7.33333 4.125H12V8.0625C12 8.99414 12.7839 9.75 13.75 9.75H17.8333V18.75ZM8.5 12.5625C8.5 12.8719 8.7625 13.125 9.08333 13.125H14.9167C15.2375 13.125 15.5 12.8719 15.5 12.5625C15.5 12.2531 15.2375 12 14.9167 12H9.08333C8.7625 12 8.5 12.2531 8.5 12.5625ZM14.9167 14.25H9.08333C8.7625 14.25 8.5 14.5031 8.5 14.8125C8.5 15.1219 8.7625 15.375 9.08333 15.375H14.9167C15.2389 15.375 15.5 15.1231 15.5 14.8125C15.5 14.5019 15.2375 14.25 14.9167 14.25ZM14.9167 16.5H9.08333C8.7625 16.5 8.5 16.7531 8.5 17.0625C8.5 17.3719 8.7625 17.625 9.08333 17.625H14.9167C15.2389 17.625 15.5 17.3731 15.5 17.0625C15.5 16.7519 15.2375 16.5 14.9167 16.5Z" fill="#637381"/>
</svg>
