<svg width="24" height="24" viewBox="0 0 24 24" fill="none" xmlns="http://www.w3.org/2000/svg">
<path fill-rule="evenodd" clip-rule="evenodd" d="M12 22C17.5228 22 22 17.5228 22 12C22 6.47715 17.5228 2 12 2C6.47715 2 2 6.47715 2 12C2 17.5228 6.47715 22 12 22ZM9 11.5C9.82843 11.5 10.5 10.8284 10.5 10C10.5 9.17157 9.82843 8.5 9 8.5C8.17157 8.5 7.5 9.17157 7.5 10C7.5 10.8284 8.17157 11.5 9 11.5ZM17 10C17 10.8284 16.3284 11.5 15.5 11.5C14.6716 11.5 14 10.8284 14 10C14 9.17157 14.6716 8.5 15.5 8.5C16.3284 8.5 17 9.17157 17 10ZM8.60004 14.55C8.35152 14.2187 7.88141 14.1515 7.55004 14.4C7.21867 14.6486 7.15152 15.1187 7.40004 15.45C7.98284 16.2271 9.68064 17.75 12 17.75C14.3194 17.75 16.0172 16.2271 16.6 15.45C16.8486 15.1187 16.7814 14.6486 16.45 14.4C16.1187 14.1515 15.6486 14.2187 15.4 14.55C14.9828 15.1063 13.6806 16.25 12 16.25C10.3194 16.25 9.01725 15.1063 8.60004 14.55Z" fill="#232C34"/>
</svg>
