<svg width="24" height="24" viewBox="0 0 24 24" fill="none" xmlns="http://www.w3.org/2000/svg">
<path d="M3 23.25C3 23.6625 2.66016 24 2.25 24H0.75C0.339844 24 0 23.6625 0 23.25V1.5C0 0.667969 0.667969 0 1.5 0C2.33203 0 3 0.667969 3 1.5V23.25ZM22.3266 0C22.0282 0 21.7167 0.0632812 21.42 0.198422C19.2783 1.17623 17.6906 1.50811 16.3669 1.50811C13.5563 1.50811 11.9227 0.0146719 8.68406 0.0142031C7.54219 0.0143203 6.16875 0.228141 4.5 0.738281V17.168C6 16.7 7.30641 16.507 8.47734 16.507C11.9288 16.507 14.332 17.9967 17.7867 17.9967C19.2825 17.9967 20.9752 17.7168 22.9945 16.9144C23.6297 16.6828 24 16.1438 24 15.5672V1.44047C24 0.520313 23.2172 0 22.3266 0Z" fill="black"/>
</svg>
