<svg width="24" height="24" viewBox="0 0 24 24" fill="none" xmlns="http://www.w3.org/2000/svg">
<path d="M22 10.4492C22 10.21 21.9084 9.9707 21.7253 9.78789L20.8398 8.90625C20.6567 8.7232 20.4163 8.63172 20.2109 8.63172C20.0054 8.63172 19.73 8.72324 19.5819 8.90625L19.3622 9.12598L14.8747 4.70625L15.0944 4.48652C15.2775 4.3034 15.369 4.06309 15.369 3.85762C15.369 3.65215 15.2775 3.37676 15.0944 3.22871L14.2108 2.34512C14.027 2.09156 13.7887 2 13.5504 2C13.3121 2 13.0757 2.09156 12.8925 2.27465L8.02276 7.13672C7.84306 7.32031 7.7493 7.55859 7.7493 7.80078C7.7493 8.04297 7.84087 8.2793 8.02397 8.4625L8.9076 9.34609C9.09074 9.52922 9.33106 9.62074 9.53654 9.62074C9.77702 9.62074 10.0174 9.52918 10.1655 9.34609L10.3852 9.12637L14.8034 13.5443L14.5837 13.7639C14.4005 13.947 14.309 14.1873 14.309 14.3928C14.309 14.5983 14.4006 14.8737 14.5837 15.0217L15.4673 15.9053C15.6504 16.0884 15.8896 16.18 16.129 16.18C16.3685 16.18 16.6076 16.0884 16.7908 15.9053L21.6543 11.0381C21.9102 10.9258 22 10.6914 22 10.4492ZM10.8979 11.3008L8.61653 13.6172C8.37043 13.3711 8.0501 13.25 7.72977 13.25C7.40944 13.25 7.09302 13.3711 6.84692 13.6172L2.36623 18.0977C2.12208 18.3417 2 18.6613 2 18.9813C2 19.3012 2.12208 19.6207 2.36623 19.8648L4.13389 21.6324C4.37687 21.8789 4.69681 22 5.01675 22C5.33669 22 5.65623 21.8779 5.90039 21.6338L10.3811 17.1533C10.6252 16.9092 10.7473 16.5893 10.7473 16.2697C10.7473 15.95 10.6253 15.6303 10.3812 15.3861L12.6637 13.1037L10.8979 11.3008Z" fill="#E42313"/>
</svg>
