<svg width="12" height="12" viewBox="0 0 12 12" fill="none" xmlns="http://www.w3.org/2000/svg">
<path d="M5.99935 0.166748C2.77734 0.166748 0.166016 2.77808 0.166016 6.00008C0.166016 9.22209 2.77734 11.8334 5.99935 11.8334C9.22135 11.8334 11.8327 9.22209 11.8327 6.00008C11.8327 2.77808 9.22135 0.166748 5.99935 0.166748ZM5.99935 3.08341C6.40199 3.08341 6.72852 3.40994 6.72852 3.81258C6.72852 4.21522 6.40199 4.54175 5.99935 4.54175C5.59671 4.54175 5.27018 4.2159 5.27018 3.81258C5.27018 3.40926 5.59603 3.08341 5.99935 3.08341ZM6.91081 8.91675H5.08789C4.78711 8.91675 4.54102 8.67293 4.54102 8.36987C4.54102 8.06681 4.78597 7.823 5.08789 7.823H5.45247V6.36466H5.27018C4.96826 6.36466 4.72331 6.11971 4.72331 5.81779C4.72331 5.51587 4.9694 5.27091 5.27018 5.27091H5.99935C6.30127 5.27091 6.54622 5.51587 6.54622 5.81779V7.823H6.91081C7.21273 7.823 7.45768 8.06795 7.45768 8.36987C7.45768 8.67179 7.21387 8.91675 6.91081 8.91675Z" fill="#17233D"/>
</svg>
