<svg width="209" height="29" viewBox="0 0 209 29" fill="none" xmlns="http://www.w3.org/2000/svg">
<path d="M1.232 10V0.129999H2.394V10H1.232ZM4.85505 10V0.129999H5.76505L12.093 8.53H11.771V0.129999H12.849V10H11.953L5.62505 1.6H5.93305V10H4.85505ZM17.708 10V1.11H14.222V0.129999H22.342V1.11H18.87V10H17.708ZM23.7633 10V0.129999H30.0633V1.082H24.8973V4.512H29.7553V5.478H24.8973V9.034H30.0633V10H23.7633ZM31.9937 10V0.129999H36.0257C37.0617 0.129999 37.8644 0.377333 38.4337 0.872C39.0031 1.35733 39.2877 2.03867 39.2877 2.916C39.2877 3.49467 39.1571 3.98933 38.8957 4.4C38.6437 4.80133 38.2844 5.10933 37.8177 5.324C37.3604 5.53867 36.8237 5.646 36.2077 5.646L36.4597 5.464H36.7397C37.1224 5.464 37.4631 5.55733 37.7617 5.744C38.0697 5.93067 38.3124 6.24333 38.4897 6.682L39.8897 10H38.6157L37.2717 6.738C37.1131 6.318 36.8751 6.04733 36.5577 5.926C36.2404 5.79533 35.8437 5.73 35.3677 5.73H33.1557V10H31.9937ZM33.1557 4.82H35.8577C36.6044 4.82 37.1691 4.66133 37.5517 4.344C37.9437 4.01733 38.1397 3.55067 38.1397 2.944C38.1397 2.33733 37.9437 1.87533 37.5517 1.558C37.1691 1.24067 36.6044 1.082 35.8577 1.082H33.1557V4.82ZM41.6871 10V0.129999H42.5971L48.9251 8.53H48.6031V0.129999H49.6811V10H48.7851L42.4571 1.6H42.7651V10H41.6871ZM51.1661 10L55.5201 0.129999H56.5281L60.9521 10H59.7481L58.5161 7.186L59.0341 7.48H53.0001L53.5601 7.186L52.3561 10H51.1661ZM56.0101 1.46L53.7421 6.78L53.4061 6.528H58.6141L58.3621 6.78L56.0381 1.46H56.0101ZM63.7686 10V1.11H60.2826V0.129999H68.4026V1.11H64.9306V10H63.7686ZM69.8238 10V0.129999H70.9858V10H69.8238ZM73.0828 5.058C73.0828 4.01267 73.2602 3.11667 73.6148 2.37C73.9788 1.614 74.4968 1.03067 75.1688 0.62C75.8502 0.209333 76.6668 0.00399935 77.6188 0.00399935C78.5428 0.00399935 79.3455 0.209333 80.0268 0.62C80.7082 1.03067 81.2308 1.614 81.5948 2.37C81.9682 3.11667 82.1548 4.008 82.1548 5.044C82.1548 6.08933 81.9682 6.99 81.5948 7.746C81.2215 8.502 80.6942 9.09 80.0128 9.51C79.3408 9.92067 78.5428 10.126 77.6188 10.126C76.6668 10.126 75.8548 9.92067 75.1828 9.51C74.5108 9.09 73.9928 8.502 73.6288 7.746C73.2648 6.99 73.0828 6.094 73.0828 5.058ZM74.3008 5.058C74.3008 6.32733 74.5808 7.32133 75.1408 8.04C75.7008 8.74933 76.5268 9.104 77.6188 9.104C78.6642 9.104 79.4762 8.74933 80.0548 8.04C80.6428 7.32133 80.9368 6.32733 80.9368 5.058C80.9368 3.77933 80.6475 2.79 80.0688 2.09C79.4902 1.38067 78.6735 1.026 77.6188 1.026C76.5268 1.026 75.7008 1.38067 75.1408 2.09C74.5808 2.79 74.3008 3.77933 74.3008 5.058ZM84.2613 10V0.129999H85.1713L91.4993 8.53H91.1773V0.129999H92.2553V10H91.3593L85.0313 1.6H85.3393V10H84.2613ZM93.7403 10L98.0943 0.129999H99.1023L103.526 10H102.322L101.09 7.186L101.608 7.48H95.5743L96.1343 7.186L94.9303 10H93.7403ZM98.5843 1.46L96.3163 6.78L95.9803 6.528H101.188L100.936 6.78L98.6123 1.46H98.5843ZM105.015 10V0.129999H106.177V8.992H111.161V10H105.015ZM115.315 10L119.669 0.129999H120.677L125.101 10H123.897L122.665 7.186L123.183 7.48H117.149L117.709 7.186L116.505 10H115.315ZM120.159 1.46L117.891 6.78L117.555 6.528H122.763L122.511 6.78L120.187 1.46H120.159ZM129.727 10.126C128.934 10.126 128.225 10.0233 127.599 9.818C126.974 9.61267 126.428 9.31867 125.961 8.936L126.381 8.012C126.708 8.25467 127.035 8.46 127.361 8.628C127.697 8.78667 128.057 8.908 128.439 8.992C128.822 9.06667 129.251 9.104 129.727 9.104C130.558 9.104 131.174 8.95 131.575 8.642C131.977 8.334 132.177 7.92333 132.177 7.41C132.177 6.97133 132.037 6.63533 131.757 6.402C131.477 6.16867 130.987 5.982 130.287 5.842L128.817 5.548C127.912 5.36133 127.235 5.058 126.787 4.638C126.349 4.218 126.129 3.64867 126.129 2.93C126.129 2.342 126.279 1.82867 126.577 1.39C126.885 0.951333 127.315 0.610666 127.865 0.368C128.416 0.125333 129.055 0.00399935 129.783 0.00399935C130.483 0.00399935 131.123 0.111333 131.701 0.325999C132.28 0.531333 132.775 0.834666 133.185 1.236L132.779 2.132C132.341 1.74 131.879 1.46 131.393 1.292C130.917 1.11467 130.376 1.026 129.769 1.026C129.004 1.026 128.397 1.194 127.949 1.53C127.511 1.85667 127.291 2.30467 127.291 2.874C127.291 3.33133 127.431 3.69067 127.711 3.952C127.991 4.204 128.453 4.39533 129.097 4.526L130.581 4.82C131.533 5.016 132.233 5.31 132.681 5.702C133.129 6.094 133.353 6.64467 133.353 7.354C133.353 7.89533 133.204 8.376 132.905 8.796C132.616 9.216 132.201 9.54267 131.659 9.776C131.118 10.0093 130.474 10.126 129.727 10.126ZM138.45 10.126C137.657 10.126 136.947 10.0233 136.322 9.818C135.697 9.61267 135.151 9.31867 134.684 8.936L135.104 8.012C135.431 8.25467 135.757 8.46 136.084 8.628C136.42 8.78667 136.779 8.908 137.162 8.992C137.545 9.06667 137.974 9.104 138.45 9.104C139.281 9.104 139.897 8.95 140.298 8.642C140.699 8.334 140.9 7.92333 140.9 7.41C140.9 6.97133 140.76 6.63533 140.48 6.402C140.2 6.16867 139.71 5.982 139.01 5.842L137.54 5.548C136.635 5.36133 135.958 5.058 135.51 4.638C135.071 4.218 134.852 3.64867 134.852 2.93C134.852 2.342 135.001 1.82867 135.3 1.39C135.608 0.951333 136.037 0.610666 136.588 0.368C137.139 0.125333 137.778 0.00399935 138.506 0.00399935C139.206 0.00399935 139.845 0.111333 140.424 0.325999C141.003 0.531333 141.497 0.834666 141.908 1.236L141.502 2.132C141.063 1.74 140.601 1.46 140.116 1.292C139.64 1.11467 139.099 1.026 138.492 1.026C137.727 1.026 137.12 1.194 136.672 1.53C136.233 1.85667 136.014 2.30467 136.014 2.874C136.014 3.33133 136.154 3.69067 136.434 3.952C136.714 4.204 137.176 4.39533 137.82 4.526L139.304 4.82C140.256 5.016 140.956 5.31 141.404 5.702C141.852 6.094 142.076 6.64467 142.076 7.354C142.076 7.89533 141.927 8.376 141.628 8.796C141.339 9.216 140.923 9.54267 140.382 9.776C139.841 10.0093 139.197 10.126 138.45 10.126ZM143.589 5.058C143.589 4.01267 143.766 3.11667 144.121 2.37C144.485 1.614 145.003 1.03067 145.675 0.62C146.356 0.209333 147.173 0.00399935 148.125 0.00399935C149.049 0.00399935 149.851 0.209333 150.533 0.62C151.214 1.03067 151.737 1.614 152.101 2.37C152.474 3.11667 152.661 4.008 152.661 5.044C152.661 6.08933 152.474 6.99 152.101 7.746C151.727 8.502 151.2 9.09 150.519 9.51C149.847 9.92067 149.049 10.126 148.125 10.126C147.173 10.126 146.361 9.92067 145.689 9.51C145.017 9.09 144.499 8.502 144.135 7.746C143.771 6.99 143.589 6.094 143.589 5.058ZM144.807 5.058C144.807 6.32733 145.087 7.32133 145.647 8.04C146.207 8.74933 147.033 9.104 148.125 9.104C149.17 9.104 149.982 8.74933 150.561 8.04C151.149 7.32133 151.443 6.32733 151.443 5.058C151.443 3.77933 151.153 2.79 150.575 2.09C149.996 1.38067 149.179 1.026 148.125 1.026C147.033 1.026 146.207 1.38067 145.647 2.09C145.087 2.79 144.807 3.77933 144.807 5.058ZM159.065 10.126C158.076 10.126 157.236 9.92067 156.545 9.51C155.854 9.09933 155.322 8.516 154.949 7.76C154.585 7.004 154.403 6.10333 154.403 5.058C154.403 4.01267 154.585 3.11667 154.949 2.37C155.322 1.614 155.854 1.03067 156.545 0.62C157.236 0.209333 158.076 0.00399935 159.065 0.00399935C159.765 0.00399935 160.39 0.111333 160.941 0.325999C161.492 0.540666 161.972 0.853333 162.383 1.264L161.949 2.188C161.501 1.796 161.058 1.51133 160.619 1.334C160.18 1.14733 159.667 1.054 159.079 1.054C157.95 1.054 157.091 1.404 156.503 2.104C155.915 2.804 155.621 3.78867 155.621 5.058C155.621 6.32733 155.915 7.31667 156.503 8.026C157.091 8.726 157.95 9.076 159.079 9.076C159.667 9.076 160.18 8.98733 160.619 8.81C161.058 8.62333 161.501 8.32933 161.949 7.928L162.383 8.866C161.972 9.26733 161.492 9.58 160.941 9.804C160.39 10.0187 159.765 10.126 159.065 10.126ZM164.337 10V0.129999H165.499V10H164.337ZM166.981 10L171.335 0.129999H172.343L176.767 10H175.563L174.331 7.186L174.849 7.48H168.815L169.375 7.186L168.171 10H166.981ZM171.825 1.46L169.557 6.78L169.221 6.528H174.429L174.177 6.78L171.853 1.46H171.825ZM179.583 10V1.11H176.097V0.129999H184.217V1.11H180.745V10H179.583ZM185.638 10V0.129999H186.8V10H185.638ZM188.897 5.058C188.897 4.01267 189.075 3.11667 189.429 2.37C189.793 1.614 190.311 1.03067 190.983 0.62C191.665 0.209333 192.481 0.00399935 193.433 0.00399935C194.357 0.00399935 195.16 0.209333 195.841 0.62C196.523 1.03067 197.045 1.614 197.409 2.37C197.783 3.11667 197.969 4.008 197.969 5.044C197.969 6.08933 197.783 6.99 197.409 7.746C197.036 8.502 196.509 9.09 195.827 9.51C195.155 9.92067 194.357 10.126 193.433 10.126C192.481 10.126 191.669 9.92067 190.997 9.51C190.325 9.09 189.807 8.502 189.443 7.746C189.079 6.99 188.897 6.094 188.897 5.058ZM190.115 5.058C190.115 6.32733 190.395 7.32133 190.955 8.04C191.515 8.74933 192.341 9.104 193.433 9.104C194.479 9.104 195.291 8.74933 195.869 8.04C196.457 7.32133 196.751 6.32733 196.751 5.058C196.751 3.77933 196.462 2.79 195.883 2.09C195.305 1.38067 194.488 1.026 193.433 1.026C192.341 1.026 191.515 1.38067 190.955 2.09C190.395 2.79 190.115 3.77933 190.115 5.058ZM200.076 10V0.129999H200.986L207.314 8.53H206.992V0.129999H208.07V10H207.174L200.846 1.6H201.154V10H200.076ZM0.77 23.058C0.77 22.022 0.956667 21.126 1.33 20.37C1.71267 19.614 2.25867 19.0307 2.968 18.62C3.67733 18.2 4.522 17.99 5.502 17.99C6.47267 17.99 7.31267 18.2 8.022 18.62C8.73133 19.0307 9.27733 19.614 9.66 20.37C10.052 21.126 10.248 22.0173 10.248 23.044C10.248 24.08 10.052 24.9807 9.66 25.746C9.27733 26.502 8.73133 27.09 8.022 27.51C7.31267 27.93 6.47267 28.14 5.502 28.14C4.522 28.14 3.67733 27.93 2.968 27.51C2.268 27.09 1.72667 26.502 1.344 25.746C0.961333 24.9807 0.77 24.0847 0.77 23.058ZM2.66 23.058C2.66 24.1687 2.898 25.0367 3.374 25.662C3.85 26.2873 4.55933 26.6 5.502 26.6C6.41667 26.6 7.12133 26.2873 7.616 25.662C8.11067 25.0367 8.358 24.1687 8.358 23.058C8.358 21.938 8.11067 21.07 7.616 20.454C7.13067 19.838 6.426 19.53 5.502 19.53C4.55933 19.53 3.85 19.838 3.374 20.454C2.898 21.07 2.66 21.938 2.66 23.058ZM12.1115 28V18.13H18.6215V19.544H13.9175V22.344H18.2995V23.758H13.9175V28H12.1115ZM26.373 28V23.338L26.751 24.416L22.509 18.13H24.595L27.507 22.61H27.115L30.027 18.13H32.043L27.815 24.416L28.179 23.338V28H26.373ZM31.8462 23.058C31.8462 22.022 32.0328 21.126 32.4062 20.37C32.7888 19.614 33.3348 19.0307 34.0442 18.62C34.7535 18.2 35.5982 17.99 36.5782 17.99C37.5488 17.99 38.3888 18.2 39.0982 18.62C39.8075 19.0307 40.3535 19.614 40.7362 20.37C41.1282 21.126 41.3242 22.0173 41.3242 23.044C41.3242 24.08 41.1282 24.9807 40.7362 25.746C40.3535 26.502 39.8075 27.09 39.0982 27.51C38.3888 27.93 37.5488 28.14 36.5782 28.14C35.5982 28.14 34.7535 27.93 34.0442 27.51C33.3442 27.09 32.8028 26.502 32.4202 25.746C32.0375 24.9807 31.8462 24.0847 31.8462 23.058ZM33.7362 23.058C33.7362 24.1687 33.9742 25.0367 34.4502 25.662C34.9262 26.2873 35.6355 26.6 36.5782 26.6C37.4928 26.6 38.1975 26.2873 38.6922 25.662C39.1868 25.0367 39.4342 24.1687 39.4342 23.058C39.4342 21.938 39.1868 21.07 38.6922 20.454C38.2068 19.838 37.5022 19.53 36.5782 19.53C35.6355 19.53 34.9262 19.838 34.4502 20.454C33.9742 21.07 33.7362 21.938 33.7362 23.058ZM47.3037 28.14C45.8944 28.14 44.8444 27.79 44.1537 27.09C43.4724 26.3807 43.1317 25.3353 43.1317 23.954V18.13H44.9377V23.94C44.9377 24.8173 45.1244 25.48 45.4977 25.928C45.8804 26.376 46.4824 26.6 47.3037 26.6C48.0877 26.6 48.6757 26.376 49.0677 25.928C49.469 25.48 49.6697 24.8173 49.6697 23.94V18.13H51.4477V23.954C51.4477 25.3353 51.0977 26.3807 50.3977 27.09C49.707 27.79 48.6757 28.14 47.3037 28.14ZM53.551 28V18.13H54.909L60.635 25.536H60.271V18.13H61.951V28H60.593L54.881 20.594H55.231V28H53.551ZM68.8793 28.14C67.7687 28.14 66.8353 27.9347 66.0793 27.524C65.3233 27.1133 64.754 26.53 64.3713 25.774C63.9887 25.018 63.7973 24.122 63.7973 23.086C63.7973 22.0407 64.0027 21.14 64.4133 20.384C64.824 19.6187 65.412 19.0307 66.1773 18.62C66.952 18.2 67.8807 17.99 68.9633 17.99C69.682 17.99 70.312 18.088 70.8533 18.284C71.3947 18.4707 71.8707 18.746 72.2813 19.11L71.6793 20.51C71.3807 20.2767 71.096 20.09 70.8253 19.95C70.5547 19.81 70.2747 19.712 69.9853 19.656C69.696 19.5907 69.36 19.558 68.9773 19.558C67.8947 19.558 67.0733 19.866 66.5133 20.482C65.9627 21.0887 65.6873 21.9613 65.6873 23.1C65.6873 24.2387 65.9487 25.1067 66.4713 25.704C67.0033 26.3013 67.834 26.6 68.9633 26.6C69.346 26.6 69.7287 26.5627 70.1113 26.488C70.5033 26.4133 70.886 26.306 71.2593 26.166L70.9233 26.922V23.968H68.6133V22.652H72.4213V27.398C71.964 27.6313 71.418 27.8133 70.7833 27.944C70.1487 28.0747 69.514 28.14 68.8793 28.14ZM78.3244 28V18.13H80.1304V26.474H84.7784V28H78.3244ZM84.8477 28L89.3137 18.13H90.8257L95.3477 28H93.5137L92.3097 25.228L93.0377 25.718H87.1157L87.8717 25.228L86.6677 28H84.8477ZM90.0557 20.062L88.0817 24.738L87.7177 24.304H92.4217L92.1277 24.738L90.1117 20.062H90.0557ZM98.3497 28L94.8637 18.13H96.7397L99.4277 26.222H98.8677L101.766 18.13H103.11L105.798 26.222H105.28L108.094 18.13H109.858L106.344 28H104.846L102.242 20.412H102.55L99.8477 28H98.3497ZM113.777 28V23.338L114.155 24.416L109.913 18.13H111.999L114.911 22.61H114.519L117.431 18.13H119.447L115.219 24.416L115.583 23.338V28H113.777ZM120.598 28V18.13H127.248V19.544H122.334V22.274H126.926V23.702H122.334V26.572H127.248V28H120.598ZM128.924 28V18.13H133.236C134.319 18.13 135.154 18.3867 135.742 18.9C136.339 19.4133 136.638 20.1273 136.638 21.042C136.638 21.6487 136.503 22.1667 136.232 22.596C135.971 23.0253 135.593 23.3567 135.098 23.59C134.603 23.814 134.02 23.926 133.348 23.926L133.544 23.66H134.02C134.412 23.66 134.762 23.7627 135.07 23.968C135.378 24.1733 135.63 24.486 135.826 24.906L137.268 28H135.28L133.824 24.794C133.693 24.4673 133.493 24.2527 133.222 24.15C132.961 24.0473 132.643 23.996 132.27 23.996H130.73V28H128.924ZM130.73 22.666H132.942C133.577 22.666 134.057 22.5353 134.384 22.274C134.72 22.0033 134.888 21.6113 134.888 21.098C134.888 20.5847 134.72 20.1973 134.384 19.936C134.057 19.6747 133.577 19.544 132.942 19.544H130.73V22.666ZM142.171 28.14C141.377 28.14 140.645 28.042 139.973 27.846C139.31 27.6407 138.741 27.3607 138.265 27.006L138.825 25.592C139.142 25.816 139.473 26.0073 139.819 26.166C140.164 26.3153 140.533 26.432 140.925 26.516C141.317 26.5907 141.732 26.628 142.171 26.628C142.908 26.628 143.44 26.5067 143.767 26.264C144.093 26.0213 144.257 25.704 144.257 25.312C144.257 24.9667 144.145 24.7053 143.921 24.528C143.697 24.3413 143.295 24.1873 142.717 24.066L141.135 23.744C140.229 23.5573 139.553 23.2447 139.105 22.806C138.657 22.3673 138.433 21.7793 138.433 21.042C138.433 20.426 138.596 19.8893 138.923 19.432C139.249 18.9747 139.707 18.62 140.295 18.368C140.883 18.116 141.569 17.99 142.353 17.99C143.053 17.99 143.701 18.0927 144.299 18.298C144.896 18.494 145.395 18.7787 145.797 19.152L145.237 20.496C144.835 20.16 144.397 19.9127 143.921 19.754C143.445 19.586 142.913 19.502 142.325 19.502C141.662 19.502 141.144 19.6327 140.771 19.894C140.407 20.146 140.225 20.496 140.225 20.944C140.225 21.2893 140.337 21.5647 140.561 21.77C140.794 21.9753 141.186 22.134 141.737 22.246L143.305 22.554C144.238 22.7407 144.929 23.0487 145.377 23.478C145.825 23.898 146.049 24.4673 146.049 25.186C146.049 25.774 145.89 26.292 145.573 26.74C145.255 27.1787 144.807 27.524 144.229 27.776C143.65 28.0187 142.964 28.14 142.171 28.14Z" fill="#162231"/>
</svg>
