<svg width="22" height="22" viewBox="0 0 22 22" fill="none" xmlns="http://www.w3.org/2000/svg">
<path d="M8.48167 17.3923C8.48561 17.5937 8.54415 17.7928 8.65053 17.962L9.18904 18.7898C9.35448 19.0436 9.73323 19.25 10.0288 19.25H11.9736C12.273 19.25 12.6473 19.0439 12.8127 18.7902L13.3513 17.9623C13.4537 17.7891 13.5122 17.594 13.5201 17.3926V16.1565L8.4816 16.1566L8.48167 17.3923ZM10.9836 2.75002C7.76953 2.75808 5.45352 5.39514 5.45352 8.39201C5.45352 9.76541 5.93878 11.0911 6.82485 12.1236C7.34855 12.7317 8.15963 14 8.47095 15.0715C8.47095 15.0795 8.47457 15.0879 8.47457 15.096L13.5257 15.096C13.5257 15.0879 13.5283 15.0795 13.5283 15.0715C13.8395 14 14.6504 12.7317 15.1744 12.1236C16.0605 11.0924 16.5457 9.7667 16.5457 8.39201C16.5452 5.283 14.0496 2.74196 10.9836 2.75002ZM10.9993 5.84338C9.6088 5.84338 8.47852 6.99927 8.47852 8.39233C8.47852 8.67832 8.254 8.90792 7.97435 8.90792C7.69469 8.90792 7.47018 8.67832 7.47018 8.39233C7.47333 6.42632 9.04885 4.81639 10.9993 4.8122C11.279 4.8122 11.5035 5.04183 11.5035 5.32779C11.5035 5.61375 11.2798 5.84338 10.9993 5.84338ZM4.44518 8.9366C4.44518 8.50963 4.10645 8.16321 3.68893 8.16321H1.67227C1.25475 8.16321 0.916016 8.50963 0.916016 8.9366C0.916016 9.36357 1.25475 9.70998 1.67227 9.70998H3.68893C4.10487 9.70998 4.44518 9.36518 4.44518 8.9366ZM20.3264 8.16321H18.3098C17.8923 8.16321 17.5535 8.50963 17.5535 8.9366C17.5535 9.36357 17.8923 9.70998 18.3098 9.70998H20.3264C20.7439 9.70998 21.0827 9.36357 21.0827 8.9366C21.0827 8.50963 20.7455 8.16321 20.3264 8.16321ZM5.04703 4.52992L3.2982 3.49874C3.06581 3.35373 2.77419 3.3497 2.53408 3.48665C2.29775 3.62764 2.15185 3.88559 2.15185 4.16337C2.15579 4.44533 2.30547 4.70312 2.54195 4.83621L4.29078 5.86723C4.52317 6.01224 4.8148 6.01627 5.05491 5.87931C5.29124 5.73833 5.43682 5.48038 5.43682 5.2026C5.43461 4.9208 5.28336 4.663 5.04703 4.52992ZM19.4567 13.0388L17.7079 12.0076C17.4755 11.8626 17.1842 11.8585 16.9438 11.9955C16.7075 12.1365 16.5619 12.3944 16.5619 12.6722C16.5658 12.9542 16.7155 13.212 16.952 13.345L18.7008 14.3762C19.0594 14.5817 19.5163 14.4528 19.7211 14.0862C19.9263 13.7219 19.8065 13.2547 19.4567 13.0388ZM4.29078 12.0076L2.54258 13.0388C2.30626 13.1717 2.15658 13.4296 2.15248 13.7116C2.15248 13.9895 2.29822 14.2475 2.53471 14.3883C2.77497 14.5253 3.06629 14.5212 3.29883 14.3762L5.04766 13.345C5.39806 13.1275 5.51622 12.6603 5.31156 12.2978C5.1069 11.9302 4.65 11.8013 4.29078 12.0076ZM17.3329 5.97196C17.4629 5.97196 17.5929 5.93571 17.7111 5.86723L19.4561 4.83605C19.8106 4.61854 19.925 4.15128 19.72 3.78876C19.5152 3.42237 19.0583 3.29315 18.6997 3.49874L16.9548 4.52992C16.6555 4.70312 16.5137 5.06162 16.6003 5.39998C16.6901 5.73833 16.9895 5.97196 17.3329 5.97196Z" fill="#E42313"/>
</svg>
