<svg width="14" height="20" viewBox="0 0 14 20" fill="none" xmlns="http://www.w3.org/2000/svg">
<path d="M9.77843 7.72615C9.77843 9.31294 8.53537 10.5982 7.00065 10.5982C5.46593 10.5982 4.22287 9.31294 4.22287 7.72615C4.22287 6.13936 5.46593 4.85413 7.00065 4.85413C8.53537 4.85413 9.77843 6.13936 9.77843 7.72615ZM7.00065 9.44936C7.92079 9.44936 8.66732 8.67751 8.66732 7.72615C8.66732 6.7748 7.92079 6.00294 7.00065 6.00294C6.08051 6.00294 5.33398 6.7748 5.33398 7.72615C5.33398 8.67751 6.08051 9.44936 7.00065 9.44936ZM13.6673 7.72615C13.6673 10.8638 9.60482 16.4499 7.82357 18.7547C7.39648 19.304 6.60482 19.304 6.17773 18.7547C4.36523 16.4499 0.333984 10.8638 0.333984 7.72615C0.333984 3.91929 3.31871 0.833313 7.00065 0.833313C10.6812 0.833313 13.6673 3.91929 13.6673 7.72615ZM7.00065 1.98212C3.93121 1.98212 1.4451 4.55257 1.4451 7.72615C1.4451 8.28619 1.63364 9.05446 2.0201 10.0022C2.39892 10.932 2.93121 11.9408 3.53329 12.9496C4.71593 14.9349 6.11871 16.834 7.00065 17.9792C7.8826 16.834 9.28537 14.9349 10.4694 12.9496C11.0701 11.9408 11.6013 10.932 11.9798 10.0022C12.3687 9.05446 12.5562 8.28619 12.5562 7.72615C12.5562 4.55257 10.0701 1.98212 7.00065 1.98212Z" fill="#637381"/>
</svg>
