<svg width="28" height="28" viewBox="0 0 28 28" fill="none" xmlns="http://www.w3.org/2000/svg">
<path d="M24.7636 18.6179C24.7705 18.6034 24.7765 18.5886 24.7814 18.5734C26.1638 15.2498 25.9168 11.1752 24.1213 8.06096C25.0798 6.86732 23.8347 5.15796 22.4731 5.81935C22.2338 5.56464 21.9826 5.32053 21.7222 5.08971C22.2333 3.6427 20.5278 2.45567 19.4656 3.5368C16.3784 1.91297 12.5386 1.93353 9.46845 3.59174C8.37629 2.38614 6.54209 3.6788 7.20334 5.19144C6.82463 5.53638 6.46617 5.90901 6.13566 6.30306C5.85029 6.6433 6.36728 7.10963 6.65069 6.77177C6.95818 6.40522 7.29133 6.05847 7.64323 5.73714C8.32372 6.24839 9.31042 5.98794 9.68374 5.20754C10.9157 5.57694 12.0922 6.1071 13.1886 6.78753C13.0968 7.13228 13.1343 7.51731 13.2917 7.83556C12.3894 8.64744 11.5769 9.56586 10.8712 10.5724C10.2198 10.3673 9.50182 10.7105 9.21855 11.3531C7.78202 11.3611 6.34102 11.5221 4.92623 11.8336C4.80131 11.5911 4.61191 11.3902 4.3823 11.2556C4.64811 10.1758 5.06913 9.14868 5.63622 8.19897C5.86219 7.82045 5.29181 7.42698 5.05549 7.82269C4.45256 8.83238 4.00473 9.92429 3.7215 11.0721C2.08331 11.1011 1.80829 13.4617 3.36783 13.9159C3.34485 17.2756 4.73939 20.5421 7.15761 22.7672C6.65315 24.1866 8.29084 25.3574 9.37161 24.3562C12.5257 26.1033 16.5119 26.1035 19.6662 24.3568C20.7655 25.4892 22.526 24.2241 21.9069 22.7437C23.1532 21.59 24.1214 20.1788 24.7636 18.6179V18.6179ZM24.3328 17.8213C23.3862 16.8417 22.3503 15.9531 21.2443 15.173C21.4014 14.6605 21.2649 14.0839 20.8981 13.7056C21.8281 12.0948 22.5582 10.3677 23.0722 8.56352C23.2434 8.56414 23.408 8.53123 23.5597 8.47167C25.1345 11.2421 25.4225 14.814 24.3328 17.8213ZM8.5971 21.8479C8.30931 18.9117 8.81431 15.9824 10.0642 13.3352C10.8406 13.5875 11.6799 13.0557 11.8307 12.2255C14.1886 12.5282 16.4595 13.2493 18.5906 14.3723C18.4881 14.7873 18.573 15.2449 18.8171 15.5901C16.4149 18.7602 13.244 21.1456 9.61489 22.5128C9.39499 22.1501 9.02518 21.8963 8.5971 21.8479ZM19.2309 14.7332C19.2309 14.3296 19.5438 14.0012 19.9285 14.0012C20.854 14.0413 20.8537 15.4252 19.9285 15.4652C19.5438 15.4652 19.2309 15.1369 19.2309 14.7332ZM23.7728 7.11917C23.7728 7.52282 23.4598 7.85118 23.0752 7.85118C22.1496 7.81105 22.1499 6.42716 23.0752 6.38717C23.4598 6.38717 23.7728 6.71553 23.7728 7.11917V7.11917ZM21.9505 6.28178C21.4779 6.97351 21.6973 7.97347 22.4098 8.38462C21.912 10.1249 21.2062 11.7909 20.3083 13.3448C20.1206 13.2886 19.9122 13.2746 19.7192 13.3054C18.7807 11.2178 17.4151 9.33756 15.7469 7.83565C15.9045 7.51721 15.9421 7.13285 15.8502 6.78763C16.9061 6.13232 18.0372 5.61589 19.2199 5.24877C19.613 6.03933 20.6676 6.26255 21.3223 5.67074C21.5392 5.86518 21.7493 6.06944 21.9505 6.28178V6.28178ZM13.8217 7.17431C13.8217 6.77067 14.1347 6.44231 14.5194 6.44231C15.4449 6.48244 15.4446 7.86628 14.5194 7.90627C14.1347 7.90627 13.8217 7.57791 13.8217 7.17431V7.17431ZM20.436 3.83182C20.8207 3.83182 21.1336 4.16019 21.1336 4.56383C21.0952 5.53491 19.7766 5.53467 19.7383 4.56383C19.7383 4.16019 20.0513 3.83182 20.436 3.83182ZM8.44746 5.29578C8.06278 5.29578 7.74983 4.96742 7.74983 4.56378C7.78822 3.59265 9.10689 3.59298 9.14514 4.56378C9.14514 4.96742 8.83214 5.29578 8.44746 5.29578ZM9.82773 4.50916C9.82417 4.41028 9.81113 4.31401 9.78943 4.22112C12.652 2.67917 16.228 2.65229 19.1126 4.1494C19.0756 4.27854 19.0553 4.41508 19.0546 4.55646C17.8105 4.93983 16.6209 5.48134 15.5103 6.16937C14.9765 5.59418 14.0624 5.59399 13.5284 6.16932C12.3711 5.45227 11.1288 4.8949 9.82773 4.50916V4.50916ZM13.7445 8.36947C14.2069 8.69821 14.8317 8.69826 15.2941 8.36952C16.8868 9.80195 18.1915 11.595 19.0902 13.5862C19.0293 13.6349 18.9724 13.6889 18.9201 13.7474C16.6733 12.5603 14.2756 11.8056 11.785 11.5019C11.7178 11.2899 11.6049 11.0995 11.4584 10.9437C12.1268 9.9979 12.8938 9.13406 13.7445 8.36947V8.36947ZM10.4737 11.2235C10.8583 11.2235 11.1713 11.5519 11.1713 11.9556C11.1329 12.9267 9.81423 12.9264 9.77598 11.9556C9.77602 11.5519 10.089 11.2235 10.4737 11.2235V11.2235ZM3.01138 12.5162C3.01138 12.1126 3.32433 11.7842 3.70901 11.7842C4.63448 11.8243 4.63421 13.2082 3.70901 13.2482C3.32438 13.2482 3.01138 12.9198 3.01138 12.5162V12.5162ZM4.0517 13.9156C4.0517 13.9156 5.09037 13.6796 5.09037 12.5256C5.09037 12.5256 7.75562 12.0818 9.09658 12.0663C9.12175 12.4113 9.26323 12.7228 9.48021 12.9577C8.14759 15.7504 7.61008 18.8465 7.91948 21.9491C7.78626 22.007 7.66361 22.086 7.55519 22.1822C5.32423 20.1004 4.0517 16.6123 4.0517 13.9156V13.9156ZM8.44746 24.0156C8.06278 24.0156 7.74983 23.6873 7.74983 23.2836C7.74983 22.88 8.06278 22.5516 8.44746 22.5516C8.82698 22.5516 9.14514 22.894 9.14514 23.2836C9.14514 23.6873 8.83214 24.0156 8.44746 24.0156ZM14.5194 24.9596C12.8597 24.9596 11.2185 24.5456 9.75163 23.7595C9.81118 23.5818 9.83744 23.3793 9.82586 23.1906C13.58 21.7811 16.8605 19.3178 19.3457 16.0424C19.5498 16.1421 19.7764 16.1879 20.0015 16.1756C20.1534 16.7629 20.2735 17.3621 20.3585 17.9613C20.4237 18.42 21.1004 18.3175 21.0351 17.8571C20.9448 17.2209 20.8169 16.5846 20.6545 15.9614C20.7363 15.9084 20.8122 15.8466 20.8814 15.7775C22.0226 16.5844 23.0865 17.5108 24.0503 18.536C23.4525 19.9124 22.5826 21.1587 21.4772 22.1884C21.3679 22.103 21.2461 22.0342 21.1153 21.9853C21.1825 21.3231 21.2117 20.6545 21.2019 19.9932C21.195 19.5278 20.5111 19.5388 20.5181 20.0042C20.5275 20.6398 20.4993 21.2826 20.4344 21.9191C19.6278 22.0527 19.1004 22.9238 19.3226 23.7402C17.8465 24.5388 16.1926 24.9596 14.5194 24.9596V24.9596ZM20.6513 24.0776C20.2666 24.0776 19.9537 23.7492 19.9537 23.3456C19.992 22.3744 21.3107 22.3748 21.349 23.3456C21.349 23.7492 21.036 24.0776 20.6513 24.0776Z" fill="#11A0DC"/>
</svg>
