<svg width="28" height="28" viewBox="0 0 28 28" fill="none" xmlns="http://www.w3.org/2000/svg">
<path d="M25.6673 14C25.6673 7.56703 20.4336 2.33334 14.0007 2.33334C10.7593 2.33334 8.06505 3.45608 5.76517 5.76567C5.61391 5.91733 5.61391 6.16352 5.76558 6.31478L7.95112 8.50032C7.95112 8.50032 7.95148 8.50073 7.95148 8.50109H7.95189L13.7257 14.2749C13.8778 14.427 14.1236 14.427 14.2756 14.2749C14.4276 14.1228 14.4277 13.8771 14.2756 13.725L13.1995 12.649C13.4258 12.5171 13.6915 12.4444 14.0007 12.4444C14.8586 12.4444 15.5562 13.1421 15.5562 13.9999C15.5562 14.8578 14.8585 15.5555 14.0007 15.5555C13.1427 15.5555 12.4451 14.8578 12.4451 13.9999C12.4451 13.7853 12.2709 13.611 12.0562 13.611C11.8416 13.611 11.6674 13.7853 11.6674 13.9999C11.6674 15.2868 12.7139 16.3333 14.0007 16.3333C15.2875 16.3333 16.334 15.2868 16.334 13.9999C16.334 12.7131 15.2875 11.6666 14.0007 11.6666C13.4777 11.6666 13.0133 11.8112 12.6349 12.0843L10.9891 10.4385C11.8307 9.72486 12.885 9.33325 14.0007 9.33325C16.574 9.33325 18.6674 11.4266 18.6674 13.9999C18.6674 16.0486 17.3514 17.8278 15.4291 18.4418C15.1907 17.8889 14.6404 17.5 14.0007 17.5C13.3605 17.5 12.8107 17.8889 12.5723 18.4423C10.65 17.8282 9.33398 16.0487 9.33398 14C9.33398 13.2926 9.49344 12.6066 9.80803 11.9619C9.90214 11.7686 9.82202 11.536 9.62916 11.4415C9.43547 11.347 9.20292 11.4279 9.10881 11.6208C8.74208 12.3729 8.55619 13.1732 8.55619 14C8.55619 16.4345 10.1502 18.5411 12.4614 19.2189C12.5446 19.999 13.1987 20.6111 14.0007 20.6111C14.8026 20.6111 15.4567 19.999 15.5395 19.2189C17.8506 18.541 19.4451 16.4341 19.4451 14C19.4451 10.9978 17.0029 8.55555 14.0006 8.55555C12.6772 8.55555 11.4285 9.02883 10.4392 9.88865L8.7903 8.23937C10.223 6.94086 12.055 6.22222 14.0007 6.22222C15.5873 6.22222 17.0966 6.69704 18.3927 7.58763C18.3204 7.76691 18.2784 7.96174 18.2784 8.16668C18.2784 9.02459 18.9761 9.72222 19.8339 9.72222C20.0389 9.72222 20.2341 9.6802 20.4134 9.60787C21.3039 10.9041 21.7784 12.4129 21.7784 14C21.7784 18.2886 18.2893 21.7778 14.0006 21.7778C9.71192 21.7778 6.22286 18.2887 6.22286 14C6.22286 12.4775 6.66619 11.0001 7.50542 9.72728C7.62363 9.54799 7.57423 9.30687 7.39458 9.18828C7.2153 9.06966 6.97422 9.11983 6.85596 9.29912C5.93274 10.6995 5.44511 12.3247 5.44511 14C5.44511 18.7176 9.28303 22.5555 14.0007 22.5555C18.7183 22.5555 22.5562 18.7176 22.5562 14C22.5562 12.2434 22.0277 10.5739 21.036 9.14203C21.2534 8.8741 21.3895 8.53769 21.3895 8.16668C21.3895 7.30877 20.6918 6.61114 19.834 6.61114C19.463 6.61114 19.1262 6.74726 18.8586 6.96501C17.4268 5.97293 15.7565 5.44447 14.0007 5.44447C11.847 5.44447 9.82048 6.24441 8.24042 7.68953L6.59428 6.04334C8.6791 4.0709 11.1061 3.11114 14.0007 3.11114C20.0051 3.11114 24.8895 7.99596 24.8895 14C24.8895 16.3563 24.1094 18.6554 22.7008 20.5322C22.4418 20.3401 22.1249 20.2222 21.7784 20.2222C20.9205 20.2222 20.2229 20.9199 20.2229 21.7778C20.2229 22.1242 20.3407 22.4412 20.5328 22.7002C18.656 24.1091 16.3581 24.8889 14.0007 24.8889C7.99619 24.8889 3.11178 20.0041 3.11178 14C3.11178 11.9413 3.69046 9.9365 4.78594 8.20209C4.90065 8.02048 4.84624 7.78013 4.66463 7.66542C4.48339 7.55108 4.24267 7.60513 4.12796 7.78674C2.95428 9.64561 2.33398 11.7942 2.33398 14C2.33398 20.433 7.56767 25.6667 14.0007 25.6667C16.593 25.6667 19.1188 24.7889 21.1577 23.2027C21.3483 23.2859 21.5579 23.3333 21.7784 23.3333C22.6363 23.3333 23.3339 22.6357 23.3339 21.7778C23.3339 21.5573 23.2865 21.3485 23.2033 21.1579C24.7896 19.1194 25.6673 16.5908 25.6673 14ZM14.0007 19.8333C13.5717 19.8333 13.2229 19.4845 13.2229 19.0556C13.2229 18.6266 13.5717 18.2778 14.0007 18.2778C14.4296 18.2778 14.7784 18.6266 14.7784 19.0556C14.7784 19.4845 14.4296 19.8333 14.0007 19.8333ZM19.834 7.38888C20.2629 7.38888 20.6118 7.7377 20.6118 8.16668C20.6118 8.37978 20.5251 8.57269 20.3862 8.71346C20.3497 8.72668 20.3131 8.73989 20.2808 8.76441C20.2521 8.78619 20.233 8.81459 20.2124 8.84179C20.1 8.90519 19.9717 8.94447 19.834 8.94447C19.4051 8.94447 19.0562 8.59565 19.0562 8.16668C19.0562 7.73774 19.4051 7.38888 19.834 7.38888ZM21.7784 22.5555C21.6641 22.5555 21.5568 22.5295 21.4592 22.4852C21.4564 22.4817 21.4556 22.4774 21.4529 22.4739C21.4016 22.4117 21.3335 22.3763 21.262 22.3545C21.1029 22.2122 21.0007 22.0076 21.0007 21.7778C21.0007 21.3489 21.3495 21 21.7784 21C22.2074 21 22.5562 21.3488 22.5562 21.7778C22.5562 22.2068 22.2074 22.5555 21.7784 22.5555Z" fill="#6DC4C4"/>
</svg>
