<svg width="24" height="26" viewBox="0 0 24 26" fill="none" xmlns="http://www.w3.org/2000/svg">
<path d="M7.325 7.01575C7.325 8.14539 6.46219 9.06299 5.4 9.06299C4.33678 9.06299 3.475 8.14539 3.475 7.01575C3.475 5.88501 4.33678 4.96851 5.4 4.96851C6.46219 4.96851 7.325 5.88501 7.325 7.01575ZM8.16375 10.975C7.14281 11.9401 6.5 13.3476 6.5 14.9123C6.5 16.1662 6.88156 17.3178 7.6 18.2208V19.0068C7.6 19.6538 7.10844 20.1766 6.5 20.1766H4.3C3.69259 20.1766 3.2 19.6538 3.2 19.0068V18.027C1.89925 17.369 1 15.9615 1 14.3273C1 12.0644 2.72356 10.2328 4.85 10.2328H5.95C6.74406 10.2328 7.53813 10.507 8.16375 10.975ZM3.2 12.7809C2.85763 13.1904 2.65 13.7351 2.65 14.3273C2.65 14.9196 2.85763 15.4643 3.2 15.8737V12.7809ZM16.4 19.0068V18.2208C17.0875 17.3178 17.5 16.1662 17.5 14.9123C17.5 13.3476 16.8572 11.9401 15.8363 10.975C16.4619 10.507 17.225 10.2328 18.05 10.2328H19.15C21.2778 10.2328 23 12.0644 23 14.3273C23 15.9615 22.0994 17.369 20.8 18.027V19.0068C20.8 19.6538 20.3084 20.1766 19.7 20.1766H17.5C16.8916 20.1766 16.4 19.6538 16.4 19.0068ZM20.8 15.8737C21.1128 15.4643 21.35 14.9196 21.35 14.3273C21.35 13.7351 21.1128 13.1904 20.8 12.7809V15.8737ZM20.525 7.01575C20.525 8.14539 19.6622 9.06299 18.6 9.06299C17.5378 9.06299 16.675 8.14539 16.675 7.01575C16.675 5.88501 17.5378 4.96851 18.6 4.96851C19.6622 4.96851 20.525 5.88501 20.525 7.01575ZM9.8 7.30821C9.8 6.01589 10.7866 4.96851 12 4.96851C13.2134 4.96851 14.2 6.01589 14.2 7.30821C14.2 8.59871 13.2134 9.64792 12 9.64792C10.7866 9.64792 9.8 8.59871 9.8 7.30821ZM16.4 14.9123C16.4 16.5464 15.4994 17.9539 14.2 18.6119V20.1766C14.2 20.8237 13.7084 21.3465 13.1 21.3465H10.9C10.2916 21.3465 9.8 20.8237 9.8 20.1766V18.6119C8.50063 17.9539 7.6 16.5464 7.6 14.9123C7.6 12.6493 9.32219 10.8178 11.45 10.8178H12.55C14.6778 10.8178 16.4 12.6493 16.4 14.9123ZM9.8 16.4587V13.3659C9.45625 13.7753 9.25 14.32 9.25 14.9123C9.25 15.5045 9.45625 16.0492 9.8 16.4587ZM14.2 13.3659V16.4587C14.5128 16.0456 14.75 15.5045 14.75 14.9123C14.75 14.32 14.5128 13.7753 14.2 13.3659Z" fill="#E42313"/>
</svg>
