<svg width="20" height="20" viewBox="0 0 20 20" fill="none" xmlns="http://www.w3.org/2000/svg">
<path d="M18.7617 12.5116L14.9258 10.867C14.0895 10.5045 13.1039 10.7456 12.5352 11.451L11.4633 12.7596C9.71406 11.7538 8.24883 10.2889 7.24453 8.57603L8.55508 7.50259C9.25469 6.9315 9.49609 5.95181 9.1418 5.11783L7.48828 1.2315C7.09141 0.32525 6.10781 -0.169282 5.14961 0.0522027L1.58516 0.874859C0.652344 1.08814 0 1.90728 0 2.86666C0 12.3159 7.68359 19.9995 17.1328 19.9995C18.0922 19.9995 18.9113 19.3475 19.0898 18.4163L19.9125 14.8483C20.1719 13.8866 19.6719 12.9022 18.7617 12.5116ZM18.1211 14.4256L17.2973 17.9963C17.279 18.0393 17.2149 18.1245 17.1325 18.1245C8.7184 18.1245 1.87465 11.2808 1.87465 2.8667C1.87465 2.7849 1.92531 2.72084 2.00527 2.70252L5.57324 1.87908C5.58545 1.87603 5.59827 1.8748 5.61047 1.8748C5.67821 1.8748 5.74168 1.9157 5.76856 1.97672L7.41465 5.81773C7.44395 5.88672 7.42442 5.96727 7.36582 6.01547L5.46094 7.54283C5.12402 7.81869 5.02148 8.29049 5.21312 8.68111C6.50258 11.3073 8.66078 13.4663 11.2873 14.7553C11.6428 14.947 12.1502 14.8444 12.4264 14.5075L13.9893 12.5985C14.0326 12.5436 14.1138 12.5228 14.1816 12.5546L18.0198 14.1987C18.0938 14.2655 18.1367 14.3475 18.1211 14.4256Z" fill="black"/>
</svg>
