<svg width="30" height="30" viewBox="0 0 30 30" fill="none" xmlns="http://www.w3.org/2000/svg">
<path d="M30 15C30 23.2852 23.2852 30 15 30C6.71484 30 0 23.2852 0 15C0 6.71484 6.71484 0 15 0C23.2852 0 30 6.71484 30 15ZM10.3125 9.84375V20.1562C10.3125 20.666 10.5879 21.1348 11.0332 21.3809C11.4727 21.6328 12.0176 21.6211 12.4512 21.3574L20.8887 16.2012C21.3047 15.9434 21.5625 15.4922 21.5625 15C21.5625 14.5078 21.3047 14.0566 20.8887 13.7988L12.4512 8.64258C12.0176 8.32617 11.4727 8.36719 11.0332 8.61914C10.5879 8.86523 10.3125 9.33398 10.3125 9.84375Z" fill="#17233D"/>
</svg>
