<svg width="24" height="24" viewBox="0 0 24 24" fill="none" xmlns="http://www.w3.org/2000/svg">
<path d="M14.5 5.75C14.5 5.05977 15.0586 4.5 15.75 4.5H17C17.6914 4.5 18.25 5.05977 18.25 5.75V7C18.25 7.69141 17.6914 8.25 17 8.25H15.75C15.0586 8.25 14.5 7.69141 14.5 7V5.75ZM17 5.75H15.75V7H17V5.75ZM12.625 4.5C13.3164 4.5 13.875 5.05977 13.875 5.75V7C13.875 7.69141 13.3164 8.25 12.625 8.25H11.375C10.6836 8.25 10.125 7.69141 10.125 7V5.75C10.125 5.05977 10.6836 4.5 11.375 4.5H12.625ZM11.375 7H12.625V5.75H11.375V7ZM10.125 10.75C10.125 10.0586 10.6836 9.5 11.375 9.5H12.625C13.3164 9.5 13.875 10.0586 13.875 10.75V12C13.875 12.6914 13.3164 13.25 12.625 13.25H11.375C10.6836 13.25 10.125 12.6914 10.125 12V10.75ZM12.625 10.75H11.375V12H12.625V10.75ZM17 9.5C17.6914 9.5 18.25 10.0586 18.25 10.75V12C18.25 12.6914 17.6914 13.25 17 13.25H15.75C15.0586 13.25 14.5 12.6914 14.5 12V10.75C14.5 10.0586 15.0586 9.5 15.75 9.5H17ZM15.75 12H17V10.75H15.75V12ZM5.75 5.75C5.75 5.05977 6.30859 4.5 7 4.5H8.25C8.94141 4.5 9.5 5.05977 9.5 5.75V7C9.5 7.69141 8.94141 8.25 8.25 8.25H7C6.30859 8.25 5.75 7.69141 5.75 7V5.75ZM8.25 5.75H7V7H8.25V5.75ZM8.25 9.5C8.94141 9.5 9.5 10.0586 9.5 10.75V12C9.5 12.6914 8.94141 13.25 8.25 13.25H7C6.30859 13.25 5.75 12.6914 5.75 12V10.75C5.75 10.0586 6.30859 9.5 7 9.5H8.25ZM7 12H8.25V10.75H7V12ZM8.78906 16.8398C8.53125 16.6094 8.50781 16.2148 8.73828 15.957C9.53906 15.0625 10.7031 14.5 12 14.5C13.2969 14.5 14.4258 15.0625 15.2617 15.957C15.4922 16.2148 15.4688 16.6094 15.2109 16.8398C14.9531 17.0703 14.5586 17.0508 14.3281 16.793C13.7227 16.1523 12.9258 15.75 12 15.75C11.0742 15.75 10.2422 16.1523 9.67187 16.793C9.44141 17.0508 9.04688 17.0703 8.78906 16.8398ZM21.375 2C21.7188 2 22 2.27984 22 2.625C22 2.97031 21.7188 3.25 21.375 3.25H20.75V20.75H21.375C21.7188 20.75 22 21.0312 22 21.375C22 21.7188 21.7188 22 21.375 22H2.625C2.27984 22 2 21.7188 2 21.375C2 21.0312 2.27984 20.75 2.625 20.75H3.25V3.25H2.625C2.27984 3.25 2 2.97031 2 2.625C2 2.27984 2.27984 2 2.625 2H21.375ZM12 18.25C11.6562 18.25 11.375 18.5312 11.375 18.875V20.75H12.625V18.875C12.625 18.5312 12.3438 18.25 12 18.25ZM13.875 18.875V20.75H19.5V3.25H4.5V20.75H10.125V18.875C10.125 17.8398 10.9648 17 12 17C13.0352 17 13.875 17.8398 13.875 18.875Z" fill="#637381"/>
</svg>
