<svg width="24" height="24" viewBox="0 0 24 24" fill="none" xmlns="http://www.w3.org/2000/svg">
<path d="M13.1111 19.875C13.1563 19.875 13.2014 19.8715 13.2465 19.868C13.5208 20.1703 13.8229 20.4621 14.1597 20.7328C13.8472 20.9051 13.4896 21 13.1111 21H4.22222C2.99479 21 2 19.991 2 18.75V5.25C2 4.00723 2.99479 3 4.22222 3H9.64236C10.0833 3 10.5104 3.17779 10.8229 3.4943L14.8438 7.5668C15.1562 7.8832 15.3333 8.31562 15.3333 8.76211V10.2773L14.2222 10.7273V9.75H10.3333C9.41319 9.75 8.66667 8.99414 8.66667 8.0625V4.125H4.22222C3.60868 4.125 3.11111 4.62879 3.11111 5.25V18.75C3.11111 19.3723 3.60868 19.875 4.22222 19.875H13.1111ZM14.059 8.36484L10.0347 4.28988C9.96528 4.21711 9.875 4.16648 9.74653 4.14188V8.0625C9.74653 8.37187 10.0278 8.625 10.3021 8.625H14.2049C14.1806 8.52656 14.1319 8.43516 14.059 8.36484ZM21.4757 12.6223C21.7917 12.7523 22 13.0617 22 13.4062C22 15.6316 21.1007 19.3406 17.3194 20.9367C17.1146 21.0211 16.8854 21.0211 16.6806 20.9367C12.8993 19.3406 11.9688 15.6316 11.9688 13.4062C11.9688 13.0617 12.1771 12.7523 12.5243 12.6223L16.691 10.9348C16.8889 10.8539 17.1111 10.8539 17.309 10.9348L21.4757 12.6223ZM16.4444 19.5727V12.2461L13.1146 13.5961C13.1597 15.4559 13.8958 18.1488 16.4444 19.5727ZM17.5556 12.2461V19.5727C20.1042 18.1488 20.8403 15.4559 20.8854 13.5961L17.5556 12.2461Z" fill="#637381"/>
</svg>
