<svg width="24" height="24" viewBox="0 0 24 24" fill="none" xmlns="http://www.w3.org/2000/svg">
<path d="M12 8.25C12 7.55977 11.4402 7 10.75 7H10.125V5.75C10.125 5.05977 9.56523 4.5 8.875 4.5H4.5C3.11914 4.5 2 5.61914 2 7V12.625H5.125V11.375C5.125 10.6848 5.68477 10.125 6.375 10.125C7.06523 10.125 7.625 10.6848 7.625 11.375V12.625H10.125V9.5H10.75C11.4414 9.5 12 8.94141 12 8.25ZM2 19.5C2 20.8809 3.11914 22 4.5 22H10.125V18.875H8.875C8.18477 18.875 7.625 18.3152 7.625 17.625C7.625 16.9348 8.18477 16.375 8.875 16.375H10.125V13.875H2V19.5ZM18.25 13.875H16.375V15.125C16.375 15.8152 15.8152 16.375 15.125 16.375C14.4348 16.375 13.875 15.8152 13.875 15.125V13.875H11.375V22H17C18.3809 22 19.5 20.8809 19.5 19.5V15.125C19.5 14.4336 18.9414 13.875 18.25 13.875ZM19.5 2H15.125C14.4348 2 13.875 2.55977 13.875 3.25V5.125H15.125C15.8152 5.125 16.375 5.68477 16.375 6.375C16.375 7.06523 15.8152 7.625 15.125 7.625H13.875V10.125H16.375V10.75C16.375 11.4402 16.9348 12 17.625 12C18.3152 12 18.875 11.4402 18.875 10.75V10.125H20.75C21.4402 10.125 22 9.56523 22 8.875V4.5C22 3.11914 20.8789 2 19.5 2Z" fill="#E42313"/>
</svg>
