<svg width="20" height="16" viewBox="0 0 20 16" fill="none" xmlns="http://www.w3.org/2000/svg">
<path d="M13.8201 4.0693C13.8201 5.69334 11.4934 8.58745 10.4717 9.75342C10.2266 10.0657 9.77467 10.0657 9.52959 9.75342C8.50788 8.58745 6.18121 5.69334 6.18121 4.0693C6.18121 2.09816 7.89041 0.5 10.0007 0.5C12.1109 0.5 13.8201 2.09816 13.8201 4.0693ZM10.0007 5.02112C10.7041 5.02112 11.2738 4.4887 11.2738 3.83135C11.2738 3.1743 10.7041 2.64158 10.0007 2.64158C9.29724 2.64158 8.7275 3.1743 8.7275 3.83135C8.7275 4.4887 9.29724 5.02112 10.0007 5.02112ZM14.3803 5.84801C14.3962 5.81231 14.4121 5.77662 14.428 5.73795L18.1202 4.35782C18.623 4.17043 19.1673 4.51547 19.1673 5.02112V13.0758C19.1673 13.3673 18.9763 13.6291 18.6867 13.7391L14.0747 15.4613V6.46074C14.1861 6.2555 14.288 6.05324 14.3803 5.84801ZM5.62102 5.84801C5.71332 6.05324 5.81518 6.2555 5.92658 6.46074V13.9384L1.88147 15.4524C1.37985 15.613 0.833984 15.2948 0.833984 14.7891V6.73438C0.833984 6.44289 1.02416 6.15437 1.31428 6.07109L5.21361 4.61362C5.29 5.03599 5.44596 5.45538 5.62102 5.84801ZM11.2674 10.3483C11.7099 9.85753 12.4037 9.01576 13.0562 8.08477V15.5L6.9451 13.867V8.08477C7.59758 9.01576 8.29145 9.85753 8.73387 10.3483C9.38636 11.1365 10.6149 11.1365 11.2674 10.3483Z" fill="#17233D"/>
</svg>
