<svg width="18" height="18" viewBox="0 0 18 18" fill="none" xmlns="http://www.w3.org/2000/svg">
<path d="M3 4.95H4.33333M4.33333 4.95H15M4.33333 4.95V14.4C4.33333 14.758 4.47381 15.1014 4.72386 15.3546C4.97391 15.6078 5.31304 15.75 5.66667 15.75H12.3333C12.687 15.75 13.0261 15.6078 13.2761 15.3546C13.5262 15.1014 13.6667 14.758 13.6667 14.4V4.95H4.33333ZM6.33333 4.95V3.6C6.33333 3.24196 6.47381 2.89858 6.72386 2.64541C6.97391 2.39223 7.31304 2.25 7.66667 2.25H10.3333C10.687 2.25 11.0261 2.39223 11.2761 2.64541C11.5262 2.89858 11.6667 3.24196 11.6667 3.6V4.95M7.66667 8.325V12.375M10.3333 8.325V12.375" stroke="#162231" stroke-width="1.5" stroke-linecap="round" stroke-linejoin="round"/>
</svg>
