<svg width="17" height="17" viewBox="0 0 17 17" fill="none" xmlns="http://www.w3.org/2000/svg">
  <path d="M15.2525 5.03745C15.2633 5.18845 15.2633 5.3395 15.2633 5.4905C15.2633 10.0964 11.7576 15.4036 5.35025 15.4036C3.37626 15.4036 1.54252 14.8318 0 13.8395C0.280467 13.8718 0.550109 13.8826 0.841367 13.8826C2.47015 13.8826 3.96953 13.3325 5.16687 12.3941C3.63514 12.3617 2.35151 11.3585 1.90925 9.97781C2.125 10.0101 2.34072 10.0317 2.56727 10.0317C2.88007 10.0317 3.19291 9.98856 3.48414 9.91309C1.8877 9.58946 0.690326 8.1872 0.690326 6.49367V6.45054C1.15414 6.70942 1.69353 6.87122 2.26518 6.89277C1.32673 6.26712 0.711908 5.19925 0.711908 3.99112C0.711908 3.34392 0.884465 2.75065 1.18651 2.23288C2.90162 4.34709 5.47968 5.72777 8.37051 5.87881C8.31659 5.61993 8.28421 5.35029 8.28421 5.08061C8.28421 3.16054 9.83752 1.59647 11.7683 1.59647C12.7715 1.59647 13.6776 2.01716 14.314 2.69673C15.1014 2.54572 15.8565 2.25446 16.5253 1.85536C16.2664 2.66439 15.7163 3.34395 14.9936 3.7754C15.6947 3.69993 16.3743 3.50572 16.9999 3.23608C16.5254 3.9264 15.9321 4.54123 15.2525 5.03745Z" fill="#E42313"/>
</svg>
