<svg width="27" height="18" viewBox="0 0 27 18" fill="none" xmlns="http://www.w3.org/2000/svg">
<path d="M25.459 3.04917C25.3118 2.524 25.025 2.04854 24.6292 1.67334C24.2221 1.28659 23.7233 1.00994 23.1797 0.869503C21.1452 0.333253 12.9942 0.333253 12.9942 0.333253C9.59611 0.294592 6.19888 0.464634 2.82167 0.84242C2.27804 0.993234 1.78011 1.27606 1.37217 1.66575C0.971335 2.05142 0.681002 2.527 0.529335 3.04809C0.165003 5.01081 -0.012015 7.00371 0.000668615 8.99992C-0.0123314 10.9943 0.164252 12.9866 0.529335 14.9518C0.677752 15.4707 0.967002 15.9441 1.36892 16.3265C1.77084 16.7089 2.27134 16.9852 2.82167 17.1314C4.88325 17.6666 12.9942 17.6666 12.9942 17.6666C16.3966 17.7053 19.7981 17.5353 23.1797 17.1574C23.7233 17.017 24.2221 16.7403 24.6292 16.3536C25.0249 15.9785 25.3113 15.5029 25.4579 14.9778C25.8318 13.0158 26.0135 11.0221 26.0007 9.02484C26.0288 7.01916 25.8472 5.01603 25.459 3.04809V3.04917ZM10.4028 12.7093V5.29167L17.1845 9.00101L10.4028 12.7093Z" fill="#162231"/>
</svg>
