<svg width="86" height="27" viewBox="0 0 86 27" fill="none" xmlns="http://www.w3.org/2000/svg">
<path d="M17.5806 17.329C26.328 16.8861 34.7502 16.771 43.4976 16.771C48.3696 16.771 53.3249 16.6049 58.1969 16.771C67.2212 17.0478 76.1807 18.1041 85.205 19.0453C84.9835 20.374 84.6513 21.7581 84.0977 22.9761C83.7655 23.6405 83.378 24.3602 82.7136 24.6924C81.9385 25.0799 81.1081 25.3567 80.2776 25.5228C79.0596 25.7443 77.8416 25.855 76.6236 25.9104C73.1357 26.1318 69.5924 26.1872 66.1045 26.2979C63.0041 26.3533 59.9591 26.4087 56.8587 26.464C56.2497 26.464 55.6961 26.5194 55.0871 26.464C54.5335 26.5194 54.0352 26.464 53.4815 26.464C52.8725 26.5194 52.2635 26.464 51.6545 26.464C51.0455 26.5194 50.4365 26.464 49.7722 26.464C49.3293 26.464 48.831 26.5194 48.3881 26.464C47.1147 26.464 45.786 26.464 44.5126 26.464C43.35 26.464 42.1873 26.464 41.0247 26.464C39.5852 26.4087 38.0904 26.464 36.651 26.464C35.8205 26.4087 35.0454 26.464 34.215 26.464C33.8828 26.464 33.6059 26.464 33.2738 26.464C32.4987 26.464 31.7236 26.464 30.9485 26.464C30.4502 26.4087 30.0073 26.464 29.509 26.464C29.0661 26.4087 28.5678 26.464 28.1249 26.464C25.3567 26.4087 22.5886 26.3533 19.8204 26.2979C16.0003 26.1872 12.1802 26.1318 8.41544 25.855C7.36353 25.7997 6.25625 25.6889 5.20434 25.4675C4.37389 25.3014 3.59879 25.0799 2.87906 24.6924C2.54688 24.5263 2.27006 24.1941 2.04861 23.9173C1.71643 23.4744 1.49497 22.9207 1.27352 22.4225C0.830605 21.3706 0.60915 20.2079 0.387695 19.1006V19.0453C6.09016 18.4916 11.9334 17.6058 17.5806 17.329ZM25.6336 19.9865C25.1907 20.2633 24.9138 20.6508 24.7477 21.1491C24.5263 21.8135 24.637 22.5886 25.0246 23.1976C25.4121 23.6958 26.0211 24.028 26.6301 24.0834C27.3498 24.1387 28.0142 24.028 28.6786 23.7512C28.6786 23.1422 28.6786 22.5332 28.6786 21.8688C28.1803 21.8688 27.682 21.8688 27.1838 21.8688C27.1838 22.0349 27.1838 22.2564 27.1838 22.4225C27.4606 22.4225 27.7374 22.4225 28.0142 22.4225C28.0142 22.7546 28.0142 23.0315 28.0142 23.3636C27.2945 23.6405 26.4087 23.6405 25.7997 23.1422C25.0799 22.5886 25.0246 21.3706 25.6336 20.7062C25.9104 20.374 26.4087 20.1526 26.8516 20.1526C27.4606 20.1526 28.0142 20.3186 28.5125 20.5955C28.5125 20.374 28.5125 20.1525 28.5125 19.9865C28.2357 19.8757 27.9035 19.765 27.5713 19.6543C26.9623 19.4882 26.2426 19.5989 25.6336 19.9865ZM36.8724 20.0418C36.3741 20.4294 36.042 20.983 35.9312 21.6474C35.8759 22.1456 35.9866 22.6993 36.3188 23.1422C36.651 23.6405 37.26 24.028 37.869 24.0834C38.5887 24.1941 39.3084 24.0834 39.9174 23.6958C39.9174 23.4744 39.9174 23.2529 39.9174 23.0315C39.4745 23.3083 38.9209 23.5297 38.3672 23.5297C37.9243 23.5297 37.426 23.419 37.0939 23.0868C36.4295 22.4778 36.3741 21.2598 37.0939 20.6508C37.3707 20.3186 37.8136 20.2079 38.2565 20.1526C38.8655 20.0972 39.4191 20.3186 39.9174 20.5955C39.9174 20.374 39.9174 20.1525 39.9174 19.9311C39.6406 19.8204 39.3084 19.7096 39.0316 19.6543C38.2565 19.4882 37.4814 19.5989 36.8724 20.0418ZM21.8688 19.6543C21.2598 21.1491 20.5955 22.5886 19.9865 24.0834C20.2079 24.0834 20.4294 24.0834 20.5955 24.0834C20.7616 23.6405 20.983 23.1976 21.1491 22.7546C21.7581 22.7546 22.4225 22.7546 23.0315 22.7546C23.1976 23.1422 23.3637 23.5297 23.5851 23.9173C23.5851 23.9726 23.6405 24.028 23.6958 24.028C23.9173 24.028 24.0834 24.028 24.3048 24.028C23.6405 22.5332 22.9761 21.0937 22.3117 19.5989C22.1456 19.6543 22.0349 19.6543 21.8688 19.6543ZM29.9519 19.6543C29.9519 21.1491 29.9519 22.5886 29.9519 24.0834H30.5609C30.5609 23.419 30.5609 22.81 30.5609 22.1456C30.7824 22.1456 31.0592 22.1456 31.2807 22.2564C31.5021 22.4225 31.6682 22.5886 31.7789 22.81C32.0558 23.1976 32.3326 23.6405 32.6094 24.0834H33.3291C33.163 23.8619 32.9969 23.6405 32.8309 23.419C32.4987 22.9207 32.2219 22.3671 31.7236 21.9796C31.945 21.8688 32.1111 21.7581 32.2772 21.592C32.554 21.2045 32.554 20.5955 32.2772 20.2079C32.0558 19.9311 31.7236 19.765 31.3914 19.7096C30.8931 19.5989 30.3948 19.6543 29.9519 19.6543ZM34.1596 19.6543C34.1596 21.1491 34.1596 22.5886 34.1596 24.0834C34.381 24.0834 34.5471 24.0834 34.7686 24.0834C34.7686 22.5886 34.7686 21.1491 34.7686 19.6543C34.6025 19.6543 34.381 19.6543 34.1596 19.6543ZM40.9693 19.6543C40.9693 20.4847 40.9693 21.2598 40.9693 22.0903C40.9693 22.3671 40.9693 22.6439 41.0247 22.9207C41.1354 23.3083 41.4122 23.6958 41.7998 23.8619C42.2981 24.1387 42.8517 24.1387 43.35 24.0834C43.7929 24.028 44.1804 23.8066 44.4572 23.419C44.6787 23.0868 44.7894 22.6439 44.7894 22.2564C44.7894 21.3706 44.7894 20.5401 44.7894 19.6543C44.568 19.6543 44.4019 19.6543 44.1804 19.6543C44.1804 19.7096 44.1804 19.765 44.1804 19.765C44.1804 20.6508 44.1804 21.4813 44.1804 22.3671C44.1804 22.6993 44.1251 23.0315 43.9036 23.2529C43.6268 23.5297 43.2392 23.5851 42.8517 23.5851C42.4642 23.5851 42.0212 23.419 41.7998 23.0868C41.6337 22.8654 41.6337 22.5886 41.6337 22.3671C41.6337 21.4813 41.6337 20.5955 41.6337 19.6543C41.3569 19.6543 41.1354 19.6543 40.9693 19.6543ZM45.9521 19.6543C45.9521 21.1491 45.9521 22.5886 45.9521 24.0834C46.8379 24.0834 47.7237 24.0834 48.6095 24.0834V23.5297C47.9452 23.5297 47.2808 23.5297 46.6164 23.5297C46.6164 22.2564 46.6164 20.9276 46.6164 19.6543C46.395 19.6543 46.1735 19.6543 45.9521 19.6543ZM48.3881 19.6543C48.3881 19.8204 48.3881 20.0418 48.3881 20.2079H49.8829V24.0834C50.1043 24.0834 50.3258 24.0834 50.4919 24.0834C50.4919 22.81 50.4919 21.4813 50.4919 20.2079C50.9902 20.2079 51.4884 20.2079 52.0421 20.2079C52.0421 20.0418 52.0421 19.8204 52.0421 19.6543C50.8241 19.6543 49.6061 19.6543 48.3881 19.6543ZM52.9279 19.6543C52.9279 20.5955 52.9279 21.5366 52.9279 22.4778C52.9279 22.8654 53.094 23.3083 53.3708 23.5851C53.703 23.9173 54.0905 24.0834 54.5335 24.0834C54.9764 24.1387 55.4746 24.0834 55.8622 23.8619C56.2497 23.6958 56.5265 23.3083 56.6373 22.9207C56.748 22.5332 56.6926 22.0903 56.748 21.6474C56.748 20.983 56.748 20.2633 56.748 19.5989C56.5265 19.5989 56.3051 19.5989 56.139 19.5989C56.139 20.374 56.139 21.1491 56.139 21.9242C56.139 22.2564 56.1944 22.5886 56.0283 22.9207C55.9175 23.1976 55.5854 23.3636 55.2532 23.4744C54.8103 23.5851 54.312 23.5297 53.9798 23.2529C53.8137 23.1422 53.6476 22.9207 53.6476 22.7546C53.5923 22.4778 53.5923 22.1456 53.5923 21.8688V19.5989C53.3154 19.6543 53.094 19.6543 52.9279 19.6543ZM57.9106 19.6543C57.9106 21.1491 57.9106 22.5886 57.9106 24.0834C58.1321 24.0834 58.3535 24.0834 58.5196 24.0834V22.1456C58.6857 22.1456 58.9072 22.1456 59.0733 22.201C59.3501 22.3117 59.5715 22.5886 59.7376 22.8654C60.0145 23.2529 60.2913 23.6958 60.5681 24.0834C60.7896 24.0834 61.0664 24.0834 61.2878 24.0834C61.0664 23.7512 60.7896 23.419 60.6235 23.0868C60.402 22.6993 60.1252 22.2564 59.7376 21.9796C59.9037 21.9242 60.0698 21.8135 60.1806 21.7027C60.6235 21.2598 60.5681 20.4294 60.0698 20.0418C59.7376 19.765 59.3501 19.7096 58.9072 19.7096C58.6304 19.6543 58.2982 19.6543 57.9106 19.6543ZM62.1736 19.6543C62.1736 21.1491 62.1736 22.5886 62.1736 24.0834C63.0041 24.0834 63.8899 24.0834 64.7204 24.0834C64.7204 23.9173 64.7204 23.6958 64.7204 23.5297C64.056 23.5297 63.447 23.5297 62.7826 23.5297C62.7826 23.0868 62.7826 22.5886 62.7826 22.1456C63.3917 22.1456 64.0006 22.1456 64.6096 22.1456C64.6096 21.9796 64.6096 21.7581 64.6096 21.592C64.0006 21.592 63.3917 21.592 62.7826 21.592C62.7826 21.1491 62.7826 20.7062 62.7826 20.2633C63.3917 20.2633 64.056 20.2633 64.665 20.2633C64.665 20.0972 64.665 19.8757 64.665 19.7096C63.8346 19.6543 63.0041 19.6543 62.1736 19.6543ZM30.5609 20.2079C30.8931 20.2079 31.2807 20.1525 31.6129 20.374C31.945 20.6508 31.945 21.3152 31.5021 21.4813C31.2253 21.6474 30.8378 21.592 30.5609 21.592C30.5609 21.0937 30.5609 20.6508 30.5609 20.2079ZM58.575 20.2079C58.9072 20.2079 59.2394 20.1526 59.5162 20.3186C59.9037 20.4847 59.9591 21.1491 59.6269 21.4259C59.3501 21.7027 58.9072 21.592 58.5196 21.6474V20.2079H58.575ZM21.9242 20.8723C21.9796 20.7616 21.9796 20.7062 22.0349 20.5955C22.2564 21.1491 22.5332 21.6474 22.7547 22.201C22.3117 22.201 21.8135 22.201 21.3706 22.201C21.592 21.7581 21.7581 21.3152 21.9242 20.8723Z" fill="#1F4190"/>
<path d="M38.6439 0H47.0038C47.1146 0 47.2253 0.0553638 47.336 0.0553638C48.0004 0.0553638 48.6647 0.0553638 49.2737 0.0553638C49.9381 0.0553638 50.6578 0.0553638 51.3222 0.0553638C51.8758 0.0553638 52.4295 0.0553638 52.9831 0.0553638C53.7028 0.0553638 54.4779 0.0553638 55.1977 0.0553638C55.6959 0.110728 56.2496 0.0553638 56.7478 0.0553638C58.6856 0.0553638 60.568 0.110728 62.5057 0.166091C67.1562 0.276819 71.8622 0.387546 76.5127 0.609001C77.6753 0.664365 78.8934 0.719729 80.056 0.941184C80.7757 1.05191 81.5508 1.27337 82.2152 1.55018C82.5474 1.71628 82.8795 1.827 83.101 2.10382C83.4332 2.43601 83.71 2.87892 83.9315 3.32183C84.319 4.04155 84.5405 4.81665 84.7619 5.59174C85.3156 7.69556 85.537 9.91011 85.6477 12.1247C85.7031 14.4499 85.5924 16.7199 85.2048 18.9898C76.2359 18.1039 67.2116 17.5503 58.1873 17.2735C53.3153 17.1074 48.4987 17.052 43.6266 17.052C34.8792 17.052 26.1317 17.2181 17.4396 17.7164C11.7925 18.0486 6.09001 18.4915 0.44291 19.0451V19.1005C0.166091 17.2181 0 15.3358 0 13.4534C0 11.1835 0.166091 8.91356 0.609001 6.64365C0.830456 5.59174 1.10728 4.48446 1.60555 3.48792C1.88237 2.93428 2.21455 2.38064 2.65746 1.99309C2.98964 1.77164 3.37719 1.66091 3.70937 1.49482C4.87201 1.05191 6.09001 0.88582 7.25265 0.775092C9.68866 0.609001 12.1247 0.498274 14.5607 0.387546C18.9898 0.221455 23.4189 0.166091 27.848 0.110728C28.2909 0.110728 28.7338 0.110728 29.1767 0.110728C29.9518 0.110728 30.7269 0.110728 31.502 0.110728C32.2217 0.0553638 32.8861 0.110728 33.6058 0.0553638C34.3255 0.0553638 35.0453 0.0553638 35.765 0.0553638C36.6508 0.0553638 37.5366 0.0553638 38.3671 0.0553638C38.4778 0.0553638 38.5332 0 38.6439 0ZM11.5157 4.20764C10.8513 4.26301 10.2423 4.4291 9.63329 4.70592C9.52257 4.76128 9.35647 4.81665 9.30111 4.98274C9.24575 5.09346 9.30111 5.20419 9.35647 5.25956C10.2423 6.09001 11.0728 6.92047 11.9586 7.75093C12.0139 7.80629 12.1247 7.86165 12.18 7.80629C12.2908 7.75093 12.2908 7.6402 12.2908 7.52947C12.2908 6.53292 12.2908 5.48101 12.18 4.48446C12.18 4.37374 12.1247 4.26301 12.0139 4.20764C11.9032 4.09692 11.7371 4.15228 11.5157 4.20764ZM13.2319 4.20764C13.1212 4.26301 13.0658 4.37374 13.0658 4.48446C13.0105 5.48101 13.0105 6.53292 13.0105 7.52947C13.0105 7.6402 13.0658 7.80629 13.2319 7.75093C13.398 7.6402 13.4534 7.52947 13.6195 7.41874C14.3946 6.69901 15.1697 5.92392 15.9448 5.20419C16.0001 5.14883 16.1109 5.0381 16.0555 4.92737C16.0001 4.76128 15.834 4.70592 15.6679 4.65055C15.0036 4.37374 14.3392 4.20764 13.6195 4.15228C13.4534 4.15228 13.3427 4.15228 13.2319 4.20764ZM8.63675 5.53638C8.47065 5.59174 8.41529 5.75783 8.30456 5.86856C8.08311 6.2561 7.86165 6.64365 7.75093 7.08656C7.69556 7.30802 7.6402 7.52947 7.75093 7.69556C7.80629 7.86165 7.91702 7.97238 8.02774 8.08311C9.35647 9.35647 10.6852 10.6298 12.0139 11.9032C12.0693 12.0139 12.2908 11.9586 12.2908 11.8478C12.2908 11.5157 12.2908 11.1835 12.2908 10.8513C12.2908 10.2423 12.1247 9.63329 11.8478 9.07965C11.571 8.41529 11.1281 7.86165 10.6852 7.36338C10.1316 6.80974 9.52257 6.2561 8.96893 5.70247C8.8582 5.53638 8.74747 5.48101 8.63675 5.53638ZM16.4984 5.53638C16.3877 5.59174 16.3323 5.70247 16.2216 5.75783C15.834 6.14538 15.4465 6.53292 15.0589 6.92047C14.6714 7.30801 14.2838 7.69556 13.9517 8.13847C13.5641 8.69211 13.2873 9.30111 13.1766 9.96548C13.0658 10.4637 13.0658 11.0174 13.0658 11.571C13.0658 11.6818 13.0658 11.7925 13.0658 11.8478C13.1212 11.9586 13.2319 11.9586 13.3427 11.9032C14.7268 10.5745 16.0555 9.30111 17.4396 7.97238C17.5503 7.86165 17.661 7.69556 17.661 7.52947C17.661 7.25265 17.6057 6.97583 17.4949 6.69901C17.3842 6.31147 17.2181 5.97929 16.9413 5.70247C16.8306 5.53638 16.6645 5.42565 16.4984 5.53638ZM20.5953 7.19729C20.4846 7.19729 20.4846 7.30802 20.4846 7.36338C20.4846 9.24575 20.4846 11.1281 20.4846 13.0658C20.4846 13.1212 20.4846 13.2319 20.54 13.2319C21.0936 13.2319 21.7026 13.2319 22.2562 13.2319C22.3116 13.2319 22.367 13.1766 22.367 13.1212C22.367 12.18 22.367 11.1835 22.367 10.2423C22.7545 10.9067 23.1421 11.5157 23.4742 12.18C23.6957 12.5122 23.8618 12.8998 24.1386 13.2873C24.6369 13.2873 25.1351 13.2873 25.6334 13.2873C25.6888 13.2873 25.7441 13.2319 25.7441 13.1766C25.7441 11.2388 25.7441 9.35647 25.7441 7.41874C25.7441 7.36338 25.7441 7.25265 25.6888 7.25265C25.1351 7.25265 24.5815 7.25265 23.9725 7.25265C23.9171 7.25265 23.8064 7.30802 23.8618 7.36338C23.8618 8.30456 23.8618 9.30111 23.8618 10.2423C23.3081 9.24575 22.6991 8.30456 22.1455 7.30801C22.0901 7.19729 21.9794 7.25265 21.924 7.25265C21.5365 7.19729 21.0936 7.14192 20.5953 7.19729ZM26.9622 7.58483C26.63 7.97238 26.5192 8.52602 26.4639 9.02429C26.4085 9.74402 26.4085 10.4637 26.4639 11.1835C26.5192 11.6818 26.63 12.2354 26.9622 12.6783C27.1836 13.0105 27.5711 13.1212 27.9587 13.1212C28.8999 13.1212 29.8964 13.1212 30.8376 13.1212C30.893 13.1212 31.0037 13.1212 31.0037 13.0105C31.0037 12.6783 31.0037 12.4015 31.0037 12.0693C31.0037 12.0139 30.893 11.9586 30.8376 11.9586C30.1732 11.9586 29.5089 11.9586 28.8445 11.9586C28.6784 11.9586 28.5677 11.7925 28.5123 11.6818C28.4016 11.3496 28.3462 10.962 28.3462 10.5745C29.1213 10.5745 29.8411 10.5745 30.6162 10.5745C30.6715 10.5745 30.7822 10.5745 30.7822 10.5191C30.7822 10.2423 30.7822 9.91011 30.7822 9.63329C30.7822 9.57793 30.7822 9.4672 30.7269 9.4672C29.9518 9.4672 29.1767 9.4672 28.4016 9.4672C28.4016 9.07966 28.457 8.69211 28.5677 8.35993C28.6231 8.2492 28.7338 8.08311 28.8999 8.08311C29.5642 8.08311 30.284 8.08311 30.9483 8.08311C31.0037 8.08311 31.0591 8.02774 31.0591 7.97238C31.0037 7.75093 30.9483 7.47411 30.9483 7.25265C30.9483 7.19729 30.9483 7.08656 30.8376 7.08656C29.8964 7.08656 28.9552 7.08656 28.0141 7.08656C27.5711 7.14192 27.239 7.25265 26.9622 7.58483ZM31.3913 7.30801C31.7234 9.19038 32.0556 11.1281 32.3878 13.0105C32.3878 13.0658 32.4432 13.1766 32.4985 13.1212C33.1075 13.1212 33.7165 13.1212 34.3255 13.1212C34.3809 13.1212 34.547 13.1212 34.547 13.0105C34.7684 11.8478 34.9899 10.6298 35.2113 9.4672C35.4328 10.6298 35.6543 11.8478 35.8757 13.0105C35.8757 13.1212 35.9864 13.1212 36.0418 13.1212C36.6508 13.1212 37.2598 13.1212 37.9242 13.1212C37.9795 13.1212 38.0349 13.0105 38.0349 12.9551C38.3671 11.1835 38.6993 9.35647 38.9761 7.58483C38.9761 7.41874 39.0314 7.30801 39.0314 7.14192C38.9761 7.08656 38.9207 7.08656 38.81 7.08656C38.3117 7.08656 37.8134 7.08656 37.3152 7.08656C37.2598 7.08656 37.2044 7.14192 37.2044 7.19729C36.983 8.35993 36.8169 9.52256 36.6508 10.6852C36.4294 9.52256 36.2633 8.41529 36.0418 7.25265C36.0418 7.19729 36.0418 7.08656 35.9311 7.14192C35.4328 7.14192 34.8792 7.14192 34.3809 7.14192C34.3255 7.19729 34.3809 7.30801 34.3255 7.41874C34.1041 8.52602 33.938 9.63329 33.7165 10.7406C33.7165 10.6298 33.7165 10.5191 33.6612 10.4084C33.4951 9.35647 33.329 8.30456 33.1075 7.19729C33.1075 7.14192 33.0522 7.08656 32.9968 7.08656C32.4985 7.08656 31.9449 7.08656 31.4466 7.08656C31.3912 7.14192 31.3913 7.25265 31.3913 7.30801ZM41.3567 7.30801C41.3567 9.24575 41.3567 11.1281 41.3567 13.0658C41.3567 13.1212 41.3567 13.2319 41.4675 13.1766C42.0211 13.1766 42.5194 13.1766 43.073 13.1766C43.1284 13.1766 43.2945 13.1766 43.2945 13.0658C43.2945 12.2908 43.2945 11.5157 43.2945 10.6852C43.7927 10.6852 44.3464 10.6852 44.8446 10.6852C44.8446 11.4603 44.8446 12.2354 44.8446 13.0658C44.8446 13.1766 44.9554 13.1766 45.0107 13.1766C45.5644 13.1766 46.0626 13.1766 46.6163 13.1766C46.6716 13.1766 46.7824 13.1766 46.727 13.0658C46.727 11.1281 46.727 9.19038 46.727 7.25265C46.727 7.19729 46.6716 7.14192 46.6163 7.14192C46.0626 7.14192 45.509 7.14192 44.9554 7.14192C44.8446 7.14192 44.8446 7.19729 44.8446 7.30801C44.8446 8.02774 44.8446 8.80284 44.8446 9.57793C44.3464 9.57793 43.7927 9.57793 43.2945 9.57793C43.2945 8.80284 43.2945 8.08311 43.2945 7.30801C43.2945 7.19729 43.1837 7.19729 43.1284 7.19729C42.5747 7.19729 42.0211 7.19729 41.4675 7.19729C41.3567 7.14192 41.3567 7.25265 41.3567 7.30801ZM48.4433 7.19729C48.0557 7.25265 47.7789 7.52947 47.6128 7.91702C47.336 8.47065 47.2806 9.07965 47.2806 9.68866C47.2806 10.4084 47.2806 11.1281 47.3914 11.8478C47.5021 12.2354 47.6128 12.6783 47.945 12.9551C48.2218 13.1766 48.554 13.2319 48.8862 13.2319C49.4952 13.2319 50.0488 13.2319 50.6578 13.2319C50.99 13.2319 51.2668 13.2319 51.599 13.1766C51.9312 13.1212 52.2634 12.8444 52.4295 12.5676C52.7063 12.0693 52.7617 11.5157 52.817 11.0174C52.8724 10.2977 52.8724 9.63329 52.7617 8.91356C52.7063 8.47065 52.5956 7.97238 52.2634 7.6402C52.0419 7.36338 51.6544 7.25265 51.3222 7.25265C50.5471 7.25265 49.7167 7.25265 48.9416 7.25265C48.7201 7.14192 48.6094 7.14192 48.4433 7.19729ZM53.426 7.30801C53.426 9.24575 53.426 11.1281 53.426 13.0658C53.426 13.1766 53.4814 13.2319 53.5921 13.2319C54.644 13.2319 55.6959 13.2319 56.7478 13.2319C56.8032 13.2319 56.9139 13.2319 56.9139 13.1212C56.9139 12.789 56.9139 12.4568 56.9139 12.1247L56.8586 12.0693C56.3603 12.0693 55.862 12.0693 55.3638 12.0693C55.3638 10.4637 55.3638 8.91356 55.3638 7.30801C55.3638 7.25265 55.3084 7.14192 55.253 7.14192C54.6994 7.14192 54.1458 7.14192 53.5368 7.14192C53.426 7.14192 53.426 7.19729 53.426 7.30801ZM57.4122 7.30801C57.4122 9.24575 57.4122 11.1281 57.4122 13.0658C57.4122 13.1212 57.4676 13.2319 57.5229 13.1766C58.4641 13.1766 59.4607 13.1766 60.4019 13.1766C60.4572 13.1766 60.568 13.1766 60.568 13.1212C60.6787 12.789 60.734 12.5122 60.7894 12.18L60.734 12.1247C60.2358 12.1247 59.7375 12.1247 59.2392 12.1247C59.2392 10.5191 59.2392 8.91356 59.2392 7.30801C59.2392 7.19729 59.1285 7.19729 59.0178 7.19729C58.4641 7.19729 57.9659 7.19729 57.4122 7.19729C57.4122 7.14192 57.4122 7.25265 57.4122 7.30801ZM62.561 7.25265C62.0628 9.13502 61.5645 11.0174 61.0662 12.8998C61.0662 12.9551 61.0109 13.0105 61.0662 13.0658C61.1216 13.1212 61.2323 13.1212 61.2877 13.1212C61.7859 13.1212 62.2842 13.1212 62.7825 13.1212C62.8379 13.1212 62.8932 13.0105 62.8932 12.9551C63.004 12.5676 63.0593 12.2354 63.17 11.8478C63.7237 11.8478 64.222 11.8478 64.7756 11.8478C64.8863 12.2354 64.9417 12.6229 65.0524 13.0105C65.0524 13.1212 65.1631 13.1212 65.2185 13.1212C65.6614 13.1212 66.1597 13.1212 66.6026 13.1212C66.658 13.1212 66.7687 13.1212 66.8241 13.1212C66.8794 13.0658 66.8241 12.9551 66.8241 12.8998C66.3811 11.3496 65.9936 9.74402 65.5507 8.19384C65.44 7.86165 65.3846 7.47411 65.2739 7.14192C65.1631 7.14192 65.0524 7.14192 64.9417 7.14192C64.1666 7.14192 63.4469 7.14192 62.6718 7.14192C62.6164 7.14192 62.6164 7.19729 62.561 7.25265ZM67.2116 7.30801C67.2116 9.24575 67.2116 11.1281 67.2116 13.0658C67.2116 13.1212 67.267 13.2319 67.3223 13.1766C67.876 13.1766 68.3742 13.1766 68.9279 13.1766C68.9832 13.1766 69.094 13.1766 69.094 13.0658C69.094 12.0693 69.094 11.1281 69.094 10.1316C69.703 11.0728 70.2566 12.0693 70.8102 13.0658C70.8656 13.1212 70.8656 13.1766 70.9763 13.1766C71.4746 13.1766 71.9729 13.1766 72.4158 13.1766L72.4712 13.1212C72.4712 11.1835 72.4712 9.24575 72.4712 7.36338C72.4712 7.30802 72.4712 7.14192 72.3604 7.19729C71.8068 7.19729 71.1978 7.19729 70.6441 7.19729L70.5888 7.25265C70.5888 8.2492 70.5888 9.24575 70.5888 10.2423C69.9798 9.24575 69.4262 8.2492 68.8725 7.30801C68.8171 7.19729 68.7064 7.25265 68.6511 7.25265C68.2081 7.25265 67.7652 7.25265 67.3223 7.25265C67.2116 7.14192 67.2116 7.25265 67.2116 7.30801ZM73.357 7.14192C73.3016 7.19729 73.3016 7.25265 73.3016 7.30801C73.3016 9.19038 73.3016 11.0728 73.3016 12.9551C73.3016 13.0105 73.3016 13.0658 73.357 13.1212C73.4677 13.1212 73.5784 13.1212 73.6338 13.1212C74.4642 13.1212 75.2393 13.1212 76.0698 13.1212C76.4573 13.1212 76.8449 13.1212 77.1771 13.0658C77.5093 12.9551 77.8414 12.789 78.0629 12.5122C78.3397 12.18 78.5058 11.7371 78.5612 11.2942C78.6719 10.7959 78.6719 10.2423 78.6719 9.74402C78.6165 9.24575 78.5612 8.74747 78.3951 8.30456C78.229 7.97238 78.0075 7.6402 77.7307 7.41874C77.4539 7.25265 77.1217 7.14192 76.7895 7.14192C75.9037 7.14192 75.0179 7.14192 74.1321 7.14192C73.9106 7.14192 73.6338 7.14192 73.357 7.14192ZM7.69556 8.69211C7.6402 8.69211 7.58483 8.80284 7.58483 8.8582C7.52947 9.68866 7.52947 10.5191 7.6402 11.2942C7.75093 12.1247 8.08311 12.9551 8.69211 13.5641C9.41184 14.2838 10.4084 14.616 11.4049 14.7821C11.6264 14.7821 11.9032 14.8928 12.1247 14.8375C12.2908 14.7821 12.3461 14.616 12.2908 14.4499C12.18 13.5641 11.7371 12.789 11.2388 12.1247C10.7959 11.5157 10.2423 11.0728 9.74402 10.5745C9.13502 9.96548 8.52602 9.41184 7.91702 8.80284C7.86165 8.69211 7.75093 8.63674 7.69556 8.69211ZM17.4949 8.69211C17.3842 8.74747 17.3289 8.8582 17.2735 8.91356C16.4984 9.63329 15.7787 10.353 15.0036 11.0728C14.5053 11.571 14.0624 12.1247 13.6748 12.6783C13.3427 13.2319 13.0105 13.8963 13.0105 14.5607C13.0105 14.7821 13.2873 14.8375 13.4534 14.7821C14.2285 14.7268 14.9482 14.5607 15.6679 14.2285C16.3877 13.8963 16.9413 13.3427 17.3289 12.6229C17.661 12.0139 17.7164 11.2942 17.7718 10.6298C17.8271 10.0208 17.8271 9.41184 17.7718 8.74747C17.7164 8.69211 17.6057 8.63674 17.4949 8.69211ZM49.5506 8.13847C49.6613 8.08311 49.8274 8.13847 49.9381 8.08311C50.1042 8.08311 50.2703 8.08311 50.4917 8.08311C50.6578 8.13847 50.7132 8.35993 50.7686 8.52602C50.8793 9.02429 50.8793 9.52257 50.8793 10.0762C50.8793 10.5745 50.8793 11.1281 50.7132 11.6264C50.6578 11.7925 50.5471 12.0139 50.381 12.0139C50.1596 12.0139 49.8827 12.0139 49.6613 12.0139C49.4398 12.0139 49.3845 11.7925 49.3291 11.6264C49.2184 11.1835 49.163 10.7406 49.163 10.2423C49.163 9.68866 49.163 9.07965 49.2737 8.52602C49.3291 8.47065 49.3845 8.2492 49.5506 8.13847ZM75.2393 8.19384C75.5715 8.19384 75.8484 8.19384 76.1805 8.19384C76.402 8.19384 76.5127 8.41529 76.6234 8.58138C76.7895 8.96893 76.8449 9.41184 76.8449 9.85475C76.8449 10.353 76.7895 10.8513 76.6234 11.2942C76.5127 11.571 76.2913 11.8478 76.0144 12.0139C75.793 12.1247 75.5162 12.1247 75.2393 12.1247C75.2393 10.7959 75.2393 9.4672 75.2393 8.19384ZM63.4469 10.7406C63.613 9.96548 63.779 9.24575 64.0005 8.47065C64.1666 9.24575 64.3327 9.96548 64.5541 10.7406C64.1112 10.7406 63.779 10.7406 63.4469 10.7406Z" fill="#F3C120"/>
</svg>
