<svg width="107" height="23" viewBox="0 0 107 23" fill="none" xmlns="http://www.w3.org/2000/svg">
<path d="M44.8383 4.52822V18.1126H42.4799V7.45263H42.4484L38.2348 18.1126H36.6625L32.3545 7.45263H32.323V18.1126H30.1533V4.52822H33.5494L37.4486 14.5907H37.5115L41.6308 4.52822H44.8383ZM46.7879 5.56592C46.7879 5.18857 46.9137 4.87412 47.1967 4.62256C47.4797 4.37099 47.7941 4.24521 48.1715 4.24521C48.5803 4.24521 48.9261 4.37099 49.1777 4.62256C49.4293 4.87412 49.5865 5.18857 49.5865 5.56592C49.5865 5.94326 49.4607 6.25771 49.1777 6.50927C48.8947 6.76084 48.5803 6.88662 48.1715 6.88662C47.7627 6.88662 47.4482 6.76084 47.1967 6.50927C46.9451 6.22627 46.7879 5.91181 46.7879 5.56592ZM49.3349 8.36454V18.1126H47.0394V8.36454H49.3349ZM56.2843 16.446C56.6302 16.446 57.0076 16.3831 57.4164 16.1944C57.8252 16.0372 58.2025 15.8171 58.5484 15.5655V17.7038C58.1711 17.9239 57.7623 18.0811 57.2906 18.1755C56.8189 18.2698 56.3158 18.3327 55.7498 18.3327C54.3033 18.3327 53.1398 17.8925 52.2593 16.9805C51.3474 16.0686 50.9072 14.9052 50.9072 13.5216C50.9072 11.9493 51.3789 10.66 52.2908 9.6538C53.2027 8.64755 54.492 8.14443 56.19 8.14443C56.6302 8.14443 57.0705 8.20732 57.4793 8.30165C57.9195 8.39599 58.2654 8.55322 58.517 8.679V10.8802C58.1711 10.6286 57.7937 10.4085 57.4478 10.2827C57.0705 10.1569 56.6931 10.0626 56.3158 10.0626C55.4039 10.0626 54.6806 10.3456 54.1146 10.9431C53.5486 11.5405 53.297 12.3266 53.297 13.3329C53.297 14.3077 53.58 15.0938 54.1146 15.6284C54.6492 16.163 55.3724 16.446 56.2843 16.446ZM65.0576 8.20732C65.2462 8.20732 65.4035 8.20732 65.5607 8.23876C65.7179 8.27021 65.8437 8.30165 65.938 8.3331V10.66C65.8123 10.5657 65.655 10.4714 65.4035 10.4085C65.1519 10.3456 64.9004 10.2827 64.5545 10.2827C63.9884 10.2827 63.5168 10.5343 63.1394 11.0059C62.7621 11.4776 62.542 12.2009 62.542 13.2071V18.1126H60.2464V8.36454H62.542V9.90536H62.5734C62.7935 9.37079 63.108 8.962 63.5168 8.64755C63.957 8.36454 64.4601 8.20732 65.0576 8.20732ZM66.0638 13.3958C66.0638 11.7921 66.5355 10.5028 67.416 9.55946C68.3279 8.61611 69.5857 8.14443 71.1894 8.14443C72.6988 8.14443 73.8937 8.58466 74.7427 9.49657C75.5917 10.4085 76.032 11.6349 76.032 13.1757C76.032 14.7479 75.5603 16.0057 74.6798 16.9491C73.7679 17.8925 72.5415 18.3641 70.9693 18.3641C69.4599 18.3641 68.265 17.9239 67.3845 17.0434C66.5041 16.1315 66.0638 14.9052 66.0638 13.3958ZM68.4537 13.3015C68.4537 14.3077 68.6738 15.0938 69.1455 15.6284C69.6171 16.163 70.2775 16.446 71.1265 16.446C71.9441 16.446 72.6044 16.1944 73.0447 15.6284C73.4849 15.0938 73.705 14.3077 73.705 13.2386C73.705 12.2009 73.4849 11.4147 73.0447 10.8487C72.6044 10.3142 71.9441 10.0311 71.158 10.0311C70.3089 10.0311 69.68 10.3142 69.2084 10.8802C68.6738 11.4776 68.4537 12.2638 68.4537 13.3015ZM79.4595 10.9431C79.4595 11.2575 79.5538 11.5405 79.774 11.7292C79.9941 11.9179 80.4343 12.138 81.1576 12.421C82.0695 12.7983 82.7298 13.2071 83.0757 13.6474C83.4531 14.119 83.6417 14.6536 83.6417 15.3139C83.6417 16.2259 83.2958 16.9491 82.5726 17.5151C81.8808 18.0811 80.906 18.3327 79.7111 18.3327C79.3023 18.3327 78.862 18.2698 78.3589 18.1755C77.8558 18.0811 77.447 17.9554 77.1011 17.7981V15.5341C77.5099 15.8171 77.9816 16.0686 78.4533 16.2259C78.9249 16.3831 79.3652 16.4774 79.774 16.4774C80.2771 16.4774 80.6859 16.4145 80.906 16.2573C81.1576 16.1001 81.2833 15.88 81.2833 15.5341C81.2833 15.2196 81.1576 14.9681 80.906 14.7165C80.6544 14.4964 80.1513 14.2448 79.4595 13.9618C78.6105 13.6159 78.013 13.2071 77.6671 12.7669C77.3212 12.3266 77.1326 11.7606 77.1326 11.0688C77.1326 10.1884 77.4785 9.46513 78.1703 8.89911C78.862 8.3331 79.774 8.05009 80.8745 8.05009C81.2204 8.05009 81.5978 8.08154 82.0066 8.17587C82.4154 8.27021 82.7927 8.36454 83.0757 8.45888V10.6915C82.7613 10.5028 82.4154 10.3142 82.0066 10.1569C81.5978 9.9997 81.189 9.93681 80.8117 9.93681C80.3714 9.93681 80.0255 10.0311 79.8054 10.1884C79.5853 10.4085 79.4595 10.6286 79.4595 10.9431ZM84.6165 13.3958C84.6165 11.7921 85.0882 10.5028 85.9687 9.55946C86.8806 8.61611 88.1384 8.14443 89.7421 8.14443C91.2515 8.14443 92.4464 8.58466 93.2954 9.49657C94.1445 10.4085 94.5847 11.6349 94.5847 13.1757C94.5847 14.7479 94.113 16.0057 93.2325 16.9491C92.3206 17.8925 91.0943 18.3641 89.522 18.3641C88.0126 18.3641 86.8177 17.9239 85.9372 17.0434C85.0882 16.1315 84.6165 14.9052 84.6165 13.3958ZM87.0064 13.3015C87.0064 14.3077 87.2265 15.0938 87.6982 15.6284C88.1699 16.163 88.8302 16.446 89.6792 16.446C90.4968 16.446 91.1572 16.1944 91.5974 15.6284C92.0376 15.0938 92.2577 14.3077 92.2577 13.2386C92.2577 12.2009 92.0376 11.4147 91.5974 10.8487C91.1572 10.3142 90.4968 10.0311 89.7107 10.0311C88.8616 10.0311 88.2327 10.3142 87.7611 10.8802C87.2579 11.4776 87.0064 12.2638 87.0064 13.3015ZM102.226 10.2513H98.7984V18.1126H96.4714V10.2513H94.8363V8.36454H96.4714V7.0124C96.4714 6.00615 96.8173 5.15713 97.4776 4.49678C98.138 3.83643 98.987 3.52197 100.025 3.52197C100.308 3.52197 100.559 3.55342 100.779 3.55342C101 3.55342 101.188 3.61631 101.345 3.6792V5.66025C101.283 5.62881 101.125 5.56592 100.937 5.50302C100.748 5.44013 100.528 5.40869 100.276 5.40869C99.8046 5.40869 99.4273 5.56592 99.1757 5.84892C98.9241 6.13193 98.7984 6.60361 98.7984 7.16962V8.3331H102.226V6.13193L104.521 5.44013V8.3331H106.848V10.2198H104.521V14.7794C104.521 15.3768 104.647 15.7856 104.836 16.0372C105.056 16.2888 105.402 16.4145 105.874 16.4145C105.999 16.4145 106.157 16.3831 106.345 16.3202C106.534 16.2573 106.691 16.1944 106.817 16.1001V17.9868C106.66 18.0811 106.44 18.144 106.094 18.2069C105.748 18.2698 105.433 18.3012 105.087 18.3012C104.113 18.3012 103.389 18.0497 102.918 17.5466C102.446 17.0434 102.194 16.2573 102.194 15.2196L102.226 10.2513Z" fill="#6F6F6F"/>
<path d="M11.4437 0.000366211H0.689453V10.7547H11.4437V0.000366211Z" fill="#EA4D21"/>
<path d="M23.3305 0H12.5762V10.7543H23.3305V0Z" fill="#7BB400"/>
<path d="M11.4437 11.8862H0.689453V22.6405H11.4437V11.8862Z" fill="#019FE8"/>
<path d="M23.3305 11.8862H12.5762V22.6405H23.3305V11.8862Z" fill="#F7B301"/>
</svg>
