<svg width="124" height="14" viewBox="0 0 124 14" fill="none" xmlns="http://www.w3.org/2000/svg">
<g clip-path="url(#clip0_982_11839)">
<path d="M11.1277 0.371672H12.9824V5.64476H17.7302V0.371672H19.1397V13.3687H17.7302V6.38745H12.9824V13.3687H11.1277V0.371672ZM31.714 13.4058H32.7526V2.97108L40.95 13.5915V0.408798H39.9486V8.87544L33.309 0.408798H31.714V13.4058ZM42.6934 13.4058H50.3344L51.2988 11.4377C51.2988 11.4377 49.9635 12.5146 47.367 12.5146C46.8477 12.5146 44.6964 12.5146 44.6964 12.5146V6.49885C44.6964 6.49885 45.5495 6.49885 46.6252 6.49885C47.7009 6.49885 48.146 7.16726 48.146 7.16726V5.23627C47.775 5.60761 47.6267 5.71901 46.6252 5.71901C45.6608 5.71901 44.6964 5.71901 44.6964 5.71901V1.15149C44.6964 1.15149 44.8076 1.15149 45.8462 1.15149C47.3299 1.15149 48.1089 1.93132 48.1089 1.93132L47.4412 0.408798H42.6934V13.4058ZM108.532 13.4058H113.651L114.801 11.8462C114.801 11.8462 113.911 12.5518 111.648 12.5518C111.129 12.5518 110.387 12.5518 110.387 12.5518V6.42458C110.387 6.42458 111.389 6.42458 112.501 6.42458C113.577 6.42458 113.8 6.87019 113.8 6.87019V5.34767C113.503 5.64474 113.28 5.71901 112.501 5.71901C111.537 5.71901 110.387 5.71901 110.387 5.71901V1.15149C110.387 1.15149 111.055 1.15149 112.13 1.15149C113.762 1.15149 114.504 1.93132 114.504 1.93132L113.837 0.408798H108.57L108.532 13.4058ZM20.883 13.3687H26.0018L27.1517 11.8091C27.1517 11.8091 26.2614 12.5146 23.9988 12.5146C23.4795 12.5146 22.7377 12.5146 22.7377 12.5146V6.42458C22.7377 6.42458 23.7392 6.42458 24.8519 6.42458C25.9276 6.42458 26.1502 6.87019 26.1502 6.87019V5.31054C25.8534 5.60762 25.6309 5.68189 24.8519 5.68189C23.8875 5.68189 22.7377 5.68189 22.7377 5.68189V1.11436C22.7377 1.11436 23.4053 1.11436 24.481 1.11436C26.1131 1.11436 26.8549 1.89417 26.8549 1.89417L26.1872 0.371672H20.9201L20.883 13.3687ZM5.8606 1.22576C5.8606 1.22576 6.3799 1.22576 7.49268 1.22576C9.23602 1.22576 10.015 2.00557 10.015 2.00557L9.31019 0.408798H5.89768H0.704743L0 2.00557C0 2.00557 0.778937 1.22576 2.52228 1.22576C3.67215 1.22576 3.70924 1.22576 4.08017 1.22576V13.3687H5.93479L5.8606 1.22576ZM54.5259 13.5172L56.4918 9.24678L58.4948 13.4801L64.2812 0.371672H63.1313L58.9399 9.91522L57.5304 6.83305L60.2752 0.371672H59.3108L57.0111 5.45909L54.6001 0.371672H52.6713L55.9725 7.90995L55.0823 9.91522L50.7795 0.371672H48.7766L54.5259 13.5172ZM75.0009 7.01872C75.0009 10.5094 77.7457 14 82.3823 14C87.0188 14 89.4669 11.1406 89.4669 6.64737C89.4669 3.15674 86.7592 0.000328136 82.271 0.000328136C77.9312 -0.0368063 75.0009 3.08247 75.0009 7.01872ZM82.1968 0.705868C85.7206 0.705868 87.5381 4.12224 87.5381 6.79592C87.5381 10.138 86.0915 13.0716 82.5307 13.0716C78.636 13.0716 76.9297 9.72954 76.9297 6.68452C76.9297 2.67401 79.7487 0.705868 82.1968 0.705868ZM90.9877 13.4058H92.8794V1.11436C92.8794 1.11436 93.6213 1.11436 93.7326 1.11436C94.2148 1.11436 95.4017 1.41143 95.4017 3.37955C95.4017 5.45908 93.6955 5.83043 93.6955 5.83043V6.09036C94.5115 6.09036 95.513 6.16463 95.513 9.87807C95.513 12.4403 96.4032 13.5544 97.5902 13.5544C98.7771 13.5544 99.2964 12.7374 99.3706 12.626L99.111 12.4404C98.9997 12.626 98.6659 12.9231 98.2208 12.9231C97.6644 12.9231 97.0338 11.9947 97.0338 9.54388C97.0338 7.05587 96.3661 6.16464 94.5115 5.86756C95.513 5.53335 97.0338 5.01346 97.0338 3.00821C97.0338 1.30002 95.6985 0.371672 94.1035 0.371672C92.9165 0.371672 91.0619 0.371672 91.0619 0.371672L90.9877 13.4058ZM115.617 13.4058H117.509V1.11436C117.509 1.11436 118.251 1.11436 118.362 1.11436C118.844 1.11436 120.031 1.41143 120.031 3.37955C120.031 5.45908 118.325 5.83043 118.325 5.83043V6.09036C119.141 6.09036 120.142 6.16463 120.142 9.87807C120.142 12.4403 121.033 13.5544 122.22 13.5544C123.407 13.5544 123.926 12.7374 124 12.626L123.74 12.4404C123.629 12.626 123.295 12.9231 122.85 12.9231C122.294 12.9231 121.663 11.9947 121.663 9.54388C121.663 7.05587 120.996 6.16464 119.141 5.86756C120.142 5.53335 121.663 5.01346 121.663 3.00821C121.663 1.30002 120.328 0.371672 118.733 0.371672C117.546 0.371672 115.691 0.371672 115.691 0.371672L115.617 13.4058ZM105.491 9.09826C105.491 6.12751 104.86 4.75352 103.006 4.41931L106.604 0.408798H105.38L101.967 4.23364V0.408798H100.112L100.075 13.4058H101.967V4.8278H102.375C102.709 4.8278 103.451 5.2734 103.636 5.90469C103.896 6.68451 103.97 7.87281 103.97 9.43245V9.95234C103.97 12.5146 104.86 13.6287 106.047 13.6287C107.234 13.6287 107.754 12.8117 107.828 12.7003L107.568 12.5146C107.457 12.7003 107.123 12.9974 106.678 12.9974C106.121 12.9974 105.491 12.069 105.491 9.61813V9.09826ZM72.3302 13.4058V6.68452L75.9282 0.408798H74.7412L71.2916 6.38745L67.8421 0.408798H66.6551L70.2531 6.68452V13.4058H72.3302Z" fill="black"/>
</g>
<defs>
<clipPath id="clip0_982_11839">
<rect width="124" height="14" fill="white"/>
</clipPath>
</defs>
</svg>
