<svg width="84" height="28" viewBox="0 0 84 28" fill="none" xmlns="http://www.w3.org/2000/svg">
<path d="M35.7034 14.4373C35.7034 18.3843 32.6157 21.2927 28.8263 21.2927C25.037 21.2927 21.9492 18.3843 21.9492 14.4373C21.9492 10.4624 25.037 7.58179 28.8263 7.58179C32.6157 7.58179 35.7034 10.4624 35.7034 14.4373ZM32.693 14.4373C32.693 11.9708 30.9034 10.2832 28.8263 10.2832C26.7493 10.2832 24.9597 11.9708 24.9597 14.4373C24.9597 16.879 26.7493 18.5913 28.8263 18.5913C30.9034 18.5913 32.693 16.8759 32.693 14.4373Z" fill="#EA4335"/>
<path d="M50.5394 14.4373C50.5394 18.3843 47.4516 21.2927 43.6623 21.2927C39.8729 21.2927 36.7852 18.3843 36.7852 14.4373C36.7852 10.4655 39.8729 7.58179 43.6623 7.58179C47.4516 7.58179 50.5394 10.4624 50.5394 14.4373ZM47.5289 14.4373C47.5289 11.9708 45.7393 10.2832 43.6623 10.2832C41.5852 10.2832 39.7956 11.9708 39.7956 14.4373C39.7956 16.879 41.5852 18.5913 43.6623 18.5913C45.7393 18.5913 47.5289 16.8759 47.5289 14.4373Z" fill="#FBBC05"/>
<path d="M64.7575 7.99596V20.3037C64.7575 25.3664 61.7717 27.4342 58.242 27.4342C54.9193 27.4342 52.9196 25.2119 52.1654 23.3945L54.7864 22.3034C55.2531 23.4192 56.3968 24.7359 58.2389 24.7359C60.4983 24.7359 61.8984 23.3419 61.8984 20.7178V19.7319H61.7934C61.1196 20.5633 59.8214 21.2896 58.1833 21.2896C54.7555 21.2896 51.6152 18.3039 51.6152 14.462C51.6152 10.5923 54.7555 7.58179 58.1833 7.58179C59.8183 7.58179 61.1165 8.30813 61.7934 9.11484H61.8984V7.99905H64.7575V7.99596ZM62.1117 14.462C62.1117 12.048 60.5014 10.2832 58.4522 10.2832C56.3751 10.2832 54.635 12.048 54.635 14.462C54.635 16.8512 56.3751 18.5913 58.4522 18.5913C60.5014 18.5913 62.1117 16.8512 62.1117 14.462Z" fill="#4285F4"/>
<path d="M69.4705 0.78186V20.8723H66.5342V0.78186H69.4705Z" fill="#34A853"/>
<path d="M80.9125 16.6936L83.2492 18.2514C82.495 19.3672 80.6776 21.2897 77.5373 21.2897C73.6429 21.2897 70.7344 18.2792 70.7344 14.4342C70.7344 10.3574 73.6676 7.57874 77.2004 7.57874C80.7579 7.57874 82.4981 10.4099 83.0668 11.9399L83.379 12.7188L74.2147 16.5143C74.9163 17.8898 76.0073 18.5914 77.5373 18.5914C79.0704 18.5914 80.1336 17.8372 80.9125 16.6936ZM73.7201 14.2271L79.8462 11.6834C79.5093 10.8272 78.4955 10.2307 77.3024 10.2307C75.7724 10.2307 73.6429 11.5814 73.7201 14.2271Z" fill="#EA4335"/>
<path d="M10.8344 12.6539V9.7454H20.6354C20.7312 10.2523 20.7807 10.8519 20.7807 11.501C20.7807 13.6831 20.1841 16.3814 18.2616 18.3039C16.3917 20.2511 14.0025 21.2897 10.8375 21.2897C4.97106 21.2897 0.0380859 16.5112 0.0380859 10.6448C0.0380859 4.77843 4.97106 0 10.8375 0C14.0828 0 16.3948 1.27342 18.1318 2.9332L16.0795 4.98552C14.8339 3.81718 13.1463 2.90847 10.8344 2.90847C6.55047 2.90847 3.20001 6.36094 3.20001 10.6448C3.20001 14.9287 6.55047 18.3812 10.8344 18.3812C13.613 18.3812 15.1955 17.2654 16.2093 16.2516C17.0315 15.4294 17.5724 14.2549 17.7857 12.6508L10.8344 12.6539Z" fill="#4285F4"/>
</svg>
