<svg width="102" height="20" viewBox="0 0 102 20" fill="none" xmlns="http://www.w3.org/2000/svg">
<path d="M7.96 3.072C6.758 3.072 6.417 3.605 6.417 4.779V6.719H9.613L9.299 9.859H6.417V19.379H2.593V9.859H0V6.719H2.58V4.834C2.58 1.666 3.85 0 7.414 0C8.179 0 9.094 0.055001 9.64 0.137001V3.087L7.96 3.072ZM9.86 13.439C9.86 16.976 11.54 19.625 15.036 19.625C16.948 19.625 18.15 18.669 18.682 17.455V19.367H22.356V6.717H18.682V8.657C18.122 7.442 16.962 6.445 15.036 6.445C11.536 6.445 9.86 9.108 9.86 12.631V13.439ZM13.698 12.576C13.698 10.691 14.394 9.436 16.17 9.436C17.74 9.436 18.533 10.583 18.533 12.386V13.656C18.533 15.459 17.741 16.606 16.17 16.606C14.395 16.606 13.698 15.363 13.698 13.466V12.576ZM30.332 6.444C25.85 6.446 23.8 8.862 23.8 12.741V13.328C23.8 17.206 25.848 19.624 30.342 19.624C31.842 19.624 33.237 19.31 34.016 18.777L33.169 16.059C32.37 16.4368 31.4987 16.637 30.615 16.646C28.539 16.646 27.638 15.444 27.638 13.409V12.672C27.638 10.624 28.538 9.435 30.615 9.435C31.615 9.435 32.582 9.722 33.169 10.022L34.016 7.304C33.238 6.758 31.831 6.444 30.342 6.444H30.332ZM34.507 13.518C34.507 17.233 36.31 19.65 41.144 19.65C42.974 19.65 45.05 19.254 46.06 18.72L45.364 16.084C44.244 16.562 42.728 16.849 41.294 16.849C39.164 16.849 38.399 16.084 38.317 14.349H46.374V12.329C46.374 8.829 44.654 6.429 40.72 6.429C36.54 6.429 34.506 8.792 34.506 12.383V13.526L34.507 13.518ZM38.33 11.874C38.33 10.167 39 9.088 40.73 9.088C42.41 9.088 42.956 10.181 42.956 11.56V11.874H38.33ZM60.577 12.639C60.577 9.102 58.87 6.453 55.374 6.453C53.599 6.453 52.37 7.353 51.81 8.473V0.0200005L47.986 0.360001V19.36H51.606V17.448C52.139 18.663 53.463 19.633 55.376 19.633C58.876 19.633 60.579 16.97 60.579 13.447L60.577 12.639ZM56.755 13.502C56.755 15.277 56.059 16.616 54.229 16.616C52.659 16.616 51.812 15.496 51.812 13.693V12.368C51.812 10.565 52.659 9.445 54.229 9.445C56.059 9.445 56.755 10.77 56.755 12.559V13.502ZM61.863 13.352C61.863 16.998 63.939 19.62 68.159 19.62C72.379 19.62 74.455 16.984 74.455 13.352V12.71C74.455 9.064 72.379 6.442 68.159 6.442C63.939 6.442 61.863 9.078 61.863 12.71V13.352ZM70.631 13.612C70.631 15.292 69.935 16.616 68.159 16.616C66.383 16.616 65.687 15.291 65.687 13.612V12.438C65.687 10.758 66.383 9.434 68.159 9.434C69.935 9.434 70.631 10.759 70.631 12.438V13.612ZM75.725 13.352C75.725 16.998 77.801 19.62 82.021 19.62C86.241 19.62 88.317 16.984 88.317 13.352V12.71C88.317 9.064 86.241 6.442 82.021 6.442C77.801 6.442 75.725 9.078 75.725 12.71V13.352ZM84.505 13.612C84.505 15.292 83.809 16.616 82.033 16.616C80.257 16.616 79.56 15.316 79.56 13.616V12.442C79.56 10.762 80.256 9.438 82.032 9.438C83.808 9.438 84.504 10.763 84.504 12.442L84.505 13.612ZM93.587 0.0100002L89.763 0.35V19.326H93.587V13.14L97.52 19.326H101.59L97.466 12.926L101.426 6.686H97.356L93.586 12.722" fill="#3C5A99"/>
</svg>
