<svg width="81" height="81" viewBox="0 0 81 81" fill="none" xmlns="http://www.w3.org/2000/svg">
<circle cx="14.5" cy="1.5" r="1.5" fill="#BCD8F3"/>
<circle cx="1.5" cy="1.5" r="1.5" fill="#BCD8F3"/>
<circle cx="27.5" cy="1.5" r="1.5" fill="#BCD8F3"/>
<circle cx="53.5" cy="1.5" r="1.5" fill="#BCD8F3"/>
<circle cx="40.5" cy="1.5" r="1.5" fill="#BCD8F3"/>
<circle cx="66.5" cy="1.5" r="1.5" fill="#BCD8F3"/>
<circle cx="79.5" cy="1.5" r="1.5" fill="#BCD8F3"/>
<circle cx="14.5" cy="14.5" r="1.5" fill="#BCD8F3"/>
<circle cx="1.5" cy="14.5" r="1.5" fill="#BCD8F3"/>
<circle cx="27.5" cy="14.5" r="1.5" fill="#BCD8F3"/>
<circle cx="53.5" cy="14.5" r="1.5" fill="#BCD8F3"/>
<circle cx="40.5" cy="14.5" r="1.5" fill="#BCD8F3"/>
<circle cx="66.5" cy="14.5" r="1.5" fill="#BCD8F3"/>
<circle cx="79.5" cy="14.5" r="1.5" fill="#BCD8F3"/>
<circle cx="14.5" cy="27.5" r="1.5" fill="#BCD8F3"/>
<circle cx="14.5" cy="53.5" r="1.5" fill="#BCD8F3"/>
<circle cx="1.5" cy="27.5" r="1.5" fill="#BCD8F3"/>
<circle cx="1.5" cy="53.5" r="1.5" fill="#BCD8F3"/>
<circle cx="27.5" cy="27.5" r="1.5" fill="#BCD8F3"/>
<circle cx="27.5" cy="53.5" r="1.5" fill="#BCD8F3"/>
<circle cx="53.5" cy="27.5" r="1.5" fill="#BCD8F3"/>
<circle cx="53.5" cy="53.5" r="1.5" fill="#BCD8F3"/>
<circle cx="40.5" cy="27.5" r="1.5" fill="#BCD8F3"/>
<circle cx="40.5" cy="53.5" r="1.5" fill="#BCD8F3"/>
<circle cx="66.5" cy="27.5" r="1.5" fill="#BCD8F3"/>
<circle cx="79.5" cy="27.5" r="1.5" fill="#BCD8F3"/>
<circle cx="66.5" cy="53.5" r="1.5" fill="#BCD8F3"/>
<circle cx="79.5" cy="53.5" r="1.5" fill="#BCD8F3"/>
<circle cx="14.5" cy="40.5" r="1.5" fill="#BCD8F3"/>
<circle cx="14.5" cy="66.5" r="1.5" fill="#BCD8F3"/>
<circle cx="14.5" cy="79.5" r="1.5" fill="#BCD8F3"/>
<circle cx="1.5" cy="66.5" r="1.5" fill="#BCD8F3"/>
<circle cx="1.5" cy="40.5" r="1.5" fill="#BCD8F3"/>
<circle cx="27.5" cy="66.5" r="1.5" fill="#BCD8F3"/>
<circle cx="1.5" cy="79.5" r="1.5" fill="#BCD8F3"/>
<circle cx="53.5" cy="66.5" r="1.5" fill="#BCD8F3"/>
<circle cx="27.5" cy="40.5" r="1.5" fill="#BCD8F3"/>
<circle cx="40.5" cy="66.5" r="1.5" fill="#BCD8F3"/>
<circle cx="27.5" cy="79.5" r="1.5" fill="#BCD8F3"/>
<circle cx="66.5" cy="66.5" r="1.5" fill="#BCD8F3"/>
<circle cx="79.5" cy="66.5" r="1.5" fill="#BCD8F3"/>
<circle cx="53.5" cy="40.5" r="1.5" fill="#BCD8F3"/>
<circle cx="53.5" cy="79.5" r="1.5" fill="#BCD8F3"/>
<circle cx="40.5" cy="40.5" r="1.5" fill="#BCD8F3"/>
<circle cx="40.5" cy="79.5" r="1.5" fill="#BCD8F3"/>
<circle cx="66.5" cy="40.5" r="1.5" fill="#BCD8F3"/>
<circle cx="79.5" cy="40.5" r="1.5" fill="#BCD8F3"/>
<circle cx="66.5" cy="79.5" r="1.5" fill="#BCD8F3"/>
<circle cx="79.5" cy="79.5" r="1.5" fill="#BCD8F3"/>
</svg>
