<svg width="1440" height="470" viewBox="0 0 1440 470" fill="none" xmlns="http://www.w3.org/2000/svg">
<g clip-path="url(#clip0_1381_12738)">
<path d="M810.581 402.794C806.841 400.125 806.087 398.29 807.77 395.958C808.55 394.878 809.692 394.129 810.308 394.294C810.924 394.459 813.243 396.6 815.46 399.052C817.677 401.503 820.47 404.194 821.667 405.03L823.843 406.552L820.86 405.821C819.219 405.42 816.777 404.961 815.433 404.802C814.089 404.643 811.905 403.739 810.581 402.794L810.581 402.794ZM803.287 392.282C802.622 391.635 801.356 391.138 800.475 391.178C799.366 391.228 798.706 390.533 798.328 388.917C798.028 387.633 797.251 386.224 796.601 385.786C795.111 384.782 793.164 378.285 792.641 372.574C792.377 369.69 791.563 367.526 790.254 366.234C787.931 363.941 787.925 363.182 790.226 363.077C792.859 362.957 794.456 358.8 793.182 355.385C792.574 353.754 792.492 352.009 792.991 351.323C793.58 350.512 793.048 348.671 791.364 345.691C789.238 341.928 788.988 340.7 789.698 337.527C790.158 335.472 790.246 333.164 789.894 332.398C789.45 331.433 790.076 328.564 791.931 323.058C793.94 317.09 794.721 313.284 795.064 307.778C795.573 299.603 798.644 284.939 802.583 271.866C803.424 269.077 804.094 265.118 804.073 263.068C804.02 258.077 799.625 250.617 793.289 244.767C788.758 240.582 788.207 239.673 787.286 234.864C786.728 231.951 785.374 227.459 784.277 224.881C783.18 222.303 782.206 218.688 782.111 216.847C781.811 211.004 780.19 204.78 778.465 202.848C777.547 201.821 776.786 199.584 776.773 197.878C776.752 195.117 777.131 194.449 780.218 191.815C783.566 188.959 783.632 188.824 782.118 187.962C778.398 185.844 781.514 180.948 791.122 173.811C797.508 169.067 800.136 164.854 800.234 159.199C800.271 157.045 800.386 154.811 800.489 154.236C800.593 153.66 800.357 153.104 799.966 152.999C799.576 152.895 799.848 152.177 800.573 151.404C801.689 150.214 801.607 149.766 800.038 148.473C797.751 146.588 793.504 146.708 792.961 148.672C792.31 151.028 791.225 150.924 788.28 148.222C786.703 146.776 785.008 145.484 784.514 145.351C784.02 145.219 782.449 143.397 781.022 141.302C779.596 139.208 778.066 137.007 777.623 136.411C777.18 135.815 777.044 134.478 777.322 133.441C777.6 132.403 777.281 130.707 776.612 129.671C775.943 128.635 775.316 126.397 775.219 124.697C775.092 122.462 774.729 121.787 773.91 122.26C772.201 123.246 770.274 122.456 766.004 119.016C763.772 117.217 761.646 114.598 760.989 112.835C760.361 111.153 758.901 108.914 757.744 107.86C755.835 106.12 755.279 105.98 751.72 106.348L747.798 106.753L738.302 98.5405C732.46 93.4886 728.082 88.9894 726.925 86.8504C725.132 83.5339 725.128 83.2249 726.839 80.1679C728.407 77.3674 728.527 76.4031 727.786 72.5316C727.32 70.0945 725.926 66.1697 724.689 63.8097C723.452 61.4498 722.723 59.2514 723.071 58.9245C723.418 58.5976 722.897 55.6274 721.913 52.3243C720.795 48.5718 720.321 44.7461 720.65 42.1276C721.073 38.7708 720.819 37.6413 719.377 36.4528C717.849 35.1931 717.335 35.1637 715.973 36.2585C714.055 37.8003 713.912 39.9321 715.219 47.4726C715.75 50.5368 715.97 54.9275 715.709 57.2297C715.448 59.5319 715.571 62.9948 715.982 64.925C716.956 69.4968 715.651 69.0709 713.51 64.1184C712.247 61.1974 712.085 59.7378 712.87 58.3283C713.707 56.8234 713.516 55.9395 711.926 53.9413C709.514 50.9111 709.261 49.3057 710.92 47.537C711.887 46.5056 711.945 45.106 711.174 41.438C710.391 37.713 710.469 36.0311 711.533 33.7059C713.272 29.9049 712.452 25.8229 709.491 23.5514C707.782 22.2399 707.358 21.1714 707.586 18.7521C707.748 17.0403 707.896 14.3647 707.915 12.8061C707.935 11.185 708.32 9.86138 708.815 9.7129C709.29 9.57015 709.324 8.37614 708.89 7.05953C708.251 5.12044 708.387 4.31999 709.602 2.84559C710.427 1.84452 710.972 0.593604 710.814 0.0657599C710.655 -0.462069 711.715 -1.62829 713.169 -2.52583C714.623 -3.42337 716.773 -5.41456 717.945 -6.95073C719.118 -8.48687 722.164 -11.1009 724.714 -12.7596C727.265 -14.4184 730.781 -17.5788 732.528 -19.7827C734.954 -22.8419 736.121 -23.6823 737.46 -23.335C738.424 -23.0844 739.039 -22.4335 738.826 -21.8877C737.937 -19.6135 739.984 -19.839 742.884 -22.3349C744.594 -23.8061 745.683 -25.2241 745.306 -25.4861C744.928 -25.7481 744.767 -26.5168 744.949 -27.1945C745.131 -27.8721 744.026 -30.5266 742.495 -33.0933C739.956 -37.3505 739.854 -37.852 741.334 -38.8077C742.533 -39.5819 742.842 -40.3028 742.521 -41.5704C741.956 -43.7981 744.829 -47.6779 746.688 -47.1983C747.456 -47.0004 747.745 -47.2025 747.367 -47.6741C746.52 -48.7322 746.513 -50.621 747.349 -53.1464C748.683 -57.1798 748.246 -59.1337 745.541 -61.2225C744.082 -62.3492 741.963 -64.4693 740.833 -65.934C739.702 -67.3987 738.137 -68.7686 737.354 -68.9783C736.572 -69.188 733.214 -70.8859 729.893 -72.7514C724.554 -75.7505 723.559 -76.079 721.3 -75.5892C716.618 -74.574 712.027 -74.8789 710.505 -76.3063C709.363 -77.3769 707.79 -77.3261 702.006 -76.0319C698.103 -75.1584 693.546 -74.5111 691.88 -74.5935C690.214 -74.6759 686.892 -74.3361 684.499 -73.8385C677.709 -72.4271 668.325 -71.6848 665.969 -72.3726C664.448 -72.8165 665.662 -73.2103 670.165 -73.7338C677.817 -74.6234 685.882 -76.2912 686.825 -77.1788C687.986 -78.272 686.354 -79.2131 683.985 -78.8168C682.24 -78.5251 681.3 -78.848 679.758 -80.2686L677.775 -82.0957L680.632 -82.7211C683.862 -83.428 685.2 -84.8487 685.244 -87.6205C685.286 -90.305 689.262 -91.2205 697.064 -90.3421C701.256 -89.8702 704.59 -90.0609 707.028 -90.9122C711.328 -92.4133 711.204 -94.4516 706.848 -93.8781C704.786 -93.6066 703.432 -93.9605 700.882 -95.4371C697.782 -97.2317 697.698 -97.392 699.485 -98.0842C702.475 -99.2424 707.94 -98.9565 711.183 -97.4722C713.236 -96.533 715.065 -96.3154 717.123 -96.7657L720.096 -97.4164L718.867 -99.7069C718.191 -100.967 717.696 -102.214 717.767 -102.478C717.971 -103.237 723.303 -103.436 725.766 -102.776C726.995 -102.446 730.603 -102.433 733.784 -102.747C736.965 -103.06 744.03 -102.759 749.483 -102.077C758.328 -100.971 760.138 -100.502 766.249 -97.7275C770.017 -96.0171 775.243 -93.781 777.863 -92.7582C780.483 -91.7355 785.007 -89.5051 787.917 -87.8017C794.676 -83.8456 799.434 -82.5969 808.141 -82.494C811.986 -82.4486 815.766 -82.0059 816.54 -81.5102C817.315 -81.0146 818.803 -80.8086 819.847 -81.0526C821.285 -81.3888 822.239 -81.0459 823.785 -79.637C825.182 -78.3639 827.119 -77.5883 829.93 -77.1769C832.895 -76.7428 835.319 -75.72 838.662 -73.4924C841.206 -71.7964 844.107 -70.1895 845.107 -69.9215C846.879 -69.4468 846.877 -69.4151 845.024 -68.691C843.208 -67.9808 843.182 -67.9041 844.459 -66.9702C845.194 -66.4326 848.033 -65.6371 850.767 -65.2025C855.705 -64.4174 855.743 -64.3922 856.388 -61.4432L857.038 -58.4742L859.376 -60.2004C860.72 -61.1923 863.494 -61.9809 865.897 -62.0543C869.528 -62.1652 870.547 -61.8886 873.645 -59.9505C875.833 -58.5824 878.613 -57.5525 880.832 -57.2887C883.656 -56.9527 884.854 -56.3697 886.289 -54.6308C888.102 -52.4355 888.164 -52.418 890.563 -53.4255C891.902 -53.9877 894.475 -54.4624 896.28 -54.4803C900.602 -54.5232 902.606 -56.5453 900.644 -58.884C899.257 -60.5379 899.356 -60.6092 904.435 -61.6081C908.223 -62.353 909.831 -62.3219 910.309 -61.4945C910.786 -60.667 910.588 -59.9509 909.582 -58.8782C907.868 -57.0499 908.425 -53.4426 910.39 -53.6489C911.096 -53.7231 912.157 -53.4329 912.748 -53.004C913.675 -52.3304 913.568 -51.9985 911.964 -50.5657C907.532 -46.6075 914.949 -46.0781 921.094 -49.914C923.592 -51.4736 926.769 -51.2982 929.298 -49.4612C930.931 -48.2747 930.608 -47.7485 926.707 -45.2506C922.058 -42.2737 920.004 -41.9606 914.608 -43.4066C911.999 -44.1054 908.769 -44.3654 907.136 -44.0079C904.875 -43.5131 903.883 -43.6872 902.508 -44.8205C899.944 -46.9336 898.631 -46.0985 900.128 -43.3074L901.406 -40.925L897.568 -40.8684C895.456 -40.8373 892.058 -41.2019 890.015 -41.6787C887.053 -42.3702 886.221 -42.2514 885.906 -41.0917C885.635 -40.0995 883.927 -39.4369 880.523 -39.0049C869.495 -37.6053 859.101 -32.539 861.639 -29.8006C862.115 -29.2875 862.675 -27.7474 862.885 -26.3783C863.126 -24.8016 864.056 -23.4979 865.421 -22.8225C866.607 -22.236 869.494 -20.0764 871.838 -18.0233C874.182 -15.9702 877.139 -13.7538 878.411 -13.0978C881.91 -11.2919 881.92 -11.1979 879.012 -7.27016C876.525 -3.90984 876.351 -3.38173 876.904 -0.854906C877.235 0.659514 877.961 2.00631 878.516 2.13799C881.218 2.77879 884.395 0.97816 887.055 -2.70174C889.59 -6.20917 890.464 -6.75607 895.348 -7.89338C902.557 -9.5719 906.068 -12.1866 906.368 -16.0989C906.563 -18.6473 906.952 -19.1534 909.425 -20.0757C910.983 -20.657 913.314 -22.4232 914.604 -24.0006C917.487 -27.5265 920.765 -28.1381 925.451 -26.0239C929.606 -24.1489 934.007 -20.0127 934.103 -17.8904C934.143 -17.0193 933.545 -15.634 932.774 -14.8122C931.607 -13.5674 931.59 -12.9144 932.67 -10.9016L933.966 -8.48542L937.338 -9.22699C939.193 -9.63483 942.245 -10.5823 944.12 -11.3325L947.529 -12.6964L947.713 -10.7142C947.814 -9.62398 947.564 -8.27358 947.157 -7.71332C946.75 -7.15305 946.608 -5.8776 946.841 -4.87899C947.104 -3.75556 946.847 -2.63331 946.167 -1.93541C945.401 -1.14851 945.371 0.350291 946.066 3.02148C947.063 6.84811 947.062 6.85085 945.095 7.56729C942.506 8.51006 943.471 10.5041 946.206 9.86473C948.923 9.22973 951.599 10.124 952.87 12.0916C954.748 15.0003 951.967 17.1325 944.555 18.4656C936.493 19.9155 933.123 19.7277 923.756 17.3065C916.84 15.5185 915.867 15.4938 908.297 16.9121C903.853 17.7446 900.131 18.7497 900.025 19.1455C899.573 20.8338 900.853 21.0193 906.216 20.0429C909.376 19.4676 913.276 19.3763 914.997 19.8373C917.939 20.6247 918.022 20.7444 916.643 22.2143C915.845 23.0657 914.325 24.1481 913.266 24.6197C911.601 25.3611 911.395 25.8074 911.748 27.917C912.277 31.0806 915.269 33.3363 919.463 33.7344L922.778 34.0491L919.889 35.078C918.299 35.644 915.823 36.0492 914.386 35.9785C912.948 35.9078 909.864 36.2465 907.533 36.731C905.166 37.2229 902.922 37.2175 902.452 36.7188C901.372 35.5716 903.06 34.7372 907.738 34.1067C911.898 33.546 911.745 31.725 907.511 31.401C905.861 31.2748 900.254 31.8285 895.051 32.6314C886.929 33.8847 885.435 34.3901 884.497 36.2023C883.342 38.4298 881.269 39.074 874.525 39.3003C872.374 39.3725 869.405 40.1444 867.927 41.0156C866.449 41.8868 863.752 43.0614 861.933 43.6258C860.115 44.1901 858.164 45.5101 857.599 46.5591C856.668 48.2878 856.555 48.3044 856.39 46.7362C856.08 43.7977 853.839 45.989 852.533 50.5079C851.195 55.1378 847.985 57.6805 842.16 58.7252C836.187 59.7963 827.06 63.6636 824.769 66.0938C822.747 68.2394 822.429 69.2011 821.534 75.8688C820.699 82.0892 820.248 83.5856 818.698 85.287C817.54 86.5576 816.461 87.0242 815.797 86.5417C814.221 85.3976 814.01 77.598 815.471 74.5513C816.486 72.4351 816.436 71.5166 815.193 69.5118C814.192 67.8959 813.084 67.087 811.945 67.1389C810.994 67.1822 808.657 65.9906 806.75 64.4893C803.827 62.1892 802.805 61.7882 800.239 61.9346C798.5 62.0338 796.577 62.8593 795.751 63.8612C794.522 65.3518 793.951 65.4326 791.938 64.4004C790.636 63.7328 788.712 62.4123 787.663 61.4659C785.08 59.1349 783.375 58.7924 779.496 59.8246C777.686 60.3061 774.024 61.1743 771.358 61.7541C768.294 62.4203 766.021 63.504 765.181 64.6997C764.45 65.7401 761.736 69.8322 759.151 73.7932L754.45 80.9952L754.405 86.4449C754.323 96.4577 756.947 100.165 764.385 100.541C769.991 100.825 773.793 99.3739 775.914 96.141C777.26 94.0878 778.262 93.5582 780.841 93.5347C784.722 93.4993 786.24 93.8665 787.392 95.1188C788.342 96.1521 787.619 97.2399 779.519 106.965C773.961 113.638 774.032 114.387 780.291 115.132C785.993 115.812 790.849 117.764 791.026 119.449C791.095 120.106 789.646 124.025 787.807 128.158C784.516 135.552 784.479 135.727 785.475 139.044C786.032 140.898 787.382 143.23 788.476 144.227C790.222 145.818 790.858 145.986 793.694 145.604C798.2 144.997 800.353 145.765 802.564 148.771C804.332 151.175 804.637 151.311 806.716 150.626C807.95 150.22 809.839 148.899 810.913 147.691C813.336 144.967 816.59 143.468 818.833 144.043C819.769 144.283 821.647 143.791 823.006 142.949C825.764 141.24 829.743 141.508 827.299 143.239C825.249 144.692 822.752 150.462 823.251 152.597C823.667 154.374 823.736 154.383 825.751 152.919C827.185 151.877 827.631 151.081 827.2 150.335C826.171 148.553 826.907 147.498 830.04 146.266C833.293 144.986 835.338 145.755 837.01 148.886C838.236 151.181 846.743 156.12 849.548 156.164C853.82 156.232 862.874 165.707 865.354 172.705C866.535 176.037 871.958 180.525 874.859 180.571C880.826 180.666 886.991 188.322 886.962 195.602C886.953 197.77 887.253 199.872 887.627 200.273C888.622 201.336 886.046 203.796 881.141 206.467C878.007 208.173 877.137 209.036 877.651 209.927C878.166 210.818 879.485 210.511 882.943 208.698C887.973 206.061 889.42 206.045 890.899 208.607C891.799 210.165 891.694 210.405 889.529 211.747C888.239 212.546 886.598 213.068 885.881 212.907C885.126 212.736 885.332 213.176 886.371 213.952C887.798 215.019 888.68 215.063 890.698 214.167C895.953 211.834 897.014 211.939 900.277 215.111C902.398 217.173 903.113 218.502 902.686 219.59C901.5 222.616 902.051 223.504 904.594 222.667C906.615 222.001 907.809 222.263 913.35 224.592C919.244 227.069 919.956 227.618 922.105 231.34C923.7 234.104 925.768 236.194 928.607 237.914C932.42 240.224 932.771 240.711 932.775 243.697C932.78 248.026 930.305 252.165 925.72 255.498C923.761 256.922 921.242 259.108 920.122 260.355C919.002 261.603 916.869 263.326 915.383 264.184C912.867 265.637 912.623 266.104 911.855 270.948C910.355 280.412 901.251 296.379 895.924 298.888C894.19 299.705 892.904 299.661 890.755 298.713C888.989 297.934 887.575 297.753 887.059 298.239C886.599 298.672 884.519 299.288 882.437 299.608C880.354 299.928 877.115 300.922 875.239 301.817C871.991 303.366 871.836 303.593 872.003 306.526C872.196 309.908 870.519 313.401 867.481 315.95C866.499 316.774 865.455 318.344 865.162 319.439C864.868 320.534 863.469 322.34 862.053 323.453C860.637 324.566 857.77 327.214 855.682 329.338C850.547 334.563 848.166 335.069 843.598 331.903C839.633 329.157 837.345 328.342 837.018 329.562C836.895 330.022 837.562 331.03 838.5 331.803C839.438 332.576 840.572 335.004 841.02 337.199C841.687 340.466 841.571 341.508 840.38 342.954C838.534 345.193 833.517 346.143 829.386 345.037C825.728 344.056 824.581 344.708 825.212 347.408C825.601 349.074 824.448 351.278 822.458 352.672C822.297 352.785 821.147 351.95 819.904 350.817C816.936 348.112 815.411 348.92 816.251 352.754C816.592 354.314 817.573 356.039 818.431 356.588C819.906 357.531 819.893 357.649 818.195 358.746C817.205 359.385 816.466 360.559 816.55 361.358C816.641 362.217 815.523 363.721 813.814 365.04C811.036 367.185 810.956 367.364 811.735 369.729C812.181 371.081 813.047 372.552 813.66 372.997C815.87 374.603 815.413 377.943 812.548 381.122C809.677 384.308 808.397 387.929 809.383 390.075C810.28 392.026 804.99 393.941 803.287 392.282L803.287 392.282ZM837.939 21.7623C841.349 17.7799 846.329 15.4676 849.605 16.3455C851.963 16.9773 851.888 17.3674 848.994 19.5336L846.718 21.237L848.081 23.1142C849.18 24.6266 849.878 24.9189 851.673 24.6186C852.899 24.4137 854.318 23.5948 854.827 22.7989C855.52 21.7161 856.205 21.6033 857.548 22.3509C858.792 23.0429 859.704 22.9802 860.515 22.1466C862.974 19.6214 859.761 14.6886 856.2 15.5209C853.652 16.1164 851.376 12.9635 852.668 10.6277C853.147 9.76197 853.106 8.02081 852.575 6.71804C851.482 4.03284 848.973 3.10843 842.923 3.16277C840.747 3.18229 838.322 2.99829 837.533 2.75384C836.744 2.5094 836.219 2.71256 836.367 3.20534C836.515 3.69811 836.336 4.02968 835.969 3.94213C835.603 3.85456 834.198 4.24138 832.848 4.80168L830.392 5.82043L832.446 7.30241C834.051 8.46082 835.131 8.64622 837.391 8.15154C840.048 7.57015 840.48 7.68661 842.701 9.58327C844.039 10.7257 846.032 11.6624 847.164 11.6804C848.289 11.6983 849.338 12.1388 849.494 12.6593C849.654 13.1913 848.344 13.4699 846.502 13.2955C841.497 12.8215 838.475 14.1488 833.445 19.0308C829.243 23.1086 828.919 23.6495 829.732 25.2428C830.529 26.806 830.837 26.9098 832.685 26.2383C833.82 25.826 836.184 23.8118 837.939 21.7624L837.939 21.7623ZM851.451 30.7956C854.761 30.0902 855.142 29.792 854.39 28.4906C853.639 27.1891 852.972 27.0823 849.237 27.6646C844.852 28.3484 842.981 30.3552 845.979 31.1587C846.897 31.4046 849.359 31.2412 851.451 30.7956ZM867.615 28.5005C869.639 27.7634 869.765 27.5461 868.743 26.5515C867.239 25.0873 861.522 25.3842 861.103 26.9484C860.671 28.56 864.769 29.5367 867.615 28.5005ZM834.387 398.291C834.484 397.931 835.123 397.313 835.808 396.917C836.492 396.522 836.743 396.116 836.365 396.015C835.988 395.913 835.075 396.316 834.338 396.909C833.279 397.761 832.719 397.709 831.677 396.661C830.931 395.913 830.826 395.449 831.434 395.597C832.027 395.741 832.383 395.43 832.225 394.905C831.923 393.898 833.39 394.039 837.355 395.397C840.894 396.609 841.116 397.233 838.418 398.388C835.904 399.465 834.084 399.421 834.387 398.291ZM1523.18 560.844C1521.24 558.734 1526.99 556.765 1540.43 554.94C1544.18 554.43 1550.12 552.851 1553.62 551.431C1559.57 549.015 1560.03 548.963 1560.63 550.626C1561.55 553.151 1560.26 554.455 1556.19 555.12C1554.24 555.438 1551.65 556.371 1550.43 557.194C1549.21 558.017 1547.47 558.493 1546.57 558.251C1545.67 558.01 1543.21 558.682 1541.12 559.745C1533.95 563.383 1525.97 563.872 1523.18 560.844ZM1468.77 534.872C1468.06 534.105 1468.16 533.538 1469.2 532.429C1469.95 531.634 1470.87 529.831 1471.24 528.421C1471.86 526.116 1472.1 525.972 1473.6 526.998C1474.52 527.625 1476.54 528.532 1478.1 529.013C1479.66 529.494 1481.21 530.017 1481.54 530.176C1482.82 530.794 1478.09 533.948 1474.33 534.984C1469.84 536.218 1470.01 536.221 1468.77 534.872ZM1565.23 553.05C1565.02 552.689 1565.95 551.923 1567.29 551.348C1569.31 550.483 1569.66 549.98 1569.29 548.42C1568.76 546.164 1570.9 544.466 1574.94 543.935C1578.06 543.523 1579.41 541.347 1580.18 535.434C1580.72 531.367 1580.84 531.139 1581.83 532.525C1582.6 533.613 1582.57 534.714 1581.71 536.508C1580.77 538.474 1580.83 539.644 1582 542.158C1583.28 544.875 1583.77 545.264 1585.42 544.876C1587.08 544.49 1587.23 544.606 1586.46 545.67C1585.96 546.356 1585.51 547.061 1585.46 547.238C1585.42 547.415 1584.02 547.851 1582.35 548.208C1580.69 548.565 1577.31 549.781 1574.83 550.91C1570.81 552.747 1566.84 554.036 1565.93 553.794C1565.75 553.746 1565.44 553.411 1565.23 553.05ZM1481.54 519.3C1480.31 517.005 1480.01 516.849 1478.06 517.49C1475.58 518.307 1471.84 516.437 1469.32 513.127C1467.98 511.36 1467.97 510.906 1469.28 509.507C1470.4 508.313 1470.69 507.343 1470.41 505.685C1470.21 504.463 1470.23 502.744 1470.47 501.865C1471 499.883 1469.74 499.443 1468.16 501.062C1467.51 501.728 1466.81 501.976 1466.6 501.613C1466.39 501.249 1467.76 499.923 1469.65 498.664C1474.29 495.568 1473.19 494.097 1467.66 495.983C1465.27 496.797 1463.09 497.798 1462.8 498.21C1462.52 498.621 1461.93 496.958 1461.48 494.515C1460.99 491.865 1459.7 488.986 1458.27 487.383C1456.13 484.973 1455.29 484.596 1450.16 483.755C1442.64 482.521 1435.09 482.434 1429.85 483.52C1427.46 484.013 1423.07 483.996 1419.81 483.48C1416.63 482.975 1411.4 482.822 1408.18 483.139C1403.26 483.623 1401.94 483.459 1399.88 482.105C1397.11 480.289 1396.4 477.886 1398.57 477.658C1399.35 477.576 1401.15 476.044 1402.56 474.255C1404.81 471.39 1405.16 470.403 1405.45 466.001C1405.7 462.359 1406.56 459.078 1408.62 453.92C1410.17 450.026 1411.45 445.993 1411.45 444.957C1411.46 443.922 1412.49 441.658 1413.74 439.928C1415.95 436.876 1416.32 436.738 1426.1 435.373C1431.64 434.598 1437.2 434.238 1438.45 434.573C1441.83 435.479 1446.88 433.384 1450.36 429.63C1452.51 427.31 1453.78 426.547 1454.55 427.107C1456.69 428.671 1457.21 428.616 1457.5 426.795C1457.69 425.624 1458.4 424.926 1459.45 424.878C1460.37 424.836 1462.32 423.764 1463.8 422.494C1465.31 421.195 1468.02 420 1470.01 419.761C1473.31 419.363 1473.61 419.46 1474.84 421.372C1477.1 424.9 1479.01 426.265 1480.36 425.314C1481.01 424.852 1481.37 424.177 1481.16 423.815C1480.48 422.627 1486.2 418.398 1488.44 418.443C1489.64 418.467 1492.19 418.163 1494.12 417.767C1497.12 417.15 1498.08 417.312 1500.83 418.903C1506.77 422.334 1506.9 422.672 1503.56 425.63C1499.26 429.434 1499.59 431.459 1505.68 438.753C1508.49 442.12 1511.26 444.847 1511.85 444.812C1512.43 444.777 1514.61 443.361 1516.7 441.665C1519.55 439.355 1520.92 437.485 1522.15 434.202C1523.91 429.537 1527.99 423.488 1529.16 423.803C1529.55 423.907 1529.91 426.116 1529.97 428.712C1530.02 431.308 1530.74 434.511 1531.56 435.831C1533.47 438.915 1533.15 446.023 1530.94 449.681C1529.48 452.104 1529.51 452.565 1531.4 455.942C1532.52 457.946 1533.93 462.48 1534.53 466.017C1535.12 469.553 1536.53 474.707 1537.65 477.47L1539.69 482.493L1537.06 488.706C1535.16 493.214 1533.31 496.065 1530.35 499.091C1525.8 503.726 1519.79 507.702 1517.15 507.822C1516.21 507.866 1513.63 509.373 1511.43 511.172C1509.24 512.971 1507.08 514.347 1506.64 514.229C1506.2 514.111 1503.81 515.522 1501.34 517.364C1497.22 520.436 1496.55 520.641 1493.33 519.841C1490.85 519.227 1488.79 519.39 1486.35 520.39L1482.89 521.812L1481.54 519.3L1481.54 519.3ZM1087.19 395.196C1085.92 392.999 1085.87 392.035 1086.89 389.753C1087.86 387.605 1087.87 386.191 1086.92 383.483C1086.26 381.561 1085.82 379.587 1085.95 379.098C1086.08 378.609 1085.26 375.882 1084.12 373.038C1082.37 368.642 1082.2 367.028 1082.99 362.273C1084.39 353.882 1084.15 344.331 1082.36 336.974C1081.48 333.358 1080.92 328.819 1081.12 326.887C1081.53 322.777 1084.7 317.343 1090.26 311.218L1093.95 307.144L1093.69 302.669C1093.54 300.165 1093.9 297.345 1094.5 296.267C1095.2 295.006 1095.26 293.298 1094.69 291.319C1094.21 289.657 1093.78 286.117 1093.73 283.453C1093.68 279.894 1092.94 277.393 1090.95 274.026C1087.13 267.549 1086.99 265.365 1090.09 260.26C1096.38 249.869 1094.6 242.347 1085.61 241.327C1082.11 240.93 1082 240.833 1082.16 238.327C1082.28 236.404 1081.58 235.066 1079.44 233.133C1076.65 230.622 1075.27 230.246 1070.88 230.798C1069.88 230.924 1065.85 231.207 1061.94 231.429C1056.05 231.762 1054.36 231.556 1052.19 230.242C1050.13 228.996 1048.2 228.66 1043.3 228.689C1038.23 228.719 1036.48 228.4 1034.12 227.012C1029.19 224.117 1022.26 213.426 1022.16 208.579C1022.09 204.827 1018.01 195.035 1016.03 193.88C1014.78 193.146 1014.69 192.814 1015.66 192.501C1016.64 192.186 1016.57 191.875 1015.36 191.186C1013.43 190.091 1013.68 188.346 1015.68 188.864C1016.91 189.181 1016.97 189.072 1016.1 188.113C1015.47 187.407 1015.46 187.085 1016.09 187.245C1016.74 187.411 1016.76 186.336 1016.15 184.148C1015.3 181.067 1015.36 180.707 1016.91 179.703C1021.66 176.639 1024.79 168.146 1023.48 161.913C1022.85 158.938 1024.68 155.548 1028.52 152.546C1029.97 151.416 1032.97 148.528 1035.2 146.129C1039.1 141.932 1046.69 136.679 1048.25 137.097C1049.98 137.56 1057.16 133.06 1057.66 131.202C1058.79 127.008 1062.41 123.499 1067.2 121.971C1069.78 121.15 1073 119.429 1074.36 118.147C1077.14 115.525 1077.45 115.496 1079.29 117.679C1080.01 118.535 1082.01 119.88 1083.74 120.668C1086.37 121.87 1087.78 121.89 1092.47 120.794C1100.55 118.909 1105.17 119.135 1113.12 121.806C1118.36 123.567 1120.82 123.997 1123.68 123.656C1127.89 123.153 1130.94 124.935 1129.43 127.018C1128.97 127.644 1128.86 128.719 1129.18 129.407C1129.58 130.274 1129.3 131.288 1128.28 132.702C1127 134.478 1127.01 135.112 1128.35 137.555C1129.2 139.101 1130.98 140.902 1132.3 141.557C1138.52 144.634 1140.17 145.987 1140.91 148.65C1141.45 150.6 1142.52 151.814 1144.57 152.796C1146.16 153.56 1148.38 155.019 1149.5 156.039C1151.4 157.771 1151.7 157.806 1154 156.57C1155.55 155.74 1156.44 154.66 1156.39 153.668C1156.35 152.8 1156.92 151.446 1157.66 150.661C1159.56 148.635 1163.09 149.83 1167.95 154.143C1173.25 158.842 1184.25 164.132 1188.67 164.099C1190.79 164.083 1192.69 164.585 1194.28 165.581C1199.47 168.833 1202.73 168.249 1204.78 163.7C1205.46 162.189 1206.24 161.014 1206.52 161.088C1207.05 161.23 1207.96 158.929 1209.43 153.756C1209.91 152.076 1210.67 150.802 1211.14 150.926C1211.69 151.073 1211.82 150.473 1211.52 149.186C1211.02 147.036 1208.96 146.532 1203.54 147.228C1200.97 147.558 1200.34 147.345 1198.59 145.563C1196.33 143.253 1193.63 142.275 1192.49 143.35C1191.64 144.149 1187.64 142.357 1185.75 140.332C1184.39 138.877 1183.68 135.439 1184.28 133.214C1184.51 132.36 1184.02 130.857 1183.2 129.872C1181.93 128.349 1181.92 128.012 1183.15 127.608C1183.94 127.347 1185.37 127.554 1186.33 128.069C1187.55 128.724 1188.89 128.532 1190.81 127.424C1192.61 126.382 1194.56 126.06 1196.52 126.477C1198.16 126.824 1200.7 126.71 1202.17 126.223C1205.35 125.166 1211.36 127.306 1215.48 130.966C1221.04 135.901 1226.79 137.24 1230.03 134.352C1231.71 132.849 1231.82 132.468 1231.15 130.434C1230.74 129.196 1228.08 125.879 1225.23 123.064L1220.04 117.945L1221.78 116.036C1222.74 114.987 1223.37 113.866 1223.19 113.546C1223 113.227 1223.28 112.562 1223.81 112.068C1224.34 111.575 1224.97 110.715 1225.22 110.158C1225.74 108.969 1224.32 108.957 1217.05 110.091C1212.82 110.75 1212.12 111.111 1212.69 112.345C1213.06 113.154 1214.15 114.041 1215.1 114.318C1216.43 114.705 1216.01 115.006 1213.25 115.634C1209.91 116.395 1209.57 116.328 1208 114.567C1206.66 113.061 1206.58 112.507 1207.6 111.783C1208.61 111.064 1208.59 110.677 1207.5 109.897C1206.75 109.358 1205.88 108.284 1205.57 107.512C1204.06 103.76 1194.43 109.985 1190.09 117.509C1188.06 121.041 1188.04 121.248 1189.56 123.201L1191.15 125.228L1187.31 125.004C1185.2 124.88 1182.49 124.206 1181.29 123.505C1179.07 122.212 1175.78 122.384 1175.4 123.814C1175.28 124.234 1174.69 124.214 1174.08 123.771C1173.47 123.327 1172.33 123.258 1171.55 123.618C1170.33 124.176 1170.27 124.881 1171.08 128.417C1171.97 132.246 1171.9 132.72 1170.19 134.65C1168.05 137.069 1166.81 136.515 1165.73 132.656C1164.98 129.966 1165.01 129.915 1166.89 130.144C1169.27 130.433 1169.81 129.014 1167.68 128.063C1162.83 125.894 1160.84 122.499 1161.97 118.301C1162.84 115.025 1160.77 110.599 1157.39 108.509C1155.63 107.423 1153.87 105.662 1153.48 104.595C1153.09 103.528 1151.6 101.746 1150.16 100.634C1148.72 99.5223 1147.24 97.785 1146.87 96.7736C1146.34 95.3219 1145.82 95.0239 1144.38 95.3589C1143.38 95.5923 1142.43 96.3099 1142.25 96.9535C1141.68 99.0778 1149.54 111.483 1153.95 115.422C1158.62 119.598 1159.2 120.799 1155.67 118.968C1152.52 117.335 1151.41 117.827 1151.88 120.647C1152.21 122.628 1151.94 123.13 1149.9 124.251L1147.54 125.554L1148.62 123.231C1150.33 119.544 1146.72 112.62 1142.49 111.486C1140.94 111.071 1136.53 103.695 1135.78 100.259C1134.98 96.5874 1133.29 95.4672 1130.18 96.5452C1125.5 98.1693 1122.29 98.2815 1119.32 96.9244C1115.39 95.1216 1112.4 95.8649 1112.36 98.6609C1112.34 100.121 1111.98 100.68 1111.21 100.473C1110.6 100.309 1108.78 100.808 1107.17 101.582C1105.56 102.356 1103.96 102.914 1103.62 102.823C1102.61 102.553 1098.37 106.957 1097.87 108.792C1097.4 110.548 1093.27 113.151 1089.76 113.91C1088.64 114.152 1086.24 113.952 1084.43 113.466C1081.93 112.797 1080.8 112.934 1079.77 114.03C1078.43 115.465 1078.4 115.454 1076.86 112.795C1075.42 110.301 1074.42 109.505 1070.62 107.827C1068.62 106.945 1069.53 102.129 1072.89 95.8204C1074.33 93.1235 1075.52 89.9887 1075.54 88.8543C1075.59 85.5576 1078.51 84.3863 1082.4 86.0979C1091.39 90.05 1096.85 91.5989 1098.48 90.6579C1100.72 89.365 1103.08 83.7536 1102.88 80.1988C1102.74 77.8802 1102.01 76.7503 1099.42 74.8754C1095.61 72.1181 1095.94 70.5266 1100.1 71.5965C1101.69 72.0041 1104.14 71.9554 1105.56 71.4882C1106.98 71.0211 1108.43 70.9463 1108.78 71.3221C1109.75 72.3468 1114.8 70.9959 1116.85 69.1658C1117.84 68.2813 1119.52 67.5682 1120.57 67.5811C1121.63 67.594 1124.8 66.3829 1127.61 64.89C1131.59 62.7734 1133.52 62.2902 1136.34 62.6966C1139.84 63.2001 1143.99 61.3265 1142.67 59.8395C1141.86 58.9153 1142.09 54.7309 1143.03 53.4362C1143.47 52.8227 1144.95 51.9553 1146.3 51.5087L1148.77 50.6966L1147.33 53.9189C1146.08 56.7157 1146.09 57.1604 1147.39 57.2865C1148.22 57.3665 1149.85 57.1971 1151.02 56.9103C1152.8 56.4736 1153.17 56.617 1153.3 57.7927C1153.51 59.8078 1150.98 61.4339 1149.94 59.9566C1149.36 59.1405 1148.88 59.0365 1148.29 59.597C1147.67 60.1752 1147.35 60.0478 1147.07 59.1194C1146.86 58.423 1146.45 57.9906 1146.16 58.1587C1145.87 58.3267 1146.19 59.7457 1146.87 61.3118C1148.02 63.9519 1148.33 64.1438 1151.03 63.9444C1153.34 63.7736 1154.35 64.0964 1155.9 65.5115C1157.65 67.1091 1158.35 67.243 1162.66 66.8049C1166.44 66.421 1167.83 66.616 1169.17 67.7134C1170.39 68.723 1171.43 68.9868 1172.9 68.6644C1177.09 67.7489 1178.5 66.5881 1178.75 63.8337C1179.11 59.7509 1180.7 58.8054 1183.63 60.9138C1185.63 62.3485 1186.29 62.4892 1187.56 61.7537C1188.91 60.975 1188.93 60.5576 1187.68 58.2348C1186.48 56.0001 1186.48 55.5249 1187.69 55.109C1188.47 54.8392 1191 55.3448 1193.31 56.2326C1197.53 57.8573 1203.4 57.6107 1202.87 55.8312C1202.4 54.2728 1197.51 52.5499 1193.03 52.3633C1189.06 52.1978 1188.1 51.8664 1185.57 49.8015C1181.65 46.5945 1181.75 44.1 1185.96 40.6553C1191.37 36.2214 1192.56 34.6651 1191.8 33.0126C1190.67 30.5658 1188.86 30.7811 1183.95 33.9477C1181.35 35.621 1178.01 37.1497 1176.53 37.3449C1175.05 37.5401 1172.98 38.6308 1171.95 39.7687C1170.26 41.6218 1170.14 42.0731 1170.81 44.0959C1171.22 45.338 1172.23 46.791 1173.07 47.3248C1175.36 48.7939 1174.47 50.156 1170.22 51.6504C1168.91 52.11 1166.87 53.8528 1165.67 55.5231C1164.18 57.6162 1162.43 58.8486 1160.04 59.4884C1156.67 60.3902 1156.54 60.3613 1155.32 58.472C1154.63 57.4024 1154.11 55.4602 1154.17 54.1558C1154.23 52.8514 1153.59 50.3076 1152.76 48.5028L1151.24 45.2214L1147.94 46.1912C1146.12 46.7246 1143.9 46.9569 1143 46.7074C1140.41 45.9877 1138.16 42.3777 1138.65 39.7375C1138.89 38.4256 1139.01 36.6543 1138.91 35.8012C1138.67 33.7722 1143.25 31.3171 1147.34 31.286C1151.44 31.2548 1160.65 27.8998 1162.65 25.7051C1163.55 24.7288 1166.15 22.9809 1168.44 21.8207C1170.72 20.6606 1172.69 19.3468 1172.81 18.9011C1172.93 18.4554 1174.95 17.9361 1177.29 17.7471C1179.63 17.5582 1183.59 17.138 1186.09 16.8135C1189.16 16.415 1192.77 16.7386 1197.22 17.8098C1205 19.6815 1209.77 22.0584 1213.24 25.7824C1214.98 27.651 1216.51 28.5395 1218.18 28.6468C1221.15 28.8387 1234.96 37.541 1235.15 39.3442C1235.34 41.1565 1230.61 41.5506 1227.03 40.0197C1225.4 39.3186 1222.05 37.72 1219.6 36.4673C1216.3 34.781 1214.84 34.3645 1213.98 34.8631C1213.12 35.3618 1213.32 35.9557 1214.77 37.1511C1215.85 38.0391 1216.99 39.9375 1217.3 41.3698C1218.1 45.0167 1222.7 49.0493 1225.72 48.7421C1228.62 48.4469 1228.68 48.1266 1226.31 45.8779C1224.12 43.7979 1225.38 43.8143 1228.28 45.9033C1230.59 47.5713 1233.83 47.1353 1233.63 45.1841C1233.53 44.2701 1234.59 43.9114 1237.28 43.941C1243.05 44.0042 1243.5 43.9123 1243.34 42.6977C1242.76 38.1035 1242.7 38.2161 1245.09 39.1577C1246.37 39.6601 1247.18 40.4798 1246.92 41.0062C1246.66 41.5263 1247.12 42.5731 1247.93 43.3325C1249.14 44.4731 1250.34 44.5025 1254.79 43.5019C1261.32 42.0346 1266.04 42.2505 1267.34 44.0757C1268.06 45.0935 1269.59 45.5107 1274.24 45.9524C1277.53 46.2648 1280.52 46.837 1280.88 47.224C1281.25 47.6111 1281.89 47.602 1282.32 47.204C1283.24 46.3335 1282.09 43.4886 1280.95 43.8303C1279.58 44.2428 1276.06 41.9013 1277.13 41.2851C1278.2 40.6646 1299.55 52.0715 1300.55 53.7993C1301.22 54.964 1304.46 54.5179 1304.81 53.2122C1304.92 52.7722 1303.61 51.1881 1301.88 49.6921C1296.53 45.0535 1297.42 40.1593 1303.59 40.2575C1307.18 40.3145 1308.37 41.6761 1311.35 49.1229C1315.23 58.791 1315.18 58.3402 1312.47 60.5795C1310.46 62.2377 1310.25 62.6938 1311.15 63.3535C1312.88 64.6036 1317.67 63.1279 1318.87 60.9806C1320.27 58.4646 1319.62 55.8271 1317.02 53.4572C1314.97 51.5941 1313.86 48.8852 1314.36 47.0056C1314.53 46.365 1315.47 46.4437 1317.15 47.2408C1319.67 48.4359 1322.12 48.0619 1329.28 45.3906C1330.91 44.7797 1333.41 44.7568 1335.76 45.331C1340.54 46.4959 1342.29 46.1105 1341.37 44.0975C1341 43.3081 1340.92 42.5375 1341.19 42.3851C1342.51 41.6201 1356.49 43.3465 1359.46 44.6429C1362.33 45.8903 1363.32 45.8958 1366.27 44.6807C1368.18 43.8988 1369.82 42.9347 1369.93 42.5381C1370.2 41.538 1363.02 39.7115 1362.13 40.5525C1360.9 41.7097 1359.92 40.9294 1360.67 39.3899C1361.3 38.09 1360.66 37.6814 1354.83 35.6206C1338.9 29.9931 1337.65 29.3414 1340.13 27.9122C1342.3 26.6557 1346.51 27.817 1349.56 30.519C1350.81 31.6261 1353.04 32.8562 1354.52 33.2526C1356 33.649 1357.34 34.4024 1357.5 34.927C1357.66 35.4515 1358.99 36.2037 1360.46 36.5984C1364.54 37.6919 1371.96 41.5685 1371.25 42.2369C1370.91 42.5623 1371.58 43.0859 1372.76 43.4005C1373.93 43.715 1375.9 44.9222 1377.13 46.083C1378.79 47.6441 1381.4 48.7439 1387.14 50.3074C1393.31 51.988 1395.28 52.8558 1396.75 54.5417C1397.76 55.708 1398.52 56.8946 1398.44 57.1786C1398.36 57.4627 1396.13 58.2293 1393.48 58.8823C1387.1 60.4594 1387.92 62.1106 1395.11 62.1699C1399.77 62.2083 1400.77 62.4692 1404.09 64.5058C1406.81 66.1768 1408.63 66.7844 1410.79 66.7466C1412.94 66.7089 1414.97 67.383 1418.21 69.2212C1421.6 71.1393 1423.46 71.7406 1425.94 71.718C1431.59 71.6665 1437.96 73.8145 1441.17 76.8581C1442.76 78.3709 1445.71 81.1671 1447.71 83.0717C1451.25 86.4479 1451.42 86.5213 1454.65 86.0021C1457.35 85.5674 1458.72 85.8373 1462.09 87.469C1465.44 89.0909 1466.75 89.3532 1469.01 88.8575C1471.23 88.3725 1471.67 87.9617 1471.17 86.8675C1470.2 84.7516 1475.47 85.4739 1481.43 88.2737C1484.16 89.556 1487.66 91.043 1489.2 91.578C1490.75 92.1131 1493.58 93.8352 1495.51 95.4049C1498.44 97.7987 1500.86 98.8127 1510.55 101.694C1519.73 104.428 1522.58 105.588 1524.49 107.377C1526.44 109.192 1528.94 110.191 1537.51 112.577C1545.39 114.772 1548.83 116.096 1550.91 117.732C1554.26 120.373 1555.93 120.182 1554.49 117.324C1553.45 115.268 1553.46 115.268 1559.02 117.367C1568.35 120.885 1579.27 126.059 1582.76 128.606C1584.57 129.932 1588.19 131.877 1590.79 132.928C1593.4 133.978 1597.02 136.175 1598.84 137.809C1601.61 140.289 1602.6 140.747 1604.85 140.581C1607.92 140.354 1609.56 141.549 1612.85 146.428L1614.9 149.459L1612.75 149.425C1610.6 149.391 1605.6 146.629 1604.14 144.672C1603.72 144.096 1603 143.736 1602.54 143.872C1602.09 144.008 1600.27 143.141 1598.5 141.945C1594.35 139.146 1592.17 139.194 1593.63 142.052C1594.63 144.003 1594.59 144.028 1591.93 143.113C1586.95 141.399 1587.95 143.271 1594.62 148.172C1598.24 150.837 1601.34 153.232 1601.5 153.494C1602.06 154.443 1599.29 154.686 1597.54 153.84C1595.62 152.912 1590.05 153.747 1589.71 155.015C1589.6 155.435 1588.52 156.303 1587.32 156.941C1585.31 158.008 1584.97 157.954 1583.12 156.265C1581.38 154.685 1580.74 154.502 1578.55 154.958C1577.14 155.25 1574.82 155.459 1573.39 155.422C1571.95 155.385 1570.22 155.613 1569.53 155.927C1567.52 156.853 1569.36 161.608 1572.92 164.684C1574.85 166.358 1576.08 168.235 1576.2 169.71C1576.3 171.004 1576.67 173.184 1577.03 174.554C1577.6 176.786 1577.51 177.06 1576.22 177.195C1575.27 177.295 1574.84 177.888 1574.97 178.924C1575.07 179.792 1575.01 181.449 1574.82 182.606C1574.64 183.763 1574.59 185.391 1574.71 186.224C1574.87 187.308 1574.38 187.764 1572.98 187.827C1571.42 187.898 1570.6 187.09 1568.94 183.848C1567.79 181.61 1565.74 178.402 1564.38 176.719C1563.01 175.036 1560.84 171.026 1559.54 167.808C1557.26 162.132 1557.24 161.897 1559.03 159.933C1560.05 158.82 1561.12 157.066 1561.41 156.036C1561.7 155.005 1562.69 153.383 1563.61 152.431C1565.37 150.613 1565.37 148.787 1563.62 145.212C1562.47 142.864 1559.13 143.5 1559.25 146.044C1559.36 148.388 1557.07 148.525 1555.07 146.293C1554.21 145.326 1552.01 143.869 1550.19 143.055C1547.06 141.659 1546.79 141.694 1545.35 143.688C1544.51 144.849 1543.76 146.838 1543.67 148.108C1543.54 150.087 1543.18 150.402 1541.13 150.308C1539.74 150.245 1537.58 149.3 1535.95 148.041C1534.16 146.659 1532.33 145.895 1530.86 145.918C1529.6 145.937 1525.55 145.177 1521.86 144.228C1516.02 142.726 1514.83 142.679 1512.62 143.868C1511.22 144.618 1509.19 146.835 1508.1 148.796C1507.01 150.756 1505.38 153.037 1504.46 153.865C1502.87 155.295 1502.93 155.5 1505.7 157.994C1508.71 160.702 1512.38 162.187 1515.52 161.966C1517.94 161.795 1523.3 168.886 1524.3 173.595C1524.71 175.524 1525.67 177.682 1526.42 178.392C1529.29 181.076 1526.82 192.992 1521.97 199.916C1518.61 204.709 1515.98 205.866 1513.12 203.805C1512.03 203.017 1511.02 202.34 1510.87 202.3C1510.72 202.259 1509.4 203.526 1507.94 205.114C1506.03 207.2 1505.46 208.355 1505.88 209.273C1506.69 211.029 1505.3 212.661 1502.63 213.109C1501.4 213.315 1500.29 213.841 1500.17 214.276C1500.06 214.712 1502.05 217.516 1504.6 220.508C1507.85 224.313 1509.41 226.987 1509.81 229.412C1510.12 231.318 1510.18 232.972 1509.96 233.088C1509.73 233.204 1507.82 233.659 1505.7 234.098L1501.86 234.897L1501.08 229.678C1500.2 223.837 1498.81 221.21 1495.62 219.36C1494.01 218.429 1493.58 217.606 1493.96 216.173C1494.32 214.86 1493.77 213.516 1492.25 211.977C1490.03 209.734 1489.98 209.722 1486.72 210.701C1483.46 211.68 1483.43 211.672 1483 209.837C1482.76 208.819 1482.72 207.422 1482.9 206.733C1483.09 206.044 1482.65 204.929 1481.93 204.253C1480.86 203.249 1479.96 203.442 1477 205.313C1475 206.57 1472.55 207.814 1471.54 208.077C1469.98 208.485 1469.82 208.792 1470.45 210.169C1470.86 211.056 1472.54 213.095 1474.19 214.7C1476.82 217.251 1477.38 217.507 1478.7 216.746C1479.96 216.022 1480.77 216.201 1483.54 217.812L1486.87 219.748L1484.51 220.55C1480.13 222.036 1478.61 223.024 1477.48 225.121C1476.56 226.842 1476.67 227.464 1478.12 228.658C1479.08 229.454 1480.22 231.904 1480.64 234.101C1481.07 236.298 1482.35 239.052 1483.5 240.221C1486.02 242.793 1486.38 244.905 1484.39 245.409C1482.54 245.879 1482.95 247.434 1485.08 248.004C1487.62 248.687 1487.23 250.211 1482.42 258.324C1476.59 268.15 1472.95 270.974 1465.21 271.663C1462.16 271.935 1458.55 271.922 1457.18 271.635C1454 270.968 1451.21 271.644 1448.36 273.775L1446.1 275.465L1445.87 273.188C1445.57 270.216 1443.4 268.908 1439.64 269.432C1436.2 269.911 1433.6 271.452 1432.05 273.929C1430.67 276.146 1432.14 281.092 1435.54 285.665C1438.33 289.419 1440.41 297.523 1439.97 302.896C1439.59 307.569 1437.37 310.108 1433.05 310.814C1431.08 311.135 1429.08 311.994 1428.62 312.723C1427.5 314.472 1423.23 315.878 1422.85 314.622C1422.69 314.098 1422.96 313.047 1423.45 312.285C1423.94 311.523 1424.27 310.241 1424.18 309.436C1424.06 308.277 1423.64 308.063 1422.16 308.408C1420.62 308.768 1420.15 308.446 1419.49 306.58C1417.86 301.993 1411.79 293.697 1409.64 293.122C1408.88 292.92 1408.35 293.751 1407.95 295.74C1407.64 297.343 1406.49 300.328 1405.41 302.373C1403.65 305.705 1403.56 306.377 1404.53 308.845C1405.13 310.36 1405.6 312.587 1405.58 313.794C1405.56 315.02 1407.23 318.277 1409.35 321.173C1412.89 325.999 1413.18 326.84 1413.46 333.358C1413.63 337.209 1413.68 340.708 1413.57 341.135C1413.19 342.523 1411.64 341.502 1408.75 337.985C1405.78 334.349 1404.54 329.528 1404.56 321.597C1404.57 318.153 1404.01 316.524 1401.88 313.862C1399.26 310.596 1399.22 310.361 1400.55 306.47C1401.3 304.26 1402.52 301.17 1403.26 299.603C1404.31 297.397 1404.4 295.64 1403.68 291.822C1403.17 289.11 1402.79 285.054 1402.84 282.809C1402.95 277.793 1401.53 276.569 1397.92 278.554C1396.42 279.374 1394.97 279.984 1394.69 279.909C1393.39 279.56 1392.34 276.308 1393.13 275.071C1394.57 272.824 1392.07 262.979 1389.58 261.065C1388.21 260.018 1387.22 258.1 1386.84 255.766C1386.18 251.711 1384.72 249.836 1382.62 250.347C1381.86 250.532 1379.01 250.551 1376.29 250.389C1371.29 250.091 1369.21 251.07 1369.19 253.722C1369.19 254.698 1368.12 255.357 1365.88 255.772C1364.07 256.109 1361.92 257.188 1361.11 258.172C1360.3 259.155 1358.87 259.994 1357.93 260.036C1357 260.079 1355.33 260.975 1354.23 262.026C1353.13 263.078 1350.24 264.765 1347.8 265.775C1344.47 267.157 1343.3 268.113 1343.03 269.642C1341.5 278.582 1338.31 285.552 1334.14 289.082C1330.08 292.526 1329.84 292.588 1327.67 290.794C1326.47 289.807 1325.95 288.367 1326.1 286.42C1326.23 284.824 1325.72 280.101 1324.99 275.924C1320.55 250.651 1320.15 245.949 1322.13 242.13C1323.47 239.549 1323.13 235.025 1321.61 235.119C1321 235.157 1320.35 235.706 1320.17 236.339C1319.1 240.055 1314.75 239.504 1312.35 235.349L1310.76 232.596L1312.81 232.405C1315.12 232.191 1315.49 230.042 1313.25 229.853C1312.45 229.786 1310.94 228.492 1309.88 226.977C1308.82 225.462 1307.64 224.138 1307.26 224.035C1306.87 223.932 1306.52 223.044 1306.48 222.062C1306.36 219.484 1302.57 216.254 1300.13 216.652C1297.94 217.01 1280.23 212.067 1277.51 210.337C1276.53 209.713 1274.96 207.643 1274.02 205.736C1272.33 202.291 1272.3 202.27 1268.37 202.275C1264.65 202.281 1264.17 202.058 1260.14 198.449C1256.65 195.33 1255.73 193.907 1255.23 190.811C1254.58 186.86 1251.73 183.362 1249.37 183.61C1248.62 183.689 1247.49 184.766 1246.85 186.004C1245.92 187.783 1246.02 189.124 1247.29 192.39C1248.18 194.663 1248.91 198.033 1248.91 199.877C1248.92 203.839 1250.59 205.465 1252.81 203.674C1254.16 202.593 1254.43 202.617 1254.82 203.849C1255.06 204.636 1255.04 205.616 1254.78 206.027C1253.95 207.32 1258.04 210.912 1260.39 210.95C1261.58 210.969 1264.47 209.71 1266.81 208.152C1270.5 205.699 1271.54 205.746 1270.34 208.313C1269.52 210.041 1270.38 212.551 1272.42 214.407C1275.56 217.272 1279.52 222.84 1279.22 223.97C1279.08 224.492 1277.77 225.554 1276.31 226.332C1274.85 227.11 1272.55 228.968 1271.2 230.46C1267.92 234.087 1260.02 238.562 1257.9 237.995C1255.46 237.34 1251.27 238.43 1249.23 240.252C1248.26 241.116 1246.06 242.109 1244.34 242.46C1235.52 244.259 1225.11 245.686 1222.34 245.474C1219.38 245.248 1219.19 245.059 1218.48 241.716C1218.07 239.779 1218.01 236.097 1218.34 233.533C1218.77 230.197 1218.47 227.925 1217.3 225.552C1216.41 223.727 1215.77 221.879 1215.88 221.445C1216 221.011 1215.02 218.739 1213.72 216.396C1212.09 213.478 1211.31 210.575 1211.25 207.182C1211.19 204.458 1210.55 200.886 1209.83 199.245C1204.82 187.908 1203.48 184.024 1203.28 180.291C1203.01 175.343 1201.96 174.272 1200.48 177.459L1199.43 179.722L1197.6 175.485C1194.78 168.957 1193.59 171.261 1195.83 178.908C1196.89 182.527 1198.44 188.827 1199.27 192.908C1200.1 196.99 1201.34 201.699 1202.02 203.372C1202.71 205.096 1202.94 207.559 1202.54 209.051C1201.71 212.135 1202.12 214.305 1204.53 219.749C1205.5 221.938 1206.24 224.951 1206.16 226.444C1206.06 228.358 1207.13 230.675 1209.8 234.308C1213.85 239.829 1216.03 245.044 1215.9 248.867C1215.85 250.303 1216.66 252.007 1217.95 253.183C1219.91 254.974 1220.73 255.157 1228.35 255.527C1232.91 255.748 1237.81 255.67 1239.25 255.354L1241.88 254.78L1241.56 258.165C1241.27 261.241 1240.35 262.515 1231.53 272.126C1222.05 282.459 1221.65 282.778 1214.11 286.025C1209.86 287.853 1205.29 290.258 1203.94 291.369C1202.59 292.481 1198.47 295.352 1194.78 297.749C1184 304.747 1180.7 312.555 1183.29 324.903C1183.95 328.04 1183.94 330.277 1183.25 331.509C1182.68 332.535 1182.12 335.358 1181.99 337.784C1181.8 341.603 1181.45 342.545 1179.41 344.812C1176.46 348.085 1174.56 349.035 1168.42 350.296C1165.74 350.846 1163.46 351.647 1163.34 352.074C1163.23 352.502 1160.98 354.273 1158.34 356.01C1155.7 357.748 1153.45 359.54 1153.33 359.993C1153.21 360.446 1153.47 362.508 1153.91 364.575C1155.23 370.772 1152.3 374.222 1144.89 375.197C1141.77 375.608 1140.21 377.738 1139.76 382.209C1139.52 384.551 1139.09 385.236 1137.63 385.576C1136.63 385.811 1134.57 387.134 1133.07 388.518C1128.3 392.887 1116.16 399.623 1111.19 400.659C1107.04 401.523 1106.06 401.435 1103.58 399.974C1101.38 398.686 1099.45 398.278 1095.21 398.211C1088.35 398.104 1089.01 398.353 1087.19 395.196L1087.19 395.196ZM1264.88 163.111C1267.28 162.585 1267.75 162.064 1268.58 158.949C1269.18 156.715 1269.16 154.864 1268.54 153.982C1267.99 153.208 1267.27 151.33 1266.94 149.809C1266.39 147.293 1266.44 147.121 1267.51 147.898C1268.92 148.923 1271.31 148.784 1271.61 147.658C1271.73 147.213 1271.35 145.576 1270.77 144.021C1269.89 141.677 1269.4 141.264 1267.91 141.614C1266.69 141.897 1266.17 141.763 1266.32 141.207C1266.44 140.75 1265.28 139.24 1263.74 137.851C1260.33 134.778 1259.52 132.168 1261.37 130.196C1262.77 128.704 1266.43 128.376 1267.62 129.636C1269.22 131.335 1270.25 129.739 1269.26 127.093C1266.87 120.676 1261.43 119.599 1253.18 123.907C1247.85 126.687 1247.2 127.631 1249.27 129.573C1250.04 130.296 1250.52 131.435 1250.34 132.104C1250.16 132.774 1251.05 135.29 1252.31 137.696C1255.22 143.238 1255.42 145.47 1253.51 150.594L1251.97 154.72L1256.81 159.11C1259.48 161.525 1261.77 163.548 1261.9 163.606C1262.03 163.665 1263.37 163.442 1264.88 163.111L1264.88 163.111ZM1181.1 385.615C1179.14 383.686 1179 382.906 1179.69 377.915C1180.24 373.927 1180.67 373.142 1183.98 370.008C1187.35 366.824 1187.71 366.135 1188.31 361.854C1189.16 355.673 1191.28 352.871 1194.96 353.04C1198.42 353.199 1207.19 348.842 1209.87 345.625L1211.92 343.167L1212.29 345.388C1213.22 350.976 1212.41 353.101 1205.53 362.966C1201.85 368.245 1197.71 374.628 1196.33 377.152C1191.91 385.229 1190.16 386.992 1186.44 387.102C1182.47 387.218 1182.83 387.316 1181.1 385.615ZM1587.95 479.384C1586.1 475.828 1585.2 472.958 1585.53 471.72C1586.27 468.975 1586.64 469.332 1587.92 473.994C1588.54 476.223 1589.87 479.416 1590.88 481.089C1591.9 482.763 1592.65 484.431 1592.55 484.797C1592.13 486.371 1590.71 484.701 1587.95 479.384ZM1223.27 380.423C1223.39 379.973 1223.86 379.704 1224.31 379.824C1224.76 379.945 1225.03 380.412 1224.9 380.862C1224.78 381.312 1224.32 381.581 1223.87 381.461C1223.42 381.34 1223.15 380.873 1223.27 380.423ZM1654.53 494.38C1654.37 493.836 1654.7 493.251 1655.27 493.08C1656.68 492.654 1656.95 493.367 1655.79 494.463C1655.17 495.05 1654.72 495.021 1654.53 494.38ZM1229.75 379.142C1229.8 378.944 1230.28 378.653 1230.8 378.495C1231.33 378.338 1231.65 378.599 1231.52 379.075C1231.39 379.552 1230.92 379.843 1230.47 379.722C1230.02 379.602 1229.7 379.341 1229.75 379.142ZM1635.83 479.052C1635.59 476.762 1636.8 476.305 1638.78 477.936C1640.49 479.345 1640.49 479.492 1638.87 480.121C1636.6 481 1636.02 480.793 1635.83 479.052ZM1641.99 476.802C1640.66 475.386 1641.98 474.893 1644.44 475.889C1646.36 476.67 1646.39 476.772 1644.73 477.268C1643.67 477.585 1642.55 477.395 1641.99 476.802ZM1604.6 463.564C1603.89 459.496 1604.85 458.264 1605.65 462.212C1606.49 466.32 1606.49 466.447 1605.64 466.211C1605.3 466.117 1604.83 464.926 1604.6 463.564ZM1607.88 463.823C1608.08 462.951 1608.4 462.519 1608.6 462.864C1608.8 463.209 1608.64 463.922 1608.25 464.45C1607.81 465.032 1607.67 464.786 1607.88 463.823L1607.88 463.823ZM1676.6 473.815C1676.17 472.403 1677.05 471.974 1678.71 472.783C1679.92 473.375 1679.89 473.512 1678.48 474.159C1677.36 474.675 1676.83 474.578 1676.6 473.815ZM1194.15 340.175C1194 339.651 1194.26 339.326 1194.73 339.454C1195.21 339.581 1195.5 340.054 1195.38 340.504C1195.26 340.954 1195 341.279 1194.8 341.226C1194.6 341.172 1194.31 340.7 1194.15 340.175ZM1555.39 428.731C1550.65 425.711 1548.71 423.565 1547.49 419.991C1546.09 415.907 1542.53 412.146 1540.17 412.254C1539.21 412.297 1537.32 413.418 1535.97 414.745C1533.67 417.004 1533.33 417.07 1530.59 415.788C1528.98 415.035 1526.93 413.245 1526.03 411.81C1524.89 409.987 1523.85 409.227 1522.56 409.286C1521.55 409.332 1520.22 408.883 1519.61 408.287C1518.65 407.357 1518.84 407.091 1520.95 406.394C1523.4 405.587 1523.41 405.57 1522.8 402.264C1522.31 399.608 1521.09 397.966 1516.7 394.062C1513.69 391.377 1510.14 388.889 1508.81 388.532C1505.76 387.717 1505.26 384.576 1508 383.514C1509.63 382.882 1509.5 382.581 1506.4 379.9C1503.12 377.053 1503.08 376.961 1505.16 376.443C1506.33 376.15 1508.1 376.114 1509.09 376.362C1511.01 376.845 1512.7 380.26 1512.1 382.477C1511.91 383.217 1512.27 385.046 1512.91 386.543C1514.06 389.225 1514.1 389.246 1515.81 387.99C1516.76 387.289 1519.5 386.197 1521.9 385.564L1526.25 384.414L1530.84 388.173C1533.37 390.241 1537 393.019 1538.91 394.347C1540.82 395.675 1544.44 399.072 1546.96 401.895C1551.76 407.288 1553.43 411.195 1551.51 412.557C1549.94 413.666 1552.85 421.413 1556.69 426.35C1560.91 431.777 1560.72 432.124 1555.39 428.731ZM1591.02 438.206C1590.58 437.255 1590.65 436.769 1591.19 436.915C1592.18 437.18 1592.91 439.041 1592.2 439.456C1591.93 439.607 1591.41 439.044 1591.02 438.206L1591.02 438.206ZM1454.44 398.04C1453.43 397.066 1453.22 396.492 1453.93 396.673C1455.4 397.045 1457.37 399.033 1456.67 399.436C1456.4 399.592 1455.4 398.963 1454.44 398.04ZM1468.56 400.665C1471.76 398.029 1475.76 397.607 1478.83 399.585C1481.07 401.026 1481.09 401.101 1479.12 400.659C1477.96 400.397 1474.97 400.82 1472.48 401.6C1466.8 403.379 1465.62 403.097 1468.56 400.665ZM1586.98 433.594C1586.23 431.965 1586.54 431.87 1588.33 433.174C1588.97 433.638 1589.41 434.346 1589.3 434.748C1588.99 435.88 1587.74 435.256 1586.98 433.594ZM1591 433.898C1590.91 433.014 1591.02 431.683 1591.25 430.94C1591.53 430.046 1591.76 430.328 1591.93 431.776C1592.07 432.979 1591.96 434.31 1591.68 434.734C1591.4 435.159 1591.09 434.782 1591 433.898ZM1654.05 451.619C1654.11 451.42 1654.58 451.129 1655.1 450.972C1655.63 450.814 1655.95 451.075 1655.83 451.552C1655.7 452.028 1655.23 452.319 1654.78 452.199C1654.33 452.078 1654 451.817 1654.05 451.619ZM1445.72 392.113C1445.22 391.723 1445.11 391.123 1445.47 390.779C1446.37 389.936 1451.6 391.397 1451.95 392.592C1452.11 393.116 1451.76 393.421 1451.17 393.269C1450.58 393.118 1449.31 392.955 1448.36 392.908C1447.41 392.86 1446.22 392.503 1445.72 392.113L1445.72 392.113ZM1458.03 394.753C1457.02 392.563 1458.88 392.477 1462.46 394.548C1466.06 396.634 1466.01 396.794 1461.79 396.442C1459.6 396.259 1458.5 395.765 1458.03 394.753ZM1581.01 427.171C1580.69 426.113 1580.78 425.356 1581.22 425.475C1581.66 425.592 1582.21 426.53 1582.45 427.559C1582.7 428.588 1582.6 429.352 1582.24 429.256C1581.88 429.16 1581.33 428.222 1581.01 427.171ZM1586.35 427.721C1584.81 424.718 1586.09 424.652 1587.7 427.651C1588.45 429.057 1588.69 430.107 1588.23 429.984C1587.77 429.861 1586.93 428.843 1586.35 427.721ZM1432.99 386.475C1430.17 385.285 1426.29 383.28 1424.36 382.019C1422.43 380.759 1420.02 379.764 1419.01 379.81C1416.98 379.903 1409.64 375.425 1409.95 374.28C1410.65 371.665 1418.03 373.432 1421.26 376.986C1422.46 378.313 1423.59 378.683 1426.86 378.817C1430.47 378.967 1431.15 379.251 1432.76 381.268C1433.76 382.523 1434.95 383.65 1435.4 383.771C1437.02 384.204 1441.19 388.257 1440.6 388.817C1440.27 389.13 1439.57 389.218 1439.05 389.012C1438.53 388.805 1435.8 387.664 1432.99 386.475ZM1580.91 421.883C1580.33 420.764 1580.23 419.948 1580.68 420.069C1581.13 420.189 1581.97 421.203 1582.54 422.321C1583.12 423.439 1583.22 424.256 1582.77 424.135C1582.32 424.014 1581.48 423.001 1580.91 421.883ZM1576.02 419.464C1575.71 418.779 1575.51 417.053 1575.58 415.628C1575.7 413.332 1575.77 413.254 1576.26 414.937C1576.56 415.982 1577.17 417.585 1577.61 418.5C1578.08 419.47 1578.03 420.277 1577.5 420.436C1577.01 420.586 1576.34 420.148 1576.02 419.464ZM1559.39 412.219L1557.66 410.549L1560.97 410.803C1562.79 410.942 1565.82 410.296 1567.7 409.367C1569.75 408.353 1571 408.12 1570.81 408.783C1570.35 410.441 1569 411.454 1565.33 412.891C1561.51 414.391 1561.66 414.409 1559.39 412.219ZM1406.77 367.909C1404.22 365.391 1400.58 357.313 1399.91 352.722C1399.56 350.246 1398.36 346.003 1397.24 343.293C1396.13 340.584 1394.95 337.111 1394.62 335.576C1394.29 334.04 1392.89 330.901 1391.49 328.599C1388.56 323.745 1387.2 319.105 1388.85 319.578C1390.98 320.19 1395.69 324.743 1397.39 327.853C1402.1 336.432 1403.12 338.006 1405.7 340.735C1408.18 343.368 1409.08 345.657 1408.58 348.085C1408.49 348.542 1408.99 350.058 1409.7 351.453C1410.4 352.849 1411.74 355.474 1412.67 357.289C1413.59 359.103 1414.3 361.735 1414.23 363.138C1414.03 367.73 1409.51 370.617 1406.77 367.909ZM1242.11 323.209C1242.23 322.759 1242.69 322.489 1243.14 322.61C1243.59 322.731 1243.86 323.197 1243.74 323.647C1243.62 324.097 1243.16 324.367 1242.71 324.246C1242.26 324.126 1241.99 323.659 1242.11 323.209ZM1458.51 381.187C1458.35 380.658 1458.64 379.57 1459.15 378.768C1459.67 377.966 1459.75 376.298 1459.34 375.055C1458.67 373.011 1458.78 372.649 1460.5 371.207C1461.54 370.331 1463.21 367.675 1464.2 365.304C1465.43 362.379 1466.79 360.541 1468.45 359.585C1470.71 358.278 1471.18 358.319 1474.99 360.156C1478.26 361.733 1479.64 362.015 1481.77 361.548C1485.35 360.765 1485.56 360.899 1483.9 362.909C1481.8 365.465 1478.9 365.685 1476.5 363.472C1472.21 359.521 1464.55 361.633 1467.1 366.061C1468.04 367.689 1468.72 367.996 1471.28 367.951C1475.67 367.874 1477.22 368.519 1474.32 369.217C1471.04 370.006 1470.03 371.587 1470.75 374.838C1471.07 376.318 1471.08 378.479 1470.77 379.643C1470.27 381.505 1470.03 381.6 1468.8 380.442C1468.03 379.719 1467.19 377.63 1466.95 375.8C1466.5 372.499 1466.48 372.482 1464.47 373.645C1462.7 374.664 1462.44 375.257 1462.47 378.221C1462.49 380.9 1462.22 381.712 1461.21 382.027C1459.52 382.556 1458.86 382.349 1458.51 381.186L1458.51 381.187ZM1571.94 406.902C1571.48 405.518 1570.13 403.495 1568.94 402.405C1567.74 401.316 1567 400.29 1567.28 400.125C1568.89 399.194 1574.45 406.875 1573.35 408.528C1573.02 409.036 1572.41 408.338 1571.94 406.902ZM1444.18 369.751C1443.12 368.774 1441.55 368.007 1440.68 368.046C1438.47 368.147 1430.83 364.335 1430.35 362.897C1429.98 361.753 1429.71 355.256 1429.85 350.715C1429.89 349.466 1430.57 348.016 1431.45 347.306C1432.73 346.278 1433.24 346.31 1434.51 347.501C1435.85 348.759 1436.22 348.704 1437.59 347.05C1438.44 346.016 1440.67 344.844 1442.54 344.445C1444.52 344.022 1446.65 342.806 1447.62 341.531C1448.75 340.061 1450.3 339.285 1452.34 339.169C1454.01 339.074 1456.67 337.994 1458.26 336.77C1459.84 335.546 1461.58 334.662 1462.11 334.805C1462.64 334.947 1463.93 336.595 1464.97 338.467L1466.87 341.869L1464.01 344.129C1460.77 346.696 1460.16 349.486 1461.84 354.003L1462.86 356.738L1460.47 357.527C1459.15 357.961 1457.95 358.769 1457.8 359.321C1457.31 361.198 1449.17 370.594 1447.64 371.063C1446.57 371.389 1445.53 370.996 1444.18 369.751ZM1491.72 382.472C1490.14 381.576 1490.29 380.065 1491.92 380.499C1492.54 380.665 1494.2 381.374 1495.62 382.075C1497.8 383.154 1497.93 383.379 1496.43 383.546C1494.47 383.765 1493.67 383.583 1491.72 382.472ZM1624.81 406.951C1624.86 406.753 1625.33 406.462 1625.86 406.304C1626.38 406.147 1626.71 406.408 1626.58 406.884C1626.45 407.361 1625.98 407.652 1625.53 407.531C1625.08 407.411 1624.75 407.15 1624.81 406.951ZM1492.24 369.052C1491.76 368.222 1491.93 367.454 1492.78 366.546C1493.45 365.827 1493.88 364.826 1493.73 364.323C1493.31 362.932 1495.94 360.53 1497.44 360.932C1498.64 361.254 1498.6 361.393 1496.98 362.44C1495.57 363.345 1495.24 364.103 1495.43 365.965C1495.82 369.728 1493.77 371.705 1492.24 369.051L1492.24 369.052ZM1082.03 256.253C1082.08 256.055 1082.56 255.764 1083.08 255.606C1083.61 255.449 1083.93 255.71 1083.8 256.186C1083.68 256.663 1083.2 256.954 1082.75 256.833C1082.3 256.713 1081.98 256.452 1082.03 256.253ZM1650 406.197C1649.84 405.672 1650.11 405.347 1650.58 405.475C1651.06 405.603 1651.35 406.075 1651.23 406.525C1651.11 406.975 1650.85 407.3 1650.65 407.247C1650.45 407.194 1650.16 406.721 1650 406.197ZM1089.57 247.75C1089.62 247.552 1090.1 247.261 1090.62 247.103C1091.15 246.946 1091.47 247.207 1091.34 247.683C1091.22 248.16 1090.74 248.451 1090.29 248.33C1089.84 248.21 1089.52 247.949 1089.57 247.75ZM1486.42 340.901C1485.84 336.843 1485.67 336.623 1483.13 336.507C1480.59 336.392 1480.53 336.305 1481.87 334.869C1482.99 333.681 1483.75 333.59 1485.41 334.448C1487 335.275 1488.19 335.189 1490.27 334.094C1491.77 333.297 1493.2 331.985 1493.42 331.179C1494 329.121 1495.18 336.86 1494.88 340.749C1494.66 343.701 1494.55 343.837 1493.56 342.435C1492.08 340.354 1489.82 341.495 1490.87 343.789C1491.29 344.704 1491.23 345.239 1490.73 345.104C1490.26 344.978 1489.24 344.942 1488.46 345.024C1487.41 345.134 1486.88 344.054 1486.42 340.901ZM1336.86 302.375C1336.34 300.644 1337.61 293.837 1338.74 292.245C1339.94 290.557 1339.99 290.594 1341.25 294.233C1342.76 298.594 1342.92 301.176 1341.76 302.22C1340.65 303.219 1337.14 303.329 1336.86 302.375ZM1520.71 347.101C1520.83 346.651 1521.35 346.154 1521.88 345.997C1522.4 345.839 1522.73 346.078 1522.61 346.528C1522.49 346.978 1521.96 347.475 1521.44 347.633C1520.92 347.79 1520.59 347.551 1520.71 347.101ZM1649.19 381.424C1649.31 380.974 1649.57 380.649 1649.77 380.702C1649.96 380.756 1650.26 381.228 1650.41 381.753C1650.57 382.277 1650.31 382.602 1649.83 382.474C1649.36 382.347 1649.07 381.874 1649.19 381.424ZM1464.73 326.931C1464.82 326.582 1467.03 324.904 1469.63 323.204C1473.45 320.712 1474.29 320.44 1473.95 321.803C1473.73 322.733 1471.93 324.52 1469.96 325.775C1466.62 327.903 1464.33 328.409 1464.73 326.931ZM1483.03 329.497C1482.94 328.64 1483.32 327.477 1483.87 326.912C1484.72 326.036 1484.96 326.09 1485.51 327.28C1486 328.345 1485.8 328.957 1484.67 329.865C1483.29 330.98 1483.18 330.957 1483.03 329.497L1483.03 329.497ZM857.329 158.423C857.992 157.954 858.357 157.262 858.14 156.887C857.924 156.512 858.51 156.409 859.442 156.659C860.736 157.005 860.933 157.475 860.272 158.635C859.769 159.519 858.718 159.972 857.765 159.717C856.485 159.374 856.389 159.089 857.329 158.423ZM1489.43 327.563C1489.36 326.63 1489.22 325.55 1489.13 325.163C1489.04 324.777 1489.31 324.554 1489.73 324.667C1490.55 324.886 1490.8 328.554 1490.03 328.999C1489.78 329.143 1489.51 328.497 1489.43 327.563ZM1481.71 323.207C1480.94 321.514 1482.58 319.843 1484.2 320.687C1485.21 321.217 1485.16 321.568 1483.87 322.936C1482.62 324.257 1482.22 324.307 1481.71 323.207ZM1492.14 322.987C1491.52 321.542 1491.19 320.259 1491.4 320.137C1492.24 319.65 1494.15 321.732 1494.88 323.927C1495.99 327.303 1493.65 326.497 1492.14 322.987ZM1479.54 316.216C1479.01 315.292 1478.68 314.112 1478.82 313.594C1478.96 313.076 1479.67 313.677 1480.39 314.929C1481.11 316.181 1481.43 317.361 1481.11 317.551C1480.78 317.74 1480.07 317.139 1479.54 316.216ZM837.336 144.012C837.117 143.632 837.039 142.94 837.163 142.475C837.301 141.963 837.669 142.113 838.099 142.857C838.488 143.533 838.566 144.224 838.271 144.395C837.977 144.565 837.556 144.393 837.336 144.012ZM832.992 141.679C833.113 141.229 833.374 140.904 833.572 140.958C833.771 141.011 834.062 141.483 834.219 142.008C834.377 142.533 834.116 142.857 833.639 142.73C833.163 142.602 832.872 142.129 832.992 141.679ZM871.885 150.347C872.006 149.897 872.267 149.572 872.465 149.625C872.664 149.678 872.955 150.151 873.112 150.676C873.27 151.2 873.009 151.525 872.532 151.397C872.056 151.269 871.765 150.797 871.885 150.347ZM1488.56 315.452C1487.87 314.769 1486.36 314.196 1485.2 314.178C1483.51 314.151 1482.59 313.221 1480.44 309.375C1477.41 303.942 1477.08 301.906 1478.92 299.939C1479.64 299.179 1480.52 297.45 1480.88 296.097C1482.07 291.656 1485 292.633 1485.95 297.79C1486.48 300.647 1486.34 301.193 1484.48 303.606C1482.47 306.204 1482.46 306.34 1484.03 309.201C1485.17 311.266 1486.2 312.141 1487.53 312.162C1488.65 312.18 1489.7 312.811 1490.12 313.723C1491.11 315.893 1490.13 316.988 1488.56 315.452L1488.56 315.452ZM868.388 143.761C868.441 143.563 868.914 143.272 869.438 143.114C869.963 142.957 870.288 143.218 870.16 143.694C870.032 144.171 869.56 144.462 869.11 144.341C868.66 144.221 868.335 143.96 868.388 143.761ZM997.623 175.269C997.744 174.819 998.21 174.549 998.661 174.67C999.111 174.79 999.38 175.257 999.259 175.707C999.139 176.157 998.672 176.427 998.222 176.306C997.772 176.186 997.503 175.719 997.623 175.269ZM867.565 137.016C867.685 136.566 868.213 136.068 868.738 135.911C869.262 135.753 869.593 135.993 869.472 136.443C869.352 136.893 868.824 137.39 868.299 137.547C867.775 137.705 867.444 137.466 867.565 137.016ZM861.516 131.794C861.354 131.253 861.719 131.204 862.372 131.678C863.644 132.602 863.746 133.258 862.569 132.943C862.146 132.829 861.672 132.312 861.516 131.794ZM991.604 166.641C991.447 166.116 991.708 165.791 992.184 165.919C992.661 166.047 992.952 166.519 992.831 166.969C992.711 167.419 992.45 167.744 992.251 167.691C992.053 167.638 991.762 167.165 991.604 166.641ZM865.224 131.023C865.067 130.499 865.328 130.174 865.804 130.302C866.281 130.43 866.572 130.902 866.452 131.352C866.331 131.802 866.07 132.127 865.872 132.074C865.673 132.021 865.382 131.548 865.224 131.023ZM868.906 132.01C869.027 131.56 869.288 131.235 869.486 131.288C869.685 131.342 869.976 131.814 870.133 132.339C870.291 132.863 870.03 133.188 869.553 133.06C869.077 132.933 868.786 132.46 868.906 132.01ZM813.24 114.759C812.738 114.382 812.418 113.735 812.529 113.323C812.845 112.143 816.375 113.415 817.774 115.212C818.977 116.757 818.918 116.804 816.596 116.143C815.252 115.76 813.741 115.137 813.24 114.759ZM834.068 119.843C833.444 119.236 831.853 118.689 830.532 118.629C829.211 118.569 827.328 117.92 826.348 117.186C824.772 116.007 824.951 115.966 827.892 116.828C832.214 118.095 833.565 117.698 833.01 115.323C832.616 113.637 832.884 113.588 836.787 114.634C840.563 115.646 845.546 118.837 846.069 120.579C846.416 121.736 835.313 121.055 834.068 119.843ZM849.623 124.565C848.913 123.336 850.385 122.663 852.528 123.237C853.814 123.581 854.363 124.142 853.982 124.723C853.298 125.767 850.254 125.657 849.623 124.565ZM1441.91 281.873C1440.32 279.126 1443.16 277.112 1447.12 278.173C1448.88 278.643 1448.87 278.658 1446.68 280.833C1444.12 283.369 1442.92 283.63 1441.91 281.873ZM856.778 124.908C856.826 124.731 857.474 124.522 858.218 124.444C858.962 124.366 859.476 124.659 859.359 125.095C859.242 125.531 858.594 125.739 857.919 125.558C857.244 125.377 856.731 125.085 856.778 124.908ZM822.981 109.566C822.797 109.246 821.13 108.555 819.279 108.032C816.725 107.31 816.177 106.893 817.009 106.303C817.813 105.734 817.202 104.525 814.716 101.77C809.842 96.3679 806.749 94.7387 802.362 95.2624C798.249 95.7535 797.953 95.7194 798.204 94.783C798.663 93.0705 805.679 92.932 810.272 94.5448C814.665 96.0872 816.92 97.7143 824.463 104.784C830.662 110.595 830.668 110.604 828.154 110.644C825.299 110.69 823.402 110.294 822.981 109.566ZM830.745 104.246C832.606 103.646 833.474 103.879 833.2 104.904C833.079 105.354 832.154 105.494 831.143 105.216C829.657 104.807 829.581 104.622 830.745 104.246ZM1482.73 277.391C1482.33 276.931 1481.77 275.589 1481.51 274.407C1481.1 272.626 1481.39 271.891 1483.19 270.107C1485.98 267.35 1487.38 267.288 1487.33 269.922C1487.29 272.692 1483.72 278.497 1482.73 277.391ZM836.798 103.144C837.581 102.407 840.69 103.133 840.457 103.999C840.366 104.336 839.36 104.419 838.221 104.183C837.082 103.947 836.442 103.48 836.798 103.144ZM822.732 90.9236C821.826 89.0712 822.547 87.1417 823.999 87.5309C824.464 87.6555 824.464 88.4258 823.999 89.2427C823.534 90.0596 823.534 90.992 823.999 91.315C824.465 91.6379 824.565 92.0807 824.222 92.299C823.879 92.5173 823.209 91.8983 822.732 90.9236ZM829.207 85.7693C829.119 84.9325 829.281 84.113 829.566 83.9483C829.851 83.7836 830.156 84.3335 830.244 85.1704C830.332 86.0072 830.171 86.8267 829.885 86.9914C829.6 87.1561 829.295 86.6062 829.207 85.7693ZM824.277 83.6591C824.458 82.9841 825.307 82.6198 826.164 82.8494C827.549 83.2206 827.55 83.3668 826.167 84.1654C825.311 84.6596 824.461 85.0239 824.279 84.9751C824.097 84.9263 824.096 84.3341 824.277 83.6591ZM1515.27 249.584C1515.44 248.944 1514.97 247.118 1514.22 245.527C1512.46 241.75 1513.93 239.939 1516.46 242.774C1518.28 244.812 1518.64 248.077 1517.26 249.981C1516.21 251.424 1514.85 251.153 1515.27 249.584ZM881.675 74.5368C881.728 74.3383 882.201 74.0471 882.726 73.8896C883.25 73.732 883.575 73.993 883.447 74.4696C883.319 74.9461 882.847 75.2374 882.397 75.1168C881.947 74.9963 881.622 74.7352 881.675 74.5368ZM1521.41 244.877C1521.25 243.352 1522.86 242.381 1524.74 242.861C1526.04 243.194 1525.58 245.029 1523.95 245.969C1522.26 246.945 1521.6 246.662 1521.41 244.877ZM1529.69 243.893C1528.75 241.043 1526.6 240.109 1521.08 240.159C1518.83 240.18 1517.39 239.8 1516.57 238.974C1515.91 238.305 1515.8 237.863 1516.33 237.991C1516.86 238.118 1518.66 237.587 1520.32 236.809C1522.46 235.806 1523.87 235.689 1525.16 236.406C1526.52 237.166 1528.29 236.886 1532.29 235.279C1540.06 232.15 1541.06 230.773 1539.82 224.871C1538.63 219.205 1539.76 217.788 1542.91 221.004C1545.21 223.345 1546.54 228.645 1545.27 230.39C1544.82 231.018 1544.63 233.322 1544.86 235.51C1545.18 238.605 1544.96 239.814 1543.89 240.959C1542.31 242.641 1539.03 243.17 1535.71 242.279C1533.85 241.78 1533.16 242.109 1531.98 244.069L1530.54 246.47L1529.69 243.893L1529.69 243.893ZM1198.98 152.288C1198.27 151.049 1199.02 150.311 1200.58 150.727C1201.45 150.961 1202.49 150.846 1202.89 150.47C1203.98 149.443 1205.21 150.038 1204.38 151.188C1203.52 152.368 1199.5 153.187 1198.98 152.288ZM1171.46 143.396L1169.31 141.614L1172.6 142.436C1176.69 143.46 1179.49 145.029 1178.64 145.826C1177.7 146.715 1173.94 145.441 1171.46 143.396ZM1140.6 126.378C1137.77 123.824 1137.68 123.574 1139.5 123.585C1141.7 123.598 1146.05 125.478 1145.74 126.276C1145.63 126.549 1145.13 127.315 1144.62 127.978C1143.79 129.068 1143.41 128.915 1140.6 126.378ZM1126.57 113.132C1126.41 110.911 1126.67 110.149 1127.84 109.475C1129.95 108.257 1130.93 109.773 1130.08 112.941C1129.08 116.683 1126.84 116.804 1126.57 113.132ZM1107.2 108.671C1108.19 107.314 1110.75 107.725 1109.84 109.095C1109.51 109.608 1108.58 109.982 1107.8 109.926C1106.8 109.856 1106.62 109.476 1107.2 108.671ZM1537.21 213.881C1536.27 211.377 1536.34 210.978 1537.87 209.695C1539.37 208.435 1539.49 207.969 1538.95 205.505C1538.06 201.453 1538.38 201.307 1540.92 204.596C1542.17 206.223 1544.88 208.583 1546.93 209.842C1551.17 212.442 1551.99 213.813 1549.39 213.932C1548.4 213.977 1547.45 214.548 1547.28 215.201C1547.04 216.091 1546.43 216.093 1544.86 215.21C1540.84 212.949 1539.54 212.89 1539.29 214.957C1538.97 217.49 1538.45 217.222 1537.21 213.881L1537.21 213.881ZM1129.95 105.787C1129.25 104.583 1130.04 103.094 1131.44 102.946C1132.42 102.843 1132.64 103.365 1132.25 104.824C1131.73 106.788 1130.76 107.192 1129.95 105.787ZM1536.38 196.201C1535.9 195.228 1534.99 191.925 1534.36 188.863C1533.74 185.8 1531.49 179.883 1529.38 175.714C1527.02 171.057 1525.98 168.109 1526.67 168.067C1527.3 168.029 1528.3 169.214 1528.89 170.7C1530.34 174.3 1532.42 177.646 1535.93 182.041C1538.84 185.684 1539.97 188.638 1537.87 187.113C1535.45 185.355 1535.46 187.993 1537.9 192.859C1539.32 195.696 1540.44 198.188 1540.38 198.398C1540.11 199.394 1537.16 197.771 1536.38 196.201ZM938.045 34.343C938.226 33.668 938.731 33.2113 939.167 33.3281C939.602 33.4449 939.599 34.0359 939.159 34.6415C938.719 35.2471 938.215 35.7038 938.038 35.6564C937.861 35.609 937.864 35.018 938.045 34.343ZM934.477 30.5572L931.515 29.4207L938.772 25.2785C942.764 23.0002 946.442 21.2467 946.946 21.3818C947.478 21.5243 947.158 22.0827 946.183 22.7124C943.975 24.1381 944.57 26.5638 947.499 28.0815C948.778 28.7441 949.854 30.1484 950.069 31.4374C950.415 33.5063 950.223 33.656 947.177 33.6837C943.982 33.7128 940.412 32.834 934.477 30.5572ZM736.685 -28.7325C734.56 -32.1395 734.542 -33.3396 736.615 -33.5572C738.471 -33.752 741.014 -30.8141 741.499 -27.9141C742.008 -24.8711 741.959 -24.7752 740.139 -25.2627C739.287 -25.4911 737.732 -27.0525 736.685 -28.7325ZM1098.12 63.6588C1099.14 63.456 1101.11 63.1941 1102.5 63.0766C1105.55 62.8179 1105.38 61.6233 1102.04 59.9743C1099.75 58.843 1099.7 58.6972 1101.36 58.0564C1102.34 57.675 1103.01 56.9104 1102.84 56.3574C1102.67 55.7925 1103.72 55.2653 1105.22 55.1541C1106.7 55.0453 1108 54.5928 1108.12 54.1487C1108.63 52.2589 1107.78 48.6229 1106.8 48.4926C1104.54 48.1923 1103.63 47.536 1104.24 46.6482C1104.59 46.1397 1104.72 44.9906 1104.53 44.0946C1104.03 41.7647 1107.58 38.1784 1109.84 38.7352C1110.18 38.8194 1110.25 39.314 1109.99 39.8356C1109.73 40.3573 1110.34 41.1467 1111.35 41.5899L1113.2 42.3958L1110.84 43.8572L1108.48 45.3187L1110.34 46.6593C1112.33 48.0983 1113.73 51.4215 1114.63 56.8146C1115.05 59.3985 1115.58 60.1848 1116.88 60.1926C1119.56 60.2087 1119.4 61.9826 1116.64 62.891C1114.77 63.5065 1114.31 64.0124 1114.82 64.895C1115.33 65.7776 1113.84 65.8769 1108.89 65.2885C1105.26 64.8556 1100.93 64.3948 1099.27 64.2644C1096.98 64.0831 1096.7 63.9408 1098.12 63.6588ZM1085.53 55.4421C1085.45 54.6377 1086.21 53.0662 1087.23 51.9498C1088.4 50.6689 1088.83 49.6536 1088.4 49.1978C1087.22 47.9416 1088.05 46.9657 1090.27 47.0011C1091.45 47.0198 1092.99 46.6338 1093.68 46.1433C1095.12 45.122 1100.23 46.2307 1100.65 47.6584C1100.81 48.182 1100.15 49.2756 1099.18 50.0887C1098.21 50.9018 1097.15 52.546 1096.83 53.7425C1096.34 55.5671 1095.64 55.9624 1092.45 56.1933C1090.36 56.3447 1087.98 56.5667 1087.17 56.6866C1086.21 56.8272 1085.63 56.3853 1085.53 55.4421ZM1102.74 51.3393C1102.79 51.1408 1103.26 50.8496 1103.79 50.6921C1104.31 50.5345 1104.64 50.7955 1104.51 51.2721C1104.38 51.7486 1103.91 52.0399 1103.46 51.9193C1103.01 51.7988 1102.68 51.5377 1102.74 51.3393ZM740.684 -49.8979C740.142 -51.0784 740.313 -51.5148 741.543 -52.08C743.575 -53.0144 744.149 -51.8573 742.6 -49.9478C741.532 -48.6309 741.27 -48.6241 740.684 -49.8979ZM741.054 -56.394C740.897 -56.9151 741.439 -57.6495 742.258 -58.0261C743.884 -58.7737 743.93 -57.8334 742.339 -56.3682C741.731 -55.8084 741.227 -55.8185 741.054 -56.394ZM688.309 -71.0862C688.464 -71.6617 691.214 -72.0036 694.962 -71.9132C696.383 -71.8789 697.151 -71.5896 696.771 -71.2317C696.408 -70.8897 695.035 -70.6773 693.721 -70.7598C692.407 -70.8423 690.62 -70.8332 689.751 -70.7395C688.882 -70.6459 688.233 -70.8019 688.309 -71.0861L688.309 -71.0862ZM1176.98 49.9921C1175.63 48.9785 1176.15 48.1113 1177.91 48.4425C1178.75 48.6014 1179.3 49.2562 1179.12 49.8976C1178.8 51.1158 1178.49 51.1294 1176.98 49.9921ZM998.305 -2.36585C993.884 -6.57664 992.571 -11.5778 995.042 -14.7977C996.211 -16.3215 996.522 -17.3936 996.196 -18.7845C995.52 -21.6791 998.083 -24.1722 1003.35 -25.7425C1005.85 -26.4883 1008.48 -27.718 1009.19 -28.4751C1011.15 -30.5728 1011.11 -35.0822 1009.11 -36.7325C1008.09 -37.5677 1007.69 -38.5677 1008.12 -39.164C1009.11 -40.522 1007.77 -46.4214 1005.74 -49.6812C1004.24 -52.0805 1003.43 -52.4963 996.604 -54.3732C987.309 -56.929 985.714 -57.9113 986.583 -60.5416C986.945 -61.6342 987.434 -62.4765 987.671 -62.4134C987.908 -62.3503 991.324 -61.8464 995.263 -61.2937C1000.29 -60.588 1004.99 -60.6535 1011.04 -61.5136C1020.4 -62.8453 1021.06 -62.7438 1040.98 -56.9007C1047.27 -55.0556 1053.22 -53.9636 1061.04 -53.2188C1068.32 -52.5253 1073.57 -51.5939 1076.24 -50.5187C1078.52 -49.6052 1081.98 -48.8794 1084.04 -48.882C1088.82 -48.8879 1100.03 -44.3362 1103.96 -40.7883C1106.29 -38.6907 1107.67 -38.127 1112.34 -37.361C1117.38 -36.5336 1117.74 -36.3698 1115.97 -35.6809C1114.89 -35.261 1111.92 -35.1935 1109.35 -35.5308C1103.79 -36.2627 1097.83 -33.7571 1098.49 -30.9626C1098.77 -29.7571 1098.12 -28.9657 1095.83 -27.7068C1094.16 -26.792 1092.44 -25.4843 1092.01 -24.8008C1090.95 -23.1586 1082.83 -21.7564 1079.21 -22.5929C1075.19 -23.5219 1074.54 -22.7867 1077.17 -20.2645C1078.41 -19.073 1080.17 -17.138 1081.08 -15.9645L1082.73 -13.8309L1080.67 -13.6397C1079.09 -13.493 1078.01 -14.1485 1076.06 -16.4477C1073.42 -19.5678 1069.93 -20.5152 1071.19 -17.7702C1071.68 -16.6997 1071.42 -16.4064 1069.96 -16.4152C1066.71 -16.4347 1068.44 -14.2862 1071.94 -13.9542C1074.17 -13.7429 1075.32 -13.2313 1075.77 -12.2483C1076.31 -11.0788 1075.16 -10.9133 1068.86 -11.2575C1064.71 -11.4847 1059.27 -12.183 1056.79 -12.8092C1052.17 -13.9725 1048.5 -13.5404 1042.64 -11.1418C1040.72 -10.3597 1037.03 -10.0676 1032.87 -10.3704C1024.19 -11.0033 1020.91 -9.92344 1014.03 -4.16944C1008.51 0.452182 1005.53 1.92805 1003.03 1.28017C1002.35 1.10484 1000.23 -0.535971 998.305 -2.36585ZM941.758 -23.3825C940.29 -24.9329 938.676 -27.5234 938.172 -29.1391C937.187 -32.2934 935.705 -33.0578 930.741 -32.9709C929.06 -32.9415 927.298 -33.3676 926.703 -33.9471C924.643 -35.9522 929.377 -36.1131 934.087 -34.1981C937.67 -32.7418 938.529 -32.6531 939.263 -33.6637C940.738 -35.6942 945.148 -36.2511 947.088 -34.6519C948.282 -33.6674 949.524 -33.3533 951.439 -33.5509C954.016 -33.8168 954.07 -33.8887 952.843 -35.4192C952.142 -36.2946 951.285 -37.0865 950.94 -37.179C950.595 -37.2714 949.79 -39.2488 949.151 -41.5731C948.512 -43.8975 946.952 -46.9007 945.684 -48.247C943.529 -50.535 943.195 -50.6546 940.565 -50.079C938.266 -49.5759 937.08 -49.8153 934.077 -51.3889C932.056 -52.448 929.097 -53.4152 927.501 -53.5382C924.734 -53.7516 920.25 -56.3354 920.571 -57.5322C921.16 -59.7308 929.411 -62.8084 933.724 -62.4379L937.152 -62.1433L934.145 -60.2777C929.997 -57.7043 930.787 -55.7968 935.115 -57.9346C936.951 -58.8415 939.875 -59.4748 941.611 -59.3419C944.265 -59.1389 945.264 -58.5398 947.874 -55.5883C951.346 -51.6614 951.651 -51.4993 954.373 -52.1354C956.012 -52.5185 956.487 -52.1654 957.52 -49.796C958.235 -48.1572 960.246 -46.0425 962.392 -44.6723C965.812 -42.4885 965.999 -42.1628 965.308 -39.5854C964.79 -37.6526 965.021 -36.2836 966.082 -34.9934C970.52 -29.5954 970.444 -29.7896 968.746 -28.2056C966.418 -26.0336 965.081 -26.1892 961.969 -28.9946C959.803 -30.9462 958.755 -31.4153 957.311 -31.0779C955.544 -30.665 955.481 -30.4928 956.08 -27.7544C956.572 -25.5069 956.398 -24.4853 955.296 -23.1487C953.939 -21.5018 953.795 -21.5093 951.796 -23.3313C947.865 -26.9132 944.377 -26.1839 947.959 -22.5293C949.082 -21.3843 949.734 -20.1966 949.408 -19.89C948.272 -18.8202 944.406 -20.585 941.758 -23.3825L941.758 -23.3825ZM1109.53 22.7081C1109.63 22.3331 1110.27 22.1743 1110.94 22.3551C1111.62 22.536 1112.09 22.9908 1111.99 23.3658C1111.89 23.7408 1111.25 23.8996 1110.58 23.7188C1109.9 23.5379 1109.43 23.0831 1109.53 22.7081ZM911.804 -34.9893C910.418 -36.2695 909.185 -36.6778 906.759 -36.6593C902.634 -36.628 901.499 -37.7639 904.025 -39.3951C907.258 -41.4835 909.096 -41.5723 911.839 -39.7728C914.926 -37.7475 915.984 -35.6834 914.638 -34.3125C913.779 -33.4386 913.379 -33.5341 911.804 -34.9893ZM1074.4 8.17954C1073.29 6.93016 1071.71 5.93763 1070.9 5.97393C1069.78 6.02392 1069.63 5.67882 1070.27 4.551C1071.25 2.82001 1079.16 2.05959 1081.39 3.48202C1082.16 3.97795 1084.39 4.33707 1086.33 4.28012C1089.38 4.19069 1090.11 4.4554 1091.69 6.21841L1093.51 8.26026L1091.13 9.26774C1089.12 10.1181 1085.73 10.4161 1077.74 10.4462C1077.02 10.4489 1075.51 9.42893 1074.4 8.17954ZM856.358 -66.6152C855.281 -67.0945 852.798 -68.7911 850.841 -70.3856L847.283 -73.2847L853.074 -72.1716C856.258 -71.5593 858.963 -71.4266 859.083 -71.8766C859.204 -72.3266 857.146 -73.4841 854.511 -74.4487C851.031 -75.7224 850.419 -76.1265 852.276 -75.9246C855.384 -75.5865 855.945 -76.8214 853.344 -78.2738C851.47 -79.3197 851.493 -79.3467 854.646 -79.8072C860.11 -80.6052 865.436 -79.6115 869.691 -77.0001C873.184 -74.856 873.778 -74.702 875.882 -75.3949C877.369 -75.885 878.157 -75.8226 878.066 -75.2218C877.988 -74.705 877.855 -73.8403 877.771 -73.3002C877.486 -71.4768 879.179 -71.2688 881.682 -72.8199C883.999 -74.2558 887.37 -74.3378 886.991 -72.9489C886.898 -72.6119 885.777 -71.3393 884.499 -70.1209L882.175 -67.9056L884.446 -65.8208L886.717 -63.7359L881.852 -62.9188C877.462 -62.1815 876.632 -62.2944 873.351 -64.0751C870.17 -65.8017 869.169 -65.9698 865.35 -65.4192C861.037 -64.7975 860.192 -64.9098 856.358 -66.6152ZM889.327 -58.3991C888.826 -59.4875 889.249 -59.844 891.371 -60.1234C892.848 -60.3178 894.804 -59.9904 895.739 -59.3923C897.36 -58.355 897.295 -58.2775 894.217 -57.5647C890.29 -56.6553 890.115 -56.6852 889.327 -58.3991ZM1116.07 -1.70105C1117.93 -2.30114 1118.8 -2.06849 1118.53 -1.04337C1118.41 -0.593368 1117.48 -0.452786 1116.47 -0.730979C1114.98 -1.13997 1114.91 -1.32563 1116.07 -1.70105ZM1266.82 36.258C1263.08 33.4849 1263.14 33.5982 1264.75 32.4578C1265.5 31.9245 1265.8 31.3903 1265.41 31.2708C1265.02 31.1513 1265.59 30.6944 1266.67 30.2555C1267.75 29.8166 1268.72 29.1988 1268.81 28.8827C1269.16 27.6803 1273.35 25.3815 1275.99 24.9397C1277.5 24.6864 1281.19 24.9304 1284.17 25.4819C1287.16 26.0334 1291.19 26.6578 1293.13 26.8693C1295.2 27.0945 1296.78 27.6528 1296.95 28.2159C1297.28 29.31 1296.07 29.4123 1289.41 28.8516C1282.81 28.2952 1278.54 29.0445 1275.26 31.3408C1271.79 33.76 1271.17 35.7084 1273.14 38.0388L1274.63 39.8162L1272.19 39.122C1270.84 38.7401 1268.43 37.4513 1266.82 36.258L1266.82 36.258ZM838.934 -80.9357C837.968 -82.6088 838.346 -82.8154 845.605 -84.5848C854.111 -86.6579 857.982 -86.1982 864.093 -82.3899L867.474 -80.2824L862.304 -80.6244C858.076 -80.904 848.806 -80.3387 841.338 -79.3457C840.576 -79.2444 839.499 -79.9569 838.934 -80.9357ZM898.328 -66.1562C898.444 -66.5919 897.683 -67.8007 896.636 -68.8426L894.732 -70.7369L897.618 -69.4559C899.668 -68.5457 900.787 -68.4607 901.485 -69.1621C902.315 -69.9963 908.051 -70.5735 910.131 -70.032C910.481 -69.9413 909.901 -68.9161 908.842 -67.7545C906.349 -65.0186 897.669 -63.6992 898.328 -66.1562ZM911.706 -65.1319C911.042 -67.3427 919.835 -68.1334 922.947 -66.1428C925.214 -64.692 923.196 -63.7841 918.68 -64.2239C916.659 -64.4206 914.329 -64.4857 913.503 -64.3684C912.676 -64.2511 911.868 -64.5947 911.706 -65.1319ZM939.446 -64.1566C934.161 -66.033 929.761 -67.6887 929.669 -67.8359C929.119 -68.7108 931.536 -70.4315 933.717 -70.7188C935.863 -71.0012 936.724 -70.6566 939.007 -68.603C941.232 -66.6014 942.834 -65.9384 947.713 -65.0009C951.002 -64.3689 954.664 -63.3088 955.851 -62.6451L958.01 -61.4384L954.736 -60.6755C952.936 -60.2559 950.921 -60.0999 950.259 -60.3287C949.596 -60.5576 944.731 -62.2801 939.446 -64.1566ZM1175.8 -4.41042C1172.33 -7.54497 1172.19 -8.58198 1175.35 -7.75367C1176.59 -7.42901 1178.26 -7.41262 1179.07 -7.7173C1180.34 -8.19621 1180.34 -8.26245 1179.09 -8.20592C1178.29 -8.16996 1177.33 -8.68388 1176.95 -9.34756C1176.42 -10.2653 1176.04 -10.3535 1175.36 -9.71565C1174.73 -9.12505 1173.81 -9.28196 1172.25 -10.2457C1168.28 -12.6938 1167.47 -13.5252 1167.82 -14.8062C1168.11 -15.8913 1169.21 -15.7009 1175.78 -13.4376C1180.78 -11.714 1183.48 -11.096 1183.63 -11.6433C1184.06 -13.2539 1186.12 -11.8503 1186.23 -9.86748L1186.35 -7.86356L1187.2 -9.60745C1187.67 -10.5666 1188.58 -11.2102 1189.23 -11.0377C1189.87 -10.8652 1190.52 -11.166 1190.66 -11.706C1190.87 -12.4696 1191.08 -12.4111 1191.64 -11.4429C1192.06 -10.7187 1194.69 -9.57437 1197.93 -8.70719C1203.78 -7.13981 1204.87 -5.72584 1200.57 -5.28794C1198.34 -5.06035 1194.87 -6.22318 1191.31 -8.39376C1190.58 -8.83609 1189.91 -8.89644 1189.82 -8.52786C1189.62 -7.77132 1193.47 -3.76209 1194.72 -3.42879C1195.16 -3.30936 1195.9 -2.55675 1196.37 -1.7563C1197.09 -0.507438 1197.02 -0.281126 1195.88 -0.161266C1195.15 -0.0844464 1194.65 -0.419218 1194.78 -0.905158C1194.94 -1.47642 1193.93 -1.87233 1191.93 -2.02527C1189.76 -2.1909 1189.08 -2.48857 1189.64 -3.01798C1190.08 -3.43385 1190.14 -4.4295 1189.77 -5.23052C1189.06 -6.7758 1186.15 -7.96991 1185.85 -6.84056C1185.75 -6.47231 1184.12 -5.1687 1182.22 -3.94366L1178.78 -1.7163L1175.8 -4.41043L1175.8 -4.41042ZM959.233 -64.3676C958.038 -65.5803 956.096 -66.3592 952.899 -66.9082C949.91 -67.4214 947.729 -68.2536 946.701 -69.2735C945.283 -70.6796 945.722 -70.679 950.821 -69.2684C957.197 -67.5046 960.369 -68.1205 957.305 -70.5273C955.85 -71.6706 956.107 -71.6702 958.82 -70.5248C962.362 -69.0294 964.056 -69.6319 962.498 -71.8325C960.836 -74.179 963.333 -74.1 970.806 -71.5695C975.43 -70.0037 978.433 -69.3823 979.815 -69.7054C982.463 -70.3242 981.977 -72.1453 979.152 -72.1902C977.2 -72.2213 964.706 -76.3765 965.386 -76.7688C965.871 -77.0492 984.304 -73.8955 996.315 -71.4772C1002.54 -70.2229 1009.5 -68.9377 1011.77 -68.6214L1015.9 -68.0463L1008.45 -66.6445C1001.47 -65.3302 990.63 -65.1288 986.496 -66.2366C985.49 -66.5063 982.3 -66.177 979.409 -65.5049C976.517 -64.8327 973.644 -64.4187 973.024 -64.5849C972.404 -64.751 969.433 -64.3683 966.422 -63.7343C963.411 -63.1003 960.949 -62.5899 960.952 -62.6002C960.955 -62.6104 960.181 -63.4058 959.233 -64.3676ZM945.282 -76.1177C941.551 -78.0576 941.494 -78.4266 944.813 -79.1561C949.65 -80.2193 953.821 -79.7066 955.287 -77.8683C956.447 -76.4129 956.319 -76.2704 953.029 -75.3552C949.599 -74.4014 948.344 -74.5249 945.282 -76.1177Z" fill="url(#paint0_linear_1381_12738)"/>
<circle opacity="0.05" cx="1141" cy="73" r="10.85" stroke="#E42313" stroke-width="0.3"/>
<circle opacity="0.05" cx="1145" cy="112" r="10.85" stroke="#E42313" stroke-width="0.3"/>
<circle opacity="0.05" cx="1337" cy="257" r="10.85" stroke="#E42313" stroke-width="0.3"/>
<circle opacity="0.05" cx="1109" cy="378" r="10.85" stroke="#E42313" stroke-width="0.3"/>
<circle opacity="0.05" cx="854" cy="322" r="10.85" stroke="#E42313" stroke-width="0.3"/>
<circle opacity="0.05" cx="846" cy="47" r="10.85" stroke="#E42313" stroke-width="0.3"/>
<circle opacity="0.05" cx="738" cy="84" r="10.85" stroke="#E42313" stroke-width="0.3"/>
<circle opacity="0.05" cx="1176" cy="159" r="10.85" stroke="#E42313" stroke-width="0.3"/>
<circle opacity="0.05" cx="1429" cy="307" r="10.85" stroke="#E42313" stroke-width="0.3"/>
<circle opacity="0.5" cx="1141" cy="73" r="6.85" stroke="#E42313" stroke-width="0.3"/>
<circle opacity="0.5" cx="1145" cy="112" r="6.85" stroke="#E42313" stroke-width="0.3"/>
<circle opacity="0.5" cx="1337" cy="257" r="6.85" stroke="#E42313" stroke-width="0.3"/>
<circle opacity="0.5" cx="1109" cy="378" r="6.85" stroke="#E42313" stroke-width="0.3"/>
<circle opacity="0.5" cx="854" cy="322" r="6.85" stroke="#E42313" stroke-width="0.3"/>
<circle opacity="0.5" cx="846" cy="47" r="6.85" stroke="#E42313" stroke-width="0.3"/>
<circle opacity="0.5" cx="738" cy="84" r="6.85" stroke="#E42313" stroke-width="0.3"/>
<circle opacity="0.5" cx="1176" cy="159" r="6.85" stroke="#E42313" stroke-width="0.3"/>
<circle opacity="0.5" cx="1429" cy="307" r="6.85" stroke="#E42313" stroke-width="0.3"/>
</g>
<g opacity="0.8" filter="url(#filter0_d_1381_12738)">
<circle cx="1141" cy="73" r="3" fill="#E42313"/>
</g>
<g opacity="0.8" filter="url(#filter1_d_1381_12738)">
<circle cx="1145" cy="112" r="3" fill="#E42313"/>
</g>
<g opacity="0.8" filter="url(#filter2_d_1381_12738)">
<circle cx="1337" cy="257" r="3" fill="#E42313"/>
</g>
<g opacity="0.8" filter="url(#filter3_d_1381_12738)">
<circle cx="1109" cy="378" r="3" fill="#E42313"/>
</g>
<g opacity="0.8" filter="url(#filter4_d_1381_12738)">
<circle cx="854" cy="322" r="3" fill="#E42313"/>
</g>
<g opacity="0.8" filter="url(#filter5_d_1381_12738)">
<circle cx="846" cy="47" r="3" fill="#E42313"/>
</g>
<g opacity="0.8" filter="url(#filter6_d_1381_12738)">
<circle cx="738" cy="84" r="3" fill="#E42313"/>
</g>
<g opacity="0.8" filter="url(#filter7_d_1381_12738)">
<circle cx="1176" cy="159" r="3" fill="#E42313"/>
</g>
<g opacity="0.8" filter="url(#filter8_d_1381_12738)">
<circle cx="1429" cy="307" r="3" fill="#E42313"/>
</g>
<defs>
<filter id="filter0_d_1381_12738" x="1133" y="66" width="16" height="16" filterUnits="userSpaceOnUse" color-interpolation-filters="sRGB">
<feFlood flood-opacity="0" result="BackgroundImageFix"/>
<feColorMatrix in="SourceAlpha" type="matrix" values="0 0 0 0 0 0 0 0 0 0 0 0 0 0 0 0 0 0 127 0" result="hardAlpha"/>
<feOffset dy="1"/>
<feGaussianBlur stdDeviation="2.5"/>
<feComposite in2="hardAlpha" operator="out"/>
<feColorMatrix type="matrix" values="0 0 0 0 0.894118 0 0 0 0 0.137255 0 0 0 0 0.0745098 0 0 0 0.6 0"/>
<feBlend mode="normal" in2="BackgroundImageFix" result="effect1_dropShadow_1381_12738"/>
<feBlend mode="normal" in="SourceGraphic" in2="effect1_dropShadow_1381_12738" result="shape"/>
</filter>
<filter id="filter1_d_1381_12738" x="1137" y="105" width="16" height="16" filterUnits="userSpaceOnUse" color-interpolation-filters="sRGB">
<feFlood flood-opacity="0" result="BackgroundImageFix"/>
<feColorMatrix in="SourceAlpha" type="matrix" values="0 0 0 0 0 0 0 0 0 0 0 0 0 0 0 0 0 0 127 0" result="hardAlpha"/>
<feOffset dy="1"/>
<feGaussianBlur stdDeviation="2.5"/>
<feComposite in2="hardAlpha" operator="out"/>
<feColorMatrix type="matrix" values="0 0 0 0 0.894118 0 0 0 0 0.137255 0 0 0 0 0.0745098 0 0 0 0.6 0"/>
<feBlend mode="normal" in2="BackgroundImageFix" result="effect1_dropShadow_1381_12738"/>
<feBlend mode="normal" in="SourceGraphic" in2="effect1_dropShadow_1381_12738" result="shape"/>
</filter>
<filter id="filter2_d_1381_12738" x="1329" y="250" width="16" height="16" filterUnits="userSpaceOnUse" color-interpolation-filters="sRGB">
<feFlood flood-opacity="0" result="BackgroundImageFix"/>
<feColorMatrix in="SourceAlpha" type="matrix" values="0 0 0 0 0 0 0 0 0 0 0 0 0 0 0 0 0 0 127 0" result="hardAlpha"/>
<feOffset dy="1"/>
<feGaussianBlur stdDeviation="2.5"/>
<feComposite in2="hardAlpha" operator="out"/>
<feColorMatrix type="matrix" values="0 0 0 0 0.894118 0 0 0 0 0.137255 0 0 0 0 0.0745098 0 0 0 0.6 0"/>
<feBlend mode="normal" in2="BackgroundImageFix" result="effect1_dropShadow_1381_12738"/>
<feBlend mode="normal" in="SourceGraphic" in2="effect1_dropShadow_1381_12738" result="shape"/>
</filter>
<filter id="filter3_d_1381_12738" x="1101" y="371" width="16" height="16" filterUnits="userSpaceOnUse" color-interpolation-filters="sRGB">
<feFlood flood-opacity="0" result="BackgroundImageFix"/>
<feColorMatrix in="SourceAlpha" type="matrix" values="0 0 0 0 0 0 0 0 0 0 0 0 0 0 0 0 0 0 127 0" result="hardAlpha"/>
<feOffset dy="1"/>
<feGaussianBlur stdDeviation="2.5"/>
<feComposite in2="hardAlpha" operator="out"/>
<feColorMatrix type="matrix" values="0 0 0 0 0.894118 0 0 0 0 0.137255 0 0 0 0 0.0745098 0 0 0 0.6 0"/>
<feBlend mode="normal" in2="BackgroundImageFix" result="effect1_dropShadow_1381_12738"/>
<feBlend mode="normal" in="SourceGraphic" in2="effect1_dropShadow_1381_12738" result="shape"/>
</filter>
<filter id="filter4_d_1381_12738" x="846" y="315" width="16" height="16" filterUnits="userSpaceOnUse" color-interpolation-filters="sRGB">
<feFlood flood-opacity="0" result="BackgroundImageFix"/>
<feColorMatrix in="SourceAlpha" type="matrix" values="0 0 0 0 0 0 0 0 0 0 0 0 0 0 0 0 0 0 127 0" result="hardAlpha"/>
<feOffset dy="1"/>
<feGaussianBlur stdDeviation="2.5"/>
<feComposite in2="hardAlpha" operator="out"/>
<feColorMatrix type="matrix" values="0 0 0 0 0.894118 0 0 0 0 0.137255 0 0 0 0 0.0745098 0 0 0 0.6 0"/>
<feBlend mode="normal" in2="BackgroundImageFix" result="effect1_dropShadow_1381_12738"/>
<feBlend mode="normal" in="SourceGraphic" in2="effect1_dropShadow_1381_12738" result="shape"/>
</filter>
<filter id="filter5_d_1381_12738" x="838" y="40" width="16" height="16" filterUnits="userSpaceOnUse" color-interpolation-filters="sRGB">
<feFlood flood-opacity="0" result="BackgroundImageFix"/>
<feColorMatrix in="SourceAlpha" type="matrix" values="0 0 0 0 0 0 0 0 0 0 0 0 0 0 0 0 0 0 127 0" result="hardAlpha"/>
<feOffset dy="1"/>
<feGaussianBlur stdDeviation="2.5"/>
<feComposite in2="hardAlpha" operator="out"/>
<feColorMatrix type="matrix" values="0 0 0 0 0.894118 0 0 0 0 0.137255 0 0 0 0 0.0745098 0 0 0 0.6 0"/>
<feBlend mode="normal" in2="BackgroundImageFix" result="effect1_dropShadow_1381_12738"/>
<feBlend mode="normal" in="SourceGraphic" in2="effect1_dropShadow_1381_12738" result="shape"/>
</filter>
<filter id="filter6_d_1381_12738" x="730" y="77" width="16" height="16" filterUnits="userSpaceOnUse" color-interpolation-filters="sRGB">
<feFlood flood-opacity="0" result="BackgroundImageFix"/>
<feColorMatrix in="SourceAlpha" type="matrix" values="0 0 0 0 0 0 0 0 0 0 0 0 0 0 0 0 0 0 127 0" result="hardAlpha"/>
<feOffset dy="1"/>
<feGaussianBlur stdDeviation="2.5"/>
<feComposite in2="hardAlpha" operator="out"/>
<feColorMatrix type="matrix" values="0 0 0 0 0.894118 0 0 0 0 0.137255 0 0 0 0 0.0745098 0 0 0 0.6 0"/>
<feBlend mode="normal" in2="BackgroundImageFix" result="effect1_dropShadow_1381_12738"/>
<feBlend mode="normal" in="SourceGraphic" in2="effect1_dropShadow_1381_12738" result="shape"/>
</filter>
<filter id="filter7_d_1381_12738" x="1168" y="152" width="16" height="16" filterUnits="userSpaceOnUse" color-interpolation-filters="sRGB">
<feFlood flood-opacity="0" result="BackgroundImageFix"/>
<feColorMatrix in="SourceAlpha" type="matrix" values="0 0 0 0 0 0 0 0 0 0 0 0 0 0 0 0 0 0 127 0" result="hardAlpha"/>
<feOffset dy="1"/>
<feGaussianBlur stdDeviation="2.5"/>
<feComposite in2="hardAlpha" operator="out"/>
<feColorMatrix type="matrix" values="0 0 0 0 0.894118 0 0 0 0 0.137255 0 0 0 0 0.0745098 0 0 0 0.6 0"/>
<feBlend mode="normal" in2="BackgroundImageFix" result="effect1_dropShadow_1381_12738"/>
<feBlend mode="normal" in="SourceGraphic" in2="effect1_dropShadow_1381_12738" result="shape"/>
</filter>
<filter id="filter8_d_1381_12738" x="1421" y="300" width="16" height="16" filterUnits="userSpaceOnUse" color-interpolation-filters="sRGB">
<feFlood flood-opacity="0" result="BackgroundImageFix"/>
<feColorMatrix in="SourceAlpha" type="matrix" values="0 0 0 0 0 0 0 0 0 0 0 0 0 0 0 0 0 0 127 0" result="hardAlpha"/>
<feOffset dy="1"/>
<feGaussianBlur stdDeviation="2.5"/>
<feComposite in2="hardAlpha" operator="out"/>
<feColorMatrix type="matrix" values="0 0 0 0 0.894118 0 0 0 0 0.137255 0 0 0 0 0.0745098 0 0 0 0.6 0"/>
<feBlend mode="normal" in2="BackgroundImageFix" result="effect1_dropShadow_1381_12738"/>
<feBlend mode="normal" in="SourceGraphic" in2="effect1_dropShadow_1381_12738" result="shape"/>
</filter>
<linearGradient id="paint0_linear_1381_12738" x1="1229.08" y1="-10.927" x2="1097.42" y2="480.42" gradientUnits="userSpaceOnUse">
<stop stop-color="#F1F5FA"/>
<stop offset="1" stop-color="#DEE7F2"/>
</linearGradient>
<clipPath id="clip0_1381_12738">
<rect width="1440" height="470" fill="white"/>
</clipPath>
</defs>
</svg>
