<svg width="81" height="28" viewBox="0 0 81 28" fill="none" xmlns="http://www.w3.org/2000/svg">
<path d="M8.93491 27.9886C6.52144 27.8956 4.54686 27.2551 3.00291 26.0654C2.70825 25.8381 2.00611 25.1567 1.77056 24.8693C1.14446 24.1057 0.718793 23.3625 0.434875 22.538C-0.43876 19.9999 0.0108652 16.6693 1.72096 13.0141C3.18516 9.8847 5.44447 6.781 9.38619 2.4824C9.96682 1.84987 11.6959 0 11.7071 0C11.7112 0 11.617 0.158327 11.4984 0.35114C10.4735 2.01622 9.59655 3.97752 9.11881 5.67548C8.35138 8.39999 8.44395 10.7381 9.38991 12.5511C10.0425 13.8001 11.1612 14.882 12.4191 15.48C14.6214 16.5266 17.8457 16.6132 21.7833 15.7334C22.0544 15.6724 35.488 12.2136 51.6359 8.04685C67.7838 3.87972 80.9979 0.472989 81 0.475795C81.0046 0.479402 43.4838 16.052 24.0063 24.1309C20.9216 25.41 20.0968 25.7331 18.6466 26.2269C14.9396 27.4896 11.6191 28.092 8.93491 27.9886Z" fill="#1A1D23"/>
</svg>
