<svg width="101" height="13" viewBox="0 0 101 13" fill="none" xmlns="http://www.w3.org/2000/svg">
<path fill-rule="evenodd" clip-rule="evenodd" d="M4.78551 0L0 12.2104H95.8678L100.653 0H4.78551Z" fill="black"/>
<path fill-rule="evenodd" clip-rule="evenodd" d="M27.9844 10.7981L27.4346 9.25783H23.639L23.0892 10.7981H13.7393V1.72261H16.5439V8.708H20.8893L23.3097 1.72261H27.5992L30.8444 10.7981H27.9844ZM43.0796 10.7981H38.9542L37.4145 5.13298L35.8742 10.7981H31.8591L29.5489 1.72261H32.4095L33.9492 8.708L36.0394 1.72261H38.9542L40.8792 8.708L42.5847 1.72261H45.3898L43.0796 10.7981ZM56.3166 10.7981H51.5311L48.5064 3.81273V10.7981H45.7562V1.72261H50.5417L53.5394 8.708V1.72261H56.3166V10.7981ZM60.0826 8.43254H56.719V6.4527H60.0826V8.43254ZM66.0517 10.7981H60.442V1.72261H65.9963C68.0864 1.72261 69.3512 2.0524 69.3512 4.03278C69.3512 5.18732 69.0769 5.95774 67.6458 6.12291V6.23266C69.242 6.34295 69.5164 7.11283 69.5164 8.26791C69.5164 10.5232 68.307 10.7981 66.0517 10.7981ZM79.7648 7.5486C79.7648 10.3537 77.7306 10.8487 74.87 10.8487C72.0095 10.8487 69.9742 10.3537 69.9742 7.5486V4.96351C69.9742 2.21326 72.0095 1.66289 74.87 1.66289C77.7306 1.66289 79.7648 2.21272 79.7648 4.96351V7.5486ZM85.6322 7.60832V10.7981H82.7722V7.60832L79.032 1.72261H82.2772L84.2565 5.24274L86.2364 1.72261H89.4821L85.6322 7.60832ZM91.7584 4.08281C91.0386 4.08281 90.429 3.52168 90.429 2.75341C90.429 1.99268 91.0386 1.43155 91.7584 1.43155C91.9323 1.4304 92.1047 1.46381 92.2656 1.52984C92.4265 1.59586 92.5727 1.69319 92.6956 1.81616C92.8186 1.93914 92.9159 2.08531 92.982 2.24621C93.048 2.4071 93.0814 2.5795 93.0803 2.75341C93.0821 2.92787 93.0492 3.10096 92.9836 3.26259C92.9179 3.42423 92.8207 3.57119 92.6977 3.6949C92.5747 3.81862 92.4283 3.91663 92.267 3.98323C92.1058 4.04982 91.9329 4.08368 91.7584 4.08281Z" fill="white"/>
<path fill-rule="evenodd" clip-rule="evenodd" d="M24.2666 7.497H26.8522L25.532 3.53678L24.2666 7.497ZM66.4942 4.47291C66.4942 3.92253 66.4393 3.75791 65.6146 3.70249H63.2495V5.35253H65.2848C66.2742 5.35307 66.4942 5.18791 66.4942 4.47291ZM91.7582 1.65271C91.1594 1.65271 90.6918 2.12615 90.6918 2.754C90.6918 3.3926 91.1594 3.86228 91.7582 3.86228C92.35 3.86228 92.8175 3.39207 92.8175 2.754C92.8169 2.12615 92.3494 1.65271 91.7582 1.65271Z" fill="black"/>
<path fill-rule="evenodd" clip-rule="evenodd" d="M92.1427 3.52167L91.7456 2.85886H91.482V3.52167H91.2539V1.99268H91.8285C92.1847 1.99268 92.3611 2.1261 92.3611 2.42738C92.3611 2.70068 92.1922 2.82012 91.97 2.84809L92.3988 3.52113H92.1427V3.52167Z" fill="white"/>
<path fill-rule="evenodd" clip-rule="evenodd" d="M65.4504 7.05525H63.25V8.81505H65.3945C66.3295 8.81505 66.7153 8.65042 66.7153 7.88054C66.7158 7.16554 66.386 7.05525 65.4504 7.05525ZM74.874 3.76C73.3891 3.76 72.9491 3.92516 72.8942 5.24488V7.28013C72.9491 8.65526 73.3891 8.76555 74.874 8.76555C76.36 8.76555 76.8549 8.65526 76.8549 7.28013V5.24488C76.8549 3.92463 76.36 3.76 74.874 3.76ZM92.1223 2.41392C92.1223 2.22455 91.9523 2.18958 91.7936 2.18958H91.4815V2.66302H91.7548C91.9491 2.66248 92.1223 2.64849 92.1223 2.41392Z" fill="black"/>
</svg>
