<svg width="89" height="27" viewBox="0 0 89 27" fill="none" xmlns="http://www.w3.org/2000/svg">
<path d="M71.2462 21.8834H18.2295L22.4581 26.1121L71.2462 21.8834Z" fill="#C00000"/>
<path d="M79.7557 19.1875V10.7302C79.7557 9.14444 80.8657 7.82298 82.4515 7.82298C84.0372 7.82298 85.1473 9.14444 85.1473 10.7302V19.1875H88.4245V10.7302C88.4245 7.24154 86.0458 4.44006 82.5572 4.44006C80.9715 4.44006 79.7557 5.33865 79.7557 5.33865V4.75721H76.4785V19.1346H79.7557V19.1875Z" fill="#C00000"/>
<path d="M68.9195 4.38721C65.1137 4.38721 62.418 7.71727 62.418 11.9459C62.418 16.386 65.8009 19.5046 69.2367 19.5046C70.981 19.5046 73.1482 18.9232 74.9982 16.2803L72.091 14.5888C69.871 17.866 66.118 16.2274 65.6952 12.8974H75.1039C75.9496 7.82298 72.6196 4.38721 68.9195 4.38721ZM71.7739 10.0959H65.9066C66.5938 6.76582 71.1396 6.55439 71.7739 10.0959Z" fill="#C00000"/>
<path d="M61.3607 15.7516C61.0436 15.963 60.6736 16.1216 60.2507 16.1216C59.7221 16.1216 58.7178 15.6987 58.7178 14.3773V8.19285H61.5193V4.75707H58.7178V1.16272H55.4406V4.75707H53.6963V8.19285H55.4406V14.3773C55.4406 17.6016 57.8721 19.5045 60.3036 19.5045C61.2021 19.5045 62.4707 19.1873 63.475 18.6059L61.3607 15.7516Z" fill="#C00000"/>
<path d="M49.3094 4.75708V13.2144C49.3094 14.8001 48.1993 16.1216 46.6136 16.1216C45.0279 16.1216 43.9178 14.8001 43.9178 13.2144V4.75708H40.6406V13.2144C40.6406 16.703 43.0192 19.5045 46.5079 19.5045C48.0936 19.5045 49.3094 18.6059 49.3094 18.6059V19.1345H52.5866V4.75708H49.3094Z" fill="#C00000"/>
<path d="M34.5087 11.5231L40.1117 4.75723H35.5659L31.6015 9.77875V0H28.2715V19.1875H31.6015V13.2674L36.4645 19.1875H41.0103L34.5087 11.5231Z" fill="#C00000"/>
<path d="M23.1446 4.75721V5.39151C22.1403 4.75721 21.2946 4.38721 20.0788 4.38721C16.3788 4.38721 13.5244 7.77013 13.5244 11.9459C13.5244 16.1217 16.3259 19.5046 20.0788 19.5046C21.2946 19.5046 22.1931 19.1346 23.1446 18.5003V19.1346H26.4218V4.75721H23.1446ZM20.026 16.0689C18.1759 16.0689 16.8545 14.2717 16.8545 11.9988C16.8545 9.72588 18.1759 7.9287 20.026 7.9287C21.876 7.9287 23.1446 9.72588 23.1446 11.9988C23.1975 14.2717 21.876 16.0689 20.026 16.0689Z" fill="#C00000"/>
<path d="M4.11547 19.1873V13.5844H6.49408L10.6699 19.1345H14.9514L9.877 12.4215C11.4627 11.3115 12.4671 9.46145 12.4671 7.34712C12.4671 3.91134 9.66557 1.16272 6.28265 1.16272H0.679688V19.1345H4.11547V19.1873ZM4.11547 4.5985H6.33551C7.86839 4.5985 9.13699 5.86709 9.13699 7.39998C9.13699 8.93287 7.86839 10.2015 6.33551 10.2015H4.11547V4.5985Z" fill="#C00000"/>
</svg>
