<svg width="50" height="50" viewBox="0 0 50 50" fill="none" xmlns="http://www.w3.org/2000/svg">
<path d="M25.0007 0.833374C11.6543 0.833374 0.833984 11.6544 0.833984 25.0004C0.833984 38.345 11.654 49.1667 25.0007 49.1667C38.346 49.1667 49.1656 38.345 49.1656 25.0004C49.1656 11.6544 38.346 0.833374 25.0007 0.833374Z" fill="white"/>
<path d="M25.0007 0.833374C11.6543 0.833374 0.833984 11.6544 0.833984 25C0.833984 38.345 11.654 49.1667 25.0007 49.1667C38.346 49.1667 49.1657 38.345 49.1657 25C49.1657 11.6544 38.346 0.833374 25.0007 0.833374Z" stroke="#D3B07E" stroke-width="0.6736" stroke-linecap="round" stroke-linejoin="round"/>
<path d="M26.0055 1.99571C13.3005 1.44104 2.54887 11.291 1.99487 23.997C1.44154 36.7017 11.2912 47.4517 23.9955 48.005C36.7005 48.5604 47.4499 38.71 48.0052 26.0064C48.5599 13.301 38.7109 2.55004 26.0055 1.99571Z" fill="#00285D"/>
<path d="M25.0003 9.29272C16.3266 9.29272 9.29297 16.3241 9.29297 25.0011C9.29297 33.6757 16.3266 40.7077 25.0003 40.7077C33.676 40.7077 40.708 33.6757 40.708 25.0011C40.708 16.3244 33.676 9.29272 25.0003 9.29272Z" fill="white"/>
<path d="M19.2977 26.3387C19.2944 27.4937 17.861 28.4284 16.0917 28.4284C14.3244 28.4284 12.8914 27.4937 12.8877 26.3387L16.0917 20.1741" fill="white"/>
<path d="M19.2977 26.3387C19.2944 27.4937 17.861 28.4284 16.0917 28.4284C14.3244 28.4284 12.8914 27.4937 12.8877 26.3387L16.0917 20.1741L19.2977 26.3387Z" stroke="#D3B07E" stroke-width="0.6736" stroke-linecap="round" stroke-linejoin="round"/>
<path d="M25.0007 10.333C16.901 10.333 10.334 16.9 10.334 24.9997C10.334 33.0997 16.901 39.6667 25.0007 39.6667C33.099 39.6667 39.666 33.0997 39.666 24.9997C39.666 16.9 33.0993 10.333 25.0007 10.333Z" stroke="#D3B07E" stroke-width="0.6736" stroke-linecap="round" stroke-linejoin="round"/>
<path d="M25.0172 17.066H23.5455V17.446C24.3335 17.446 24.2708 18.2677 24.2708 18.846C24.2708 21.5214 24.3362 27.9457 23.9572 30.605C23.6655 32.653 21.7285 33.6467 19.6602 33.6467V34.4687H25.0215V17.9584" fill="#CFAA7A"/>
<path d="M24.9405 17.066H26.4119V17.446C25.6252 17.446 25.6869 18.2677 25.6869 18.846C25.6869 21.5214 25.6222 27.9457 26.0005 30.605C26.2925 32.653 28.2302 33.6467 30.2972 33.6467V34.4687H24.9365V17.9584" fill="#CFAA7A"/>
<path d="M17.1498 20.1267C17.0934 19.551 16.5828 19.1313 16.0081 19.1867C15.4334 19.2423 15.0128 19.7527 15.0684 20.3283C15.1238 20.9033 15.6351 21.3237 16.2094 21.268C16.7844 21.2123 17.2054 20.7013 17.1498 20.1267Z" fill="#CFAA7A"/>
<path d="M15.0679 20.3284C14.9542 19.1564 15.7972 18.2504 16.8569 17.9734C18.2226 17.6157 19.5576 18.0641 20.8899 18.3434C21.6836 18.5097 23.5282 18.5831 24.3316 18.5051C24.3889 19.0911 24.7349 19.8454 24.7929 20.4441C23.3386 20.5851 21.2649 20.5474 19.9529 19.7567C19.1146 19.2524 17.1216 18.1201 16.4976 19.4121" fill="#CFAA7A"/>
<path d="M34.89 18.4067C34.7774 17.2344 33.7757 16.508 32.682 16.4394C31.2734 16.3504 30.0497 17.0474 28.7964 17.5777C28.0497 17.892 26.252 18.319 25.4484 18.397C25.5047 18.983 25.3114 19.7897 25.3694 20.3884C26.8237 20.2477 28.85 19.8127 29.987 18.7847C30.7134 18.1284 32.451 16.634 33.3117 17.7834" fill="#CFAA7A"/>
<path d="M24.332 18.5051L25.4487 18.3967L25.3694 20.3881L24.793 20.4444" fill="#CFAA7A"/>
<path d="M16.0917 26.6684C14.3264 26.6684 12.8944 26.5211 12.8877 26.3387C12.8914 27.4937 14.3244 28.4284 16.0917 28.4284C17.861 28.4284 19.2944 27.4937 19.2977 26.3387C19.2907 26.5211 17.8597 26.6684 16.0917 26.6684Z" fill="#CFAA7A"/>
<path d="M37.1105 24.6584C37.1065 25.8148 35.6742 26.7498 33.9062 26.7498C32.1385 26.7498 30.7048 25.8144 30.7012 24.6584L33.9062 18.4948" fill="white"/>
<path d="M37.1105 24.6584C37.1065 25.8148 35.6742 26.7498 33.9062 26.7498C32.1385 26.7498 30.7048 25.8144 30.7012 24.6584L33.9062 18.4948L37.1105 24.6584Z" stroke="#D3B07E" stroke-width="0.6736" stroke-linecap="round" stroke-linejoin="round"/>
<path d="M33.9062 24.9883C32.1402 24.9883 30.7078 24.841 30.7012 24.6583C30.7048 25.8147 32.1388 26.7497 33.9062 26.7497C35.6745 26.7497 37.1068 25.8143 37.1105 24.6583C37.1052 24.841 35.6728 24.9883 33.9062 24.9883Z" fill="#CFAA7A"/>
<path d="M32.8107 18.6087C32.7544 18.0334 33.1757 17.5231 33.7504 17.4671C34.3247 17.4117 34.8357 17.8321 34.8904 18.4067C34.9467 18.9817 34.5257 19.4924 33.951 19.5484C33.3774 19.6044 32.865 19.1834 32.8107 18.6087Z" fill="#CFAA7A"/>
<path d="M9.23717 15.0193C9.95717 15.46 10.1378 15.8803 9.9665 16.7053C9.95783 16.7497 9.86883 16.706 9.8695 16.6953C9.90583 16.061 9.67616 15.7807 9.01783 15.3777L8.0235 14.7683C7.60383 14.5107 7.5195 14.5197 7.3055 14.7903C7.29983 14.7983 7.20483 14.7653 7.23117 14.7323C7.33683 14.609 7.4625 14.3943 7.5845 14.1953C7.66617 14.0627 7.8025 13.83 7.8545 13.716C7.8615 13.6843 7.94483 13.747 7.93617 13.76C7.77617 14.0817 7.8455 14.1663 8.24283 14.4103" fill="white"/>
<path d="M10.1684 14.582C10.0761 14.5157 10.0394 14.3807 10.1184 14.2717C10.1908 14.1707 10.3294 14.1554 10.4178 14.2187C10.5101 14.285 10.5411 14.4287 10.4658 14.5337C10.3928 14.635 10.2574 14.6464 10.1684 14.582Z" fill="white"/>
<path d="M11.8043 11.2067C11.7486 11.2597 11.7286 11.2773 11.6916 11.3057L11.9886 11.624C12.3079 11.9637 12.3979 12.0077 12.6763 11.7893C12.6879 11.7783 12.7696 11.851 12.7399 11.865C12.6426 11.935 12.4456 12.1117 12.3246 12.225C12.1583 12.3813 11.9729 12.5543 11.8666 12.683C11.8503 12.7123 11.7879 12.622 11.7986 12.6113C12.0199 12.3547 12.0226 12.267 11.6859 11.9077L10.8856 11.053C10.5773 10.724 10.4499 10.709 10.3173 10.832C10.2866 10.8603 10.2566 10.8967 10.2216 10.9433C10.2143 10.965 10.1273 10.9107 10.1463 10.8857C10.2326 10.7347 10.5549 10.4043 10.8653 10.1137C11.3753 9.63533 11.8003 9.543 12.0833 9.84533C12.2609 10.0343 12.2976 10.3477 12.1636 10.651C12.6759 10.8953 13.5243 11.081 13.8529 10.7723C13.8649 10.7613 13.9436 10.823 13.9203 10.8443C13.3006 11.425 12.5376 11.316 11.9949 10.9867C11.9379 11.0613 11.8616 11.154 11.8043 11.2067ZM10.8426 10.3543C10.8766 10.4213 10.9719 10.538 11.1629 10.742L11.5879 11.1963C11.6226 11.164 11.6489 11.147 11.6979 11.1007C12.0723 10.75 12.0846 10.4683 11.8439 10.2113C11.5466 9.89333 11.2586 9.95033 10.9296 10.2583C10.8886 10.297 10.8806 10.311 10.8426 10.3543Z" fill="white"/>
<path d="M15.6522 9.63502C15.5319 9.71635 15.3182 9.83502 15.0772 9.99702C14.7509 10.2164 14.3602 10.4804 14.1312 10.6597C14.1049 10.677 14.0626 10.5867 14.0759 10.5774C14.3762 10.319 14.3776 10.256 14.1029 9.84735L13.4486 8.87568C13.1736 8.46768 13.1086 8.43635 12.7592 8.62168C12.7459 8.63068 12.6722 8.54902 12.7009 8.53602C12.9559 8.39535 13.3372 8.14468 13.6639 7.92535C13.8966 7.76868 14.1139 7.60968 14.2999 7.45935C14.3249 7.54268 14.3859 7.63302 14.4292 7.69735C14.4522 7.73202 14.5116 7.82968 14.5309 7.84802C14.5362 7.85635 14.4576 7.91602 14.4516 7.90735C14.3302 7.78335 14.2322 7.74902 13.8156 8.02935L13.5362 8.21735C13.5722 8.29968 13.6492 8.42235 13.7852 8.62468L14.0516 9.02002L14.2669 8.87535C14.6279 8.63268 14.6482 8.60668 14.5896 8.44568C14.5836 8.43735 14.6626 8.37768 14.6729 8.40202C14.6916 8.45835 14.7769 8.59435 14.8259 8.66735C14.8522 8.70602 14.9306 8.82235 14.9509 8.85202C14.9619 8.85068 14.8749 8.91635 14.8719 8.91202C14.7289 8.76435 14.6946 8.76902 14.3506 9.00035L14.1352 9.14535L14.4222 9.57102C14.6999 9.98302 14.7472 10.0074 14.8936 9.90902L15.0616 9.79635C15.5556 9.46302 15.5226 9.38668 15.4282 9.14368C15.4252 9.13935 15.5112 9.08168 15.5199 9.09435C15.5619 9.18468 15.6692 9.41802 15.6909 9.49768C15.7206 9.57002 15.7082 9.59735 15.6522 9.63502Z" fill="white"/>
<path d="M18.3267 7.3021C18.5424 7.78443 18.3591 8.3541 17.7251 8.6371C17.1767 8.88243 16.5537 8.74643 16.3007 8.17876L15.9277 7.34543C15.7277 6.8961 15.6477 6.85843 15.3234 6.95776C15.3094 6.96343 15.2577 6.8731 15.2894 6.86976C15.4477 6.8281 15.6721 6.7221 15.8854 6.6271C16.0367 6.55876 16.2711 6.44876 16.3781 6.3841C16.4024 6.36176 16.4451 6.45643 16.4211 6.46643C16.1124 6.63876 16.1257 6.74576 16.3161 7.1721L16.6521 7.9251C16.8991 8.4781 17.3684 8.56343 17.7331 8.40043C18.2114 8.1871 18.3477 7.8201 18.1297 7.33276L17.7534 6.48976C17.5724 6.08376 17.4881 6.03576 17.1634 6.13476C17.1377 6.14076 17.0981 6.0511 17.1294 6.04776C17.2874 6.0061 17.3937 5.95243 17.6021 5.85976C17.7487 5.79443 17.9034 5.71976 18.0051 5.65743C18.0411 5.63576 18.0624 5.73343 18.0527 5.73776C17.7394 5.91243 17.7571 6.0291 17.9284 6.41243" fill="white"/>
<path d="M20.304 7.63436C20.0877 7.68836 19.8413 7.74936 19.6903 7.80769C19.6417 7.82569 19.6467 7.71736 19.6617 7.71369C19.985 7.59569 20.02 7.52403 19.9013 7.04603L19.619 5.90903C19.5007 5.43103 19.4357 5.38336 19.0933 5.42503C19.0787 5.42869 19.027 5.32969 19.08 5.32769C19.2367 5.31503 19.4183 5.27003 19.639 5.21469C19.7297 5.19236 19.9723 5.11669 20.0987 5.08503C20.526 4.97836 20.968 5.08269 21.0617 5.46003C21.1143 5.67103 20.9707 5.95269 20.705 6.10903C21.143 6.02703 21.4867 6.20303 21.5673 6.53103C21.6723 6.95336 21.3587 7.38869 20.7857 7.53103C20.66 7.56203 20.3997 7.61069 20.304 7.63436ZM20.2157 6.20336C20.673 6.08969 20.7503 5.90503 20.6827 5.63403C20.5903 5.26103 20.3607 5.17436 20.0383 5.25436C19.988 5.26636 19.985 5.27836 19.9303 5.29136C19.934 5.41369 19.9577 5.53036 20.0263 5.80669L20.3123 6.95836C20.4127 7.36603 20.4247 7.45369 20.7063 7.38369C21.1233 7.28069 21.271 7.07803 21.1837 6.72603C21.093 6.35903 20.7637 6.13103 20.244 6.31903C20.229 6.32303 20.2003 6.20736 20.2157 6.20336Z" fill="white"/>
<path d="M24.2365 7.02839C24.0921 7.04106 23.8478 7.04273 23.5585 7.06873C23.1671 7.10373 22.6975 7.14639 22.4101 7.19373C22.3785 7.19606 22.3855 7.09706 22.4008 7.09573C22.7891 7.01339 22.8201 6.95839 22.7758 6.46806L22.6708 5.30206C22.6265 4.81106 22.5838 4.75306 22.1881 4.74673C22.1728 4.74806 22.1475 4.64173 22.1795 4.64406C22.4701 4.64339 22.9251 4.60739 23.3171 4.57206C23.5961 4.54673 23.8635 4.51173 24.0988 4.46973C24.0805 4.55439 24.0908 4.66306 24.0975 4.74039C24.1011 4.78206 24.1065 4.89573 24.1145 4.92139C24.1151 4.93106 24.0175 4.94573 24.0168 4.93506C23.9705 4.76773 23.9011 4.69139 23.4001 4.73639L23.0648 4.76606C23.0568 4.85606 23.0651 5.00039 23.0871 5.24339L23.1295 5.71806L23.3875 5.69506C23.8215 5.65606 23.8515 5.64239 23.8781 5.47306C23.8771 5.46339 23.9738 5.44906 23.9718 5.47506C23.9611 5.53373 23.9708 5.69406 23.9785 5.78139C23.9825 5.82773 23.9958 5.96739 23.9985 6.00373C24.0095 6.00806 23.9021 6.02273 23.9015 6.01739C23.8465 5.82006 23.8141 5.80673 23.4015 5.84473L23.1438 5.86806L23.1901 6.37873C23.2351 6.87439 23.2648 6.91806 23.4398 6.90239L23.6415 6.88473C24.2345 6.83073 24.2428 6.74606 24.2768 6.48839C24.2761 6.48406 24.3795 6.47439 24.3808 6.48906C24.3748 6.58873 24.3558 6.84539 24.3371 6.92539C24.3281 7.00473 24.3041 7.02206 24.2365 7.02839Z" fill="white"/>
<path d="M27.7915 6.5144C27.7738 6.70507 27.7492 7.05673 27.7558 7.22373C27.7542 7.23973 27.6902 7.25473 27.6625 7.22073L25.9078 5.09573L25.7988 6.34073C25.7632 6.7534 25.7858 6.9014 26.1398 6.96307C26.1502 6.96407 26.1515 7.07407 26.1202 7.0604C26.0035 7.03473 25.8642 7.0174 25.7042 7.00407C25.4772 6.9834 25.3118 6.96907 25.1448 6.97573C25.1185 6.97873 25.1378 6.87573 25.1532 6.8774C25.4965 6.87107 25.5582 6.7624 25.5968 6.32307L25.7135 4.99673C25.7292 4.82107 25.4242 4.55473 25.2498 4.51907C25.2348 4.51773 25.2342 4.4084 25.2642 4.42107C25.4218 4.46073 25.7212 4.4924 25.9428 4.5114L27.5812 6.53273L27.6865 5.32973C27.7248 4.8854 27.6832 4.76707 27.3505 4.70207C27.3262 4.69473 27.3355 4.59173 27.3652 4.60473C27.5178 4.6444 27.6468 4.65507 27.8732 4.67507C28.0392 4.68973 28.2152 4.69407 28.3295 4.68907C28.3815 4.6884 28.3472 4.78873 28.3365 4.78773C27.9732 4.78273 27.9288 4.9344 27.8928 5.34773" fill="white"/>
<path d="M31.3688 8.26134C30.5272 7.95434 30.1775 7.18734 30.4085 6.55468C30.6515 5.88768 31.4638 5.46101 32.2958 5.76468C32.6475 5.89268 32.9535 6.17001 33.0068 6.25001C33.0278 6.28501 32.9515 6.63201 32.8838 6.86201C32.8765 6.88134 32.7838 6.84701 32.7842 6.83101C32.8292 6.52768 32.6942 6.08101 32.1532 5.88368C31.6085 5.68434 31.1075 5.91034 30.8695 6.56201C30.5775 7.36068 30.9382 7.92801 31.4595 8.11768C31.8342 8.25534 32.2985 8.13201 32.4678 7.77468C32.4715 7.76468 32.5625 7.78701 32.5538 7.81134C32.4552 8.03468 32.2918 8.34534 32.2542 8.35868C32.0928 8.40968 31.8215 8.42634 31.3688 8.26134Z" fill="white"/>
<path d="M34.5072 9.72938C34.3792 9.65905 34.2045 9.53771 33.9499 9.39671C33.6069 9.20538 33.1622 8.95905 32.9035 8.83905C32.8632 8.82338 32.9372 8.74538 32.9462 8.75038C33.3132 8.90038 33.3749 8.87538 33.6139 8.44505L34.1812 7.42138C34.4205 6.99071 34.4082 6.90738 34.1272 6.70905C34.1132 6.70138 34.1435 6.59371 34.1835 6.62771C34.3072 6.72605 34.5285 6.84938 34.7239 6.95771C34.8689 7.03805 35.1049 7.15738 35.2172 7.20138C35.2489 7.20805 35.1865 7.29771 35.1769 7.29238C34.8522 7.14205 34.7679 7.21905 34.5445 7.62205L33.9929 8.61438C33.8092 8.94505 33.7689 9.08238 33.9369 9.17605L34.0992 9.26671C34.6295 9.56071 34.7039 9.48971 34.8509 9.32238C34.8632 9.31138 34.9419 9.36138 34.9355 9.37471C34.8729 9.46505 34.7022 9.64338 34.6475 9.70071C34.5919 9.75905 34.5649 9.76271 34.5072 9.72938Z" fill="white"/>
<path d="M36.2999 11.0267C36.2676 11.0161 36.3486 10.9401 36.3599 10.9491C36.5116 11.0417 36.5813 11.1297 36.6446 11.0481C36.7189 10.9541 36.7719 10.7784 36.8396 10.5821L36.9359 10.3087L36.2759 9.79005L36.0129 9.93205C35.7939 10.0504 35.6566 10.1337 35.5933 10.2151C35.5386 10.2847 35.6156 10.3454 35.7373 10.4597C35.7573 10.4751 35.6903 10.5617 35.6719 10.5341C35.5879 10.4484 35.4643 10.3451 35.3339 10.2421C35.1596 10.1047 35.1296 10.0824 34.9826 9.99305C34.9549 9.97805 35.0306 9.90605 35.0433 9.91539C35.2606 10.0594 35.4529 10.0324 35.8769 9.81205L37.7156 8.86372C37.7389 8.84939 37.7826 8.87739 37.7716 8.90839L37.1973 10.8487C37.0846 11.2344 37.0233 11.4301 37.2969 11.6851C37.3093 11.6947 37.2499 11.7871 37.2333 11.7594C37.1449 11.6704 36.9723 11.5287 36.8376 11.4227C36.6626 11.2854 36.4433 11.1124 36.2999 11.0267ZM36.4209 9.70539L36.9876 10.1501L37.2726 9.26739L36.4209 9.70539Z" fill="white"/>
<path d="M39.0377 12.0633C38.9853 12.006 38.9676 11.9863 38.941 11.9483L38.6173 12.24C38.271 12.552 38.226 12.6417 38.4383 12.9243C38.449 12.9353 38.3756 13.0163 38.362 12.9863C38.2933 12.8873 38.1203 12.6877 38.009 12.5643C37.857 12.395 37.686 12.2063 37.5603 12.0977C37.5313 12.081 37.6233 12.0197 37.633 12.0317C37.886 12.257 37.9733 12.2617 38.3383 11.932L39.2087 11.1477C39.5433 10.8457 39.561 10.7177 39.439 10.5833C39.4117 10.5527 39.376 10.5213 39.33 10.486C39.309 10.4773 39.365 10.3923 39.389 10.412C39.539 10.5 39.863 10.829 40.1477 11.1447C40.6163 11.664 40.7007 12.0903 40.3933 12.3677C40.2007 12.5417 39.8873 12.5737 39.586 12.4327C39.332 12.9407 39.1316 13.785 39.433 14.12C39.4433 14.1317 39.3807 14.209 39.36 14.1857C38.791 13.5547 38.9137 12.794 39.254 12.2577C39.1813 12.199 39.0897 12.1213 39.0377 12.0633ZM39.9077 11.1177C39.841 11.1513 39.7213 11.244 39.514 11.4313L39.0517 11.8473C39.0833 11.8827 39.1003 11.9093 39.1446 11.9597C39.489 12.3397 39.7703 12.3587 40.0327 12.1227C40.3557 11.8307 40.304 11.5417 40.0016 11.2067C39.9643 11.1643 39.95 11.157 39.9077 11.1177Z" fill="white"/>
<path d="M39.5513 14.3891C39.526 14.3681 39.616 14.3177 39.6347 14.3364C39.877 14.6434 39.942 14.6511 40.3637 14.3867L41.355 13.7637C41.773 13.5017 41.8037 13.4337 41.6323 13.0827C41.6227 13.0581 41.703 13.0011 41.7107 13.0331C41.7807 13.1851 41.9323 13.4261 42.054 13.6191C42.145 13.7641 42.2677 13.9497 42.3467 14.0471C42.3727 14.0677 42.2793 14.1141 42.2707 14.1011C42.083 13.8511 41.9687 13.8741 41.5793 14.1194L40.587 14.7427C40.1957 14.9874 40.13 15.0777 40.2733 15.3551C40.2817 15.3681 40.1953 15.4341 40.1873 15.4031C40.134 15.2891 40.021 15.0981 39.9303 14.9531C39.8087 14.7597 39.6563 14.5181 39.5513 14.3891ZM40.7623 16.2784C40.6413 16.0851 40.5107 15.8784 40.4063 15.7494C40.3803 15.7287 40.481 15.6841 40.4863 15.6924C40.6153 15.8504 40.644 15.8937 40.683 15.8201C40.7357 15.6894 40.7883 15.4537 40.8537 15.1867L41.036 14.4537L41.9077 14.6231C42.1733 14.6761 42.3397 14.7064 42.51 14.7157C42.6253 14.7227 42.5763 14.6254 42.5107 14.4827C42.501 14.4581 42.5823 14.4011 42.5893 14.4334C42.6397 14.5424 42.7417 14.7044 42.8297 14.8447C42.8993 14.9551 42.9863 15.0834 43.0393 15.1481C43.071 15.1897 42.9767 15.2244 42.9677 15.2114C42.762 14.9311 42.574 14.9141 41.9563 14.7884L41.374 14.6704L41.1587 15.6317C41.0113 16.2934 41.005 16.4687 41.162 16.7677C41.167 16.7761 41.0873 16.8451 41.071 16.8067C41.0203 16.6984 40.847 16.4144 40.7623 16.2784Z" fill="white"/>
<path d="M25.0007 0.833374C11.6543 0.833374 0.833984 11.6544 0.833984 25.0004C0.833984 38.345 11.654 49.1667 25.0007 49.1667C38.346 49.1667 49.1656 38.345 49.1656 25.0004C49.1656 11.6544 38.346 0.833374 25.0007 0.833374Z" fill="white"/>
<path d="M25.0007 0.833374C11.6543 0.833374 0.833984 11.6544 0.833984 25C0.833984 38.345 11.654 49.1667 25.0007 49.1667C38.346 49.1667 49.1657 38.345 49.1657 25C49.1657 11.6544 38.346 0.833374 25.0007 0.833374Z" stroke="#CFAA7A" stroke-width="0.6736" stroke-linecap="round" stroke-linejoin="round"/>
<path d="M26.0055 1.99571C13.3005 1.44104 2.54887 11.291 1.99487 23.997C1.44154 36.7017 11.2912 47.4517 23.9955 48.005C36.7005 48.5604 47.4499 38.71 48.0052 26.0064C48.5599 13.301 38.7109 2.55004 26.0055 1.99571Z" fill="#002D62"/>
<path d="M25.0003 9.29272C16.3266 9.29272 9.29297 16.3241 9.29297 25.0011C9.29297 33.6757 16.3266 40.7077 25.0003 40.7077C33.676 40.7077 40.708 33.6757 40.708 25.0011C40.708 16.3244 33.676 9.29272 25.0003 9.29272Z" fill="white"/>
<path d="M19.2977 26.3387C19.2944 27.4937 17.861 28.4284 16.0917 28.4284C14.3244 28.4284 12.8914 27.4937 12.8877 26.3387L16.0917 20.1741" fill="white"/>
<path d="M19.2977 26.3387C19.2944 27.4937 17.861 28.4284 16.0917 28.4284C14.3244 28.4284 12.8914 27.4937 12.8877 26.3387L16.0917 20.1741L19.2977 26.3387Z" stroke="#CFAA7A" stroke-width="0.6736" stroke-linecap="round" stroke-linejoin="round"/>
<path d="M25.0007 10.333C16.901 10.333 10.334 16.9 10.334 24.9997C10.334 33.0997 16.901 39.6667 25.0007 39.6667C33.099 39.6667 39.666 33.0997 39.666 24.9997C39.666 16.9 33.0993 10.333 25.0007 10.333Z" stroke="#CFAA7A" stroke-width="0.6736" stroke-linecap="round" stroke-linejoin="round"/>
<path d="M25.0172 17.066H23.5455V17.446C24.3335 17.446 24.2708 18.2677 24.2708 18.846C24.2708 21.5214 24.3362 27.9457 23.9572 30.605C23.6655 32.653 21.7285 33.6467 19.6602 33.6467V34.4687H25.0215V17.9584" fill="#CFAA7A"/>
<path d="M24.9405 17.066H26.4119V17.446C25.6252 17.446 25.6869 18.2677 25.6869 18.846C25.6869 21.5214 25.6222 27.9457 26.0005 30.605C26.2925 32.653 28.2302 33.6467 30.2972 33.6467V34.4687H24.9365V17.9584" fill="#CFAA7A"/>
<path d="M25.0172 17.066H23.5455V17.446C24.3335 17.446 24.2708 18.2677 24.2708 18.846C24.2708 21.5214 24.3362 27.9457 23.9572 30.605C23.6655 32.653 21.7285 33.6467 19.6602 33.6467V34.4687H25.0215V17.9584" fill="#CFAA7A"/>
<path d="M24.9405 17.066H26.4119V17.446C25.6252 17.446 25.6869 18.2677 25.6869 18.846C25.6869 21.5214 25.6222 27.9457 26.0005 30.605C26.2925 32.653 28.2302 33.6467 30.2972 33.6467V34.4687H24.9365V17.9584" fill="#CFAA7A"/>
<path d="M17.1498 20.1267C17.0934 19.551 16.5828 19.1313 16.0081 19.1867C15.4334 19.2423 15.0128 19.7527 15.0684 20.3283C15.1238 20.9033 15.6351 21.3237 16.2094 21.268C16.7844 21.2123 17.2054 20.7013 17.1498 20.1267Z" fill="#CFAA7A"/>
<path d="M15.0679 20.3284C14.9542 19.1564 15.7972 18.2504 16.8569 17.9734C18.2226 17.6157 19.5576 18.0641 20.8899 18.3434C21.6836 18.5097 23.5282 18.5831 24.3316 18.5051C24.3889 19.0911 24.7349 19.8454 24.7929 20.4441C23.3386 20.5851 21.2649 20.5474 19.9529 19.7567C19.1146 19.2524 17.1216 18.1201 16.4976 19.4121" fill="#CFAA7A"/>
<path d="M34.89 18.4067C34.7774 17.2344 33.7757 16.508 32.682 16.4394C31.2734 16.3504 30.0497 17.0474 28.7964 17.5777C28.0497 17.892 26.252 18.319 25.4484 18.397C25.5047 18.983 25.3114 19.7897 25.3694 20.3884C26.8237 20.2477 28.85 19.8127 29.987 18.7847C30.7134 18.1284 32.451 16.634 33.3117 17.7834" fill="#CFAA7A"/>
<path d="M24.332 18.5051L25.4487 18.3967L25.3694 20.3881L24.793 20.4444" fill="#CFAA7A"/>
<path d="M15.0679 20.3284C14.9542 19.1564 15.7972 18.2504 16.8569 17.9734C18.2226 17.6157 19.5576 18.0641 20.8899 18.3434C21.6836 18.5097 23.5282 18.5831 24.3316 18.5051C24.3889 19.0911 24.7349 19.8454 24.7929 20.4441C23.3386 20.5851 21.2649 20.5474 19.9529 19.7567C19.1146 19.2524 17.1216 18.1201 16.4976 19.4121" fill="#CFAA7A"/>
<path d="M34.89 18.4067C34.7774 17.2344 33.7757 16.508 32.682 16.4394C31.2734 16.3504 30.0497 17.0474 28.7964 17.5777C28.0497 17.892 26.252 18.319 25.4484 18.397C25.5047 18.983 25.3114 19.7897 25.3694 20.3884C26.8237 20.2477 28.85 19.8127 29.987 18.7847C30.7134 18.1284 32.451 16.634 33.3117 17.7834" fill="#CFAA7A"/>
<path d="M24.332 18.5051L25.4487 18.3967L25.3694 20.3881L24.793 20.4444" fill="#CFAA7A"/>
<path d="M16.0917 26.6684C14.3264 26.6684 12.8944 26.5211 12.8877 26.3387C12.8914 27.4937 14.3244 28.4284 16.0917 28.4284C17.861 28.4284 19.2944 27.4937 19.2977 26.3387C19.2907 26.5211 17.8597 26.6684 16.0917 26.6684Z" fill="#CFAA7A"/>
<path d="M37.1105 24.6584C37.1065 25.8148 35.6742 26.7498 33.9062 26.7498C32.1385 26.7498 30.7048 25.8144 30.7012 24.6584L33.9062 18.4948" fill="white"/>
<path d="M37.1105 24.6584C37.1065 25.8148 35.6742 26.7498 33.9062 26.7498C32.1385 26.7498 30.7048 25.8144 30.7012 24.6584L33.9062 18.4948L37.1105 24.6584Z" stroke="#CFAA7A" stroke-width="0.6736" stroke-linecap="round" stroke-linejoin="round"/>
<path d="M33.9062 24.9883C32.1402 24.9883 30.7078 24.841 30.7012 24.6583C30.7048 25.8147 32.1388 26.7497 33.9062 26.7497C35.6745 26.7497 37.1068 25.8143 37.1105 24.6583C37.1052 24.841 35.6728 24.9883 33.9062 24.9883Z" fill="#CFAA7A"/>
<path d="M32.8107 18.6087C32.7544 18.0334 33.1757 17.5231 33.7504 17.4671C34.3247 17.4117 34.8357 17.8321 34.8904 18.4067C34.9467 18.9817 34.5257 19.4924 33.951 19.5484C33.3774 19.6044 32.865 19.1834 32.8107 18.6087Z" fill="#CFAA7A"/>
<path d="M12.4773 41.3251C12.3656 41.2321 12.2166 41.0794 11.9943 40.8927C11.693 40.6401 11.3033 40.3141 11.0716 40.1457C11.037 40.1241 11.1233 40.0608 11.1316 40.0678C11.4633 40.2844 11.5283 40.2711 11.8443 39.8941L12.598 38.9971C12.914 38.6201 12.9176 38.5351 12.679 38.2874C12.6673 38.2784 12.717 38.1781 12.7503 38.2194C12.8533 38.3381 13.047 38.5027 13.2176 38.6454C13.345 38.7521 13.554 38.9137 13.6553 38.9787C13.6853 38.9911 13.6076 39.0674 13.5996 39.0604C13.309 38.8511 13.2116 38.9104 12.915 39.2644L12.1856 40.1324C11.9423 40.4221 11.8763 40.5507 12.0233 40.6731L12.1663 40.7927C12.6303 41.1827 12.7173 41.1267 12.893 40.9904C12.9066 40.9817 12.9756 41.0461 12.9653 41.0584C12.8873 41.1348 12.6866 41.2771 12.621 41.3234C12.5543 41.3691 12.5283 41.3681 12.4773 41.3251Z" fill="white"/>
<path d="M14.3143 42.5667C14.2823 42.559 14.3533 42.4753 14.3666 42.4837C14.5266 42.5593 14.6046 42.6387 14.6599 42.5507C14.7229 42.4497 14.7569 42.269 14.8046 42.0663L14.8713 41.7837L14.1599 41.3387L13.9136 41.5077C13.7086 41.6483 13.5809 41.7457 13.5256 41.8333C13.4789 41.909 13.5626 41.961 13.6946 42.0627C13.7163 42.0753 13.6593 42.1677 13.6376 42.143C13.5449 42.066 13.4119 41.976 13.2713 41.888C13.0823 41.77 13.0516 41.7507 12.8959 41.6777C12.8666 41.6657 12.9346 41.5867 12.9486 41.5937C13.1786 41.7143 13.3673 41.6673 13.7653 41.4023L15.4936 40.2667C15.5163 40.2493 15.5629 40.2723 15.5549 40.3047L15.1883 42.2953C15.1176 42.6903 15.0769 42.892 15.3769 43.116C15.3899 43.1244 15.3409 43.222 15.3199 43.1963C15.2226 43.1173 15.0366 42.995 14.8916 42.9047C14.7026 42.785 14.4653 42.6367 14.3143 42.5667ZM14.2959 41.24L14.9059 41.6227L15.0963 40.714L14.2959 41.24Z" fill="white"/>
<path d="M17.7993 44.3057C17.7816 44.3211 17.7299 44.3107 17.7349 44.2734L17.7929 42.5617L16.5229 43.7707C16.5056 43.7871 16.4586 43.7777 16.4583 43.7381L16.4506 41.7017C16.4493 41.2351 16.3913 41.0534 16.1423 40.9217C16.1336 40.9177 16.1613 40.8111 16.1856 40.8331C16.2896 40.8924 16.4866 40.9861 16.6299 41.0464C16.8209 41.1261 17.1309 41.2574 17.2799 41.2907C17.3029 41.2891 17.2563 41.3877 17.2469 41.3834C17.0789 41.3297 16.9656 41.3161 16.9259 41.4117C16.8956 41.4841 16.8606 41.7161 16.8613 41.8627L16.8709 43.2204L17.8096 42.3211L17.8083 42.2701C17.7999 41.8331 17.7579 41.6257 17.5243 41.4991C17.4999 41.4901 17.5369 41.3874 17.5616 41.4081C17.6606 41.4671 17.8619 41.5627 18.0016 41.6211C18.1969 41.7024 18.5366 41.8451 18.6806 41.8764C18.7126 41.8791 18.6659 41.9781 18.6519 41.9714C18.4303 41.8961 18.3336 41.9004 18.2913 42.0011C18.2559 42.0867 18.2226 42.1914 18.2139 42.4291L18.1489 43.7504L19.0893 42.7781C19.2609 42.5971 19.3189 42.5264 19.3566 42.4357C19.3943 42.3454 19.3439 42.2781 19.1819 42.1941C19.1583 42.1841 19.1956 42.0814 19.2206 42.1037C19.3149 42.1594 19.4876 42.2437 19.6306 42.3027C19.8266 42.3857 19.8576 42.3931 20.0109 42.4291C20.0346 42.4391 19.9853 42.5307 19.9759 42.5264C19.7783 42.4607 19.5559 42.5641 19.2469 42.8721" fill="white"/>
<path d="M20.8007 44.9091C20.7834 44.8907 20.8477 44.6077 20.9094 44.3387C20.9141 44.3141 21.0037 44.3394 21.0017 44.3497C20.9664 44.7437 21.1177 45.0841 21.5161 45.1531C21.7917 45.2014 22.0087 45.0707 22.0511 44.8251C22.1607 44.1871 21.0374 43.9934 21.1584 43.2931C21.2191 42.9411 21.5977 42.6324 22.0677 42.7144C22.2931 42.7527 22.4241 42.8441 22.5434 42.9437C22.5711 42.9687 22.5761 43.1867 22.5307 43.4457C22.5284 43.4621 22.4257 43.4437 22.4287 43.4291C22.4311 43.1397 22.2804 42.9131 22.0051 42.8661C21.7647 42.8247 21.5657 42.9127 21.5247 43.1474C21.4194 43.7601 22.5251 43.9347 22.3977 44.6697C22.3254 45.0881 21.9367 45.3947 21.4511 45.3117C21.1707 45.2624 20.9714 45.1121 20.8007 44.9091Z" fill="white"/>
<path d="M22.9927 44.2767C23.0134 43.5664 23.6594 42.9214 24.509 42.947C25.3067 42.9694 25.8947 43.6044 25.8737 44.282C25.854 44.9877 25.213 45.632 24.3584 45.6067C23.5657 45.584 22.9724 44.9544 22.9927 44.2767ZM23.432 44.123C23.4074 44.9727 23.9387 45.4284 24.4564 45.444C25.011 45.4607 25.4244 45.1307 25.4457 44.4357C25.47 43.586 24.934 43.1197 24.416 43.1044C23.8617 43.0887 23.453 43.4237 23.432 44.123Z" fill="white"/>
<path d="M27.9772 45.4043C27.0879 45.521 26.4239 45.0027 26.3359 44.3347C26.2429 43.631 26.7649 42.877 27.6432 42.7613C28.0129 42.7127 28.4142 42.8167 28.4979 42.8627C28.5319 42.884 28.6242 43.228 28.6709 43.4617C28.6739 43.482 28.5762 43.495 28.5689 43.4803C28.4685 43.1913 28.1412 42.858 27.5722 42.9323C26.9965 43.0083 26.6565 43.4403 26.7472 44.129C26.8585 44.9717 27.4409 45.3077 27.9912 45.2343C28.3865 45.182 28.7412 44.8583 28.7249 44.4637C28.7235 44.4537 28.8145 44.43 28.8179 44.4567C28.8349 44.7003 28.8342 45.05 28.8062 45.0803C28.6869 45.2007 28.4549 45.3403 27.9772 45.4043Z" fill="white"/>
<path d="M30.3055 44.8471C30.0788 44.9057 29.8385 44.9694 29.6845 45.0321C29.6475 45.0524 29.6442 44.9411 29.6532 44.9384C29.9755 44.8154 30.0082 44.7374 29.8848 44.2664L29.5858 43.1341C29.4605 42.6577 29.3928 42.6057 29.0528 42.6581C29.0425 42.6607 28.9962 42.5657 29.0372 42.5601C29.1998 42.5434 29.4402 42.4811 29.6655 42.4214C29.8162 42.3817 30.0742 42.3024 30.1852 42.2571C30.2242 42.2421 30.2305 42.3474 30.2198 42.3494C29.8818 42.4664 29.8742 42.5811 29.9912 43.0261L30.2898 44.1587C30.4072 44.6054 30.4675 44.6914 30.8218 44.6294C30.8308 44.6271 30.8772 44.7217 30.8362 44.7274C30.7172 44.7434 30.4552 44.8067 30.3055 44.8471Z" fill="white"/>
<path d="M33.3212 43.8267C33.1862 43.8793 32.9522 43.9497 32.6808 44.0553C32.3145 44.1997 31.8752 44.373 31.6135 44.498C31.5838 44.509 31.5628 44.412 31.5778 44.4063C31.9268 44.2187 31.9422 44.157 31.7618 43.6993L31.3338 42.609C31.1538 42.151 31.0975 42.1067 30.7155 42.211C30.7005 42.217 30.6458 42.121 30.6778 42.1143C30.9575 42.0327 31.3838 41.8717 31.7502 41.7273C32.0098 41.625 32.2572 41.5163 32.4722 41.4097C32.4785 41.4967 32.5185 41.5977 32.5458 41.6707C32.5618 41.709 32.5982 41.817 32.6128 41.8387C32.6168 41.8487 32.5275 41.8893 32.5235 41.8797C32.4318 41.7327 32.3425 41.6783 31.8752 41.8617L31.5622 41.9843C31.5805 42.0723 31.6285 42.209 31.7172 42.436L31.8915 42.879L32.1328 42.7843C32.5375 42.626 32.5632 42.6047 32.5408 42.4353C32.5368 42.4257 32.6265 42.3847 32.6312 42.4103C32.6378 42.4697 32.6915 42.621 32.7235 42.703C32.7408 42.746 32.7918 42.8763 32.8058 42.9113C32.8162 42.912 32.7172 42.9563 32.7158 42.9517C32.6082 42.776 32.5735 42.7727 32.1875 42.9243L31.9458 43.019L32.1335 43.4967C32.3155 43.9603 32.3562 43.9947 32.5212 43.9297L32.7088 43.856C33.2635 43.6373 33.2465 43.5553 33.2068 43.2973C33.2052 43.2927 33.3015 43.2547 33.3075 43.2693C33.3295 43.367 33.3832 43.6183 33.3875 43.7003C33.4015 43.778 33.3828 43.8027 33.3212 43.8267Z" fill="white"/>
<path d="M35.238 40.491C35.2453 40.5047 35.1623 40.5464 35.1573 40.5374C35.0403 40.4064 34.865 40.3684 34.505 40.573L34.207 40.7414L35.0177 42.1704C35.2447 42.5724 35.3193 42.642 35.6503 42.4897C35.6643 42.483 35.725 42.5677 35.6863 42.5834C35.5743 42.6294 35.3423 42.755 35.198 42.8367C35.0033 42.947 34.7833 43.0717 34.6527 43.1687C34.6223 43.198 34.5867 43.0937 34.601 43.086C34.8803 42.8854 34.8913 42.802 34.652 42.3784L33.8417 40.9487L33.5253 41.127C33.179 41.3244 33.099 41.4997 33.1433 41.6844C33.129 41.698 33.0607 41.7364 33.0573 41.721C33.0307 41.6407 32.9427 41.464 32.8887 41.3697C32.8677 41.334 32.8293 41.2654 32.7707 41.2047C32.7593 41.1934 32.8373 41.1424 32.85 41.154C32.9383 41.2467 32.95 41.246 33.436 40.9704L34.415 40.4147C34.8967 40.1414 34.92 40.1284 34.8833 40.0007C34.88 39.9854 34.9677 39.94 34.9693 39.964C34.9913 40.046 35.0497 40.169 35.1137 40.2814C35.1443 40.3354 35.2083 40.4487 35.238 40.491Z" fill="white"/>
<path d="M37.1393 39.9787L37.509 40.4453C37.8507 40.8757 37.8897 40.8577 38.1857 40.663C38.1967 40.653 38.273 40.7327 38.241 40.7427C38.135 40.8083 37.9283 40.966 37.7993 41.0693C37.6163 41.2133 37.4213 41.3677 37.3037 41.4873C37.2867 41.5147 37.2307 41.4197 37.2433 41.41C37.4813 41.1677 37.5373 41.1567 37.1807 40.7053L36.849 40.2877L36.242 40.0807C35.5967 39.8593 35.471 39.852 35.1963 40.032C35.184 40.0403 35.1047 39.9653 35.1347 39.954C35.2777 39.867 35.4363 39.7423 35.6147 39.6003C35.7443 39.497 35.94 39.3347 36.0237 39.2483C36.042 39.2213 36.1017 39.3133 36.0893 39.323C35.841 39.5527 35.952 39.5833 36.5783 39.7887L36.972 39.9187L36.9457 39.384C36.914 38.735 36.879 38.7423 36.609 38.9097C36.5967 38.9193 36.5127 38.8477 36.5513 38.83C36.6903 38.7467 36.8213 38.643 36.9997 38.5017C37.1297 38.398 37.2067 38.3307 37.2913 38.243C37.3083 38.2163 37.368 38.308 37.3557 38.3183C37.1077 38.5477 37.0803 38.663 37.1077 39.281" fill="white"/>
<path d="M9.2208 15.0421C9.94147 15.4817 10.1218 15.9024 9.95214 16.7277C9.94347 16.7711 9.85447 16.7281 9.85547 16.7171C9.89014 16.0827 9.66047 15.8027 9.0018 15.4004L8.0068 14.7927C7.58647 14.5354 7.5018 14.5447 7.28847 14.8154C7.28314 14.8237 7.18847 14.7904 7.21447 14.7574C7.3198 14.6337 7.44514 14.4187 7.56714 14.2201C7.6478 14.0871 7.7838 13.8541 7.8348 13.7404C7.8428 13.7081 7.92547 13.7714 7.9178 13.7844C7.75814 14.1061 7.82747 14.1911 8.22547 14.4344" fill="white"/>
<path d="M10.3337 14.3493C10.2424 14.281 10.2081 14.146 10.2877 14.0377C10.3624 13.938 10.5007 13.9243 10.5891 13.99C10.6804 14.058 10.7091 14.202 10.6317 14.3053C10.5571 14.4057 10.4217 14.4143 10.3337 14.3493Z" fill="white"/>
<path d="M12.0256 10.9977C11.9673 11.0501 11.9483 11.0674 11.9106 11.0951L12.2023 11.4181C12.5156 11.7634 12.605 11.8081 12.887 11.5944C12.8986 11.5837 12.9793 11.6571 12.9496 11.6707C12.8506 11.7394 12.651 11.9134 12.5283 12.0244C12.36 12.1771 12.1723 12.3477 12.0626 12.4747C12.0466 12.5034 11.9846 12.4117 11.9963 12.4014C12.2213 12.1487 12.2256 12.0604 11.8953 11.6957L11.1093 10.8281C10.806 10.4944 10.6786 10.4761 10.5443 10.5984C10.5136 10.6264 10.4826 10.6621 10.4473 10.7081C10.4386 10.7297 10.3536 10.6737 10.373 10.6487C10.461 10.4987 10.7883 10.1741 11.1036 9.88839C11.622 9.41839 12.048 9.33339 12.326 9.64072C12.5003 9.83272 12.532 10.1457 12.3926 10.4474C12.902 10.6997 13.7466 10.8991 14.0806 10.5957C14.0916 10.5861 14.1696 10.6481 14.1466 10.6691C13.5173 11.2397 12.7566 11.1177 12.219 10.7801C12.1603 10.8541 12.0826 10.9464 12.0256 10.9977ZM11.0773 10.1297C11.1106 10.1974 11.2043 10.3154 11.3923 10.5231L11.8096 10.9841C11.8436 10.9521 11.8703 10.9357 11.9203 10.8904C12.3003 10.5454 12.318 10.2637 12.081 10.0027C11.7896 9.68039 11.5006 9.73239 11.1663 10.0351C11.1243 10.0731 11.116 10.0874 11.0773 10.1297Z" fill="white"/>
<path d="M15.9196 9.47674C15.798 9.55508 15.5823 9.67108 15.3383 9.82874C15.0076 10.0431 14.6123 10.2994 14.38 10.4747C14.354 10.4917 14.3136 10.4007 14.3263 10.3921C14.6313 10.1391 14.634 10.0751 14.3663 9.66241L13.7293 8.67974C13.4613 8.26641 13.397 8.23374 13.044 8.41374C13.0303 8.42174 12.9583 8.33941 12.9873 8.32708C13.245 8.19041 13.6306 7.94741 13.961 7.73308C14.196 7.58041 14.416 7.42541 14.6046 7.27808C14.628 7.36141 14.6876 7.45341 14.7296 7.51808C14.7523 7.55274 14.81 7.65108 14.8283 7.67008C14.834 7.67908 14.7543 7.73708 14.7483 7.72841C14.629 7.60174 14.5323 7.56641 14.11 7.83941L13.8273 8.02241C13.8623 8.10508 13.937 8.22974 14.0693 8.43374L14.329 8.83408L14.5463 8.69341C14.911 8.45641 14.9323 8.43074 14.8763 8.26908C14.871 8.26041 14.951 8.20274 14.96 8.22708C14.9786 8.28308 15.0613 8.42141 15.1093 8.49474C15.135 8.53441 15.211 8.65174 15.2306 8.68208C15.2416 8.68141 15.1536 8.74441 15.1503 8.74008C15.0103 8.59008 14.976 8.59408 14.6273 8.81974L14.4106 8.96074L14.6896 9.39108C14.9596 9.80908 15.007 9.83408 15.155 9.73808L15.3246 9.62774C15.825 9.30374 15.7926 9.22541 15.7023 8.98174C15.6993 8.97741 15.786 8.92074 15.795 8.93408C15.835 9.02474 15.9386 9.26041 15.959 9.34008C15.9893 9.41241 15.9756 9.43974 15.9196 9.47674Z" fill="white"/>
<path d="M18.5016 7.23775C18.7119 7.72242 18.5239 8.29009 17.8869 8.56642C17.3362 8.80609 16.7146 8.66375 16.4676 8.09342L16.1036 7.25742C15.9072 6.80575 15.8286 6.76709 15.5026 6.86342C15.4889 6.86875 15.4379 6.77809 15.4709 6.77475C15.6286 6.73509 15.8546 6.63075 16.0679 6.53809C16.2206 6.47209 16.4559 6.36442 16.5632 6.30009C16.5876 6.27809 16.6296 6.37309 16.6059 6.38375C16.2946 6.55275 16.3072 6.65975 16.4929 7.08775L16.8219 7.84342C17.0632 8.39909 17.5316 8.48975 17.8979 8.33009C18.3782 8.12175 18.5186 7.75575 18.3062 7.26609L17.9379 6.42009C17.7606 6.01175 17.6769 5.96309 17.3516 6.05942C17.3256 6.06409 17.2869 5.97409 17.3189 5.97109C17.4769 5.93109 17.5836 5.87842 17.7929 5.78775C17.9406 5.72409 18.0959 5.65109 18.1982 5.58875C18.2346 5.56775 18.2546 5.66609 18.2446 5.67075C17.9296 5.84209 17.9466 5.95875 18.1136 6.34375" fill="white"/>
<path d="M20.3005 7.63704C20.0842 7.69004 19.8379 7.75171 19.6865 7.81038C19.6379 7.82838 19.6429 7.71971 19.6579 7.71604C19.9815 7.59838 20.0165 7.52571 19.8979 7.04838L19.6155 5.91138C19.4972 5.43338 19.4319 5.38538 19.0895 5.42738C19.0749 5.43138 19.0232 5.33171 19.0759 5.33004C19.2329 5.31771 19.4142 5.27304 19.6352 5.21738C19.7252 5.19504 19.9685 5.11871 20.0942 5.08771C20.5222 4.98104 20.9639 5.08538 21.0579 5.46271C21.1105 5.67371 20.9665 5.95538 20.7012 6.11171C21.1402 6.02971 21.4829 6.20571 21.5642 6.53304C21.6685 6.95604 21.3549 7.39104 20.7819 7.53338C20.6565 7.56471 20.3962 7.61338 20.3005 7.63704ZM20.2125 6.20604C20.6699 6.09238 20.7472 5.90804 20.6795 5.63638C20.5872 5.26371 20.3575 5.17738 20.0352 5.25738C19.9849 5.26971 19.9829 5.28104 19.9272 5.29438C19.9309 5.41638 19.9549 5.53338 20.0235 5.80971L20.3095 6.96138C20.4099 7.36871 20.4215 7.45671 20.7035 7.38671C21.1205 7.28371 21.2682 7.08104 21.1809 6.72871C21.0899 6.36204 20.7609 6.13338 20.2419 6.32104C20.2259 6.32571 20.1972 6.21004 20.2125 6.20604Z" fill="white"/>
<path d="M24.2101 7.0317C24.0664 7.04536 23.8218 7.04703 23.5321 7.0737C23.1404 7.10903 22.6711 7.15203 22.3841 7.19937C22.3528 7.20237 22.3591 7.1027 22.3744 7.10137C22.7631 7.01937 22.7938 6.96403 22.7488 6.47403L22.6421 5.30737C22.5974 4.81737 22.5558 4.75903 22.1588 4.7537C22.1438 4.75537 22.1181 4.64803 22.1501 4.65037C22.4408 4.64937 22.8954 4.61336 23.2888 4.5767C23.5668 4.55103 23.8338 4.5167 24.0691 4.47437C24.0508 4.55903 24.0614 4.6677 24.0688 4.7447C24.0721 4.78637 24.0771 4.90037 24.0854 4.9257C24.0864 4.9357 23.9884 4.95003 23.9874 4.9397C23.9411 4.77203 23.8714 4.69503 23.3708 4.74103L23.0354 4.77203C23.0284 4.86103 23.0361 5.00603 23.0584 5.24903L23.1021 5.7237L23.3601 5.70037C23.7934 5.66037 23.8238 5.64703 23.8498 5.4777C23.8488 5.46803 23.9464 5.45336 23.9434 5.4797C23.9331 5.53803 23.9431 5.6987 23.9508 5.7857C23.9548 5.83237 23.9681 5.9717 23.9718 6.00803C23.9818 6.01237 23.8744 6.02703 23.8738 6.02203C23.8188 5.8247 23.7864 5.81137 23.3738 5.84903L23.1158 5.8727L23.1628 6.38403C23.2084 6.87937 23.2384 6.92337 23.4134 6.90737L23.6151 6.88837C24.2088 6.83437 24.2161 6.7497 24.2498 6.4917C24.2494 6.48637 24.3521 6.4777 24.3538 6.4927C24.3474 6.59237 24.3288 6.8487 24.3104 6.92937C24.3021 7.0077 24.2781 7.02603 24.2101 7.0317Z" fill="white"/>
<path d="M27.7391 6.51036C27.7225 6.70103 27.6988 7.05236 27.7051 7.21969C27.7038 7.23569 27.6401 7.25069 27.6118 7.21769L25.8518 5.09669L25.7458 6.34169C25.7111 6.75436 25.7345 6.90236 26.0888 6.96336C26.0991 6.96436 26.1005 7.07403 26.0695 7.06069C25.9525 7.03536 25.8135 7.01836 25.6531 7.00503C25.4265 6.98503 25.2608 6.97136 25.0941 6.97836C25.0678 6.98103 25.0868 6.87869 25.1025 6.88003C25.4468 6.87269 25.5068 6.76369 25.5438 6.32436L25.6571 4.99803C25.6725 4.82203 25.3665 4.55703 25.1931 4.52136C25.1771 4.52036 25.1768 4.41036 25.2065 4.42403C25.3641 4.46303 25.6635 4.49369 25.8848 4.51269L27.5291 6.53003L27.6311 5.32669C27.6688 4.88203 27.6265 4.76436 27.2945 4.69969C27.2691 4.69269 27.2781 4.58903 27.3081 4.60169C27.4611 4.64136 27.5898 4.65169 27.8168 4.67103C27.9825 4.68536 28.1585 4.69003 28.2741 4.68403C28.3261 4.68336 28.2911 4.78469 28.2808 4.78369C27.9168 4.77836 27.8725 4.93036 27.8385 5.34436" fill="white"/>
<path d="M31.3202 8.24774C30.4775 7.9424 30.1259 7.17607 30.3562 6.5424C30.5965 5.87474 31.4075 5.44707 32.2415 5.7484C32.5919 5.87474 32.8999 6.15207 32.9525 6.23174C32.9735 6.26707 32.8979 6.61407 32.8309 6.8434C32.8239 6.86374 32.7312 6.8294 32.7319 6.8134C32.7755 6.50974 32.6395 6.06274 32.0992 5.86774C31.5529 5.67007 31.0525 5.8964 30.8162 6.54974C30.5269 7.34874 30.8892 7.9154 31.4099 8.10374C31.7852 8.2394 32.2492 8.11507 32.4182 7.75774C32.4215 7.74774 32.5129 7.7694 32.5039 7.79374C32.4062 8.01807 32.2445 8.32774 32.2055 8.34207C32.0445 8.39407 31.7729 8.41174 31.3202 8.24774Z" fill="white"/>
<path d="M34.4409 9.69432C34.3139 9.62432 34.1375 9.50365 33.8835 9.36398C33.5382 9.17398 33.0939 8.92932 32.8335 8.80965C32.7949 8.79465 32.8675 8.71598 32.8765 8.72132C33.2439 8.86998 33.3055 8.84498 33.5425 8.41365L34.1069 7.38698C34.3442 6.95632 34.3309 6.87165 34.0489 6.67532C34.0362 6.66798 34.0652 6.55965 34.1055 6.59398C34.2285 6.69165 34.4525 6.81432 34.6475 6.92132C34.7932 7.00199 35.0295 7.11998 35.1405 7.16365C35.1725 7.16998 35.1115 7.26032 35.1022 7.25465C34.7765 7.10465 34.6925 7.18265 34.4695 7.58698L33.9232 8.58132C33.7412 8.91298 33.7012 9.05032 33.8685 9.14265L34.0332 9.23265C34.5632 9.52498 34.6382 9.45365 34.7842 9.28532C34.7949 9.27399 34.8755 9.32365 34.8675 9.33765C34.8052 9.42798 34.6369 9.60665 34.5809 9.66465C34.5252 9.72232 34.5002 9.72632 34.4409 9.69432Z" fill="white"/>
<path d="M36.1741 10.9324C36.1435 10.9221 36.2221 10.8454 36.2348 10.8544C36.3871 10.9464 36.4571 11.0331 36.5205 10.9504C36.5928 10.8564 36.6441 10.6801 36.7115 10.4827L36.8055 10.2084L36.1408 9.6954L35.8791 9.83973C35.6611 9.9604 35.5238 10.0451 35.4601 10.1267C35.4071 10.1964 35.4851 10.2571 35.6061 10.3704C35.6271 10.3861 35.5601 10.4727 35.5431 10.4454C35.4571 10.3597 35.3338 10.2581 35.2028 10.1567C35.0265 10.0207 34.9971 9.99873 34.8488 9.91007C34.8211 9.8954 34.8968 9.82273 34.9091 9.83273C35.1265 9.9744 35.3188 9.94607 35.7405 9.7214L37.5718 8.7574C37.5948 8.7434 37.6388 8.77107 37.6278 8.8014L37.0698 10.7471C36.9621 11.1347 36.9018 11.3301 37.1781 11.5834C37.1905 11.5921 37.1321 11.6847 37.1135 11.6574C37.0248 11.5691 36.8521 11.4291 36.7171 11.3244C36.5401 11.1881 36.3185 11.0174 36.1741 10.9324ZM36.2848 9.6104L36.8551 10.0501L37.1325 9.16507L36.2848 9.6104Z" fill="white"/>
<path d="M38.7357 11.75C38.6817 11.6937 38.6641 11.6754 38.6357 11.637L38.3197 11.9364C37.9804 12.256 37.9381 12.3464 38.1567 12.624C38.1674 12.6357 38.0957 12.7177 38.0821 12.688C38.0111 12.5907 37.8334 12.3947 37.7201 12.274C37.5634 12.1084 37.3894 11.9237 37.2594 11.8177C37.2311 11.8014 37.3211 11.7384 37.3317 11.7494C37.5887 11.9694 37.6764 11.972 38.0351 11.6337L38.8871 10.8294C39.2144 10.5207 39.2291 10.3924 39.1037 10.2607C39.0761 10.2307 39.0404 10.2 38.9941 10.166C38.9717 10.1577 39.0254 10.0714 39.0501 10.0907C39.2014 10.1754 39.5334 10.4967 39.8254 10.8054C40.3061 11.3144 40.4004 11.7384 40.0984 12.023C39.9101 12.2004 39.5974 12.2397 39.2927 12.106C39.0511 12.62 38.8691 13.4694 39.1794 13.7967C39.1887 13.8077 39.1287 13.887 39.1067 13.8644C38.5231 13.2464 38.6294 12.4827 38.9567 11.9387C38.8821 11.8827 38.7891 11.8064 38.7357 11.75ZM39.5841 10.7844C39.5164 10.8194 39.4011 10.9154 39.1974 11.1077L38.7457 11.535C38.7777 11.5684 38.7957 11.5947 38.8417 11.6434C39.1931 12.0164 39.4751 12.0284 39.7317 11.7864C40.0481 11.4877 39.9897 11.2 39.6814 10.872C39.6421 10.8297 39.6271 10.8227 39.5841 10.7844Z" fill="white"/>
<path d="M39.2867 14.0417C39.2614 14.0214 39.3501 13.9687 39.3694 13.9877C39.6174 14.2887 39.6837 14.2951 40.0987 14.0197L41.0744 13.3737C41.4857 13.1017 41.5144 13.0327 41.3351 12.6861C41.3251 12.6614 41.4037 12.6024 41.4121 12.6344C41.4871 12.7844 41.6431 13.0224 41.7701 13.2121C41.8644 13.3541 41.9914 13.5374 42.0724 13.6327C42.0987 13.6527 42.0071 13.7014 41.9981 13.6881C41.8047 13.4434 41.6904 13.4691 41.3071 13.7234L40.3297 14.3697C39.9451 14.6244 39.8824 14.7164 40.0327 14.9897C40.0397 15.0031 39.9554 15.0717 39.9464 15.0397C39.8911 14.9277 39.7724 14.7391 39.6777 14.5964C39.5537 14.4067 39.3957 14.1687 39.2867 14.0417ZM40.5434 15.9021C40.4164 15.7117 40.2824 15.5081 40.1744 15.3817C40.1477 15.3607 40.2474 15.3141 40.2534 15.3227C40.3861 15.4771 40.4144 15.5204 40.4531 15.4457C40.5024 15.3131 40.5507 15.0764 40.6081 14.8081L40.7734 14.0714L41.6477 14.2194C41.9154 14.2661 42.0814 14.2924 42.2524 14.2974C42.3677 14.3017 42.3154 14.2054 42.2481 14.0641C42.2381 14.0401 42.3161 13.9814 42.3254 14.0134C42.3781 14.1207 42.4847 14.2807 42.5757 14.4187C42.6467 14.5271 42.7364 14.6537 42.7911 14.7174C42.8241 14.7577 42.7307 14.7944 42.7231 14.7817C42.5091 14.5064 42.3207 14.4941 41.7001 14.3831L41.1164 14.2787L40.9237 15.2454C40.7914 15.9104 40.7894 16.0861 40.9544 16.3807C40.9604 16.3897 40.8827 16.4597 40.8637 16.4221C40.8104 16.3147 40.6317 16.0354 40.5434 15.9021Z" fill="white"/>
<path d="M39.5543 36.4794C39.4639 36.409 39.4299 36.2724 39.5139 36.1647C39.5896 36.0667 39.7289 36.0557 39.8153 36.1214C39.9059 36.1924 39.9293 36.3344 39.8486 36.4374C39.7729 36.5364 39.6413 36.545 39.5543 36.4794ZM40.7966 37.4357C40.7056 37.3647 40.6736 37.228 40.7556 37.1204C40.8329 37.0214 40.9723 37.0117 41.0589 37.0774C41.1493 37.148 41.1756 37.293 41.0966 37.3954C41.0206 37.494 40.8829 37.501 40.7966 37.4357Z" fill="white"/>
<path d="M40.5094 35.1507C40.4127 35.089 40.3684 34.9557 40.4421 34.8413C40.5084 34.737 40.6471 34.7127 40.7404 34.7723C40.8357 34.8347 40.8711 34.9737 40.8004 35.0827C40.7334 35.188 40.6017 35.2103 40.5094 35.1507ZM41.8301 35.9953C41.7337 35.9333 41.6887 35.8 41.7627 35.6867C41.8294 35.5807 41.9677 35.557 42.0607 35.6163C42.1567 35.679 42.1961 35.8207 42.1251 35.9297C42.0587 36.0357 41.9224 36.0547 41.8301 35.9953Z" fill="white"/>
<path d="M41.3453 33.7481C41.2436 33.6947 41.187 33.5657 41.2503 33.4454C41.3076 33.3341 41.4443 33.2994 41.5413 33.3504C41.642 33.4037 41.6883 33.5391 41.6286 33.6551C41.5706 33.7654 41.4423 33.7987 41.3453 33.7481ZM42.734 34.4727C42.6323 34.4194 42.577 34.2907 42.639 34.1714C42.6976 34.0601 42.8326 34.0257 42.93 34.0764C43.0316 34.1297 43.083 34.2677 43.0223 34.3824C42.964 34.4934 42.831 34.5234 42.734 34.4727Z" fill="white"/>
<path d="M42.0525 32.2807C41.9465 32.237 41.8788 32.1127 41.9312 31.9884C41.9788 31.8717 42.1108 31.825 42.2118 31.868C42.3178 31.9124 42.3765 32.043 42.3268 32.163C42.2788 32.2787 42.1538 32.3224 42.0525 32.2807ZM43.5005 32.881C43.3945 32.8374 43.3275 32.714 43.3798 32.588C43.4282 32.4734 43.5598 32.4267 43.6612 32.4684C43.7658 32.5124 43.8295 32.6454 43.7795 32.7654C43.7312 32.881 43.6018 32.9227 43.5005 32.881Z" fill="white"/>
<path d="M42.6276 30.7567C42.5176 30.7224 42.4396 30.6044 42.481 30.4757C42.518 30.357 42.645 30.299 42.75 30.3307C42.8593 30.365 42.9283 30.4907 42.89 30.6154C42.8523 30.735 42.7306 30.7884 42.6276 30.7567ZM44.1226 31.226C44.0126 31.192 43.9356 31.0744 43.976 30.9454C44.0126 30.8264 44.1403 30.7684 44.245 30.8C44.3546 30.8347 44.429 30.9624 44.39 31.086C44.3526 31.2064 44.227 31.2584 44.1226 31.226Z" fill="white"/>
<path d="M43.0648 29.1854C42.9535 29.1611 42.8655 29.0511 42.8941 28.9187C42.9205 28.7974 43.0431 28.7274 43.1495 28.7514C43.2615 28.7747 43.3415 28.8944 43.3141 29.0217C43.2878 29.1434 43.1725 29.2091 43.0648 29.1854ZM44.5968 29.5204C44.4841 29.4967 44.3965 29.3864 44.4251 29.2541C44.4528 29.1317 44.5738 29.0627 44.6811 29.0857C44.7935 29.1107 44.8791 29.2301 44.8501 29.3581C44.8241 29.4797 44.7038 29.5447 44.5968 29.5204Z" fill="white"/>
<path d="M43.3624 27.5827C43.2477 27.5691 43.1507 27.4671 43.168 27.3327C43.185 27.2081 43.2994 27.1291 43.4077 27.1431C43.5224 27.1571 43.6127 27.2687 43.5957 27.3974C43.5794 27.5221 43.4707 27.5971 43.3624 27.5827ZM44.917 27.7817C44.8027 27.7671 44.7057 27.6661 44.7227 27.5311C44.7397 27.4071 44.854 27.3284 44.963 27.3414C45.077 27.3557 45.173 27.4687 45.156 27.5977C45.1397 27.7207 45.0257 27.7964 44.917 27.7817Z" fill="white"/>
<path d="M43.5166 25.9584C43.4016 25.9541 43.2956 25.8614 43.301 25.7267C43.3066 25.6007 43.4146 25.5114 43.524 25.5154C43.6373 25.5204 43.738 25.6231 43.733 25.7531C43.7276 25.8777 43.6253 25.9631 43.5166 25.9584ZM45.0826 26.0194C44.9683 26.0151 44.8623 25.9221 44.8673 25.7867C44.8726 25.6624 44.9806 25.5731 45.0893 25.5774C45.204 25.5821 45.31 25.6847 45.3046 25.8151C45.2996 25.9394 45.1916 26.0234 45.0826 26.0194Z" fill="white"/>
<path d="M43.5275 24.3278C43.4139 24.3334 43.2995 24.2508 43.2932 24.1151C43.2875 23.9904 43.3862 23.8914 43.4959 23.8861C43.6105 23.8801 43.7189 23.9744 43.7252 24.1048C43.7315 24.2301 43.6369 24.3234 43.5275 24.3278ZM45.0932 24.2521C44.9795 24.2571 44.8652 24.1744 44.8585 24.0391C44.8525 23.9141 44.9522 23.8154 45.0615 23.8098C45.1765 23.8048 45.2899 23.8984 45.2965 24.0281C45.3029 24.1534 45.2029 24.2468 45.0932 24.2521Z" fill="white"/>
<path d="M43.3964 22.7023C43.2834 22.718 43.1627 22.6453 43.1447 22.5107C43.1274 22.3873 43.218 22.28 43.3267 22.2653C43.4397 22.2503 43.5564 22.3337 43.5734 22.463C43.5907 22.586 43.5054 22.6877 43.3964 22.7023ZM44.95 22.4897C44.8367 22.5053 44.7157 22.4327 44.698 22.2977C44.6807 22.1747 44.771 22.067 44.88 22.0527C44.9927 22.0377 45.115 22.1203 45.132 22.2497C45.149 22.373 45.058 22.475 44.95 22.4897Z" fill="white"/>
<path d="M43.1232 21.0923C43.0108 21.1177 42.8848 21.0553 42.8552 20.9233C42.8272 20.8013 42.9085 20.6873 43.0145 20.663C43.1265 20.6373 43.2498 20.711 43.2792 20.8373C43.3065 20.9593 43.2302 21.068 43.1232 21.0923ZM44.6522 20.744C44.5402 20.7697 44.4142 20.7077 44.3835 20.5753C44.3558 20.454 44.4365 20.3393 44.5432 20.3153C44.6552 20.2897 44.7838 20.362 44.8122 20.4887C44.8408 20.6107 44.7575 20.7197 44.6522 20.744Z" fill="white"/>
<path d="M42.7111 19.5134C42.6018 19.5484 42.4708 19.4977 42.4294 19.3694C42.3914 19.2504 42.4614 19.1291 42.5651 19.0954C42.6751 19.0607 42.8041 19.1227 42.8438 19.2467C42.8821 19.3657 42.8154 19.4801 42.7111 19.5134ZM44.2031 19.0337C44.0931 19.0687 43.9624 19.0177 43.9211 18.8891C43.8831 18.7701 43.9528 18.6487 44.0571 18.6161C44.1664 18.5804 44.3004 18.6411 44.3404 18.7651C44.3791 18.8837 44.3074 19.0001 44.2031 19.0337Z" fill="white"/>
<path d="M8.90564 37.4024C8.82631 37.2991 8.85231 37.1541 8.94331 37.0847C9.03031 37.0177 9.16997 37.0281 9.24631 37.1284C9.32864 37.2357 9.29564 37.3724 9.20497 37.4414C9.11831 37.5084 8.98197 37.5014 8.90564 37.4024ZM10.1523 36.4447C10.0726 36.3411 10.096 36.1994 10.1863 36.1287C10.273 36.0631 10.4126 36.0731 10.489 36.1721C10.571 36.2797 10.5386 36.4161 10.448 36.4867C10.361 36.5524 10.229 36.5427 10.1523 36.4447Z" fill="white"/>
<path d="M7.87779 35.9376C7.80746 35.829 7.84612 35.6866 7.94246 35.6246C8.03446 35.5653 8.17279 35.589 8.24012 35.693C8.31312 35.8076 8.26879 35.941 8.17212 36.003C8.08012 36.0623 7.94479 36.043 7.87779 35.9376ZM9.20212 35.0903C9.13179 34.9816 9.16646 34.8413 9.26312 34.78C9.35512 34.7206 9.49346 34.7443 9.56079 34.8483C9.63379 34.963 9.58946 35.0963 9.49279 35.1583C9.40079 35.2173 9.27012 35.196 9.20212 35.0903Z" fill="white"/>
<path d="M6.97937 34.39C6.91837 34.2747 6.9697 34.1353 7.0717 34.0837C7.1687 34.033 7.30403 34.0677 7.3617 34.179C7.4247 34.298 7.36837 34.427 7.2667 34.4797C7.17003 34.5307 7.0367 34.5007 6.97937 34.39ZM8.37337 33.661C8.3127 33.546 8.35937 33.4107 8.46103 33.3573C8.55803 33.3067 8.6937 33.341 8.7517 33.4523C8.81437 33.572 8.75837 33.7017 8.65703 33.755C8.5597 33.8047 8.43103 33.7723 8.37337 33.661Z" fill="white"/>
<path d="M6.22252 32.772C6.17252 32.6526 6.23552 32.5193 6.34152 32.475C6.44219 32.4336 6.57452 32.4803 6.62252 32.5946C6.67419 32.7196 6.60685 32.844 6.50152 32.888C6.40019 32.9296 6.27052 32.8883 6.22252 32.772ZM7.67519 32.17C7.62519 32.0503 7.68385 31.918 7.78952 31.8743C7.89052 31.8323 8.02252 31.879 8.07052 31.9953C8.12252 32.1196 8.05552 32.2446 7.94952 32.2876C7.84852 32.33 7.72285 32.2863 7.67519 32.17Z" fill="white"/>
<path d="M5.61231 31.0937C5.57265 30.9704 5.64765 30.8417 5.75665 30.8081C5.86132 30.7757 5.98932 30.8331 6.02632 30.9527C6.06665 31.0824 5.98965 31.1994 5.87965 31.2337C5.77565 31.2657 5.64965 31.2124 5.61231 31.0937ZM7.11265 30.6224C7.07398 30.4987 7.14365 30.3724 7.25231 30.3384C7.35698 30.3057 7.48398 30.3631 7.52198 30.4831C7.56231 30.6117 7.48431 30.7297 7.37498 30.7637C7.27065 30.7964 7.14965 30.7414 7.11265 30.6224Z" fill="white"/>
<path d="M5.15182 29.366C5.12382 29.2377 5.20982 29.1187 5.32182 29.0934C5.42815 29.0707 5.55049 29.1397 5.57715 29.262C5.60649 29.394 5.51848 29.5047 5.40615 29.5284C5.29915 29.552 5.17848 29.4877 5.15182 29.366ZM6.68815 29.029C6.66015 28.901 6.74115 28.7834 6.85282 28.758C6.95949 28.7347 7.08115 28.8037 7.10815 28.9267C7.13748 29.0587 7.04982 29.1687 6.93715 29.193C6.83082 29.216 6.71515 29.1507 6.68815 29.029Z" fill="white"/>
<path d="M4.84655 27.6048C4.83021 27.4758 4.92621 27.3631 5.03988 27.3484C5.14788 27.3354 5.26321 27.4151 5.27955 27.5378C5.29655 27.6721 5.19921 27.7741 5.08555 27.7891C4.97621 27.8034 4.86221 27.7281 4.84655 27.6048ZM6.40688 27.4044C6.39055 27.2761 6.48121 27.1641 6.59455 27.1491C6.70255 27.1361 6.81755 27.2154 6.83421 27.3391C6.85088 27.4741 6.75388 27.5751 6.63988 27.5898C6.53221 27.6044 6.42221 27.5288 6.40688 27.4044Z" fill="white"/>
<path d="M4.69742 25.8223C4.69275 25.6913 4.79808 25.5893 4.91242 25.585C5.02242 25.58 5.12975 25.67 5.13475 25.7943C5.14008 25.929 5.03408 26.0223 4.91975 26.0267C4.81042 26.0313 4.70242 25.9473 4.69742 25.8223ZM6.26941 25.7607C6.26408 25.6307 6.36475 25.5277 6.47908 25.523C6.58775 25.5183 6.69608 25.608 6.70042 25.7323C6.70575 25.869 6.60041 25.9617 6.48575 25.966C6.37641 25.9693 6.27441 25.885 6.26941 25.7607Z" fill="white"/>
<path d="M4.70534 24.0357C4.712 23.9054 4.82567 23.8117 4.94 23.8174C5.049 23.823 5.14834 23.9217 5.14234 24.0464C5.13634 24.182 5.023 24.265 4.90767 24.2594C4.799 24.2544 4.69934 24.1607 4.70534 24.0357ZM6.276 24.1124C6.28234 23.9817 6.39167 23.888 6.50634 23.8937C6.615 23.8994 6.715 23.9977 6.70834 24.1224C6.70167 24.2574 6.58834 24.3407 6.474 24.335C6.365 24.33 6.27067 24.2364 6.276 24.1124Z" fill="white"/>
<path d="M4.86909 22.2564C4.88676 22.1281 5.00876 22.0444 5.12176 22.0607C5.23076 22.0751 5.32109 22.1817 5.30443 22.3057C5.28543 22.4397 5.16509 22.5127 5.05176 22.4974C4.94376 22.4827 4.85276 22.3811 4.86909 22.2564ZM6.42743 22.4701C6.44509 22.3417 6.56143 22.2571 6.67509 22.2734C6.78409 22.2877 6.87443 22.3944 6.85776 22.5184C6.83943 22.6524 6.71876 22.7254 6.60476 22.7101C6.49643 22.6954 6.41076 22.5944 6.42743 22.4701Z" fill="white"/>
<path d="M5.1888 20.496C5.21813 20.369 5.34713 20.2964 5.4588 20.322C5.56546 20.3464 5.64613 20.4607 5.61813 20.583C5.58913 20.715 5.46246 20.7774 5.3508 20.7514C5.24346 20.7277 5.1618 20.618 5.1888 20.496ZM6.7228 20.845C6.7518 20.7177 6.87546 20.645 6.9868 20.67C7.0938 20.6944 7.17446 20.8094 7.1468 20.9304C7.11713 21.063 6.99046 21.1247 6.8788 21.0994C6.77146 21.0747 6.69546 20.967 6.7228 20.845Z" fill="white"/>
<path d="M5.66053 18.7727C5.70119 18.6484 5.83519 18.5881 5.94386 18.6227C6.04853 18.6567 6.11853 18.7774 6.08086 18.8971C6.03853 19.0254 5.90786 19.0764 5.79919 19.0414C5.69486 19.0081 5.62286 18.8917 5.66053 18.7727ZM7.15819 19.2541C7.19786 19.1307 7.32786 19.0681 7.43653 19.1034C7.54086 19.1367 7.61119 19.2574 7.57253 19.3764C7.53119 19.5057 7.40053 19.5567 7.29053 19.5211C7.18719 19.4877 7.12019 19.3731 7.15819 19.2541Z" fill="white"/>
</svg>
