<svg width="121" height="22" viewBox="0 0 121 22" fill="none" xmlns="http://www.w3.org/2000/svg">
<path d="M120.094 20.1731C119.588 20.1731 119.188 20.576 119.188 21.0807C119.188 21.5856 119.588 21.9877 120.094 21.9877C120.598 21.9877 121 21.5856 121 21.0807C121 20.576 120.598 20.1731 120.094 20.1731ZM120.094 21.8488C119.679 21.8488 119.325 21.509 119.325 21.0807C119.325 20.6518 119.679 20.3137 120.094 20.3137C120.507 20.3137 120.86 20.6518 120.86 21.0807C120.86 21.509 120.507 21.8488 120.094 21.8488Z" fill="#0033A0"/>
<path d="M120.538 20.8402C120.538 20.6266 120.365 20.5779 120.185 20.5779H119.756V21.5704H119.895V21.112H120.063L120.357 21.5704H120.524L120.226 21.112C120.402 21.1069 120.538 21.0362 120.538 20.8402ZM120.063 20.974H119.895V20.7181H120.158C120.266 20.7181 120.399 20.7361 120.399 20.8377C120.399 20.9958 120.183 20.974 120.063 20.974Z" fill="#0033A0"/>
<path d="M114.29 22C114.467 21.519 114.626 21.0055 114.758 20.4834C115.012 19.4239 115.144 18.3266 115.144 17.2087C115.144 16.5635 115.099 15.9251 115.013 15.2969C114.95 16.2123 114.791 17.0145 114.791 17.0145C114.829 17.1354 114.895 17.3339 114.926 17.4564L114.926 17.457C114.827 18.4018 114.649 19.3198 114.4 20.2026C114.28 19.7592 114.12 19.3323 114.109 19.3048C114.109 19.3042 114.109 19.3037 114.109 19.3033C113.786 20.1664 113.303 21.1827 112.865 22H114.29Z" fill="#0033A0"/>
<path d="M111.303 22H112.126C114.472 18.5239 114.59 15.4432 114.59 14.8529C114.59 13.7379 114.403 12.7134 114.091 11.9021C114.091 11.9021 113.604 10.6414 112.846 9.51947C112.929 9.77017 113.088 10.2784 113.176 10.7324C113.182 10.7627 113.186 10.7894 113.191 10.8141C113.34 11.0639 114.013 12.2551 114.103 13.565C114.103 13.5673 114.103 13.5689 114.103 13.5689C114.103 13.5689 113.628 12.9003 113.275 12.4778C113.262 13.1979 113.169 13.9184 113.019 14.6143C113.019 14.6143 113.724 15.4333 114.039 15.9616C114.039 15.9616 113.825 17.1138 113.365 18.2178C112.897 17.5352 112.3 16.8721 112.3 16.8721C111.95 17.7393 111.507 18.6119 111.016 19.4188C111.016 19.4188 111.909 20.4675 112.105 20.7665C111.842 21.2096 111.587 21.5953 111.303 22Z" fill="#0033A0"/>
<path d="M108.367 22C109.923 20.2534 111.25 18.1988 112.046 15.9989C112.737 14.0903 113.114 11.7592 112.502 9.68588C112.461 9.54906 112.415 9.41115 112.361 9.27243C112.165 8.76537 111.912 8.32314 111.636 7.97574C110.891 7.14099 110.048 6.39715 109.125 5.76393C109.261 5.93953 109.385 6.12039 109.492 6.30381C109.492 6.30381 110.617 7.14086 111.269 7.99127C110.432 7.39263 109.958 7.15031 109.896 7.11965C109.894 7.11857 109.891 7.11749 109.889 7.11627C110.207 7.90307 110.303 8.55466 110.303 8.55574C110.303 8.55574 111.297 9.07603 112.192 9.85337C112.315 10.4281 112.366 11.017 112.358 11.6066C111.457 10.8106 110.413 10.189 110.413 10.189C110.394 10.863 110.301 11.5457 110.153 12.2093C110.153 12.2093 111.139 12.8354 112.099 13.7131C112.099 13.7131 111.823 14.9568 111.378 15.9349C110.457 15.0743 109.559 14.4046 109.488 14.3522C109.488 14.3522 109.031 15.549 108.29 16.75C109.212 17.5552 110.079 18.3898 110.079 18.3898C109.549 19.2189 108.95 20.0082 108.304 20.7463L108.304 20.7469L106.654 19.0984C105.983 19.9307 105.248 20.7149 104.468 21.4367C104.505 21.4786 104.837 21.8486 104.974 22H108.367Z" fill="#0033A0"/>
<path d="M108.79 5.94803C108.683 5.80162 108.563 5.65236 108.424 5.51945C108.303 5.40315 108.184 5.2982 108.06 5.20392C106.687 4.16535 104.16 3.646 104.16 3.646C104.401 3.77499 104.602 3.90723 104.603 3.90817C104.615 3.91115 105.634 4.16738 106.538 4.61082C106.538 4.61082 105.716 4.42348 105.188 4.35054C105.406 4.54261 105.613 4.76372 105.795 4.9947C105.795 4.9947 107.471 5.30158 108.207 5.70653C108.207 5.70653 108.56 6.07027 108.848 6.70835C107.699 6.24033 106.398 5.99626 106.398 5.99626C106.57 6.38459 106.694 6.80047 106.77 7.23324C106.77 7.23324 108.2 7.58457 109.275 8.10243C109.368 8.61463 109.402 9.14411 109.383 9.67981C108.113 9.04105 106.853 8.63989 106.853 8.63989C106.827 9.19206 106.739 9.76436 106.59 10.349C106.59 10.349 108.324 11.1258 109.103 11.5973C108.93 12.2878 108.689 12.9641 108.399 13.6153C107.212 12.8418 105.957 12.1541 105.957 12.1541C105.641 12.9141 104.865 14.1589 104.865 14.1589L104.866 14.1591V14.1589L104.866 14.1595C104.886 14.173 106.177 15.0624 107.168 15.8518C106.675 16.6001 106.121 17.3188 105.517 18.002C105.308 17.8021 103.405 16.1064 103.405 16.1064C102.83 16.7749 102.19 17.4261 101.49 18.0494C101.49 18.0494 101.49 18.0497 101.49 18.0498L103.325 20.1338C103.326 20.134 103.326 20.134 103.326 20.1341L103.326 20.1344C102.135 21.1178 100.949 21.863 100.949 21.863L99.4175 19.6818C99.4175 19.6818 98.3401 20.5042 96.5215 21.3679V22H102.494C109.159 16.9393 111.525 9.70277 108.79 5.94803Z" fill="#0033A0"/>
<path d="M105.409 5.1887C103.753 2.95272 101.162 3.27216 100.389 3.38063C99.5403 3.50003 98.8986 3.68643 98.8986 3.68643C99.0883 3.70426 99.3464 3.7383 99.5327 3.77544C99.6702 3.74302 100.862 3.47045 101.728 3.58432C101.729 3.58432 101.73 3.58445 101.73 3.58445C101.094 3.65374 100.225 3.91713 100.135 3.94496C100.134 3.94523 100.134 3.94577 100.133 3.94617C100.134 3.94658 100.134 3.94698 100.135 3.94725C100.167 3.95644 100.417 4.03262 100.738 4.22159C100.832 4.19633 102.011 3.88256 103.135 3.8604V3.86067C103.135 3.86067 103.55 4.04559 103.951 4.32127C102.498 4.31573 101.295 4.5956 101.263 4.6033C101.433 4.75471 101.602 4.93693 101.754 5.15588C103.347 4.91653 104.721 5.02027 104.721 5.02027C104.721 5.02027 104.908 5.24894 104.991 5.37186C105.098 5.52665 105.206 5.719 105.29 5.88797C103.665 5.69725 102.11 5.83367 102.109 5.83367C102.216 6.11138 102.289 6.4084 102.329 6.72069C102.508 6.71934 103.885 6.7219 105.638 7.03865C105.694 7.44197 105.7 7.87407 105.656 8.33007C105.358 8.25227 103.918 7.89149 102.348 7.73508C102.316 8.12895 102.241 8.53903 102.126 8.95951C102.302 9.00111 104.243 9.46522 105.33 9.90704C105.309 9.97552 105.287 10.0443 105.264 10.1134C105.108 10.5817 104.914 11.0519 104.684 11.5206C103.808 11.0882 101.662 10.2463 101.662 10.2463C101.447 10.728 101.185 11.2156 100.878 11.7023C100.878 11.7023 102.719 12.756 103.605 13.3394C103.196 13.926 102.734 14.5019 102.224 15.0586C101.581 14.48 99.9736 13.2301 99.8522 13.1358C99.3337 13.7552 98.6807 14.4067 98.4851 14.5993L100.414 16.8191C100.397 16.8352 100.378 16.8515 100.359 16.868C99.9416 17.2153 99.4918 17.5421 99.1117 17.8042C98.7817 18.0291 98.5094 18.2033 98.4153 18.2641C98.393 18.2299 97.1298 16.2061 96.94 15.8841C96.8012 15.9873 96.6613 16.086 96.5215 16.183V20.3434C96.7484 20.2336 96.9759 20.1198 97.2028 19.999C98.2904 19.4615 99.346 18.7795 100.328 17.9916C100.958 17.49 101.618 16.9015 102.27 16.2221C103.045 15.4249 103.718 14.5897 104.279 13.7435C106.407 10.592 106.977 7.30609 105.409 5.1887Z" fill="#0033A0"/>
<path d="M101.114 5.02019C100.326 4.11224 99.0135 3.8013 97.4888 4.01998C97.4473 4.0262 97.4041 4.03201 97.3652 4.03862C97.2489 4.05834 97.1311 4.08212 97.0124 4.10846C96.777 4.1633 96.6157 4.21733 96.5215 4.25393V4.71182C96.6717 4.5931 96.8249 4.48004 96.9828 4.37387C97.2866 4.30863 97.5818 4.26703 97.8664 4.24839C97.4261 4.50057 96.9179 4.84257 96.5215 5.15851V5.51091L96.5352 5.51901C96.5352 5.51901 97.6528 4.63146 98.5407 4.24893C98.7547 4.26447 98.9597 4.29445 99.155 4.33943C97.8283 4.90417 96.8487 5.60465 96.7809 5.65382C96.917 5.73472 97.0412 5.83616 97.0575 5.84954C97.0746 5.83873 98.3609 5.03154 99.7765 4.54771C99.9686 4.63578 100.154 4.74546 100.315 4.86959C98.7734 5.30425 97.2916 6.08037 97.2916 6.08037C97.3751 6.1779 97.4487 6.28325 97.5122 6.39604C97.5222 6.39198 97.5315 6.38834 97.5386 6.3855C99.1163 5.70798 100.793 5.36057 100.793 5.36057C100.924 5.54076 101.032 5.74202 101.114 5.96381C101.114 5.96381 99.6099 6.13643 97.6744 6.75925C97.7599 7.02763 97.7833 7.2293 97.7835 7.23119C97.7835 7.23119 99.608 6.82165 101.291 6.77627C101.314 7.04749 101.306 7.35194 101.267 7.66423C100.27 7.61155 97.8968 7.73825 97.8035 7.74554C97.8035 7.74554 97.7949 8.08876 97.7061 8.41158C97.7061 8.41158 99.4404 8.46737 101.018 8.76264C100.896 9.14165 100.74 9.51553 100.556 9.88049C99.5042 9.56361 97.9087 9.17879 97.4888 9.08208C97.3783 9.35506 97.2395 9.62602 97.0749 9.88833C97.0749 9.88833 99.0244 10.7421 99.7726 11.1596H99.7742L99.7738 11.1604C99.4491 11.6483 98.8054 12.3312 98.8054 12.3312C98.6187 12.191 98.4421 12.0602 98.2756 11.9376C97.7586 11.5747 96.9915 11.0358 96.5254 10.7101C96.5231 10.7086 96.523 10.7085 96.5215 10.7075V12.3252L97.5326 13.5103C97.1995 13.7796 96.8602 14.025 96.5215 14.2453V15.2106C96.534 15.2025 96.5464 15.1945 96.5586 15.1863C97.0205 14.8707 97.4768 14.5191 97.9213 14.1311C101.41 11.0852 102.839 7.00602 101.114 5.02019Z" fill="#0033A0"/>
<path d="M96.5215 9.65625C97.4126 8.38306 97.5416 6.92185 96.7591 6.20854C96.6854 6.14154 96.6058 6.08413 96.5215 6.03456V9.65625Z" fill="#0033A0"/>
<path d="M101.388 2.81153C109.294 2.81153 115.726 9.28999 115.726 17.253C115.726 18.8681 115.453 20.475 114.927 22H118.446V1.90735e-06H96.5215V3.6695L96.5386 3.66329C98.0951 3.09815 99.7266 2.81153 101.388 2.81153Z" fill="#0033A0"/>
<path d="M87.3474 7.0145C86.8122 6.53635 86.1289 6.1653 85.2973 5.90178C84.4655 5.63825 83.4661 5.50656 82.2986 5.50656H76.3887V16.4879H82.2986C84.3997 16.4879 86.027 16.0316 87.1795 15.1188C88.3325 14.2064 88.9089 12.8326 88.9089 10.9974C88.9089 10.1773 88.7823 9.4281 88.5293 8.74964C88.2763 8.07117 87.8823 7.49293 87.3474 7.0145ZM85.3702 12.3736C85.2484 12.7447 85.0516 13.0422 84.7791 13.2666C84.5067 13.4916 84.1539 13.6525 83.7211 13.7499C83.2883 13.8477 82.7653 13.8963 82.1527 13.8963H79.5701V8.09805H82.1527C82.7849 8.09805 83.3174 8.15194 83.7506 8.25905C84.1831 8.36684 84.5335 8.53717 84.8009 8.77165C85.0684 9.00587 85.2608 9.306 85.3776 9.67204C85.4943 10.0384 85.5525 10.4799 85.5525 10.9974C85.5525 11.5439 85.4915 12.0026 85.3702 12.3736Z" fill="#0033A0"/>
<path d="M63.8248 11.9781H69.8075V9.82577H63.8248V8.0104H70.931L70.8728 5.5063H60.6436V16.4878H71.1646L71.2231 14.0133H63.8248V11.9781Z" fill="#0033A0"/>
<path d="M44.4905 5.50643L44.4033 8.09793H48.5911V16.4878H51.7866V8.09793H55.9744L55.9017 5.50643H44.4905Z" fill="#0033A0"/>
<path d="M36.3193 16.4879H39.5588V5.50642H36.3193V16.4879Z" fill="#0033A0"/>
<path d="M27.3308 10.9678L27.3601 12.1393L27.3308 12.1684L26.499 11.3192L20.5749 5.50642H17.9482V16.4879H20.8374V10.7193L20.8085 9.53305L20.8519 9.51847L21.684 10.3529L28.1333 16.4879H30.2202V5.50642H27.3308V10.9678Z" fill="#0033A0"/>
<path d="M9.14913 11.7001C9.14913 12.5297 8.91558 13.1472 8.44875 13.5523C7.98192 13.9575 7.23253 14.1599 6.20155 14.1599C5.1606 14.1599 4.39695 13.9575 3.9106 13.5523C3.42397 13.1472 3.18087 12.5297 3.18087 11.7001V5.50646H0V11.6709C0 13.3691 0.532523 14.6358 1.59784 15.4706C2.66302 16.3049 4.19745 16.7222 6.20155 16.7222C8.21506 16.7222 9.73765 16.3074 10.7689 15.4777C11.7999 14.648 12.3157 13.3787 12.3157 11.6709V5.50646H9.14913V11.7001Z" fill="#0033A0"/>
</svg>
