<svg width="125" height="25" viewBox="0 0 125 25" fill="none" xmlns="http://www.w3.org/2000/svg">
<path d="M48.6592 11.5414C48.6592 7.26622 51.8148 4.05237 56.1935 4.05237C60.5736 4.05237 63.6749 7.29325 63.6749 11.5414C63.6749 15.7889 60.5186 19.0031 56.1673 19.0031C51.7877 19.0032 48.6592 15.8164 48.6592 11.5414ZM60.7647 11.5414C60.7647 8.70914 58.86 6.66695 56.1674 6.66695C53.4742 6.66695 51.5699 8.73657 51.5699 11.5414C51.5699 14.3731 53.501 16.4161 56.1674 16.4161C58.8601 16.4163 60.7647 14.3462 60.7647 11.5414Z" fill="#201D1D"/>
<path d="M65.2891 4.40637H68.3084L72.1436 15.1902H72.3344L76.1426 4.40637H79.216L73.8029 18.6484H70.7023L65.2891 4.40637Z" fill="#201D1D"/>
<path d="M101.071 14.1283V6.7485H98.5137V4.40691H101.234V0.375732H103.927V4.40691H108.061V6.7485H103.927V14.0467C103.927 15.4085 104.498 16.2257 105.994 16.2257H107.925V18.6486H105.559C102.758 18.6484 101.071 17.0965 101.071 14.1283Z" fill="#201D1D"/>
<path d="M112.187 22.3524H113.438C114.744 22.3524 115.506 21.7535 115.941 20.6098L116.458 19.2484L110.719 4.40637H113.82L117.764 15.408H117.955L121.871 4.40637H125L118.472 21.4812C117.655 23.6599 116.349 24.9124 113.792 24.9124H112.187V22.3524Z" fill="#201D1D"/>
<path d="M40.2479 4.05237C36.1945 4.05237 35.8954 7.25796 35.8954 7.25796V4.40677L35.8867 4.40615H33.1211V18.6483H35.9771V10.3432C35.9771 8.27349 37.4463 6.72125 39.4321 6.72125C41.227 6.72125 42.6148 8.05542 42.6148 10.0434V18.6483H45.4709V9.49858C45.471 6.42201 43.4851 4.05237 40.2479 4.05237Z" fill="#201D1D"/>
<path d="M92.4668 4.40685V6.47639L92.4166 7.76256C92.5485 5.71227 90.345 4.05237 87.6247 4.05237C83.6538 4.05237 80.8516 7.15691 80.8516 11.5685C80.8516 15.98 83.6807 19.0032 87.7612 19.0032C90.5899 19.0032 91.9773 17.1784 92.358 16.6331H92.5216V18.6484H95.3234V4.4063H92.4759L92.4668 4.40685ZM88.1694 16.4163C85.5574 16.4163 83.762 14.5094 83.762 11.5415C83.762 8.68211 85.5572 6.66711 88.1416 6.66711C90.6441 6.66711 92.5486 8.46459 92.5486 11.5415C92.5489 14.2373 90.8892 16.4163 88.1694 16.4163Z" fill="#201D1D"/>
<path d="M13.4214 3.67762C13.3193 3.72732 13.6209 3.5779 13.3193 3.72732C13.0178 3.87636 12.9863 4.16376 12.9863 4.50352C12.9863 6.51954 12.9863 7.13291 12.9863 7.13291C16.0017 5.70774 16.7095 4.84865 16.8337 2.67191C16.8337 2.67191 16.8337 1.62779 16.8337 1.05509C16.8337 0.482626 16.8342 0.665631 16.6405 1.05509C16.0466 2.22207 15.2583 2.77568 13.4214 3.67762Z" fill="#201D1D"/>
<path d="M17.19 7.41217C17.0465 7.50075 15.7748 8.22973 15.6481 8.29868C15.0441 8.63298 13.3669 9.47501 13.3669 9.47501C12.9615 9.67632 12.9866 9.92251 12.9866 10.2621C12.9866 13.2338 12.9866 13.2338 12.9866 13.2338C12.9866 13.571 13.2347 13.7283 13.538 13.576C13.538 13.576 15.0442 12.8359 15.6481 12.5049C15.6481 12.5049 16.517 12.0191 16.7431 11.8865C19.8796 10.0417 20.5772 8.93441 20.7067 6.11461C20.7067 6.11461 20.7067 4.53355 20.7067 3.94255C20.7067 3.3517 20.6194 3.69893 20.55 3.94255C20.1834 5.22631 19.1309 6.22555 17.19 7.41217Z" fill="#201D1D"/>
<path d="M21.1084 11.8584C20.9622 11.9576 19.6687 12.7808 19.5392 12.8578C18.1711 13.6892 14.7485 15.4814 13.4195 16.1749L13.273 16.2547C12.9943 16.4187 12.9863 16.6937 12.9863 17.0334C12.9863 20.5104 12.9863 20.5104 12.9863 20.5104C12.9863 20.8501 13.2316 20.9992 13.5323 20.8419C13.5323 20.8419 17.9727 18.5386 19.5392 17.586C19.6687 17.5086 20.4218 17.0391 20.6532 16.8898C23.8414 14.8131 24.5638 13.5674 24.6933 10.3999C24.6933 10.3999 24.6933 8.16099 24.6933 7.78516C24.6933 7.40964 24.6478 7.45569 24.5641 7.78516C24.1465 9.41896 23.1521 10.475 21.1084 11.8584Z" fill="#201D1D"/>
<path d="M11.4339 3.67762C11.536 3.72732 11.2345 3.5779 11.536 3.72732C11.8374 3.87636 11.8689 4.16376 11.8689 4.50352C11.8689 6.51954 11.8689 7.13291 11.8689 7.13291C8.85356 5.70774 8.14561 4.84865 8.02148 2.67191C8.02148 2.67191 8.02148 1.62779 8.02148 1.05509C8.02148 0.482626 8.0211 0.665631 8.21472 1.05509C8.80882 2.22207 9.59716 2.77568 11.4339 3.67762Z" fill="#201D1D"/>
<path d="M7.66501 7.41217C7.80821 7.50075 9.08006 8.22973 9.20692 8.29868C9.81098 8.63298 11.4881 9.47501 11.4881 9.47501C11.8937 9.67632 11.8685 9.92251 11.8685 10.2621C11.8685 13.2338 11.8685 13.2338 11.8685 13.2338C11.8685 13.571 11.6204 13.7283 11.317 13.576C11.317 13.576 9.8109 12.8359 9.20707 12.5049C9.20707 12.5049 8.33818 12.0191 8.11203 11.8865C4.97562 10.0417 4.27786 8.93441 4.14844 6.11461C4.14844 6.11461 4.14844 4.53355 4.14844 3.94255C4.14844 3.3517 4.2356 3.69893 4.30525 3.94255C4.67149 5.22631 5.72419 6.22555 7.66501 7.41217Z" fill="#201D1D"/>
<path d="M3.74709 11.8584C3.89324 11.9576 5.18681 12.7808 5.31639 12.8578C6.68428 13.6892 10.107 15.4814 11.4361 16.1749L11.5824 16.2547C11.861 16.4187 11.8691 16.6937 11.8691 17.0334C11.8691 20.5104 11.8691 20.5104 11.8691 20.5104C11.8691 20.8501 11.6238 20.9992 11.3231 20.8419C11.3231 20.8419 6.88288 18.5386 5.31639 17.586C5.18681 17.5086 4.43364 17.0391 4.20243 16.8898C1.01403 14.8131 0.291684 13.5674 0.162109 10.3999C0.162109 10.3999 0.162109 8.16099 0.162109 7.78516C0.162109 7.40964 0.207556 7.45569 0.291293 7.78516C0.709045 9.41896 1.70315 10.475 3.74709 11.8584Z" fill="#201D1D"/>
</svg>
