<svg width="24" height="24" viewBox="0 0 24 24" fill="none" xmlns="http://www.w3.org/2000/svg">
<path d="M13.6893 11.5816L13.6892 11.5818L13.6929 11.5838C14.2575 11.8947 14.8737 12.06 15.5 12.06C17.4644 12.06 19.06 10.4644 19.06 8.5C19.06 6.53561 17.4644 4.94 15.5 4.94C15.0923 4.94 14.693 5.00852 14.3131 5.14317L14.3131 5.14317C14.0217 5.2465 13.8689 5.56628 13.9724 5.85786C14.0758 6.15009 14.3967 6.30097 14.687 6.19862C14.9479 6.10666 15.2193 6.06 15.5 6.06C16.845 6.06 17.94 7.1547 17.94 8.5C17.94 9.8453 16.845 10.94 15.5 10.94C15.0705 10.94 14.6487 10.827 14.2808 10.6141C14.0128 10.4582 13.6704 10.5501 13.5156 10.8179C13.3602 11.0849 13.4498 11.4267 13.6893 11.5816ZM7.41563 13.44C4.39092 13.44 1.94 15.8919 1.94 18.9156C1.94 19.5487 2.45184 20.06 3.08312 20.06H14.9156C15.5488 20.06 16.06 19.5488 16.06 18.9156C16.06 15.8919 13.6081 13.44 10.5844 13.44H7.41563ZM14.9156 18.94H3.08312C3.07122 18.94 3.06 18.9299 3.06 18.9156C3.06 16.5144 5.01439 14.56 7.41563 14.56H10.5844C12.9856 14.56 14.94 16.5144 14.94 18.9156C14.94 18.9294 14.9294 18.94 14.9156 18.94ZM9 12.06C11.2425 12.06 13.06 10.2422 13.06 8C13.06 5.7578 11.2425 3.94 9 3.94C6.75748 3.94 4.94 5.7578 4.94 8C4.94 10.2422 6.75748 12.06 9 12.06ZM9 5.06C10.6212 5.06 11.94 6.37876 11.94 8C11.94 9.62093 10.6212 10.94 9 10.94C7.37878 10.94 6.06 9.62 6.06 8C6.06 6.37878 7.38 5.06 9 5.06ZM17.3344 13.94H16C15.6905 13.94 15.44 14.1905 15.44 14.5C15.44 14.8096 15.692 15.06 16 15.06H17.3334C19.3231 15.06 20.94 16.6769 20.94 18.6656C20.94 18.8169 20.8169 18.94 20.6656 18.94H17.5C17.1905 18.94 16.94 19.1905 16.94 19.5C16.94 19.8095 17.1905 20.06 17.5 20.06H20.6656C21.4363 20.06 22.06 19.4363 22.06 18.6656C22.06 16.0323 19.9392 13.94 17.3344 13.94Z" fill="#637381" stroke="#637381" stroke-width="0.12"/>
</svg>
