<svg width="19" height="19" viewBox="0 0 19 19" fill="none" xmlns="http://www.w3.org/2000/svg">
  <path d="M7.46429 2.57296V3.56254H11.5357V2.57296C11.5357 2.02652 11.9906 1.58337 12.5536 1.58337C13.1166 1.58337 13.5714 2.02652 13.5714 2.57296V3.56254H15.0982C15.9411 3.56254 16.625 4.22711 16.625 5.04692V6.53129H2.375V5.04692C2.375 4.22711 3.05855 3.56254 3.90179 3.56254H5.42857V2.57296C5.42857 2.02652 5.88343 1.58337 6.44643 1.58337C7.00943 1.58337 7.46429 2.02652 7.46429 2.57296ZM2.375 7.52087H16.625V15.9323C16.625 16.7518 15.9411 17.4167 15.0982 17.4167H3.90179C3.05855 17.4167 2.375 16.7518 2.375 15.9323V7.52087ZM4.41071 10.9844C4.41071 11.2566 4.63846 11.4792 4.91964 11.4792H5.9375C6.21741 11.4792 6.44643 11.2566 6.44643 10.9844V9.99483C6.44643 9.7227 6.21741 9.50004 5.9375 9.50004H4.91964C4.63846 9.50004 4.41071 9.7227 4.41071 9.99483V10.9844ZM8.48214 10.9844C8.48214 11.2566 8.71116 11.4792 8.99107 11.4792H10.0089C10.2888 11.4792 10.5179 11.2566 10.5179 10.9844V9.99483C10.5179 9.7227 10.2888 9.50004 10.0089 9.50004H8.99107C8.71116 9.50004 8.48214 9.7227 8.48214 9.99483V10.9844ZM13.0625 9.50004C12.7826 9.50004 12.5536 9.7227 12.5536 9.99483V10.9844C12.5536 11.2566 12.7826 11.4792 13.0625 11.4792H14.0804C14.3603 11.4792 14.5893 11.2566 14.5893 10.9844V9.99483C14.5893 9.7227 14.3603 9.50004 14.0804 9.50004H13.0625ZM4.41071 14.9427C4.41071 15.2149 4.63846 15.4375 4.91964 15.4375H5.9375C6.21741 15.4375 6.44643 15.2149 6.44643 14.9427V13.9532C6.44643 13.681 6.21741 13.4584 5.9375 13.4584H4.91964C4.63846 13.4584 4.41071 13.681 4.41071 13.9532V14.9427ZM8.99107 13.4584C8.71116 13.4584 8.48214 13.681 8.48214 13.9532V14.9427C8.48214 15.2149 8.71116 15.4375 8.99107 15.4375H10.0089C10.2888 15.4375 10.5179 15.2149 10.5179 14.9427V13.9532C10.5179 13.681 10.2888 13.4584 10.0089 13.4584H8.99107ZM12.5536 14.9427C12.5536 15.2149 12.7826 15.4375 13.0625 15.4375H14.0804C14.3603 15.4375 14.5893 15.2149 14.5893 14.9427V13.9532C14.5893 13.681 14.3603 13.4584 14.0804 13.4584H13.0625C12.7826 13.4584 12.5536 13.681 12.5536 13.9532V14.9427Z" fill="#E42313"/>
</svg>
