<svg width="38" height="38" viewBox="0 0 38 38" fill="none" xmlns="http://www.w3.org/2000/svg">
<path d="M4.74998 0H24.9291L35.6249 10.6543V35.625C35.6249 36.9372 34.561 38 33.2499 38H4.74998C3.43894 38 2.375 36.9372 2.375 35.625V2.37498C2.375 1.06284 3.43906 0 4.74998 0Z" fill="#E42313"/>
<path d="M35.5906 10.6874H27.3125C26.0014 10.6874 24.9375 9.62348 24.9375 8.31245V0.0236816L35.5906 10.6874Z" fill="#A42C2C"/>
<path fill-rule="evenodd" clip-rule="evenodd" d="M24.4285 19.8215L19.2021 25.0479C18.8215 25.4284 18.2046 25.4284 17.8241 25.0479L12.5977 19.8215C12.2172 19.441 12.2172 18.824 12.5977 18.4435C12.9782 18.063 13.5951 18.063 13.9756 18.4435L17.5387 22.0066L17.5387 10.7179C17.5387 10.1798 17.975 9.74353 18.5131 9.74353C19.0512 9.74353 19.4874 10.1798 19.4874 10.7179L19.4874 22.0066L23.0505 18.4435C23.431 18.063 24.048 18.063 24.4285 18.4435C24.809 18.824 24.809 19.441 24.4285 19.8215Z" fill="white"/>
<path fill-rule="evenodd" clip-rule="evenodd" d="M12.1797 27.7693C12.1797 27.2312 12.6159 26.7949 13.154 26.7949H23.872C24.4101 26.7949 24.8464 27.2312 24.8464 27.7693C24.8464 28.3074 24.4101 28.7436 23.872 28.7436H13.154C12.6159 28.7436 12.1797 28.3074 12.1797 27.7693Z" fill="white"/>
</svg>
