<svg width="24" height="24" viewBox="0 0 24 24" fill="none" xmlns="http://www.w3.org/2000/svg">
<path d="M24 12C24 18.6281 18.6281 24 12 24C5.37188 24 0 18.6281 0 12C0 5.37188 5.37188 0 12 0C18.6281 0 24 5.37188 24 12ZM12.4828 2.26172L10.8984 3.45C10.65 3.63891 10.5 3.93516 10.5 4.25016V4.67438C10.5 4.99219 10.7578 5.25 11.0766 5.25C11.1891 5.25 11.3016 5.21719 11.3953 5.15156L13.3547 3.84656C13.4484 3.78375 13.5609 3.75 13.6734 3.75H13.7203C14.0109 3.75 14.25 3.98766 14.25 4.28016C14.25 4.42078 14.1938 4.55578 14.0953 4.65516L13.1625 5.5875C12.8906 5.81719 12.5578 6.06562 12.1969 6.18281L10.95 6.6C10.6828 6.68906 10.5 6.94219 10.5 7.22812C10.5 7.40156 10.4297 7.57031 10.3078 7.69219L9.46406 8.53594C9.16875 8.83125 9 9.23906 9 9.66094V9.85781C9 10.6266 9.6375 11.25 10.4016 11.25C10.9172 11.25 11.3953 10.9594 11.625 10.5L11.8125 10.1203C11.9297 9.89531 12.1594 9.75 12.4125 9.75C12.6281 9.75 12.825 9.84844 12.9516 10.0172L13.7156 11.0391C13.8141 11.1703 13.9734 11.25 14.1422 11.25C14.5359 11.25 14.7937 10.8328 14.6156 10.4813L14.5641 10.3734C14.3953 10.0453 14.5641 9.64688 14.9109 9.52969L15.9047 9.19687C16.2609 9.07969 16.5 8.74688 16.5 8.37188C16.5 7.88906 16.8891 7.5 17.3719 7.5H18.75C19.1625 7.5 19.5 7.8375 19.5 8.25C19.5 8.6625 19.1625 9 18.75 9H17.7797C17.4422 9 17.1141 9.13594 16.875 9.375L16.6547 9.59531C16.5562 9.69375 16.5 9.82969 16.5 9.97031C16.5 10.2609 16.7391 10.5 17.0297 10.5H17.5594C17.8406 10.5 18.1125 10.6125 18.3094 10.8094L18.6188 11.1187C18.6609 11.1609 18.75 11.3156 18.75 11.4375C18.75 11.5594 18.6609 11.6719 18.6188 11.7563L18.2672 12.1078C18.0938 12.2391 18 12.5109 18 12.75C18 12.9891 18.0938 13.2188 18.2672 13.3922L19.125 14.25C19.6031 14.7281 20.2547 15 20.9344 15H21.2391C21.5859 14.0531 21.75 13.0453 21.75 12C21.75 6.77812 17.6437 2.51437 12.4828 2.26172ZM20.55 16.6922C20.3766 16.5703 20.1656 16.5 19.9406 16.5C19.6594 16.5 19.3875 16.3875 19.1906 16.1906L18.5203 15.5203C18.2016 15.2016 17.7141 15 17.2078 15C16.7531 15 16.3078 14.8359 15.9609 14.5406L14.6766 13.4719C14.175 13.0078 13.4812 12.7078 12.7641 12.7078H11.7844C11.1891 12.7078 10.6125 12.9234 10.1203 13.2516L8.83594 14.1094C8.00156 14.6672 7.5 15.6047 7.5 16.6078V16.7578C7.5 17.5547 7.81406 18.3141 8.37656 18.8766L9.12656 19.6266C9.525 20.025 10.0641 20.25 10.6266 20.25H11.625C12.2484 20.25 12.75 20.7516 12.75 21.375C12.75 21.4922 12.7688 21.6094 12.8016 21.7172C16.1484 21.4453 19.0125 19.4859 20.55 16.6922ZM7.72031 4.72031L6.22031 6.22031C5.925 6.51094 5.925 6.98906 6.22031 7.27969C6.51094 7.575 6.98906 7.575 7.27969 7.27969L8.77969 5.77969C9.075 5.48906 9.075 5.01094 8.77969 4.72031C8.48906 4.42687 8.01094 4.42687 7.72031 4.72031Z" fill="black"/>
</svg>
