<svg width="24" height="24" viewBox="0 0 24 24" fill="none" xmlns="http://www.w3.org/2000/svg">
<path d="M22 12C22 17.5234 17.5234 22 12 22C6.47656 22 2 17.5234 2 12C2 6.47656 6.47656 2 12 2C17.5234 2 22 6.47656 22 12ZM12.4023 3.88477L11.082 4.875C10.875 5.03242 10.75 5.2793 10.75 5.5418V5.89531C10.75 6.16016 10.9648 6.375 11.2305 6.375C11.3242 6.375 11.418 6.34766 11.4961 6.29297L13.1289 5.20547C13.207 5.15312 13.3008 5.125 13.3945 5.125H13.4336C13.6758 5.125 13.875 5.32305 13.875 5.5668C13.875 5.68398 13.8281 5.79648 13.7461 5.8793L12.9688 6.65625C12.7422 6.84766 12.4648 7.05469 12.1641 7.15234L11.125 7.5C10.9023 7.57422 10.75 7.78516 10.75 8.02344C10.75 8.16797 10.6914 8.30859 10.5898 8.41016L9.88672 9.11328C9.64062 9.35938 9.5 9.69922 9.5 10.0508V10.2148C9.5 10.8555 10.0312 11.375 10.668 11.375C11.0977 11.375 11.4961 11.1328 11.6875 10.75L11.8438 10.4336C11.9414 10.2461 12.1328 10.125 12.3438 10.125C12.5234 10.125 12.6875 10.207 12.793 10.3477L13.4297 11.1992C13.5117 11.3086 13.6445 11.375 13.7852 11.375C14.1133 11.375 14.3281 11.0273 14.1797 10.7344L14.1367 10.6445C13.9961 10.3711 14.1367 10.0391 14.4258 9.94141L15.2539 9.66406C15.5508 9.56641 15.75 9.28906 15.75 8.97656C15.75 8.57422 16.0742 8.25 16.4766 8.25H17.625C17.9688 8.25 18.25 8.53125 18.25 8.875C18.25 9.21875 17.9688 9.5 17.625 9.5H16.8164C16.5352 9.5 16.2617 9.61328 16.0625 9.8125L15.8789 9.99609C15.7969 10.0781 15.75 10.1914 15.75 10.3086C15.75 10.5508 15.9492 10.75 16.1914 10.75H16.6328C16.8672 10.75 17.0938 10.8438 17.2578 11.0078L17.5156 11.2656C17.5508 11.3008 17.625 11.4297 17.625 11.5312C17.625 11.6328 17.5508 11.7266 17.5156 11.7969L17.2227 12.0898C17.0781 12.1992 17 12.4258 17 12.625C17 12.8242 17.0781 13.0156 17.2227 13.1602L17.9375 13.875C18.3359 14.2734 18.8789 14.5 19.4453 14.5H19.6992C19.9883 13.7109 20.125 12.8711 20.125 12C20.125 7.64844 16.7031 4.09531 12.4023 3.88477ZM19.125 15.9102C18.9805 15.8086 18.8047 15.75 18.6172 15.75C18.3828 15.75 18.1562 15.6562 17.9922 15.4922L17.4336 14.9336C17.168 14.668 16.7617 14.5 16.3398 14.5C15.9609 14.5 15.5898 14.3633 15.3008 14.1172L14.2305 13.2266C13.8125 12.8398 13.2344 12.5898 12.6367 12.5898H11.8203C11.3242 12.5898 10.8438 12.7695 10.4336 13.043L9.36328 13.7578C8.66797 14.2227 8.25 15.0039 8.25 15.8398V15.9648C8.25 16.6289 8.51172 17.2617 8.98047 17.7305L9.60547 18.3555C9.9375 18.6875 10.3867 18.875 10.8555 18.875H11.6875C12.207 18.875 12.625 19.293 12.625 19.8125C12.625 19.9102 12.6406 20.0078 12.668 20.0977C15.457 19.8711 17.8438 18.2383 19.125 15.9102ZM8.43359 5.93359L7.18359 7.18359C6.9375 7.42578 6.9375 7.82422 7.18359 8.06641C7.42578 8.3125 7.82422 8.3125 8.06641 8.06641L9.31641 6.81641C9.5625 6.57422 9.5625 6.17578 9.31641 5.93359C9.07422 5.68906 8.67578 5.68906 8.43359 5.93359Z" fill="#E42313"/>
</svg>
