<svg width="24" height="24" viewBox="0 0 24 24" fill="none" xmlns="http://www.w3.org/2000/svg">
<path d="M19.5 2H4.5C3.12305 2 2 3.12697 2 4.47346V15.7275C2 17.1779 3.12305 18.2715 4.5 18.2715H8.25V21.5289C8.25 21.9146 8.68086 22.1365 8.99687 21.9072L13.875 18.2715H19.5C20.877 18.2715 22 17.1445 22 15.798V4.47346C22 3.12697 20.8789 2 19.5 2ZM20.75 15.798C20.75 16.488 20.1875 17.0524 19.5 17.0524H13.8711C13.6005 17.0524 13.3371 17.1405 13.1207 17.3035L9.5 20.0315V17.6796C9.5 17.3332 9.22016 17.0524 8.875 17.0524H4.5C3.8125 17.0524 3.25 16.488 3.25 15.798V4.50874C3.25 3.81883 3.8125 3.25437 4.5 3.25437H19.5C20.1875 3.25437 20.75 3.81883 20.75 4.50874V15.798ZM12.1641 9.54581L11.8789 9.46741C10.5469 9.05974 10.3711 8.83631 10.457 8.35808C10.5742 7.70581 11.552 7.55371 12.4676 7.68973C12.7239 7.72771 13.0352 7.80917 13.4465 7.94516C13.7734 8.05625 14.1289 7.87593 14.2344 7.54666C14.343 7.21774 14.1648 6.86303 13.8363 6.75484C13.3555 6.5962 12.9539 6.4973 12.6254 6.4483V5.7631C12.6254 5.41643 12.3449 5.13592 11.9996 5.13592C11.6543 5.13592 11.375 5.41658 11.375 5.7631V6.42165C10.2148 6.55884 9.39844 7.17819 9.22656 8.13464C8.90234 9.93388 10.6836 10.4356 11.543 10.6747L11.8359 10.7571C13.3289 11.1651 13.6488 11.3874 13.5473 11.9479C13.4301 12.6002 12.4547 12.7558 11.5344 12.6155C11.2266 12.572 11.0078 12.5093 10.0117 12.1721C9.6875 12.0585 9.33203 12.2388 9.22266 12.5681C9.11328 12.8934 9.28906 13.2501 9.61328 13.3599C10.7594 13.7506 11.0418 13.8087 11.3746 13.8565V14.5437C11.3746 14.8904 11.6532 15.1709 11.9988 15.1709C12.3445 15.1709 12.6246 14.8904 12.6246 14.5437V13.8851C13.7855 13.7475 14.6008 13.129 14.7742 12.1714C15.1055 10.3494 13.3359 9.86724 12.1641 9.54581Z" fill="#637381"/>
</svg>
