<svg width="36" height="36" viewBox="0 0 36 36" fill="none" xmlns="http://www.w3.org/2000/svg">
<rect x="2" y="2" width="32" height="32" rx="16" fill="#DEE3E9"/>
<path d="M18.668 11.3334H14.0013C13.6477 11.3334 13.3085 11.4738 13.0585 11.7239C12.8084 11.9739 12.668 12.3131 12.668 12.6667V23.3334C12.668 23.687 12.8084 24.0261 13.0585 24.2762C13.3085 24.5262 13.6477 24.6667 14.0013 24.6667H22.0013C22.3549 24.6667 22.6941 24.5262 22.9441 24.2762C23.1942 24.0261 23.3346 23.687 23.3346 23.3334V16M18.668 11.3334L23.3346 16M18.668 11.3334V16H23.3346" stroke="#17233D" stroke-width="1.33333" stroke-linecap="round" stroke-linejoin="round"/>
<rect x="2" y="2" width="32" height="32" rx="16" stroke="#F4F6F8" stroke-width="4"/>
</svg>
