<svg width="24" height="24" viewBox="0 0 24 24" fill="none" xmlns="http://www.w3.org/2000/svg">
<path d="M4.5 21.375C4.5 21.7188 4.2168 22 3.875 22H2.625C2.2832 22 2 21.7188 2 21.375V3.25C2 2.55664 2.55664 2 3.25 2C3.94336 2 4.5 2.55664 4.5 3.25V21.375ZM20.6055 2C20.3568 2 20.0973 2.05273 19.85 2.16535C18.0652 2.9802 16.7422 3.25676 15.6391 3.25676C13.2969 3.25676 11.9355 2.01223 9.23672 2.01184C8.28516 2.01193 7.14062 2.19012 5.75 2.61523V16.3066C7 15.9166 8.08867 15.7559 9.06445 15.7559C11.9406 15.7559 13.9434 16.9973 16.8223 16.9973C18.0688 16.9973 19.4793 16.764 21.1621 16.0953C21.6914 15.9023 22 15.4531 22 14.9727V3.20039C22 2.43359 21.3477 2 20.6055 2Z" fill="#E42313"/>
</svg>
