<svg width="24" height="24" viewBox="0 0 24 24" fill="none" xmlns="http://www.w3.org/2000/svg">
<g clip-path="url(#clip0_618_3972)">
<path d="M24.0002 10.1391C24.0002 9.85195 23.8903 9.56484 23.6706 9.34547L22.608 8.2875C22.3883 8.06784 22.0999 7.95806 21.8533 7.95806C21.6068 7.95806 21.2763 8.06789 21.0986 8.2875L20.835 8.55117L15.4502 3.2475L15.7139 2.98383C15.9336 2.76408 16.0434 2.4757 16.0434 2.22914C16.0434 1.98258 15.9336 1.65211 15.7139 1.47445L14.6536 0.414141C14.433 0.109875 14.1471 0 13.8611 0C13.5752 0 13.2916 0.109875 13.0718 0.329578L7.22833 6.16406C7.0127 6.38438 6.9002 6.67031 6.9002 6.96094C6.9002 7.25156 7.01008 7.53516 7.22978 7.755L8.29009 8.81531C8.50984 9.03506 8.79822 9.14489 9.04478 9.14489C9.33334 9.14489 9.62181 9.03502 9.79947 8.81531L10.0631 8.55164L15.3647 13.8532L15.101 14.1167C14.8813 14.3364 14.7715 14.6248 14.7715 14.8714C14.7715 15.1179 14.8813 15.4484 15.101 15.6261L16.1613 16.6864C16.3811 16.9061 16.6681 17.016 16.9554 17.016C17.2428 17.016 17.5296 16.9061 17.7495 16.6864L23.5854 10.8458C23.8924 10.7109 24.0002 10.4297 24.0002 10.1391ZM10.6783 11.1609L7.94083 13.9406C7.64551 13.6453 7.26114 13.5 6.87677 13.5C6.49239 13.5 6.1127 13.6453 5.81739 13.9406L0.440826 19.3172C0.147858 19.6101 0.00137329 19.9936 0.00137329 20.3775C0.00137329 20.7614 0.147858 21.1448 0.440826 21.4378L2.56192 23.5589C2.85348 23.8547 3.23739 24 3.6213 24C4.0052 24 4.38864 23.8535 4.68161 23.5605L10.0582 18.184C10.3511 17.891 10.4977 17.5071 10.4977 17.1237C10.4977 16.74 10.3512 16.3563 10.0583 16.0634L12.7972 13.3245L10.6783 11.1609Z" fill="black"/>
</g>
<defs>
<clipPath id="clip0_618_3972">
<rect width="24" height="24" fill="white"/>
</clipPath>
</defs>
</svg>
