<svg width="30" height="24" viewBox="0 0 30 24" fill="none" xmlns="http://www.w3.org/2000/svg">
<g clip-path="url(#clip0_612_3407)">
<path d="M11.2547 21.3C11.2605 21.5929 11.3476 21.8826 11.5059 22.1287L12.307 23.3329C12.5531 23.7021 13.1165 24.0023 13.5562 24.0023H16.4493C16.8946 24.0023 17.4515 23.7026 17.6976 23.3334L18.4987 22.1292C18.651 21.8772 18.7382 21.5934 18.7499 21.3004V19.5023L11.2546 19.5026L11.2547 21.3ZM14.9766 0.000722063C10.1953 0.0124408 6.75 3.84843 6.75 8.2078C6.75 10.2056 7.47188 12.1341 8.79 13.6359C9.56906 14.5205 10.7756 16.3655 11.2387 17.924C11.2387 17.9358 11.2441 17.948 11.2441 17.9597L18.7582 17.9597C18.7582 17.948 18.7621 17.9358 18.7621 17.924C19.225 16.3655 20.4313 14.5205 21.2108 13.6359C22.529 12.1359 23.2508 10.2075 23.2508 8.2078C23.25 3.68531 19.5375 -0.0109967 14.9766 0.000722063ZM15 4.50046C12.9314 4.50046 11.25 6.18187 11.25 8.20827C11.25 8.62429 10.916 8.95827 10.5 8.95827C10.084 8.95827 9.75 8.62429 9.75 8.20827C9.75469 5.34843 12.0984 3.00656 15 3.00047C15.416 3.00047 15.75 3.3345 15.75 3.75047C15.75 4.16643 15.4172 4.50046 15 4.50046ZM5.25 8.99999C5.25 8.3789 4.74609 7.87499 4.125 7.87499H1.125C0.503906 7.87499 0 8.3789 0 8.99999C0 9.62108 0.503906 10.125 1.125 10.125H4.125C4.74375 10.125 5.25 9.62343 5.25 8.99999ZM28.875 7.87499H25.875C25.2539 7.87499 24.75 8.3789 24.75 8.99999C24.75 9.62108 25.2539 10.125 25.875 10.125H28.875C29.4961 10.125 30 9.62108 30 8.99999C30 8.3789 29.4984 7.87499 28.875 7.87499ZM6.14531 2.58984L3.54375 1.08984C3.19805 0.878906 2.76422 0.873046 2.40703 1.07226C2.05547 1.27734 1.83844 1.65258 1.83844 2.05664C1.8443 2.46679 2.06695 2.84179 2.41875 3.03539L5.02031 4.53515C5.36602 4.74609 5.79984 4.75195 6.15703 4.55273C6.50859 4.34765 6.72516 3.97242 6.72516 3.56836C6.72188 3.15843 6.49688 2.78343 6.14531 2.58984ZM27.5813 14.9672L24.9797 13.4672C24.634 13.2562 24.2006 13.2504 23.843 13.4496C23.4914 13.6547 23.2748 14.0299 23.2748 14.434C23.2807 14.8441 23.5034 15.2191 23.8552 15.4127L26.4567 16.9127C26.9902 17.2115 27.6698 17.024 27.9745 16.4908C28.2797 15.9609 28.1016 15.2812 27.5813 14.9672ZM5.02031 13.4672L2.41969 14.9672C2.06813 15.1605 1.84547 15.5358 1.83938 15.9459C1.83938 16.3502 2.05617 16.7255 2.40797 16.9303C2.76539 17.1295 3.19875 17.1237 3.54469 16.9127L6.14625 15.4127C6.6675 15.0963 6.84328 14.4166 6.53883 13.8893C6.23438 13.3547 5.55469 13.1672 5.02031 13.4672ZM24.4219 4.6875C24.6152 4.6875 24.8086 4.63476 24.9844 4.53515L27.5803 3.03515C28.1077 2.71875 28.2778 2.03906 27.9729 1.51172C27.6682 0.978749 26.9885 0.790781 26.4551 1.08984L23.8594 2.58984C23.4141 2.84179 23.2031 3.36328 23.332 3.85546C23.4656 4.34765 23.9109 4.6875 24.4219 4.6875Z" fill="black"/>
</g>
<defs>
<clipPath id="clip0_612_3407">
<rect width="30" height="24" fill="white"/>
</clipPath>
</defs>
</svg>
