<svg width="15" height="17" viewBox="0 0 15 17" fill="none" xmlns="http://www.w3.org/2000/svg">
  <path d="M13.9286 1.0625H1.06808C0.478795 1.0625 0 1.54395 0 2.13496V14.865C0 15.4561 0.478795 15.9375 1.06808 15.9375H13.9286C14.5179 15.9375 15 15.4561 15 14.865V2.13496C15 1.54395 14.5179 1.0625 13.9286 1.0625ZM4.53348 13.8125H2.31027V6.71367H4.53683V13.8125H4.53348ZM3.42187 5.74414C2.70871 5.74414 2.13281 5.16973 2.13281 4.46582C2.13281 3.76191 2.70871 3.1875 3.42187 3.1875C4.1317 3.1875 4.71094 3.76191 4.71094 4.46582C4.71094 5.17305 4.13504 5.74414 3.42187 5.74414ZM12.8672 13.8125H10.644V10.3594C10.644 9.53594 10.6272 8.47676 9.48884 8.47676C8.33036 8.47676 8.1529 9.37324 8.1529 10.2996V13.8125H5.92969V6.71367H8.0625V7.6832H8.09263C8.39062 7.12539 9.11719 6.53769 10.1987 6.53769C12.4487 6.53769 12.8672 8.00859 12.8672 9.92109V13.8125Z" fill="#E42313"/>
</svg>
