<svg width="24" height="24" viewBox="0 0 24 24" fill="none" xmlns="http://www.w3.org/2000/svg">
<path d="M8 8V6C8 5.46957 8.21071 4.96086 8.58579 4.58579C8.96086 4.21071 9.46957 4 10 4H18C18.5304 4 19.0391 4.21071 19.4142 4.58579C19.7893 4.96086 20 5.46957 20 6V18C20 18.5304 19.7893 19.0391 19.4142 19.4142C19.0391 19.7893 18.5304 20 18 20H10.4C9.2955 20 8 19.1045 8 18V16" stroke="#232C34" stroke-width="1.5" stroke-linecap="round" stroke-linejoin="round"/>
<path d="M13 15.25L16.75 12M16.75 12L13 8.5M16.75 12H4" stroke="#232C34" stroke-width="1.5" stroke-linecap="round" stroke-linejoin="round"/>
</svg>
