<svg width="20" height="16" viewBox="0 0 20 16" fill="none" xmlns="http://www.w3.org/2000/svg">
<path d="M0 3C0 1.61914 1.11914 0.5 2.5 0.5H17.5C18.8789 0.5 20 1.61914 20 3V13C20 14.3789 18.8789 15.5 17.5 15.5H2.5C1.11914 15.5 0 14.3789 0 13V3ZM1.875 3V3.86328L8.61328 9.39453C9.41797 10.0586 10.582 10.0586 11.3867 9.39453L18.125 3.86328V2.96484C18.125 2.65625 17.8438 2.33984 17.5 2.33984H2.5C2.15469 2.33984 1.875 2.65625 1.875 2.96484V3ZM1.875 6.28906V13C1.875 13.3438 2.15469 13.625 2.5 13.625H17.5C17.8438 13.625 18.125 13.3438 18.125 13V6.28906L12.5781 10.8438C11.0781 12.0742 8.92188 12.0742 7.38672 10.8438L1.875 6.28906Z" fill="black"/>
</svg>
