<svg width="20" height="22" viewBox="0 0 20 22" fill="none" xmlns="http://www.w3.org/2000/svg">
<path d="M0 17.4286V20.2857C0 21.0747 0.639581 21.7143 1.42856 21.7143H18.5714C19.3604 21.7143 20 21.0747 20 20.2857V17.4286H0Z" fill="#B5DBFF"/>
<path d="M19.0081 17.4286V20.2858C19.0081 21.0747 18.3685 21.7143 17.5796 21.7143H18.5713C19.3602 21.7143 19.9998 21.0747 19.9998 20.2858V17.4286H19.0081Z" fill="#97D0FF"/>
<path d="M0 5.99988V18.857C0 19.646 0.639581 20.2856 1.42852 20.2856H18.5714C19.3604 20.2856 20 19.646 20 18.857V5.99988H0Z" fill="#EDF5FF"/>
<path d="M19.0081 5.99988V18.857C19.0081 19.646 18.3685 20.2856 17.5796 20.2856H18.5713C19.3602 20.2856 19.9998 19.646 19.9998 18.857V5.99988H19.0081Z" fill="#D5E8FE"/>
<path d="M20 6.71421V3.14275C20 2.35377 19.3604 1.71423 18.5714 1.71423H1.42852C0.639538 1.71423 0 2.35381 0 3.14275V6.71421H20Z" fill="#FF435B"/>
<path d="M4.28572 3.4662H3.57142C3.39283 3.4662 3.24805 3.32141 3.24805 3.14283C3.24805 2.96424 3.39283 2.81946 3.57142 2.81946H4.28572C4.4643 2.81946 4.60909 2.96424 4.60909 3.14283C4.60909 3.32141 4.4643 3.4662 4.28572 3.4662Z" fill="#E3374E"/>
<path d="M6.42878 3.4662H5.71448C5.5359 3.4662 5.39111 3.32141 5.39111 3.14283C5.39111 2.96424 5.5359 2.81946 5.71448 2.81946H6.42874C6.60733 2.81946 6.75211 2.96424 6.75211 3.14283C6.75211 3.32141 6.60737 3.4662 6.42878 3.4662Z" fill="#E3374E"/>
<path d="M14.2857 3.4662H13.5714C13.3928 3.4662 13.248 3.32141 13.248 3.14283C13.248 2.96424 13.3928 2.81946 13.5714 2.81946H14.2857C14.4643 2.81946 14.609 2.96424 14.609 3.14283C14.609 3.32141 14.4643 3.4662 14.2857 3.4662Z" fill="#E3374E"/>
<path d="M16.4288 3.4662H15.7145C15.5359 3.4662 15.3911 3.32141 15.3911 3.14283C15.3911 2.96424 15.5359 2.81946 15.7145 2.81946H16.4288C16.6074 2.81946 16.7522 2.96424 16.7522 3.14283C16.7522 3.32141 16.6074 3.4662 16.4288 3.4662Z" fill="#E3374E"/>
<path d="M4.28569 3.14281C4.28569 3.53727 4.60548 3.85711 4.99999 3.85711C5.3945 3.85711 5.71429 3.53732 5.71429 3.14281V0.999946C5.71425 0.605435 5.39446 0.285645 4.99995 0.285645C4.60548 0.285645 4.28564 0.605435 4.28564 0.999946V3.14281H4.28569Z" fill="#596C76"/>
<path d="M14.2856 3.14281C14.2856 3.53727 14.6054 3.85711 14.9999 3.85711C15.3945 3.85711 15.7142 3.53732 15.7142 3.14281V0.999946C15.7142 0.605435 15.3945 0.285645 14.9999 0.285645C14.6054 0.285645 14.2856 0.605435 14.2856 0.999946V3.14281Z" fill="#596C76"/>
<path d="M18.5713 1.71423H17.5796C18.3686 1.71423 19.0081 2.35381 19.0081 3.14275V6.71425H19.9998V3.14279C19.9998 2.35381 19.3602 1.71423 18.5713 1.71423Z" fill="#E3374E"/>
<path d="M0 4.96228H20V5.60902H0V4.96228Z" fill="#E3374E"/>
</svg>
