<svg width="24" height="24" viewBox="0 0 24 24" fill="none" xmlns="http://www.w3.org/2000/svg">
<path d="M13.7478 12.2459L15.7286 12.5094C16.5201 12.617 16.8335 13.515 16.2629 14.0309L14.8326 15.3186L15.1701 17.1369C15.3027 17.8643 14.475 18.4209 13.7679 18.0758L11.9638 17.2186L10.196 18.0758C9.525 18.4209 8.69732 17.8643 8.82991 17.1369L9.16741 15.3186L7.73705 14.0309C7.16652 13.515 7.47991 12.617 8.27143 12.5094L10.2522 12.2459L11.1362 10.5908C11.4897 9.92656 12.5103 9.92656 12.8638 10.5908L13.7478 12.2459ZM11.104 13.3295L9.10312 13.6004L10.5496 14.9029L10.208 16.7473L11.9638 15.8752L13.792 16.7473L13.4504 14.9029L14.8969 13.6004L12.896 13.3295L11.9638 11.6559L11.104 13.3295ZM8.14286 4.375H15.8571V2.59375C15.8571 2.26585 16.1464 2 16.5 2C16.8536 2 17.1429 2.26585 17.1429 2.59375V4.375H18.4286C19.8469 4.375 21 5.43818 21 6.75V18.625C21 19.935 19.8469 21 18.4286 21H5.57143C4.15112 21 3 19.935 3 18.625V6.75C3 5.43818 4.15112 4.375 5.57143 4.375H6.85714V2.59375C6.85714 2.26585 7.14643 2 7.5 2C7.85357 2 8.14286 2.26585 8.14286 2.59375V4.375ZM4.28571 18.625C4.28571 19.2818 4.86147 19.8125 5.57143 19.8125H18.4286C19.1397 19.8125 19.7143 19.2818 19.7143 18.625V9.125H4.28571V18.625ZM4.28571 6.75V7.9375H19.7143V6.75C19.7143 6.09316 19.1397 5.5625 18.4286 5.5625H5.57143C4.86147 5.5625 4.28571 6.09316 4.28571 6.75Z" fill="#17233D"/>
</svg>
