<svg width="28" height="28" viewBox="0 0 28 28" fill="none" xmlns="http://www.w3.org/2000/svg">
<path d="M11.709 15.5199L11.709 15.5199C11.5075 15.6696 11.2363 15.6848 11.0193 15.5586L10.9564 15.6667L11.0193 15.5586L2.77042 10.7621L2.70991 10.8661L2.77042 10.7621C2.30279 10.4902 2.37707 9.79076 2.89097 9.62284L24.7185 2.49045L24.6811 2.37591L24.7185 2.49044C25.2048 2.33143 25.6696 2.79361 25.5102 3.28211C25.5102 3.28213 25.5102 3.28214 25.5102 3.28215L18.3778 25.1097C18.21 25.6232 17.5107 25.6982 17.2385 25.2302L12.442 16.9814C12.3158 16.7644 12.331 16.4931 12.4806 16.2916L14.2027 13.9728L14.0278 13.7979L11.709 15.5199ZM17.4793 23.147L17.6195 23.3881L17.7061 23.123L23.8561 4.30202L23.9327 4.06786L23.6985 4.14438L4.87758 10.2943L4.61241 10.381L4.85357 10.5212L11.2214 14.224L11.2926 14.2655L11.3587 14.2163L17.3709 9.75138C17.6208 9.56582 17.969 9.5914 18.189 9.81147L18.189 9.81148C18.4091 10.0315 18.4346 10.3796 18.2491 10.6295C18.2491 10.6295 18.2491 10.6295 18.2491 10.6296L13.7842 16.6418L13.7351 16.7079L13.7765 16.7791L17.4793 23.147ZM4.26294 23.7376L4.26293 23.7376C4.01779 23.4925 4.01779 23.095 4.26293 22.8499L4.18086 22.7678L4.26294 22.8499L9.26057 17.8523C9.26058 17.8523 9.26058 17.8523 9.26059 17.8523C9.50583 17.6072 9.90325 17.6072 10.1482 17.8523L10.1482 17.8523C10.3934 18.0974 10.3934 18.4948 10.1482 18.7399L10.2366 18.8283L10.1482 18.7399L5.15058 23.7376C4.90546 23.9826 4.50803 23.9827 4.26294 23.7376ZM3.7227 18.0414L3.72271 18.0414L5.69471 16.0694L5.69472 16.0693C5.93982 15.8242 6.33724 15.8242 6.58235 16.0693L6.58235 16.0694C6.82751 16.3145 6.8275 16.7119 6.58236 16.957L6.58235 16.957L4.61035 18.9291C4.36529 19.1741 3.9678 19.1742 3.7227 18.9291C3.47755 18.6839 3.47756 18.2865 3.7227 18.0414ZM9.95913 24.2778L9.95911 24.2778C9.83654 24.4004 9.67612 24.4617 9.51533 24.4617C8.96074 24.4617 8.67576 23.7859 9.07153 23.3902L11.0436 21.4181L11.0436 21.4181C11.2886 21.173 11.6861 21.173 11.9312 21.4181L12.0196 21.3298L11.9312 21.4181C12.1763 21.6632 12.1763 22.0607 11.9312 22.3058L12.016 22.3906L11.9312 22.3058L9.95913 24.2778Z" fill="#FFA928" stroke="#FFF6EA" stroke-width="0.25"/>
</svg>
