<svg width="30" height="24" viewBox="0 0 30 24" fill="none" xmlns="http://www.w3.org/2000/svg">
<path d="M8.625 4.125C8.625 5.57344 7.44844 6.75 6 6.75C4.55016 6.75 3.375 5.57344 3.375 4.125C3.375 2.67516 4.55016 1.5 6 1.5C7.44844 1.5 8.625 2.67516 8.625 4.125ZM9.76875 9.20156C8.37656 10.4391 7.5 12.2437 7.5 14.25C7.5 15.8578 8.02031 17.3344 9 18.4922V19.5C9 20.3297 8.32969 21 7.5 21H4.5C3.67172 21 3 20.3297 3 19.5V18.2438C1.22625 17.4 0 15.5953 0 13.5C0 10.5984 2.35031 8.25 5.25 8.25H6.75C7.83281 8.25 8.91562 8.60156 9.76875 9.20156ZM3 11.5172C2.53312 12.0422 2.25 12.7406 2.25 13.5C2.25 14.2594 2.53312 14.9578 3 15.4828V11.5172ZM21 19.5V18.4922C21.9375 17.3344 22.5 15.8578 22.5 14.25C22.5 12.2437 21.6234 10.4391 20.2313 9.20156C21.0844 8.60156 22.125 8.25 23.25 8.25H24.75C27.6516 8.25 30 10.5984 30 13.5C30 15.5953 28.7719 17.4 27 18.2438V19.5C27 20.3297 26.3297 21 25.5 21H22.5C21.6703 21 21 20.3297 21 19.5ZM27 15.4828C27.4266 14.9578 27.75 14.2594 27.75 13.5C27.75 12.7406 27.4266 12.0422 27 11.5172V15.4828ZM26.625 4.125C26.625 5.57344 25.4484 6.75 24 6.75C22.5516 6.75 21.375 5.57344 21.375 4.125C21.375 2.67516 22.5516 1.5 24 1.5C25.4484 1.5 26.625 2.67516 26.625 4.125ZM12 4.5C12 2.84297 13.3453 1.5 15 1.5C16.6547 1.5 18 2.84297 18 4.5C18 6.15469 16.6547 7.5 15 7.5C13.3453 7.5 12 6.15469 12 4.5ZM21 14.25C21 16.3453 19.7719 18.15 18 18.9938V21C18 21.8297 17.3297 22.5 16.5 22.5H13.5C12.6703 22.5 12 21.8297 12 21V18.9938C10.2281 18.15 9 16.3453 9 14.25C9 11.3484 11.3484 9 14.25 9H15.75C18.6516 9 21 11.3484 21 14.25ZM12 16.2328V12.2672C11.5312 12.7922 11.25 13.4906 11.25 14.25C11.25 15.0094 11.5312 15.7078 12 16.2328ZM18 12.2672V16.2328C18.4266 15.7031 18.75 15.0094 18.75 14.25C18.75 13.4906 18.4266 12.7922 18 12.2672Z" fill="black"/>
</svg>
