<svg width="24" height="24" viewBox="0 0 24 24" fill="none" xmlns="http://www.w3.org/2000/svg">
<path d="M20.3333 5.24998C20.0278 5.24998 19.7778 5.50169 19.7778 5.81247V13.1249C19.7778 13.7461 19.2802 14.2499 18.6667 14.2499H5.33333C4.71979 14.2499 4.22222 13.7461 4.22222 13.1249V5.81247C4.22222 5.50169 3.97361 5.24998 3.66667 5.24998C3.35972 5.24998 3.11111 5.50169 3.11111 5.81247V13.1249C3.11111 14.3624 4.11111 15.3749 5.33333 15.3749H11.4444V16.8296L8.27535 20.0425C8.05833 20.2622 8.05688 20.6156 8.2739 20.8353C8.49092 21.055 8.84091 21.0549 9.05793 20.8352L12 17.8569L14.942 20.8339C15.0521 20.9436 15.191 20.9998 15.3333 20.9998C15.4757 20.9998 15.6176 20.9449 15.726 20.835C15.9431 20.6153 15.9416 20.262 15.7246 20.0422L12.5556 16.8303V15.3749H18.6667C19.8889 15.3749 20.8889 14.3624 20.8889 13.1249V5.81247C20.8889 5.50169 20.6389 5.24998 20.3333 5.24998ZM21.4444 3H2.55556C2.24847 3 2 3.25158 2 3.56249C2 3.87341 2.24847 4.12499 2.55556 4.12499H21.4444C21.75 4.12499 22 3.87327 22 3.56249C22 3.25172 21.75 3 21.4444 3Z" fill="#637381"/>
</svg>
