<svg width="24" height="24" viewBox="0 0 24 24" fill="none" xmlns="http://www.w3.org/2000/svg">
<path d="M12 7.5C12 6.67172 11.3283 6 10.5 6H9.75V4.5C9.75 3.67172 9.07828 3 8.25 3H3C1.34297 3 0 4.34297 0 6V12.75H3.75V11.25C3.75 10.4217 4.42172 9.75 5.25 9.75C6.07828 9.75 6.75 10.4217 6.75 11.25V12.75H9.75V9H10.5C11.3297 9 12 8.32969 12 7.5ZM0 21C0 22.657 1.34297 24 3 24H9.75V20.25H8.25C7.42172 20.25 6.75 19.5783 6.75 18.75C6.75 17.9217 7.42172 17.25 8.25 17.25H9.75V14.25H0V21ZM19.5 14.25H17.25V15.75C17.25 16.5783 16.5783 17.25 15.75 17.25C14.9217 17.25 14.25 16.5783 14.25 15.75V14.25H11.25V24H18C19.657 24 21 22.657 21 21V15.75C21 14.9203 20.3297 14.25 19.5 14.25ZM21 0H15.75C14.9217 0 14.25 0.671719 14.25 1.5V3.75H15.75C16.5783 3.75 17.25 4.42172 17.25 5.25C17.25 6.07828 16.5783 6.75 15.75 6.75H14.25V9.75H17.25V10.5C17.25 11.3283 17.9217 12 18.75 12C19.5783 12 20.25 11.3283 20.25 10.5V9.75H22.5C23.3283 9.75 24 9.07828 24 8.25V3C24 1.34297 22.6547 0 21 0Z" fill="black"/>
</svg>
