<svg width="16" height="16" viewBox="0 0 16 16" fill="none" xmlns="http://www.w3.org/2000/svg">
<path d="M13.2245 0.125H2.20408C0.986671 0.125 0 1.13258 0 2.375V13.625C0 14.8674 0.986671 15.875 2.20408 15.875H13.2245C14.4419 15.875 15.4286 14.8674 15.4286 13.625V2.375C15.4286 1.13258 14.4402 0.125 13.2245 0.125ZM5.18648 12.1695C4.97296 12.391 4.69056 12.5 4.40816 12.5C4.12577 12.5 3.84406 12.3903 3.62881 12.1706C3.19833 11.7311 3.19833 11.0188 3.62881 10.5794C3.84337 10.359 4.12577 10.25 4.40816 10.25C4.69056 10.25 4.97227 10.3597 5.18751 10.5794C5.61696 11.0199 5.61696 11.7301 5.18648 12.1695ZM8.59592 12.4965C8.57526 12.4684 8.55804 12.5 8.50982 12.5C8.0783 12.5 7.71463 12.1572 7.68605 11.7111C7.59375 9.78945 5.96135 8.12305 4.07755 7.99648C3.62227 7.96682 3.27685 7.56477 3.30647 7.1C3.33606 6.63418 3.73385 6.29809 4.18534 6.3132C6.86675 6.49116 9.1893 8.86203 9.36494 11.6007C9.3949 12.0676 9.05051 12.4684 8.59592 12.4965ZM11.8814 12.4684C11.871 12.5 11.8573 12.5 11.8159 12.5C11.3751 12.5 11.0094 12.1453 10.9904 11.6914C10.8689 7.95078 7.7625 4.77969 4.09821 4.59336C3.64362 4.60391 3.28787 4.21367 3.30681 3.74609C3.3261 3.28203 3.71594 2.90937 4.16709 2.9375C8.66824 3.12977 12.4841 7.02617 12.6425 11.5895C12.6907 12.0887 12.3394 12.4789 11.8814 12.4684Z" fill="black"/>
</svg>
