<svg width="20" height="21" viewBox="0 0 20 21" fill="none" xmlns="http://www.w3.org/2000/svg">
<path fill-rule="evenodd" clip-rule="evenodd" d="M9.16675 3.83366C5.94509 3.83366 3.33341 6.44533 3.33341 9.66699C3.33341 12.8887 5.94509 15.5003 9.16675 15.5003C12.3884 15.5003 15.0001 12.8887 15.0001 9.66699C15.0001 6.44533 12.3884 3.83366 9.16675 3.83366ZM1.66675 9.66699C1.66675 5.52486 5.02461 2.16699 9.16675 2.16699C13.3089 2.16699 16.6667 5.52486 16.6667 9.66699C16.6667 13.8091 13.3089 17.167 9.16675 17.167C5.02461 17.167 1.66675 13.8091 1.66675 9.66699Z" fill="#E42313"/>
<path fill-rule="evenodd" clip-rule="evenodd" d="M13.2858 13.7861C13.6113 13.4606 14.1389 13.4606 14.4643 13.7861L18.0893 17.4111C18.4148 17.7365 18.4148 18.2641 18.0893 18.5896C17.7639 18.915 17.2363 18.915 16.9108 18.5896L13.2858 14.9646C12.9604 14.6391 12.9604 14.1115 13.2858 13.7861Z" fill="#E42313"/>
</svg>
