<svg width="24" height="24" viewBox="0 0 24 24" fill="none" xmlns="http://www.w3.org/2000/svg">
<path d="M15.1667 4C14.8572 4 14.5605 4.13409 14.3417 4.37277C14.1229 4.61146 14 4.93518 14 5.27273V7.81818C14 8.15573 14.1229 8.47945 14.3417 8.71814C14.5605 8.95682 14.8572 9.09091 15.1667 9.09091V11L17.2667 9.09091H19.8333C20.1428 9.09091 20.4395 8.95682 20.6583 8.71814C20.8771 8.47945 21 8.15573 21 7.81818V5.27273C21 4.93518 20.8771 4.61146 20.6583 4.37277C20.4395 4.13409 20.1428 4 19.8333 4H15.1667Z" stroke="#232C34" stroke-width="1.5" stroke-linejoin="round"/>
<path d="M8.5 6C7.77065 6 7.07118 6.27393 6.55546 6.76152C6.03973 7.24912 5.75 7.91044 5.75 8.6C5.75 9.28956 6.03973 9.95088 6.55546 10.4385C7.07118 10.9261 7.77065 11.2 8.5 11.2C9.22935 11.2 9.92882 10.9261 10.4445 10.4385C10.9603 9.95088 11.25 9.28956 11.25 8.6C11.25 7.91044 10.9603 7.24912 10.4445 6.76152C9.92882 6.27393 9.22935 6 8.5 6ZM11.9375 13.5H5.0625C4.51549 13.5 3.99089 13.7054 3.60409 14.0711C3.2173 14.4368 3 14.9328 3 15.45C3 16.9008 3.63112 18.063 4.6665 18.8495C5.68537 19.623 7.05212 20 8.5 20C9.94788 20 11.3146 19.623 12.3335 18.8495C13.3675 18.063 14 16.9008 14 15.45C14 14.9328 13.7827 14.4368 13.3959 14.0711C13.0091 13.7054 12.4845 13.5 11.9375 13.5Z" stroke="#232C34" stroke-width="1.5"/>
</svg>
