<svg width="22" height="18" viewBox="0 0 22 18" fill="none" xmlns="http://www.w3.org/2000/svg">
<path d="M7.7 9C10.1303 9 12.1 6.9852 12.1 4.5C12.1 2.0148 10.1303 0 7.7 0C5.26969 0 3.3 2.0148 3.3 4.5C3.3 6.9852 5.26969 9 7.7 9ZM9.44281 10.6875H5.95719C2.66647 10.6875 0 13.4156 0 16.7801C0 17.4551 0.5335 18 1.19144 18H14.2072C14.8672 18 15.4 17.4551 15.4 16.7801C15.4 13.4156 12.7325 10.6875 9.44281 10.6875ZM16.4691 11.25H13.9305C15.51 12.5754 16.5 14.5582 16.5 16.7801C16.5 17.2301 16.3694 17.6449 16.1562 18H20.9C21.5084 18 22 17.4937 22 16.8434C22 13.7672 19.5388 11.25 16.4691 11.25ZM14.85 9C16.9778 9 18.7 7.23867 18.7 5.0625C18.7 2.88633 16.9778 1.125 14.85 1.125C13.9868 1.125 13.1986 1.42576 12.5565 1.91637C12.9525 2.69402 13.2 3.56484 13.2 4.5C13.2 5.74875 12.7899 6.89555 12.1141 7.82965C12.8116 8.55 13.7775 9 14.85 9Z" fill="#E42313"/>
</svg>
