<svg width="50" height="36" viewBox="0 0 50 36" fill="none" xmlns="http://www.w3.org/2000/svg">
<path d="M0 11.0769H49.8462V24.9231H0V11.0769Z" fill="#EEEEEE"/>
<path d="M44.3077 0H5.53846C4.06957 0 2.66084 0.583515 1.62218 1.62218C0.583515 2.66084 0 4.06957 0 5.53846L0 11.0769H49.8462V5.53846C49.8462 4.06957 49.2626 2.66084 48.224 1.62218C47.1853 0.583515 45.7766 0 44.3077 0ZM5.53846 36H44.3077C45.7766 36 47.1853 35.4165 48.224 34.3778C49.2626 33.3392 49.8462 31.9304 49.8462 30.4615V24.9231H0V30.4615C0 31.9304 0.583515 33.3392 1.62218 34.3778C2.66084 35.4165 4.06957 36 5.53846 36Z" fill="#ED2939"/>
</svg>
