<svg width="42" height="36" viewBox="0 0 42 36" fill="none" xmlns="http://www.w3.org/2000/svg">
<path d="M5.53846 0C4.06957 0 2.66084 0.583515 1.62218 1.62218C0.583515 2.66084 0 4.06957 0 5.53846V30.4615C0 31.9304 0.583515 33.3392 1.62218 34.3778C2.66084 35.4165 4.06957 36 5.53846 36H13.8462V0H5.53846Z" fill="#141414"/>
<path d="M13.8457 0H27.6919V36H13.8457V0Z" fill="#FDDA24"/>
<path d="M36.0011 0H27.6934V36H36.0011C37.4699 36 38.8787 35.4165 39.9173 34.3778C40.956 33.3392 41.5395 31.9304 41.5395 30.4615V5.53846C41.5395 4.06957 40.956 2.66084 39.9173 1.62218C38.8787 0.583515 37.4699 0 36.0011 0Z" fill="#EF3340"/>
</svg>
