<svg width="19" height="13" viewBox="0 0 19 13" fill="none" xmlns="http://www.w3.org/2000/svg">
  <path d="M17.5821 12.3913H1.42157C0.638405 12.3913 0 11.7595 0 10.9763V1.41499C0 0.631757 0.638405 0 1.42157 0H17.5784C18.3653 0 19 0.635452 19 1.41499V10.9763C19.0037 11.7595 18.3653 12.3913 17.5821 12.3913Z" fill="#FFE15A"/>
  <path d="M1.42184 0C0.638531 0 0 0.631757 0 1.41499V10.9763C0 11.7595 0.638531 12.3913 1.42184 12.3913H6.33333V0H1.42184Z" fill="#464655"/>
  <path d="M17.5793 0H12.6641V12.3913H17.5755C18.3626 12.3913 18.9974 11.7559 18.9974 10.9763V1.41499C19.0011 0.631757 18.3626 0 17.5793 0Z" fill="#FF4B55"/>
</svg>
