<svg width="42" height="31" viewBox="0 0 42 31" fill="none" xmlns="http://www.w3.org/2000/svg">
<path d="M5.59986 0.5C4.11468 0.5 2.69034 0.986262 1.64016 1.85181C0.589983 2.71737 0 3.89131 0 5.11538V25.8846C0 27.1087 0.589983 28.2826 1.64016 29.1482C2.69034 30.0137 4.11468 30.5 5.59986 30.5H13.9996V0.5H5.59986Z" fill="#141414"/>
<path d="M14 0.5H27.9996V30.5H14V0.5Z" fill="#FDDA24"/>
<path d="M36.3998 0.5H28V30.5H36.3998C37.885 30.5 39.3093 30.0137 40.3595 29.1482C41.4097 28.2826 41.9996 27.1087 41.9996 25.8846V5.11538C41.9996 3.89131 41.4097 2.71737 40.3595 1.85181C39.3093 0.986262 37.885 0.5 36.3998 0.5Z" fill="#EF3340"/>
</svg>
