<svg width="22" height="15" viewBox="0 0 22 15" fill="none" xmlns="http://www.w3.org/2000/svg">
<path d="M1.61311 0.168213C0.722186 0.168213 0 0.890399 0 1.78132V12.6669C0 13.5577 0.722186 14.28 1.61311 14.28H4.82771V0.168213H1.61311Z" fill="#FF4B55"/>
<path d="M19.9275 0.168213H16.7129V14.2799H19.9275C20.8184 14.2799 21.5406 13.5577 21.5406 12.6668V1.78132C21.5406 0.890399 20.8184 0.168213 19.9275 0.168213Z" fill="#FF4B55"/>
<path d="M13.0223 8.85469L15.2259 7.5955L14.7203 7.34267C14.5785 7.27174 14.4973 7.11861 14.5183 6.96141L14.6828 5.72788L13.7498 5.9993C13.5437 6.05929 13.3299 5.9325 13.2835 5.72296L13.1942 5.3191L12.3182 6.34431C12.1968 6.48641 11.9654 6.37788 11.9971 6.19366L12.3712 4.01839L11.7984 4.17501C11.6311 4.22078 11.4544 4.14464 11.3728 3.9916L10.7697 2.86118V2.8595L10.7693 2.86034L10.7688 2.8595V2.86118L10.1657 3.9916C10.084 4.1446 9.90736 4.22074 9.74005 4.17501L9.16729 4.01839L9.54141 6.19366C9.57309 6.37783 9.34171 6.48641 9.22026 6.34435L8.34427 5.31914L8.25492 5.723C8.20856 5.93258 7.99468 6.05929 7.78859 5.99935L6.85564 5.72792L7.02017 6.96145C7.04116 7.11862 6.95997 7.27179 6.81816 7.34271L6.3125 7.5955L8.51616 8.85473C8.74442 8.98518 8.84446 9.26182 8.75238 9.50805L8.56399 10.0119L10.4522 9.8507C10.5567 9.84178 10.6457 9.92591 10.6426 10.0307L10.5831 12.0518H10.9545L10.8949 10.0306C10.8918 9.92579 10.9808 9.84169 11.0853 9.85061L12.9744 10.0119L12.786 9.50805C12.694 9.26178 12.794 8.9851 13.0223 8.85469Z" fill="#FF4B55"/>
</svg>
