<svg width="22" height="14" viewBox="0 0 22 14" fill="none" xmlns="http://www.w3.org/2000/svg">
<path d="M20.0144 0H7.07227C7.27271 0 7.43525 0.162538 7.43525 0.362988V6.53349C7.43525 6.73394 7.27271 6.89648 7.07227 6.89648H21.5911V1.57666C21.5911 0.705869 20.8852 0 20.0144 0Z" fill="#F5F5F5"/>
<path d="M1.265 6.89644H0.90205C0.701601 6.89644 0.539062 6.7339 0.539062 6.53345V6.89644V7.25942V12.2163C0.539062 13.087 1.24493 13.7929 2.11572 13.7929H20.0147C20.8855 13.7929 21.5914 13.087 21.5914 12.2163V6.89644H7.07255H1.265Z" fill="#FF4B55"/>
<path d="M0.90205 6.89648H1.26504H7.07255C7.273 6.89648 7.43554 6.73394 7.43554 6.53349V0.362988C7.43554 0.162538 7.273 0 7.07255 0H2.11572C1.24493 4.11178e-05 0.539062 0.70591 0.539062 1.5767V6.53353C0.539062 6.73394 0.701601 6.89648 0.90205 6.89648Z" fill="#41479B"/>
<path d="M4.12764 1.90018L4.47369 2.93775L5.56742 2.94622C5.70903 2.94729 5.76775 3.12804 5.65381 3.21213L4.77397 3.86183L5.10386 4.90466C5.14654 5.03969 4.99284 5.15132 4.87763 5.06901L3.98784 4.43304L3.09801 5.06905C2.9828 5.15141 2.8291 5.03969 2.87178 4.9047L3.20167 3.86187L2.32183 3.21217C2.20789 3.12804 2.26665 2.94733 2.40822 2.94626L3.50195 2.93779L3.848 1.90022C3.89282 1.76585 4.08286 1.76585 4.12764 1.90018Z" fill="#F5F5F5"/>
</svg>
