<svg width="19" height="13" viewBox="0 0 19 13" fill="none" xmlns="http://www.w3.org/2000/svg">
<path d="M17.577 0H1.42296C0.637057 0 0 0.637057 0 1.42296V11.0253C0 11.8112 0.637057 12.4483 1.42296 12.4483H17.577C18.3629 12.4483 19 11.8112 19 11.0253V1.42296C19 0.637057 18.3629 0 17.577 0Z" fill="#F5F5F5"/>
<path d="M0.078125 0.95757H18.9216C18.7287 0.400299 18.1997 0 17.5769 0H1.42282C0.799977 0 0.270982 0.400299 0.078125 0.95757Z" fill="#FF4B55"/>
<path d="M19 3.8302H0V4.78773H19V3.8302Z" fill="#FF4B55"/>
<path d="M19 1.91492H0V2.87245H19V1.91492Z" fill="#FF4B55"/>
<path d="M0 6.37533C0 6.55624 0.146693 6.70293 0.327602 6.70293H19V5.74536H0V6.37533Z" fill="#FF4B55"/>
<path d="M19 9.57581H0V10.5334H19V9.57581Z" fill="#FF4B55"/>
<path d="M18.9216 11.4907H0.078125C0.270982 12.048 0.800014 12.4483 1.42282 12.4483H17.5769C18.1997 12.4483 18.7287 12.048 18.9216 11.4907Z" fill="#FF4B55"/>
<path d="M19 7.66064H0V8.61818H19V7.66064Z" fill="#FF4B55"/>
<path d="M0.327602 6.70296H8.51727C8.69818 6.70296 8.84487 6.55626 8.84487 6.37535V0.327601C8.84487 0.146656 8.69818 0 8.51727 0H1.42296C0.637057 3.71094e-05 0 0.637094 0 1.423V6.37535C0 6.5563 0.146693 6.70296 0.327602 6.70296Z" fill="#41479B"/>
<path d="M0.920295 0.751833L0.992806 0.969294L1.22203 0.971038C1.25172 0.971298 1.264 1.00915 1.24014 1.02678L1.05574 1.16293L1.12492 1.38147C1.1339 1.40974 1.10165 1.4332 1.07749 1.4159L0.891015 1.28265L0.704541 1.41594C0.680382 1.43323 0.648209 1.40978 0.657115 1.3815L0.726287 1.16297L0.54189 1.02681C0.518029 1.00915 0.530312 0.971298 0.56 0.971075L0.789224 0.969331L0.861736 0.75187C0.871088 0.723667 0.910869 0.723667 0.920295 0.751833Z" fill="#F5F5F5"/>
<path d="M0.920295 1.88938L0.992806 2.10684L1.22203 2.10858C1.25172 2.10884 1.264 2.14666 1.24014 2.16432L1.05574 2.30051L1.12492 2.51905C1.1339 2.54733 1.10165 2.57078 1.07749 2.55349L0.891015 2.42023L0.704541 2.55352C0.680382 2.57078 0.648209 2.54736 0.657115 2.51909L0.726287 2.30055L0.54189 2.16436C0.518029 2.14669 0.530312 2.10888 0.56 2.10862L0.789224 2.10688L0.861736 1.88942C0.871088 1.86125 0.910869 1.86125 0.920295 1.88938Z" fill="#F5F5F5"/>
<path d="M0.920295 3.02698L0.992806 3.24444L1.22203 3.24618C1.25172 3.24644 1.264 3.28426 1.24014 3.30192L1.05574 3.43811L1.12492 3.65665C1.1339 3.68493 1.10165 3.70838 1.07749 3.69109L0.891015 3.55783L0.704541 3.69113C0.680382 3.70838 0.648209 3.685 0.657115 3.65669L0.726287 3.43815L0.54189 3.30196C0.518029 3.2843 0.530312 3.24648 0.56 3.24622L0.789224 3.24448L0.861736 3.02702C0.871088 2.99881 0.910869 2.99881 0.920295 3.02698Z" fill="#F5F5F5"/>
<path d="M0.920295 4.16455L0.992806 4.38201L1.22203 4.38376C1.25172 4.38402 1.264 4.42187 1.24014 4.4395L1.05574 4.57569L1.12492 4.79422C1.1339 4.8225 1.10165 4.84595 1.07749 4.82866L0.891015 4.6954L0.704541 4.8287C0.680382 4.84595 0.648209 4.82254 0.657115 4.79426L0.726287 4.57572L0.54189 4.43953C0.518029 4.42194 0.530312 4.38405 0.56 4.38379L0.789224 4.38205L0.861736 4.16459C0.871088 4.13639 0.910869 4.13639 0.920295 4.16455Z" fill="#F5F5F5"/>
<path d="M0.920295 5.3021L0.992806 5.51956L1.22203 5.5213C1.25172 5.52156 1.264 5.55938 1.24014 5.57704L1.05574 5.71323L1.12492 5.93177C1.1339 5.96005 1.10165 5.9835 1.07749 5.96621L0.891015 5.83295L0.704541 5.96624C0.680382 5.9835 0.648209 5.96008 0.657115 5.93181L0.726287 5.71327L0.54189 5.57708C0.518029 5.55941 0.530312 5.5216 0.56 5.52134L0.789224 5.5196L0.861736 5.30213C0.871088 5.27397 0.910869 5.27397 0.920295 5.3021Z" fill="#F5F5F5"/>
<path d="M1.80311 1.30955L1.87562 1.52701L2.10484 1.52875C2.13453 1.52901 2.14681 1.56687 2.12295 1.58449L1.93856 1.72068L2.00773 1.93922C2.01671 1.9675 1.98446 1.99095 1.9603 1.97366L1.77383 1.84036L1.58735 1.97366C1.5632 1.99091 1.53102 1.9675 1.53993 1.93922L1.6091 1.72068L1.4247 1.58449C1.40084 1.56683 1.41312 1.52901 1.44281 1.52875L1.67204 1.52701L1.74455 1.30955C1.7539 1.28142 1.79372 1.28142 1.80311 1.30955Z" fill="#F5F5F5"/>
<path d="M1.80311 2.44715L1.87562 2.66461L2.10484 2.66636C2.13453 2.66662 2.14681 2.70447 2.12295 2.72209L1.93856 2.85829L2.00773 3.07682C2.01671 3.1051 1.98446 3.12855 1.9603 3.11126L1.77383 2.97796L1.58735 3.11126C1.5632 3.12852 1.53102 3.10514 1.53993 3.07682L1.6091 2.85829L1.4247 2.72209C1.40084 2.7045 1.41312 2.66662 1.44281 2.66636L1.67204 2.66461L1.74455 2.44715C1.7539 2.41898 1.79372 2.41898 1.80311 2.44715Z" fill="#F5F5F5"/>
<path d="M1.80311 3.58472L1.87562 3.80218L2.10484 3.80393C2.13453 3.80419 2.14681 3.842 2.12295 3.85967L1.93856 3.99586L2.00773 4.2144C2.01671 4.24267 1.98446 4.26613 1.9603 4.24883L1.77383 4.11554L1.58735 4.24883C1.5632 4.26609 1.53102 4.24267 1.53993 4.2144L1.6091 3.99586L1.4247 3.85967C1.40084 3.842 1.41312 3.80419 1.44281 3.80393L1.67204 3.80218L1.74455 3.58472C1.7539 3.55656 1.79372 3.55656 1.80311 3.58472Z" fill="#F5F5F5"/>
<path d="M1.80311 4.72227L1.87562 4.93973L2.10484 4.94147C2.13453 4.94173 2.14681 4.97955 2.12295 4.99721L1.93856 5.1334L2.00773 5.35194C2.01671 5.38022 1.98446 5.40367 1.9603 5.38638L1.77383 5.25308L1.58735 5.38638C1.5632 5.40367 1.53102 5.38022 1.53993 5.35194L1.6091 5.1334L1.4247 4.99721C1.40084 4.97955 1.41312 4.94173 1.44281 4.94147L1.67204 4.93973L1.74455 4.72227C1.7539 4.69414 1.79372 4.69414 1.80311 4.72227Z" fill="#F5F5F5"/>
<path d="M2.68592 0.751837L2.75843 0.969298L2.98766 0.971042C3.01734 0.971302 3.02963 1.00915 3.00577 1.02678L2.82137 1.16293L2.89054 1.38147C2.89952 1.40975 2.86727 1.4332 2.84311 1.41591L2.65664 1.28261L2.47017 1.41591C2.44601 1.4332 2.41383 1.40975 2.42274 1.38147L2.49191 1.16293L2.30752 1.02678C2.28365 1.00912 2.29594 0.971265 2.32562 0.971042L2.55485 0.969298L2.62736 0.751837C2.63671 0.723671 2.67653 0.723671 2.68592 0.751837Z" fill="#F5F5F5"/>
<path d="M2.68592 1.88938L2.75843 2.10684L2.98766 2.10859C3.01734 2.10885 3.02963 2.14666 3.00577 2.16433L2.82137 2.30052L2.89054 2.51905C2.89952 2.54733 2.86727 2.57079 2.84311 2.55349L2.65664 2.4202L2.47017 2.55349C2.44601 2.57075 2.41383 2.54733 2.42274 2.51905L2.49191 2.30052L2.30752 2.16433C2.28365 2.14666 2.29594 2.10885 2.32562 2.10859L2.55485 2.10684L2.62736 1.88938C2.63671 1.86125 2.67653 1.86125 2.68592 1.88938Z" fill="#F5F5F5"/>
<path d="M2.68592 3.02698L2.75843 3.24444L2.98766 3.24619C3.01734 3.24645 3.02963 3.28426 3.00577 3.30193L2.82137 3.43812L2.89054 3.65666C2.89952 3.68493 2.86727 3.70839 2.84311 3.69109L2.65664 3.5578L2.47017 3.69109C2.44601 3.70835 2.41383 3.68497 2.42274 3.65666L2.49191 3.43812L2.30752 3.30193C2.28365 3.28426 2.29594 3.24645 2.32562 3.24619L2.55485 3.24444L2.62736 3.02698C2.63671 2.99882 2.67653 2.99882 2.68592 3.02698Z" fill="#F5F5F5"/>
<path d="M2.68592 4.16456L2.75843 4.38202L2.98766 4.38376C3.01734 4.38402 3.02963 4.42187 3.00577 4.4395L2.82137 4.57569L2.89054 4.79423C2.89952 4.82251 2.86727 4.84596 2.84311 4.82867L2.65664 4.69537L2.47017 4.82867C2.44601 4.84592 2.41383 4.82251 2.42274 4.79423L2.49191 4.57569L2.30752 4.4395C2.28365 4.42191 2.29594 4.38402 2.32562 4.38376L2.55485 4.38202L2.62736 4.16456C2.63671 4.13639 2.67653 4.13639 2.68592 4.16456Z" fill="#F5F5F5"/>
<path d="M2.68592 5.3021L2.75843 5.51956L2.98766 5.52131C3.01734 5.52157 3.02963 5.55938 3.00577 5.57705L2.82137 5.71324L2.89054 5.93177C2.89952 5.96005 2.86727 5.9835 2.84311 5.96621L2.65664 5.83291L2.47017 5.96621C2.44601 5.98347 2.41383 5.96005 2.42274 5.93177L2.49191 5.71324L2.30752 5.57705C2.28365 5.55938 2.29594 5.52157 2.32562 5.52131L2.55485 5.51956L2.62736 5.3021C2.63671 5.27397 2.67653 5.27397 2.68592 5.3021Z" fill="#F5F5F5"/>
<path d="M3.56873 1.30955L3.64124 1.52701L3.87047 1.52875C3.90016 1.52901 3.91244 1.56687 3.88858 1.58449L3.70418 1.72068L3.77335 1.93922C3.78233 1.9675 3.75009 1.99095 3.72593 1.97366L3.53945 1.84036L3.35298 1.97366C3.32882 1.99091 3.29665 1.9675 3.30555 1.93922L3.37472 1.72068L3.19033 1.58449C3.16647 1.56683 3.17875 1.52901 3.20844 1.52875L3.43766 1.52701L3.51017 1.30955C3.51949 1.28142 3.55934 1.28142 3.56873 1.30955Z" fill="#F5F5F5"/>
<path d="M3.56873 2.44715L3.64124 2.66461L3.87047 2.66636C3.90016 2.66662 3.91244 2.70447 3.88858 2.72209L3.70418 2.85829L3.77335 3.07682C3.78233 3.1051 3.75009 3.12855 3.72593 3.11126L3.53945 2.97796L3.35298 3.11126C3.32882 3.12852 3.29665 3.10514 3.30555 3.07682L3.37472 2.85829L3.19033 2.72209C3.16647 2.7045 3.17875 2.66662 3.20844 2.66636L3.43766 2.66461L3.51017 2.44715C3.51949 2.41898 3.55934 2.41898 3.56873 2.44715Z" fill="#F5F5F5"/>
<path d="M3.56873 3.58472L3.64124 3.80218L3.87047 3.80393C3.90016 3.80419 3.91244 3.842 3.88858 3.85967L3.70418 3.99586L3.77335 4.2144C3.78233 4.24267 3.75009 4.26613 3.72593 4.24883L3.53945 4.11554L3.35298 4.24883C3.32882 4.26609 3.29665 4.24267 3.30555 4.2144L3.37472 3.99586L3.19033 3.85967C3.16647 3.842 3.17875 3.80419 3.20844 3.80393L3.43766 3.80218L3.51017 3.58472C3.51949 3.55656 3.55934 3.55656 3.56873 3.58472Z" fill="#F5F5F5"/>
<path d="M3.56873 4.72227L3.64124 4.93973L3.87047 4.94147C3.90016 4.94173 3.91244 4.97955 3.88858 4.99721L3.70418 5.1334L3.77335 5.35194C3.78233 5.38022 3.75009 5.40367 3.72593 5.38638L3.53945 5.25308L3.35298 5.38638C3.32882 5.40367 3.29665 5.38022 3.30555 5.35194L3.37472 5.1334L3.19033 4.99721C3.16647 4.97955 3.17875 4.94173 3.20844 4.94147L3.43766 4.93973L3.51017 4.72227C3.51949 4.69414 3.55934 4.69414 3.56873 4.72227Z" fill="#F5F5F5"/>
<path d="M4.45158 0.751833L4.52409 0.969294L4.75332 0.971038C4.78301 0.971298 4.79529 1.00915 4.77143 1.02678L4.58703 1.16293L4.6562 1.38147C4.66518 1.40974 4.63294 1.4332 4.60878 1.4159L4.42227 1.28265L4.23579 1.41594C4.21163 1.43323 4.17946 1.40978 4.18837 1.3815L4.25754 1.16297L4.07314 1.02681C4.04928 1.00915 4.06156 0.971298 4.09125 0.971075L4.32047 0.969331L4.39299 0.75187C4.40237 0.723667 4.44219 0.723667 4.45158 0.751833Z" fill="#F5F5F5"/>
<path d="M4.45158 1.88938L4.52409 2.10684L4.75332 2.10859C4.78301 2.10885 4.79529 2.14666 4.77143 2.16433L4.58703 2.30052L4.6562 2.51905C4.66518 2.54733 4.63294 2.57079 4.60878 2.55349L4.42227 2.4202L4.23579 2.55349C4.21163 2.57075 4.17946 2.54733 4.18837 2.51905L4.25754 2.30052L4.07314 2.16433C4.04928 2.14666 4.06156 2.10885 4.09125 2.10859L4.32047 2.10684L4.39299 1.88938C4.40237 1.86125 4.44219 1.86125 4.45158 1.88938Z" fill="#F5F5F5"/>
<path d="M4.45158 3.02699L4.52409 3.24445L4.75332 3.24619C4.78301 3.24645 4.79529 3.28427 4.77143 3.30193L4.58703 3.43812L4.6562 3.65666C4.66518 3.68494 4.63294 3.70839 4.60878 3.6911L4.42227 3.55776L4.23579 3.69106C4.21163 3.70832 4.17946 3.6849 4.18837 3.65662L4.25754 3.43809L4.07314 3.30189C4.04928 3.28423 4.06156 3.24642 4.09125 3.24616L4.32047 3.24441L4.39299 3.02695C4.40237 2.99882 4.44219 2.99882 4.45158 3.02699Z" fill="#F5F5F5"/>
<path d="M4.45158 4.16456L4.52409 4.38202L4.75332 4.38376C4.78301 4.38402 4.79529 4.42187 4.77143 4.4395L4.58703 4.57569L4.6562 4.79423C4.66518 4.82251 4.63294 4.84596 4.60878 4.82867L4.42227 4.69537L4.23579 4.82867C4.21163 4.84592 4.17946 4.82251 4.18837 4.79423L4.25754 4.57569L4.07314 4.4395C4.04928 4.42191 4.06156 4.38402 4.09125 4.38376L4.32047 4.38202L4.39299 4.16456C4.40237 4.13639 4.44219 4.13639 4.45158 4.16456Z" fill="#F5F5F5"/>
<path d="M4.45158 5.3021L4.52409 5.51956L4.75332 5.52131C4.78301 5.52157 4.79529 5.55938 4.77143 5.57705L4.58703 5.71324L4.6562 5.93177C4.66518 5.96005 4.63294 5.9835 4.60878 5.96621L4.42227 5.83291L4.23579 5.96621C4.21163 5.98347 4.17946 5.96005 4.18837 5.93177L4.25754 5.71324L4.07314 5.57705C4.04928 5.55938 4.06156 5.52157 4.09125 5.52131L4.32047 5.51956L4.39299 5.3021C4.40237 5.27397 4.44219 5.27397 4.45158 5.3021Z" fill="#F5F5F5"/>
<path d="M5.33436 1.30955L5.40687 1.52701L5.63609 1.52875C5.66578 1.52901 5.67806 1.56687 5.6542 1.58449L5.46981 1.72068L5.53898 1.93922C5.54796 1.9675 5.51571 1.99095 5.49155 1.97366L5.30508 1.84036L5.1186 1.97366C5.09444 1.99091 5.06227 1.9675 5.07118 1.93922L5.14035 1.72068L4.95595 1.58449C4.93209 1.56683 4.94437 1.52901 4.97406 1.52875L5.20329 1.52701L5.2758 1.30955C5.28519 1.28142 5.32497 1.28142 5.33436 1.30955Z" fill="#F5F5F5"/>
<path d="M5.33436 2.44715L5.40687 2.66461L5.63609 2.66636C5.66578 2.66662 5.67806 2.70447 5.6542 2.72209L5.46981 2.85829L5.53898 3.07682C5.54796 3.1051 5.51571 3.12855 5.49155 3.11126L5.30508 2.97796L5.1186 3.11126C5.09444 3.12852 5.06227 3.10514 5.07118 3.07682L5.14035 2.85829L4.95595 2.72209C4.93209 2.7045 4.94437 2.66662 4.97406 2.66636L5.20329 2.66461L5.2758 2.44715C5.28519 2.41898 5.32497 2.41898 5.33436 2.44715Z" fill="#F5F5F5"/>
<path d="M5.33436 3.58472L5.40687 3.80218L5.63609 3.80393C5.66578 3.80419 5.67806 3.842 5.6542 3.85967L5.46981 3.99586L5.53898 4.2144C5.54796 4.24267 5.51571 4.26613 5.49155 4.24883L5.30508 4.11554L5.1186 4.24883C5.09444 4.26609 5.06227 4.24267 5.07118 4.2144L5.14035 3.99586L4.95595 3.85967C4.93209 3.842 4.94437 3.80419 4.97406 3.80393L5.20329 3.80218L5.2758 3.58472C5.28519 3.55656 5.32497 3.55656 5.33436 3.58472Z" fill="#F5F5F5"/>
<path d="M5.33436 4.72227L5.40687 4.93973L5.63609 4.94147C5.66578 4.94173 5.67806 4.97955 5.6542 4.99721L5.46981 5.1334L5.53898 5.35194C5.54796 5.38022 5.51571 5.40367 5.49155 5.38638L5.30508 5.25308L5.1186 5.38638C5.09444 5.40367 5.06227 5.38022 5.07118 5.35194L5.14035 5.1334L4.95595 4.99721C4.93209 4.97955 4.94437 4.94173 4.97406 4.94147L5.20329 4.93973L5.2758 4.72227C5.28519 4.69414 5.32497 4.69414 5.33436 4.72227Z" fill="#F5F5F5"/>
<path d="M6.21717 0.751837L6.28968 0.969298L6.51891 0.971042C6.54859 0.971302 6.56088 1.00915 6.53702 1.02678L6.35262 1.16293L6.42179 1.38147C6.43077 1.40975 6.39852 1.4332 6.37436 1.41591L6.18789 1.28261L6.00142 1.41591C5.97726 1.4332 5.94508 1.40975 5.95399 1.38147L6.02316 1.16293L5.83877 1.02678C5.8149 1.00912 5.82719 0.971265 5.85687 0.971042L6.0861 0.969298L6.15861 0.751837C6.16793 0.723671 6.20778 0.723671 6.21717 0.751837Z" fill="#F5F5F5"/>
<path d="M6.21717 1.88938L6.28968 2.10684L6.51891 2.10859C6.54859 2.10885 6.56088 2.14666 6.53702 2.16433L6.35262 2.30052L6.42179 2.51905C6.43077 2.54733 6.39852 2.57079 6.37436 2.55349L6.18789 2.4202L6.00142 2.55349C5.97726 2.57075 5.94508 2.54733 5.95399 2.51905L6.02316 2.30052L5.83877 2.16433C5.8149 2.14666 5.82719 2.10885 5.85687 2.10859L6.0861 2.10684L6.15861 1.88938C6.16793 1.86125 6.20778 1.86125 6.21717 1.88938Z" fill="#F5F5F5"/>
<path d="M6.21717 3.02698L6.28968 3.24444L6.51891 3.24619C6.54859 3.24645 6.56088 3.28426 6.53702 3.30193L6.35262 3.43812L6.42179 3.65666C6.43077 3.68493 6.39852 3.70839 6.37436 3.69109L6.18789 3.5578L6.00142 3.69109C5.97726 3.70835 5.94508 3.68497 5.95399 3.65666L6.02316 3.43812L5.83877 3.30193C5.8149 3.28426 5.82719 3.24645 5.85687 3.24619L6.0861 3.24444L6.15861 3.02698C6.16793 2.99882 6.20778 2.99882 6.21717 3.02698Z" fill="#F5F5F5"/>
<path d="M6.21717 4.16456L6.28968 4.38202L6.51891 4.38376C6.54859 4.38402 6.56088 4.42187 6.53702 4.4395L6.35262 4.57569L6.42179 4.79423C6.43077 4.82251 6.39852 4.84596 6.37436 4.82867L6.18789 4.69537L6.00142 4.82867C5.97726 4.84592 5.94508 4.82251 5.95399 4.79423L6.02316 4.57569L5.83877 4.4395C5.8149 4.42191 5.82719 4.38402 5.85687 4.38376L6.0861 4.38202L6.15861 4.16456C6.16793 4.13639 6.20778 4.13639 6.21717 4.16456Z" fill="#F5F5F5"/>
<path d="M6.21717 5.3021L6.28968 5.51956L6.51891 5.52131C6.54859 5.52157 6.56088 5.55938 6.53702 5.57705L6.35262 5.71324L6.42179 5.93177C6.43077 5.96005 6.39852 5.9835 6.37436 5.96621L6.18789 5.83291L6.00142 5.96621C5.97726 5.98347 5.94508 5.96005 5.95399 5.93177L6.02316 5.71324L5.83877 5.57705C5.8149 5.55938 5.82719 5.52157 5.85687 5.52131L6.0861 5.51956L6.15861 5.3021C6.16793 5.27397 6.20778 5.27397 6.21717 5.3021Z" fill="#F5F5F5"/>
<path d="M7.10193 1.30955L7.17445 1.52701L7.40367 1.52875C7.43336 1.52901 7.44564 1.56687 7.42178 1.58449L7.23738 1.72068L7.30656 1.93922C7.31554 1.9675 7.28329 1.99095 7.25913 1.97366L7.07266 1.84036L6.88618 1.97366C6.86202 1.99091 6.82985 1.9675 6.83876 1.93922L6.90793 1.72068L6.72353 1.58449C6.69967 1.56683 6.71195 1.52901 6.74164 1.52875L6.97086 1.52701L7.04338 1.30955C7.05273 1.28142 7.09255 1.28142 7.10193 1.30955Z" fill="#F5F5F5"/>
<path d="M7.10193 2.44715L7.17445 2.66461L7.40367 2.66636C7.43336 2.66662 7.44564 2.70447 7.42178 2.72209L7.23738 2.85829L7.30656 3.07682C7.31554 3.1051 7.28329 3.12855 7.25913 3.11126L7.07266 2.97796L6.88618 3.11126C6.86202 3.12852 6.82985 3.10514 6.83876 3.07682L6.90793 2.85829L6.72353 2.72209C6.69967 2.7045 6.71195 2.66662 6.74164 2.66636L6.97086 2.66461L7.04338 2.44715C7.05273 2.41898 7.09255 2.41898 7.10193 2.44715Z" fill="#F5F5F5"/>
<path d="M7.10193 3.58472L7.17445 3.80218L7.40367 3.80393C7.43336 3.80419 7.44564 3.842 7.42178 3.85967L7.23738 3.99586L7.30656 4.2144C7.31554 4.24267 7.28329 4.26613 7.25913 4.24883L7.07266 4.11554L6.88618 4.24883C6.86202 4.26609 6.82985 4.24267 6.83876 4.2144L6.90793 3.99586L6.72353 3.85967C6.69967 3.842 6.71195 3.80419 6.74164 3.80393L6.97086 3.80218L7.04338 3.58472C7.05273 3.55656 7.09255 3.55656 7.10193 3.58472Z" fill="#F5F5F5"/>
<path d="M7.10193 4.72227L7.17445 4.93973L7.40367 4.94147C7.43336 4.94173 7.44564 4.97955 7.42178 4.99721L7.23738 5.1334L7.30656 5.35194C7.31554 5.38022 7.28329 5.40367 7.25913 5.38638L7.07266 5.25308L6.88618 5.38638C6.86202 5.40367 6.82985 5.38022 6.83876 5.35194L6.90793 5.1334L6.72353 4.99721C6.69967 4.97955 6.71195 4.94173 6.74164 4.94147L6.97086 4.93973L7.04338 4.72227C7.05273 4.69414 7.09255 4.69414 7.10193 4.72227Z" fill="#F5F5F5"/>
<path d="M7.98475 0.751837L8.05726 0.969298L8.28648 0.971042C8.31617 0.971302 8.32846 1.00915 8.30459 1.02678L8.1202 1.16293L8.18937 1.38147C8.19835 1.40975 8.1661 1.4332 8.14194 1.41591L7.95547 1.28261L7.76899 1.41591C7.74484 1.4332 7.71266 1.40975 7.72157 1.38147L7.79074 1.16293L7.60634 1.02678C7.58248 1.00912 7.59477 0.971265 7.62445 0.971042L7.85368 0.969298L7.92619 0.751837C7.93554 0.723671 7.97532 0.723671 7.98475 0.751837Z" fill="#F5F5F5"/>
<path d="M7.98475 1.88938L8.05726 2.10684L8.28648 2.10859C8.31617 2.10885 8.32846 2.14666 8.30459 2.16433L8.1202 2.30052L8.18937 2.51905C8.19835 2.54733 8.1661 2.57079 8.14194 2.55349L7.95547 2.4202L7.76899 2.55349C7.74484 2.57075 7.71266 2.54733 7.72157 2.51905L7.79074 2.30052L7.60634 2.16433C7.58248 2.14666 7.59477 2.10885 7.62445 2.10859L7.85368 2.10684L7.92619 1.88938C7.93554 1.86125 7.97532 1.86125 7.98475 1.88938Z" fill="#F5F5F5"/>
<path d="M7.98475 3.02698L8.05726 3.24444L8.28648 3.24619C8.31617 3.24645 8.32846 3.28426 8.30459 3.30193L8.1202 3.43812L8.18937 3.65666C8.19835 3.68493 8.1661 3.70839 8.14194 3.69109L7.95547 3.5578L7.76899 3.69109C7.74484 3.70835 7.71266 3.68497 7.72157 3.65666L7.79074 3.43812L7.60634 3.30193C7.58248 3.28426 7.59477 3.24645 7.62445 3.24619L7.85368 3.24444L7.92619 3.02698C7.93554 2.99882 7.97532 2.99882 7.98475 3.02698Z" fill="#F5F5F5"/>
<path d="M7.98475 4.16456L8.05726 4.38202L8.28648 4.38376C8.31617 4.38402 8.32846 4.42187 8.30459 4.4395L8.1202 4.57569L8.18937 4.79423C8.19835 4.82251 8.1661 4.84596 8.14194 4.82867L7.95547 4.69537L7.76899 4.82867C7.74484 4.84592 7.71266 4.82251 7.72157 4.79423L7.79074 4.57569L7.60634 4.4395C7.58248 4.42191 7.59477 4.38402 7.62445 4.38376L7.85368 4.38202L7.92619 4.16456C7.93554 4.13639 7.97532 4.13639 7.98475 4.16456Z" fill="#F5F5F5"/>
<path d="M7.98475 5.3021L8.05726 5.51956L8.28648 5.52131C8.31617 5.52157 8.32846 5.55938 8.30459 5.57705L8.1202 5.71324L8.18937 5.93177C8.19835 5.96005 8.1661 5.9835 8.14194 5.96621L7.95547 5.83291L7.76899 5.96621C7.74484 5.98347 7.71266 5.96005 7.72157 5.93177L7.79074 5.71324L7.60634 5.57705C7.58248 5.55938 7.59477 5.52157 7.62445 5.52131L7.85368 5.51956L7.92619 5.3021C7.93554 5.27397 7.97532 5.27397 7.98475 5.3021Z" fill="#F5F5F5"/>
</svg>
